<?xml version="1.0" encoding="UTF-8"?>
<svg xmlns="http://www.w3.org/2000/svg" xmlns:xlink="http://www.w3.org/1999/xlink" width="100px" height="px" viewBox="0 0 100 95" version="1.1">
<g id="surface1">
<path style=" stroke:none;fill-rule:nonzero;fill:rgb(12.941177%,14.117648%,30.19608%);fill-opacity:1;" d="M 21.398438 1.742188 C 41.433594 -0.445312 52.40625 -0.285156 72.535156 0.835938 C 76.882812 1.074219 81.230469 1.394531 85.535156 2.089844 C 87.800781 2.453125 90.160156 2.976562 91.949219 4.425781 C 93.53125 5.703125 94.507812 7.578125 95.347656 9.445312 C 99.136719 17.804688 100.09375 26.488281 99.863281 35.53125 L 99.078125 66.195312 C 98.953125 71 98.800781 75.933594 97.03125 80.402344 C 94.753906 86.152344 89.6875 89.527344 83.773438 90.644531 C 77.070312 91.925781 70.25 92.414062 63.429688 92.714844 C 52.289062 93.214844 41.121094 93.230469 29.972656 92.753906 C 23.851562 92.496094 17.734375 92.085938 11.667969 91.214844 C 9.46875 90.902344 7.203125 90.496094 5.394531 89.207031 C 1.359375 86.335938 1.179688 80.492188 1.550781 75.542969 C 2.214844 66.84375 3.351562 58.164062 3.472656 49.4375 C 3.652344 37.53125 1.96875 25.445312 4.589844 13.835938 C 5.210938 11.105469 6.085938 8.386719 7.714844 6.121094 C 10.105469 2.808594 13.78125 1.367188 17.785156 1.847656 "/>
<path style=" stroke:none;fill-rule:nonzero;fill:rgb(57.254905%,58.039218%,78.823531%);fill-opacity:1;" d="M 26.09375 21.183594 L 32.875 21.609375 L 36.164062 21.8125 C 36.472656 21.832031 37.304688 21.777344 37.445312 21.867188 C 37.738281 22.0625 37.949219 23.207031 38.066406 23.527344 C 39.625 27.695312 41.183594 31.863281 42.726562 36.039062 C 45.699219 44.125 48.542969 52.28125 50.6875 60.640625 C 51.898438 65.386719 52.890625 70.191406 53.519531 75.054688 L 54.484375 73.78125 C 52.273438 74.289062 50.046875 74.796875 47.835938 75.292969 C 46.761719 75.53125 45.691406 75.773438 44.609375 76.011719 C 43.929688 76.164062 42.371094 76.804688 41.75 76.234375 C 41.21875 75.753906 41.121094 74.476562 40.953125 73.828125 C 40.652344 72.6875 40.359375 71.5625 40.058594 70.421875 C 39.484375 68.230469 38.90625 66.027344 38.332031 63.832031 C 37.757812 61.636719 37.3125 59.46875 36.621094 57.355469 C 35.984375 55.425781 34.585938 54.75 32.65625 54.679688 C 31.042969 54.617188 28.660156 54.128906 27.429688 55.441406 C 26.261719 56.6875 26.703125 58.988281 26.710938 60.535156 C 26.730469 64.292969 26.6875 68.183594 25.347656 71.746094 C 25.039062 72.574219 24.648438 73.390625 24.160156 74.128906 C 23.542969 75.054688 22.683594 74.855469 21.671875 74.769531 C 20.601562 74.679688 19.519531 74.5625 18.457031 74.402344 C 17.902344 74.324219 17.34375 74.234375 16.792969 74.136719 C 16.414062 74.066406 15.773438 74.058594 15.464844 73.808594 C 14.925781 73.382812 15.085938 72.359375 15.148438 71.765625 C 15.253906 70.671875 15.4375 69.570312 15.597656 68.488281 C 15.917969 66.308594 16.261719 64.140625 16.632812 61.972656 C 17.378906 57.648438 18.21875 53.328125 19.167969 49.039062 C 21.300781 39.378906 23.96875 29.84375 27.128906 20.480469 C 27.667969 18.871094 25.136719 18.179688 24.597656 19.777344 C 21.65625 28.476562 19.148438 37.316406 17.105469 46.265625 C 16.058594 50.824219 15.128906 55.40625 14.324219 60.011719 C 13.933594 62.25 13.5625 64.488281 13.226562 66.726562 C 12.921875 68.753906 12.332031 70.984375 12.5 73.035156 C 12.640625 74.902344 13.683594 76.171875 15.527344 76.554688 C 17.742188 77.015625 20.054688 77.300781 22.3125 77.433594 C 24.375 77.558594 25.683594 76.757812 26.703125 74.992188 C 27.722656 73.222656 28.316406 71.417969 28.695312 69.507812 C 29.078125 67.597656 29.253906 65.511719 29.316406 63.503906 C 29.34375 62.570312 29.351562 61.636719 29.34375 60.703125 C 29.34375 59.707031 29.183594 58.605469 29.324219 57.621094 C 29.386719 57.140625 29.28125 57.21875 29.839844 57.210938 C 30.371094 57.210938 30.910156 57.238281 31.449219 57.257812 C 32.257812 57.273438 33.613281 57.023438 34.046875 57.859375 C 34.523438 58.792969 34.648438 60.089844 34.914062 61.101562 C 35.230469 62.3125 35.542969 63.511719 35.859375 64.71875 C 36.550781 67.339844 37.234375 69.96875 37.925781 72.589844 C 38.410156 74.441406 38.640625 77.308594 40.378906 78.472656 C 42.265625 79.746094 45.035156 78.589844 47.027344 78.144531 C 49.746094 77.539062 52.464844 76.925781 55.183594 76.296875 C 55.679688 76.179688 56.222656 75.578125 56.152344 75.027344 C 53.714844 56.472656 46.683594 38.953125 40.136719 21.554688 C 39.765625 20.558594 39.386719 19.636719 38.269531 19.34375 C 37.066406 19.023438 35.65625 19.121094 34.425781 19.039062 L 26.109375 18.527344 C 24.429688 18.417969 24.429688 21.050781 26.109375 21.15625 Z M 26.09375 21.183594 "/>
<path style=" stroke:none;fill-rule:nonzero;fill:rgb(57.254905%,58.039218%,78.823531%);fill-opacity:1;" d="M 31.699219 31.195312 C 32.496094 32.296875 32.34375 33.746094 32.644531 35.023438 C 33.007812 36.5625 33.902344 37.886719 34.578125 39.289062 C 35.285156 40.765625 35.648438 42.390625 36.011719 43.980469 C 36.402344 45.695312 36.773438 47.410156 37.152344 49.125 L 38.304688 47.617188 C 34.773438 47.570312 31.230469 47.527344 27.695312 47.480469 L 28.882812 48.671875 C 29.554688 42.683594 31.042969 36.714844 33.496094 31.203125 C 34.117188 29.808594 32.070312 28.601562 31.441406 29.996094 C 28.792969 35.914062 27.21875 42.230469 26.5 48.664062 C 26.429688 49.3125 27.101562 49.855469 27.6875 49.855469 C 31.21875 49.898438 34.761719 49.945312 38.296875 49.988281 C 39.101562 49.996094 39.605469 49.214844 39.449219 48.476562 C 38.695312 45.101562 38.191406 41.527344 36.765625 38.355469 C 36.125 36.945312 35.195312 35.65625 34.886719 34.109375 C 34.605469 32.679688 34.648438 31.214844 33.753906 29.976562 C 32.859375 28.742188 30.796875 29.933594 31.699219 31.1875 Z M 31.699219 31.195312 "/>
<path style=" stroke:none;fill-rule:nonzero;fill:rgb(57.254905%,58.039218%,78.823531%);fill-opacity:1;" d="M 26.039062 27.410156 C 28.332031 25.367188 31.035156 23.917969 33.984375 23.082031 L 32.707031 20.878906 C 27.988281 25.277344 23.230469 29.800781 20.078125 35.515625 C 19.328125 36.875 21.027344 38.054688 22.144531 37.105469 C 24.648438 34.980469 27.242188 32.847656 30.53125 32.136719 L 29.253906 29.933594 C 25.550781 33.664062 22.25 37.769531 19.351562 42.160156 C 18.664062 43.207031 20.089844 44.773438 21.152344 43.964844 C 24.046875 41.75 27.058594 39.714844 30.203125 37.867188 L 28.402344 36.066406 C 26.5 38.5625 24.578125 41.058594 22.761719 43.625 C 21.125 45.9375 19.691406 48.386719 18.9375 51.144531 C 18.554688 52.519531 20.160156 53.1875 21.132812 52.421875 C 23.753906 50.359375 26.492188 48.441406 29.316406 46.671875 L 27.730469 44.601562 C 25.660156 46.574219 23.578125 48.558594 21.628906 50.652344 C 20.699219 51.648438 19.796875 52.679688 18.945312 53.738281 C 18.09375 54.792969 17.332031 55.851562 17.253906 57.308594 C 17.183594 58.492188 18.714844 58.996094 19.496094 58.242188 C 21.984375 55.835938 24.683594 53.703125 27.605469 51.855469 L 26.023438 49.785156 C 22.488281 54.332031 18.929688 58.917969 16.644531 64.25 C 16.066406 65.597656 17.519531 66.871094 18.707031 65.839844 C 21.152344 63.714844 23.59375 61.601562 26.039062 59.476562 L 24.1875 57.621094 C 22.53125 59.726562 20.875 61.824219 19.21875 63.929688 C 17.75 65.792969 16.039062 67.597656 15.128906 69.820312 C 14.695312 70.867188 16.164062 71.933594 17.058594 71.304688 C 20.140625 69.144531 23.214844 66.984375 26.296875 64.824219 L 24.5 63.023438 C 23.019531 65.144531 21.523438 67.261719 20.054688 69.394531 C 18.769531 71.257812 16.828125 73.375 17.378906 75.808594 C 17.609375 76.839844 18.867188 77 19.574219 76.386719 C 22.566406 73.765625 25.5625 71.144531 28.554688 68.53125 C 29.828125 67.410156 27.96875 65.5625 26.703125 66.675781 C 23.710938 69.296875 20.71875 71.917969 17.722656 74.527344 L 19.921875 75.105469 C 19.707031 74.164062 20.769531 73.027344 21.25 72.308594 C 21.839844 71.417969 22.453125 70.546875 23.054688 69.667969 C 24.296875 67.890625 25.535156 66.125 26.773438 64.347656 C 27.519531 63.28125 26.039062 61.804688 24.976562 62.542969 C 21.894531 64.703125 18.820312 66.859375 15.738281 69.019531 L 17.671875 70.503906 C 18.496094 68.511719 20.308594 66.761719 21.621094 65.09375 C 23.097656 63.21875 24.570312 61.34375 26.046875 59.46875 C 27.085938 58.152344 25.5 56.472656 24.199219 57.609375 C 21.753906 59.734375 19.308594 61.847656 16.863281 63.972656 L 18.929688 65.5625 C 21.125 60.4375 24.5 56.003906 27.890625 51.632812 C 28.730469 50.546875 27.679688 48.699219 26.304688 49.5625 C 23.195312 51.523438 20.308594 53.800781 17.660156 56.359375 L 19.902344 57.292969 C 19.964844 56.207031 21.214844 55.105469 21.878906 54.324219 C 22.675781 53.390625 23.507812 52.492188 24.355469 51.605469 C 26.058594 49.835938 27.835938 48.140625 29.617188 46.441406 C 30.6875 45.421875 29.296875 43.574219 28.03125 44.371094 C 25.011719 46.265625 22.117188 48.328125 19.316406 50.539062 L 21.515625 51.816406 C 22.242188 49.160156 23.703125 46.84375 25.296875 44.621094 C 27.050781 42.167969 28.882812 39.769531 30.714844 37.371094 C 31.546875 36.277344 29.972656 34.953125 28.917969 35.566406 C 25.78125 37.414062 22.761719 39.449219 19.867188 41.664062 L 21.664062 43.464844 C 24.4375 39.253906 27.605469 35.355469 31.148438 31.773438 C 32.105469 30.804688 31.125 29.304688 29.875 29.570312 C 26.144531 30.378906 23.179688 32.8125 20.335938 35.222656 L 22.398438 36.8125 C 25.445312 31.292969 30.058594 26.964844 34.613281 22.710938 C 35.585938 21.804688 34.566406 20.160156 33.335938 20.507812 C 29.945312 21.464844 26.871094 23.164062 24.234375 25.507812 C 22.964844 26.636719 24.828125 28.496094 26.082031 27.367188 Z M 26.039062 27.410156 "/>
<path style=" stroke:none;fill-rule:nonzero;fill:rgb(57.254905%,58.039218%,78.823531%);fill-opacity:1;" d="M 25.84375 58.320312 C 28.484375 55.746094 31.273438 53.355469 34.550781 51.632812 L 32.964844 49.5625 C 31.28125 51.375 29.734375 53.292969 28.296875 55.308594 C 27.660156 56.207031 28.546875 57.195312 29.429688 57.292969 C 31.40625 57.503906 32.859375 55.824219 34.257812 54.695312 C 35.941406 53.347656 37.710938 52.121094 39.554688 50.992188 L 37.625 49.507812 C 36.648438 52.210938 34.089844 53.941406 33.46875 56.839844 C 33.203125 58.082031 34.699219 59.09375 35.667969 58.117188 C 38.359375 55.382812 41.296875 52.929688 44.488281 50.789062 L 42.6875 50.316406 C 42.457031 49.808594 42.324219 50.324219 42.121094 50.617188 C 41.988281 50.804688 41.847656 51 41.707031 51.1875 C 41.316406 51.710938 40.898438 52.21875 40.492188 52.734375 C 39.714844 53.691406 38.933594 54.644531 38.179688 55.621094 C 36.683594 57.566406 35.402344 59.609375 34.621094 61.957031 C 34.195312 63.253906 35.90625 64.089844 36.816406 63.234375 C 38.519531 61.636719 40.261719 60.074219 42.042969 58.570312 C 42.882812 57.859375 43.734375 57.167969 44.59375 56.472656 C 45.097656 56.074219 45.601562 55.675781 46.117188 55.285156 C 46.285156 55.148438 47.152344 54.304688 47.347656 54.351562 L 46.558594 52.414062 C 43.8125 57.203125 41.078125 62.097656 39.863281 67.535156 C 39.582031 68.832031 41.078125 69.710938 42.058594 68.816406 C 45.195312 65.945312 48.25 62.996094 51.226562 59.949219 L 49.164062 58.359375 C 46.59375 62.96875 42.386719 66.433594 40.546875 71.480469 C 40.078125 72.769531 41.855469 73.621094 42.742188 72.761719 C 45.769531 69.820312 48.835938 66.921875 51.933594 64.054688 L 49.695312 63.121094 C 49.695312 64.160156 48.941406 65.003906 48.347656 65.785156 C 47.648438 66.710938 46.949219 67.644531 46.292969 68.609375 C 45.035156 70.46875 43.980469 72.441406 43.265625 74.574219 C 42.820312 75.878906 44.550781 76.6875 45.460938 75.851562 C 48.199219 73.328125 50.933594 70.796875 53.660156 68.273438 L 51.421875 67.339844 C 51.4375 69.953125 49.578125 72.148438 49.765625 74.832031 C 49.84375 75.96875 51.148438 76.570312 52.007812 75.761719 C 53.183594 74.660156 54 73.363281 54.582031 71.871094 C 55.195312 70.289062 52.660156 69.605469 52.050781 71.171875 C 51.632812 72.234375 50.980469 73.125 50.144531 73.90625 L 52.386719 74.839844 C 52.210938 72.234375 54.0625 69.980469 54.042969 67.347656 C 54.042969 66.175781 52.625 65.652344 51.800781 66.417969 C 49.066406 68.941406 46.328125 71.472656 43.601562 73.996094 L 45.796875 75.273438 C 46.566406 72.992188 47.835938 70.9375 49.234375 68.984375 C 50.519531 67.191406 52.308594 65.464844 52.324219 63.121094 C 52.324219 61.9375 50.90625 61.433594 50.085938 62.1875 C 46.984375 65.046875 43.921875 67.953125 40.890625 70.894531 L 43.085938 72.175781 C 44.832031 67.402344 49.003906 64.054688 51.4375 59.679688 C 52.15625 58.394531 50.4375 57 49.375 58.089844 C 46.410156 61.128906 43.351562 64.089844 40.210938 66.957031 L 42.40625 68.238281 C 43.566406 63.003906 46.195312 58.347656 48.835938 53.738281 C 49.234375 53.035156 48.886719 51.988281 48.046875 51.800781 C 46.699219 51.507812 45.816406 52.210938 44.796875 53 C 43.671875 53.863281 42.554688 54.742188 41.46875 55.640625 C 39.234375 57.46875 37.074219 59.378906 34.964844 61.359375 L 37.164062 62.640625 C 38.03125 60.011719 39.738281 57.808594 41.46875 55.683594 C 42.316406 54.636719 43.175781 53.585938 43.992188 52.511719 C 44.804688 51.4375 45.621094 50.398438 44.984375 48.992188 C 44.699219 48.371094 43.734375 48.15625 43.183594 48.523438 C 39.820312 50.789062 36.683594 53.375 33.832031 56.261719 L 36.03125 57.539062 C 36.621094 54.75 39.226562 52.882812 40.183594 50.210938 C 40.582031 49.117188 39.191406 48.148438 38.253906 48.726562 C 36.65625 49.703125 35.117188 50.753906 33.636719 51.890625 C 32.910156 52.441406 32.203125 53.019531 31.503906 53.605469 C 30.894531 54.121094 30.308594 54.75 29.457031 54.660156 L 30.589844 56.644531 C 31.894531 54.8125 33.320312 53.078125 34.84375 51.425781 C 35.859375 50.324219 34.585938 48.664062 33.257812 49.355469 C 29.792969 51.179688 26.800781 53.726562 24.019531 56.457031 C 22.808594 57.636719 24.667969 59.503906 25.871094 58.3125 Z M 25.84375 58.320312 "/>
<path style=" stroke:none;fill-rule:nonzero;fill:rgb(57.254905%,58.039218%,78.823531%);fill-opacity:1;" d="M 33.1875 30.273438 C 34.480469 28.273438 36.367188 26.726562 38.597656 25.890625 L 37.324219 23.6875 C 34.976562 26.378906 32.609375 29.1875 31.769531 32.75 C 31.523438 33.789062 32.699219 34.917969 33.699219 34.234375 C 35.445312 33.035156 37.164062 31.792969 38.84375 30.492188 L 36.914062 29.703125 C 37.214844 30.8125 36.65625 31.890625 36.222656 32.894531 C 35.738281 34.019531 35.339844 35.105469 35.269531 36.339844 C 35.195312 37.574219 36.710938 37.976562 37.507812 37.273438 C 38.703125 36.214844 39.890625 35.160156 41.085938 34.101562 L 38.84375 33.167969 C 38.535156 36.003906 35.570312 38.625 36.429688 41.617188 C 36.597656 42.214844 37.058594 42.738281 37.675781 42.878906 C 38.535156 43.074219 39.128906 42.550781 39.714844 42.007812 C 41.175781 40.667969 42.59375 39.273438 44.035156 37.902344 L 41.792969 36.972656 C 41.527344 40.925781 39.28125 44.460938 40.199219 48.511719 C 40.429688 49.515625 41.707031 49.738281 42.398438 49.089844 C 43.617188 47.933594 44.839844 46.808594 46.277344 45.917969 L 44.34375 44.433594 C 44.0625 45.6875 43.789062 46.941406 43.503906 48.203125 C 43.28125 49.214844 42.917969 50.296875 43.210938 51.339844 C 43.460938 52.234375 44.222656 52.875 45.160156 52.894531 C 46.265625 52.910156 47.367188 52.058594 48.304688 51.550781 C 49.792969 50.753906 48.464844 48.476562 46.976562 49.277344 C 46.773438 49.382812 45.285156 50.042969 45.273438 50.191406 L 45.71875 50.609375 C 45.710938 50.484375 45.71875 50.371094 45.734375 50.246094 C 45.84375 49.980469 45.878906 49.589844 45.9375 49.320312 C 46.25 47.925781 46.558594 46.53125 46.871094 45.136719 C 47.109375 44.0625 45.957031 43.023438 44.9375 43.652344 C 43.316406 44.648438 41.910156 45.925781 40.527344 47.234375 L 42.726562 47.8125 C 42.308594 45.980469 42.777344 44.175781 43.273438 42.417969 C 43.769531 40.660156 44.292969 38.847656 44.417969 36.972656 C 44.496094 35.78125 42.953125 35.300781 42.175781 36.039062 C 41.351562 36.820312 40.527344 37.601562 39.703125 38.382812 C 39.296875 38.773438 38.882812 39.164062 38.472656 39.558594 C 38.269531 39.753906 38.066406 39.949219 37.855469 40.144531 C 37.347656 40.535156 37.464844 40.570312 38.191406 40.257812 L 38.976562 40.863281 C 38.820312 40.648438 39.128906 39.636719 39.269531 39.21875 C 39.511719 38.542969 39.835938 37.902344 40.148438 37.253906 C 40.785156 35.921875 41.308594 34.632812 41.46875 33.160156 C 41.601562 31.933594 39.988281 31.550781 39.226562 32.226562 C 38.03125 33.285156 36.84375 34.339844 35.648438 35.398438 L 37.890625 36.332031 C 38.046875 33.710938 40.199219 31.773438 39.449219 28.992188 C 39.246094 28.253906 38.207031 27.675781 37.515625 28.203125 C 35.835938 29.488281 34.117188 30.734375 32.371094 31.941406 L 34.300781 33.425781 C 35.039062 30.308594 37.128906 27.871094 39.183594 25.519531 C 39.96875 24.621094 39.234375 22.824219 37.90625 23.316406 C 35.003906 24.398438 32.609375 26.292969 30.929688 28.902344 C 30.007812 30.324219 32.273438 31.648438 33.195312 30.234375 Z M 33.1875 30.273438 "/>
<path style=" stroke:none;fill-rule:nonzero;fill:rgb(57.254905%,58.039218%,78.823531%);fill-opacity:1;" d="M 62.457031 53.375 C 62.820312 44.230469 72.242188 38.722656 80.664062 40.445312 C 84.410156 41.210938 88.332031 43.484375 89.40625 47.402344 C 90.070312 49.84375 89.910156 52.617188 89.785156 55.125 C 89.722656 56.347656 89.628906 57.574219 89.476562 58.792969 C 89.457031 58.910156 89.28125 59.929688 89.316406 59.949219 L 89.617188 59.742188 C 90.070312 59.523438 90.015625 59.449219 89.476562 59.539062 C 88.820312 59.378906 87.945312 59.53125 87.261719 59.53125 C 81.214844 59.496094 75.15625 59.460938 69.105469 59.425781 C 68.460938 59.425781 67.707031 60.035156 67.796875 60.738281 C 68.363281 65.171875 72.339844 67.589844 76.484375 68.050781 C 79.113281 68.34375 81.789062 68.035156 84.410156 67.863281 C 84.988281 67.828125 85.554688 67.792969 86.128906 67.75 C 86.414062 67.730469 86.703125 67.714844 86.988281 67.695312 L 87.414062 67.667969 C 87.917969 67.722656 87.980469 67.660156 87.589844 67.484375 L 87.332031 67.324219 C 87.359375 67.605469 87.386719 67.890625 87.414062 68.175781 C 87.441406 68.460938 87.464844 68.746094 87.484375 69.027344 C 87.535156 69.738281 87.589844 70.449219 87.632812 71.160156 C 87.667969 71.800781 87.707031 72.441406 87.722656 73.089844 C 87.742188 73.632812 87.800781 73.570312 87.269531 73.683594 C 85.933594 73.960938 84.527344 74.03125 83.171875 74.101562 C 80.65625 74.246094 78.121094 74.171875 75.617188 73.90625 C 73.109375 73.640625 70.578125 73.1875 68.167969 72.441406 C 65.757812 71.695312 64.464844 70.371094 63.519531 68.167969 C 61.3125 63.066406 61.082031 57.195312 62.542969 51.863281 C 62.996094 50.226562 60.464844 49.527344 60.011719 51.160156 C 58.550781 56.464844 58.648438 62.1875 60.429688 67.402344 C 61.234375 69.773438 62.332031 72.164062 64.464844 73.621094 C 66.601562 75.078125 69.433594 75.578125 71.933594 76.019531 C 74.800781 76.535156 77.722656 76.8125 80.648438 76.804688 C 82.046875 76.804688 83.445312 76.742188 84.84375 76.609375 C 86.128906 76.492188 87.632812 76.492188 88.820312 75.941406 C 89.796875 75.496094 90.328125 74.660156 90.363281 73.59375 C 90.414062 72.09375 90.238281 70.53125 90.113281 69.027344 C 90.035156 67.980469 90.195312 66.371094 89.398438 65.546875 C 88.519531 64.621094 86.792969 65.074219 85.695312 65.144531 C 82.542969 65.351562 79.160156 65.902344 76.015625 65.351562 C 73.625 64.933594 70.761719 63.449219 70.417969 60.738281 L 69.105469 62.054688 C 75.457031 62.089844 81.796875 62.125 88.148438 62.167969 C 89.289062 62.167969 90.894531 62.488281 91.59375 61.316406 C 92.238281 60.230469 92.160156 58.304688 92.265625 57.085938 C 92.523438 54.082031 92.664062 50.9375 92.1875 47.953125 C 90.460938 37.253906 76.15625 35.433594 68.222656 39.859375 C 63.332031 42.585938 60.046875 47.765625 59.824219 53.390625 C 59.753906 55.089844 62.386719 55.078125 62.449219 53.390625 Z M 62.457031 53.375 "/>
<path style=" stroke:none;fill-rule:nonzero;fill:rgb(57.254905%,58.039218%,78.823531%);fill-opacity:1;" d="M 71.710938 53.710938 C 71.367188 50.992188 73.613281 48.957031 76.246094 48.992188 C 78.875 49.027344 80.929688 51.082031 81.3125 53.667969 L 81.648438 52.386719 C 81.867188 52.191406 81.710938 52.316406 81.480469 52.324219 C 81.222656 52.332031 80.957031 52.34375 80.699219 52.351562 C 80.132812 52.367188 79.574219 52.367188 79.007812 52.378906 C 77.902344 52.378906 76.792969 52.378906 75.6875 52.367188 C 73.382812 52.367188 71.074219 52.351562 68.769531 52.34375 C 67.078125 52.34375 67.078125 54.972656 68.769531 54.972656 C 71.570312 54.980469 74.375 54.988281 77.175781 55.007812 C 78.476562 55.007812 79.789062 55.027344 81.089844 54.972656 C 82.390625 54.917969 84.09375 54.617188 83.828125 52.859375 C 83.054688 47.828125 77.414062 44.96875 72.890625 47.101562 C 70.425781 48.265625 68.734375 50.949219 69.089844 53.703125 C 69.179688 54.402344 69.628906 55.015625 70.398438 55.015625 C 71.039062 55.015625 71.800781 54.414062 71.710938 53.703125 Z M 71.710938 53.710938 "/>
<path style=" stroke:none;fill-rule:nonzero;fill:rgb(57.254905%,58.039218%,78.823531%);fill-opacity:1;" d="M 64.359375 49.152344 C 67.449219 46.015625 70.941406 43.378906 74.800781 41.261719 L 73.003906 39.457031 C 68.789062 45.074219 64.582031 50.691406 60.367188 56.3125 C 59.585938 57.355469 61.128906 58.863281 62.164062 58.117188 C 64.261719 56.605469 66.351562 55.097656 68.453125 53.585938 L 67.125 53.585938 C 66.671875 53.238281 66.992188 53.140625 66.644531 53.585938 C 66.476562 53.800781 66.378906 54.128906 66.253906 54.367188 C 65.929688 55.015625 65.601562 55.675781 65.273438 56.324219 C 64.652344 57.558594 64.015625 58.792969 63.386719 60.027344 C 62.667969 61.414062 64.308594 62.542969 65.449219 61.617188 C 66.351562 60.890625 67.246094 60.160156 68.152344 59.433594 L 66.085938 57.84375 C 64.527344 60.144531 63.023438 62.472656 62.199219 65.15625 C 61.871094 66.238281 63.164062 67.25 64.128906 66.636719 C 65.769531 65.597656 67.308594 64.433594 68.761719 63.15625 L 66.566406 62.578125 C 66.769531 63.804688 66.15625 65.066406 65.929688 66.246094 C 65.679688 67.527344 65.714844 68.699219 66.316406 69.871094 C 66.769531 70.753906 68.117188 70.707031 68.585938 69.871094 C 69.460938 68.316406 70.507812 66.933594 71.765625 65.660156 L 69.566406 65.082031 C 69.734375 65.980469 69.320312 66.878906 69.0625 67.714844 C 68.789062 68.601562 68.585938 69.492188 68.636719 70.421875 C 68.691406 71.355469 69.734375 72.136719 70.613281 71.5625 C 71.488281 70.984375 72.1875 70.238281 72.890625 69.445312 C 73.535156 68.71875 74.136719 67.980469 75.121094 67.765625 L 73.464844 66.496094 C 73.277344 67.972656 73.023438 69.429688 72.703125 70.875 C 72.480469 71.898438 73.3125 72.6875 74.316406 72.492188 C 75.582031 72.246094 76.644531 71.550781 77.671875 70.789062 C 78.59375 70.105469 79.585938 69.214844 80.789062 69.152344 L 79.65625 67.171875 C 78.902344 68.789062 78.460938 70.414062 78.300781 72.191406 C 78.21875 73.035156 79.203125 73.703125 79.957031 73.460938 C 82.480469 72.671875 84.773438 71.375 87.039062 70.03125 L 85.066406 68.894531 C 85.003906 70.351562 84.597656 72.28125 85.074219 73.675781 C 85.554688 75.070312 87.183594 75.410156 88.164062 74.402344 C 89.351562 73.195312 87.492188 71.328125 86.316406 72.546875 L 87.546875 72.503906 L 87.574219 71.898438 C 87.589844 71.5625 87.597656 71.230469 87.617188 70.894531 C 87.644531 70.226562 87.667969 69.5625 87.695312 68.894531 C 87.742188 67.890625 86.554688 67.269531 85.722656 67.757812 C 83.648438 68.984375 81.566406 70.203125 79.265625 70.921875 L 80.921875 72.191406 C 81.035156 70.914062 81.371094 69.660156 81.914062 68.496094 C 82.304688 67.652344 81.851562 66.460938 80.78125 66.515625 C 79.363281 66.585938 78.183594 67.164062 77.050781 67.980469 C 75.917969 68.796875 74.953125 69.675781 73.613281 69.945312 L 75.226562 71.5625 C 75.597656 69.882812 75.875 68.195312 76.085938 66.488281 C 76.199219 65.589844 75.164062 65.046875 74.429688 65.21875 C 72.039062 65.757812 71.179688 68.042969 69.292969 69.285156 L 71.269531 70.421875 C 71.207031 69.359375 71.632812 68.414062 71.914062 67.410156 C 72.199219 66.40625 72.296875 65.421875 72.101562 64.382812 C 71.90625 63.34375 70.558594 63.148438 69.902344 63.804688 C 68.496094 65.21875 67.292969 66.808594 66.308594 68.550781 L 68.574219 68.550781 C 68.078125 67.582031 68.574219 66.371094 68.832031 65.394531 C 69.132812 64.214844 69.285156 63.09375 69.082031 61.886719 C 68.902344 60.835938 67.558594 60.722656 66.882812 61.308594 C 65.601562 62.445312 64.234375 63.457031 62.785156 64.371094 L 64.714844 65.855469 C 65.46875 63.40625 66.902344 61.273438 68.335938 59.175781 C 69.238281 57.84375 67.34375 56.714844 66.273438 57.585938 C 65.371094 58.3125 64.476562 59.042969 63.570312 59.769531 L 65.636719 61.359375 C 66.636719 59.414062 67.628906 57.46875 68.601562 55.503906 C 69.328125 54.046875 69.984375 52.492188 68.433594 51.320312 C 68.097656 51.0625 67.449219 51.070312 67.105469 51.320312 C 65.007812 52.832031 62.917969 54.339844 60.816406 55.851562 L 62.617188 57.65625 C 66.832031 52.039062 71.039062 46.425781 75.253906 40.800781 C 76.09375 39.679688 74.507812 38.417969 73.457031 38.996094 C 69.417969 41.210938 65.722656 44.007812 62.484375 47.296875 C 61.296875 48.503906 63.148438 50.359375 64.332031 49.152344 Z M 64.359375 49.152344 "/>
<path style=" stroke:none;fill-rule:nonzero;fill:rgb(57.254905%,58.039218%,78.823531%);fill-opacity:1;" d="M 74.191406 47.101562 C 75.609375 45.242188 77.421875 43.75 79.46875 42.640625 L 77.539062 41.847656 C 77.6875 42.578125 77.015625 43.414062 76.679688 44 C 76.164062 44.914062 75.75 45.863281 75.765625 46.929688 C 75.785156 47.996094 76.855469 48.460938 77.742188 48.070312 C 80.25 46.976562 82.507812 44.40625 85.386719 44.453125 L 84.117188 42.789062 C 83.851562 44.070312 82.957031 45.046875 82.207031 46.0625 C 81.371094 47.1875 80.753906 48.378906 80.683594 49.808594 C 80.621094 51.054688 82.109375 51.410156 82.921875 50.742188 C 84.613281 49.339844 86.316406 47.933594 88.007812 46.53125 L 85.941406 44.941406 C 85.289062 46.476562 84.625 48.015625 83.96875 49.5625 C 83.613281 50.378906 83.257812 51.207031 82.914062 52.023438 C 82.640625 52.664062 82.390625 53.285156 82.570312 53.996094 C 82.726562 54.636719 83.171875 55.125 83.828125 55.257812 C 84.695312 55.433594 85.289062 54.777344 85.953125 54.324219 C 87.253906 53.433594 88.617188 52.652344 90.042969 51.96875 L 88.066406 50.832031 C 88.078125 51.941406 87.289062 52.980469 86.773438 53.914062 C 86.136719 55.089844 85.492188 56.269531 84.851562 57.441406 C 84.101562 58.828125 85.785156 59.9375 86.917969 59.03125 C 88.175781 58.027344 89.441406 57.015625 90.699219 56.011719 C 91.257812 55.566406 91.160156 54.617188 90.699219 54.15625 C 90.148438 53.605469 89.398438 53.710938 88.847656 54.15625 C 87.589844 55.160156 86.324219 56.171875 85.066406 57.175781 L 87.128906 58.765625 C 87.875 57.390625 88.625 56.019531 89.371094 54.644531 C 90.027344 53.433594 90.714844 52.246094 90.699219 50.8125 C 90.691406 49.757812 89.609375 49.25 88.722656 49.675781 C 86.890625 50.554688 85.15625 51.605469 83.523438 52.832031 L 84.535156 52.699219 L 84.382812 52.671875 L 84.960938 53.007812 C 85.039062 53.550781 85.121094 53.65625 85.191406 53.320312 L 85.324219 53.007812 C 85.445312 52.699219 85.589844 52.394531 85.722656 52.085938 C 86.003906 51.417969 86.289062 50.753906 86.582031 50.085938 C 87.128906 48.804688 87.679688 47.519531 88.226562 46.238281 C 88.8125 44.871094 87.359375 43.652344 86.164062 44.648438 C 84.472656 46.050781 82.773438 47.457031 81.082031 48.859375 L 83.320312 49.792969 C 83.375 48.664062 84.242188 47.695312 84.898438 46.84375 C 85.675781 45.820312 86.414062 44.753906 86.667969 43.476562 C 86.847656 42.640625 86.296875 41.824219 85.402344 41.8125 C 81.894531 41.761719 79.460938 44.46875 76.429688 45.785156 L 78.40625 46.921875 C 78.398438 45.980469 79.078125 45.171875 79.496094 44.371094 C 80.042969 43.324219 80.328125 42.3125 80.078125 41.136719 C 79.894531 40.277344 78.859375 39.972656 78.148438 40.347656 C 75.6875 41.679688 73.625 43.519531 71.933594 45.75 C 71.5 46.316406 71.84375 47.222656 72.402344 47.554688 C 73.074219 47.953125 73.765625 47.652344 74.199219 47.082031 Z M 74.191406 47.101562 "/>
<path style=" stroke:none;fill-rule:nonzero;fill:rgb(57.254905%,58.039218%,78.823531%);fill-opacity:1;" d="M 68.070312 60.011719 C 68.707031 59.363281 69.371094 58.765625 70.125 58.261719 C 70.496094 58.011719 70.886719 57.769531 71.277344 57.558594 C 71.472656 57.453125 71.675781 57.34375 71.878906 57.246094 C 72.359375 57.113281 72.285156 56.988281 71.667969 56.863281 L 71.285156 55.933594 C 71.25 56.527344 70.976562 57.183594 70.816406 57.761719 C 70.515625 58.898438 71.746094 59.777344 72.746094 59.246094 C 73.746094 58.714844 74.652344 58.222656 75.597656 57.71875 C 75.757812 57.628906 77.070312 57.097656 77.113281 56.910156 L 75.785156 56.164062 L 75.785156 56.375 C 75.660156 56.582031 75.679688 57.078125 75.652344 57.328125 C 75.546875 58.164062 75.253906 59.140625 75.777344 59.894531 C 76.296875 60.648438 77.238281 60.808594 78.078125 60.550781 C 78.917969 60.292969 79.707031 59.664062 80.503906 59.246094 C 81.390625 58.773438 82.304688 58.347656 83.234375 57.992188 C 83.5 57.894531 83.78125 57.824219 84.039062 57.699219 C 84.3125 57.574219 83.90625 57.460938 84.082031 57.621094 C 84.410156 57.921875 84.660156 58.214844 85.074219 58.417969 C 85.933594 58.828125 86.890625 58.722656 87.695312 58.261719 C 89.15625 57.414062 87.839844 55.140625 86.367188 55.984375 C 86.101562 56.136719 86.039062 55.84375 85.84375 55.65625 C 85.542969 55.371094 85.179688 55.148438 84.773438 55.050781 C 83.84375 54.839844 82.878906 55.300781 82.027344 55.648438 C 81.179688 55.996094 80.308594 56.386719 79.476562 56.8125 C 79.0625 57.023438 78.644531 57.257812 78.238281 57.488281 C 78.050781 57.59375 77.796875 57.699219 77.636719 57.851562 C 77.566406 57.894531 77.492188 57.941406 77.421875 57.984375 C 77.085938 58.164062 77.308594 58.382812 78.085938 58.660156 C 78.273438 58.492188 78.246094 57.414062 78.28125 57.140625 C 78.335938 56.742188 78.414062 56.359375 78.363281 55.957031 C 78.265625 55.125 77.6875 54.421875 76.8125 54.367188 C 75.933594 54.316406 74.996094 55.0625 74.261719 55.453125 C 73.3125 55.957031 72.359375 56.472656 71.410156 56.980469 L 73.339844 58.464844 C 73.589844 57.550781 74.226562 56.191406 73.722656 55.273438 C 73.214844 54.359375 72.171875 54.296875 71.320312 54.636719 C 69.398438 55.398438 67.65625 56.695312 66.210938 58.164062 C 65.023438 59.371094 66.875 61.238281 68.0625 60.019531 Z M 68.070312 60.011719 "/>
</g>
</svg>
