<?xml version="1.0" encoding="UTF-8"?>
<svg id="Capa_1" xmlns="http://www.w3.org/2000/svg" viewBox="0 0 35.22 33.55">
  <defs>
    <style>
      .cls-1 {
        fill: #fff;
      }
    </style>
  </defs>
  <path class="cls-1" d="M4.85,3.37c7.76-1.16,15.61-1.71,23.46-1.64.76,0,1.63-.08,2.38.09,1.03.23,1.4,1.27,1.72,2.16.61,1.7.85,3.5.96,5.3.23,3.74.26,7.54.13,11.28-.06,1.75-.11,3.55-.45,5.27-.42,2.15-1.56,3.54-3.6,4.36-3.35,1.33-7.07,1.51-10.63,1.58-3.91.07-7.82.06-11.72.08-1.33,0-3.47.38-4.64-.47-1.39-1.01-.71-3.31-.5-4.71.61-4.01-.18-8.09.6-12.08s2.29-7.62,2.19-11.65c-.03-1.06-1.68-1.06-1.65,0,.11,4.25-1.71,8.17-2.32,12.32-.29,2.01-.25,4.02-.22,6.05.04,2.14-.11,4.18-.41,6.3-.19,1.35-.32,2.84.4,4.06s2.11,1.72,3.5,1.82c2.15.15,4.36,0,6.52-.01s4.42-.03,6.63-.04c4.12-.03,8.4-.12,12.32-1.52,1.52-.54,2.97-1.32,3.93-2.66,1.06-1.47,1.3-3.32,1.47-5.08.42-4.37.31-8.78.17-13.16-.06-1.88-.18-3.77-.58-5.61-.33-1.51-.82-3.44-2.03-4.5-1.45-1.28-4.12-.83-5.88-.82-2.51,0-5.01.07-7.51.21-4.92.26-9.82.77-14.69,1.49-1.05.16-.6,1.75.44,1.59h0Z"/>
  <path class="cls-1" d="M7.04,7.96c.43,3.58-.01,7.15-.47,10.7-.22,1.75-.45,3.51-.55,5.27-.08,1.37-.16,2.93.73,4.08,1.93,2.5,6.22,1.2,8.58.21s4.73-2.79,3.96-5.79c-.85-3.3-4.24-4.45-7.17-5.22l.2,1.51c3.04-1.39,6.25-4.64,4.49-8.24-1.53-3.12-6.43-4.66-9.56-3.51-.99.36-.56,1.96.44,1.59,2.38-.88,6.22.17,7.55,2.48,1.62,2.8-1.53,5.24-3.75,6.26-.66.3-.45,1.34.2,1.51,1.5.39,3.06.79,4.34,1.7,1.09.78,2.04,2.22,1.73,3.63-.34,1.53-2.08,2.2-3.37,2.71-1.58.63-3.36,1.16-5.07.8-2.04-.43-1.74-2.46-1.62-4.1s.33-3.39.55-5.08c.45-3.49.87-6.99.44-10.51-.13-1.04-1.78-1.05-1.65,0h0Z"/>
  <path class="cls-1" d="M10.93,11.3v2.13c0,.43.38.84.82.82s.82-.36.82-.82v-2.13c0-.43-.38-.84-.82-.82s-.82.36-.82.82h0Z"/>
  <path class="cls-1" d="M11.93,12.01c.22-.03.45-.03.67,0l-.22-.03c.09.01.18.03.27.06.08.02.19.1-.04-.03.03.02.07.03.1.05.08.05.09.11-.06-.05.01.01.03.03.04.04.05.06.03.03-.07-.1.01.02.02.03.03.05.04.07.02.03-.05-.12,0,.04.02.08.03.12l-.03-.22c0,.06,0,.11,0,.17l.03-.22s-.02.09-.03.13c-.02.06-.02.06,0-.01.03-.07.03-.08,0-.02-.03.04-.05.08-.07.12-.03.05-.14.16.02-.01-.14.15-.27.33-.4.49-.28.35-.56.69-.84,1.04-.14.18-.24.35-.24.58,0,.2.09.44.24.58.3.28.88.36,1.17,0,.35-.43.69-.85,1.04-1.28.19-.23.4-.46.54-.73.18-.34.24-.71.16-1.09-.22-1-1.41-1.28-2.29-1.17-.23.03-.42.07-.58.24-.14.14-.25.38-.24.58s.08.43.24.58c.15.14.37.27.58.24h0Z"/>
  <path class="cls-1" d="M11.23,22.13v1.83c0,.21.09.43.24.58s.38.25.58.24.43-.08.58-.24.24-.36.24-.58v-1.83c0-.21-.09-.43-.24-.58s-.38-.25-.58-.24-.43.08-.58.24-.24.36-.24.58h0Z"/>
  <path class="cls-1" d="M12.81,22.47c-.21.1-.06.03-.01.01.14-.06-.18,0-.03,0,.03,0,.12.02.15,0-.04.02-.2-.05-.05,0,.05.01.1.03.14.04.09.02-.16-.09-.04-.01.04.03.09.05.13.08.14.08-.12-.12,0,0,.03.04.07.07.11.11.11.11-.08-.15,0,0,.02.04.04.08.06.11.03.06.02.03-.03-.08.01.03.02.06.03.09.01.05.02.1.04.15.05.18,0-.15,0,.02,0,.06,0,.12,0,.18,0,.2.04-.17,0,.02-.03.11-.05.22-.09.32-.01.03-.02.06-.03.09.04-.09.05-.11.02-.06-.03.04-.05.09-.07.14-.03.05-.06.11-.1.16-.02.03-.03.05-.05.08-.03.05-.02.03.03-.04-.02.09-.2.22-.26.29-.09.08-.18.16-.27.24-.07.07.11-.08-.01.01-.05.04-.11.08-.16.11-.21.15-.44.29-.66.42-.37.22-.54.75-.3,1.13s.73.53,1.13.3c.57-.35,1.16-.72,1.61-1.23.5-.56.84-1.27.86-2.03s-.34-1.46-.97-1.9-1.35-.46-2-.15c-.39.18-.52.78-.3,1.13.26.4.71.49,1.13.3h0Z"/>
  <path class="cls-1" d="M25.53,20.89c1.08-.48,2.25-.77,3.43-.83.44-.02.92.03,1.33-.17.49-.23.65-.71.77-1.19.47-1.92.55-4.11-.74-5.73-2.25-2.85-6.65-2.4-8.88.19-2.74,3.2-2.35,7.79-.33,11.25,1,1.7,2.44,3.35,4.51,3.6s3.48-1.07,4.12-2.89c.3-.86.65-2.03.33-2.92-.39-1.09-1.61-1.09-2.59-1.02s-1.9.29-2.56,1c-.09.1-.4.41-.38.55l-.04.08.54-.17c.04-.07-.03-.35-.03-.45.02-.63.3-1.17.75-1.6.76-.74-.41-1.91-1.17-1.17-1.02,1-1.72,2.87-.91,4.2.35.58,1.07.9,1.71.56.31-.17.43-.45.62-.72.21-.31.47-.45.82-.55.31-.09.63-.11.95-.12.15,0,.45-.06.59,0,.23.09.08-.14.17.19.07.26-.12.73-.18.99-.1.39-.22.79-.4,1.15-.82,1.63-2.66,1.49-3.9.4-2.44-2.14-3.62-6.22-2.55-9.28.93-2.66,3.85-4.64,6.56-3.09,1.59.91,1.83,2.69,1.55,4.36-.04.24-.13.48-.15.72l-.06.24c.14-.14.08-.17-.19-.1-.45-.08-1.09.08-1.54.15-1.04.17-2.02.49-2.99.92s-.13,1.85.83,1.42h0Z"/>
  <path class="cls-1" d="M26.04,17.79c.03-.15.08-.3.14-.44l-.08.2c.06-.15.14-.29.24-.42l-.13.17c.05-.07.12-.13.18-.19l-.17.13s.1-.07.15-.09l-.2.08s.09-.03.14-.04l-.22.03s.1,0,.15,0l-.22-.03s.09.02.13.04l-.2-.08s.08.04.11.06l-.17-.13s.07.06.1.1l-.13-.17s.06.09.08.14l-.08-.2c.02.06.04.12.05.19l-.03-.22c0,.07,0,.15,0,.22l.03-.22c-.01.07-.03.13-.05.2l.08-.2c-.02.06-.05.11-.09.16l.13-.17c-.05.06-.1.11-.16.15l.17-.13c-.07.05-.14.09-.22.12l.2-.08c-.11.05-.23.08-.35.09l.22-.03c-.17.02-.33.02-.5,0l.22.03h-.02c-.11-.04-.22-.04-.33-.02-.11,0-.21.04-.31.1-.17.1-.33.3-.38.49-.05.21-.04.45.08.64l.13.17c.1.1.22.17.36.21.25.03.49.07.74.03.32-.04.6-.1.89-.27.5-.29.81-.81.82-1.39,0-.14-.02-.28-.05-.41s-.09-.26-.15-.37c-.05-.09-.11-.16-.18-.24-.02-.03-.04-.05-.07-.07-.16-.15-.3-.22-.51-.3-.13-.05-.27-.07-.41-.07-.07,0-.13,0-.2.02s-.14.01-.2.04c-.26.08-.49.23-.68.42-.17.18-.31.38-.41.61s-.2.46-.25.7c-.05.21-.03.44.08.64.1.17.3.33.49.38.21.05.45.04.64-.08.18-.11.33-.28.38-.49h0Z"/>
  <path class="cls-1" d="M20.64,7.62c-.15.55-.24,1.19-.05,1.74.25.69.86,1.06,1.58,1.06,1.6.01,3.21-.16,4.81-.24.79-.04,1.58-.06,2.37-.12.74-.06,1.4-.48,1.42-1.29.02-.73-.47-1.35-1.15-1.57s-1.42-.07-2.1-.05c-1.78.05-3.57-.07-5.32-.38-.44-.08-.89.12-1.01.58-.11.4.14.94.58,1.01,1.56.28,3.13.44,4.71.45.73,0,1.46-.04,2.19-.07.14,0,.28.02.41.02.4,0-.03.06.05-.03-.01.01.35-.59.2-.29.14-.03.13-.04-.01-.02h-.25c-1.57.09-3.14.17-4.71.25-.72.04-1.5.17-2.23.11.03,0,.01.08.02,0,.03-.26.02-.44.1-.71.28-1.03-1.31-1.46-1.59-.44h0Z"/>
</svg>