<?xml version="1.0" encoding="UTF-8"?>
<svg id="Capa_1" xmlns="http://www.w3.org/2000/svg" viewBox="0 0 893.54 847.92">
  <defs>
    <style>
      .cls-1 {
        fill: #fff;
      }
    </style>
  </defs>
  <path class="cls-1" d="M122.41,81.79c13.14-1.98,26.29-3.89,39.45-5.73,6.03-.84,12.06-1.7,18.1-2.49-5.08.66.48-.06,1.27-.17,1.37-.18,2.74-.36,4.12-.55,3.57-.47,7.14-.94,10.7-1.4,25.81-3.33,51.65-6.41,77.52-9.21,51.19-5.55,102.49-10.07,153.86-13.54,102.74-6.95,205.77-9.75,308.73-8.36,12.37.17,24.85,0,37.18,1.07.96.08,1.91.19,2.86.28,4.95.47-4.5-.9.36.05,2.79.55,5.57,1.05,8.32,1.81,2.15.6,4.49,1.9,6.68,2.26l-2.19-.89c.86.4,1.7.82,2.53,1.27,1.56.84,3,1.84,4.52,2.74,3.82,2.28-3.28-2.99.04-.05.8.71,1.61,1.38,2.39,2.11,1.72,1.6,3.34,3.29,4.88,5.07l.83.98c1.34,1.66,1.1,1.32-.73-1.01.32-.03,2.05,2.85,2.26,3.16,1.47,2.16,2.85,4.38,4.15,6.64,2.4,4.17,4.53,8.48,6.51,12.86.54,1.18,1.05,2.38,1.58,3.57,2.09,4.75-1.57-3.98.35.84,1.21,3.06,2.45,6.11,3.6,9.2,8.24,21.99,14.13,44.81,18.34,67.9,1,5.48,1.91,10.98,2.73,16.49.22,1.51.43,3.01.66,4.52.76,5.18-.55-4.47.1.72.38,3.03.77,6.05,1.11,9.08,1.4,12.16,2.46,24.36,3.28,36.57,3.3,49.08,3.57,98.42,4.36,147.58.83,51.57,1,103.18-1.09,154.73-1.05,26.03-2.67,52.04-5.07,77.98-.52,5.6-1.06,11.21-1.67,16.8-.3,2.76-.62,5.52-.95,8.27-.11.92-.23,1.84-.35,2.76-.29,2.23-.24,1.84.17-1.18-.13.92-.25,1.84-.39,2.76-1.51,10.55-3.41,21.05-5.99,31.4-1.33,5.34-2.86,10.64-4.6,15.86-.72,2.16-1.49,4.31-2.29,6.45-.48,1.28-1,2.54-1.49,3.81-.83,2.02-.69,1.68.44-1.01-.36.83-.73,1.66-1.11,2.49-2.07,4.53-4.35,8.97-6.88,13.26-1.15,1.95-2.35,3.88-3.61,5.77-.75,1.14-1.53,2.26-2.32,3.38-.53.74-1.07,1.48-1.61,2.21-1.3,1.72-1.1,1.46.61-.78-.77,2.1-3.78,4.54-5.29,6.18s-3.08,3.28-4.69,4.85c-1.92,1.89-3.9,3.71-5.94,5.48-1.02.88-2.05,1.75-3.09,2.61-1.1.9-3.59,3.91-.18.21-3.28,3.55-8.74,6.26-12.82,8.8-4.82,2.99-9.79,5.76-14.85,8.33-4.49,2.28-9.06,4.36-13.66,6.39s4.18-1.65-.29.11c-.85.34-1.7.69-2.55,1.03-2.98,1.19-5.97,2.32-8.98,3.42-10.7,3.9-21.58,7.32-32.53,10.43-23.7,6.74-47.84,11.88-72.17,15.78-5.69.91-11.4,1.91-17.13,2.54,5.32-.59-.02,0-.93.12-1.56.2-3.13.4-4.69.59-3.13.39-6.26.75-9.4,1.11-12.03,1.35-24.09,2.46-36.17,3.36-24.76,1.86-49.57,2.89-74.39,3.5-50.54,1.24-101.12,1.12-151.66,1.44-52.1.33-104.2.66-156.31.99-24.75.16-49.58.93-74.32.24-4.88-.14-9.77-.38-14.63-.82-1.32-.12-2.64-.25-3.96-.4l-1.31-.15c-2.21-.28-1.75-.22,1.39.19-.37-.42-3.28-.52-3.89-.63-1.29-.23-2.57-.47-3.84-.74-5.07-1.06-9.93-2.59-14.83-4.26-2.48-.85.42-.77,1.24.58-.34-.56-2.83-1.29-3.45-1.6-2.66-1.32-5.23-2.79-7.7-4.43-.89-.59-1.74-1.23-2.62-1.84-2.31-1.61,3.7,3.29.51.32-1.75-1.63-3.54-3.2-5.19-4.94-1.3-1.38-2.39-3.02-3.73-4.33,3.79,3.72,1.44,1.85.47.42-.84-1.23-1.63-2.49-2.38-3.77-1.12-1.92-2.08-3.91-3.07-5.9-.67-1.35-.6-2.91.69,1.73-.29-1.05-.82-2.09-1.19-3.12-1.51-4.25-2.66-8.62-3.5-13.04-.21-1.13-.39-2.26-.59-3.39-.74-4.23.51,5.02.1.73-.2-2.14-.43-4.28-.56-6.43-.31-5-.35-10.01-.2-15.02.14-4.52.43-9.04.84-13.54.19-2.07.4-4.14.63-6.21.14-1.25.28-2.49.43-3.74.17-1.41,1.31-7.23.09-.91,1.8-9.35,2.89-18.91,4.45-28.31,2.11-12.7,4-25.44,5.33-38.25,2.6-25.1,3.19-50.35,3.06-75.57-.26-50.56-3.4-101.24.97-151.71.52-6.06,1.16-12.11,1.91-18.15.16-1.26.3-2.52.48-3.77-.8,5.44-.02.26.12-.71.51-3.52,1.05-7.03,1.63-10.53,1.9-11.53,4.15-23.01,6.63-34.43,5.1-23.43,11.21-46.63,17.41-69.8,12.55-46.85,25.18-93.62,31.48-141.81,2.94-22.48,4.31-45.14,3.41-67.81-.41-10.44-8.9-20.5-20-20-10.48.47-20.44,8.8-20,20,.48,12.1.35,24.21-.36,36.3-.35,6.02-.85,12.03-1.46,18.03-.26,2.5-.53,5-.83,7.49-.18,1.5-.37,2.99-.56,4.49-.3,2.27-.26,1.99.12-.83-.14,1-.28,1.99-.42,2.99-3.43,23.77-8.5,47.27-14.24,70.58-11.63,47.28-26.01,93.9-35.62,141.67-5.05,25.09-8.72,50.49-10.45,76.03-1.77,26.05-1.72,52.18-1.29,78.27.43,25.58,1.23,51.16,1.07,76.74-.08,13.02-.41,26.04-1.17,39.04-.35,5.95-.79,11.89-1.33,17.83-.3,3.24-.63,6.47-.99,9.7-.18,1.62-.37,3.23-.57,4.85-.13,1.08-.27,2.15-.41,3.23.36-2.63.37-2.79.05-.48-6.08,40.12-17.72,83.88-5.29,123.94,6.64,21.42,20.6,40.09,40.29,51.17,20.67,11.64,44.82,14.55,68.16,15.11,24.86.59,49.8-.12,74.67-.28,26.89-.17,53.78-.34,80.67-.51,53.02-.34,106.04-.65,159.07-1.01,100.82-.68,203.83-2.48,301.12-31.99,45.43-13.78,90.01-33.74,119.09-72.79,28.23-37.91,33.9-87.6,38.12-133.22,9.66-104.47,7.02-209.67,4.5-314.41-1.2-49.9-3.49-100.01-13.01-149.13-4.56-23.54-10.94-46.77-19.83-69.06-9.3-23.33-20.33-46.35-41.77-60.89S767.57.81,742.8.44c-26.57-.4-53.15-.53-79.72-.38-52.59.3-105.18,1.69-157.72,4.17-105.07,4.95-209.95,14.25-314.25,27.87-26.48,3.46-52.92,7.15-79.33,11.12-4.62.69-9.71,5.35-11.95,9.19-2.51,4.29-3.57,10.61-2.02,15.41s4.57,9.51,9.19,11.95c5.07,2.68,9.79,2.86,15.41,2.02h0Z"/>
  <path class="cls-1" d="M179.34,199.32c5.19,40.01,5.78,80.46,3.73,120.71-2.06,40.32-6.68,80.46-11.72,120.5s-10.63,80.73-14.51,121.26c-1.93,20.12-3.44,40.27-4.27,60.47-.72,17.38-.42,34.92,3.41,51.98s12.79,34.82,27.07,45.99c9.5,7.43,19.88,12.61,31.43,16.17,10.36,3.19,21.12,4.89,31.87,6.08,20.35,2.27,40.9.46,61-3.12,19.06-3.4,37.67-8.98,55.83-15.61,18.35-6.7,36.6-14.15,54.14-22.76,15.74-7.73,30.91-17.17,43.67-29.29,13.29-12.63,23.53-28.76,28.42-46.49s4.44-35.57.71-53.04c-3.47-16.25-10.51-32.21-19.68-46.04-5.12-7.71-10.9-15.1-17.3-21.79s-14.08-12.88-21.75-18.58c-29.09-21.62-64.43-33.75-98.99-43.46-8.29-2.33-16.61-4.53-24.93-6.72l4.78,36.55c30.55-13.58,60.15-31.53,83.09-56.16,24.74-26.56,40.96-60.59,42.33-97.17.7-18.7-3.33-36.99-11.19-53.9-6.92-14.9-17.79-28.28-29.98-39.19-12.54-11.23-26.66-20.72-41.5-28.65-16.03-8.56-32.93-15.85-50.23-21.41-34.78-11.19-73.49-15.18-108.96-4.73-4.02,1.18-7.97,2.58-11.86,4.16-5.02,2.04-9.11,4.33-11.95,9.19-2.51,4.29-3.57,10.61-2.02,15.41s4.57,9.51,9.19,11.95,10.54,3.99,15.41,2.02c9.95-4.04,20.34-6.74,30.97-8.22l-5.32.71c13.93-1.85,28-1.59,41.92.22l-5.32-.71c20.26,2.74,39.94,8.66,58.76,16.55l-4.78-2.02c18.57,7.85,36.62,17.39,52.66,29.67l-4.05-3.13c8.95,6.92,17.18,14.72,24.14,23.66l-3.13-4.05c5.06,6.6,9.33,13.7,12.63,21.34l-2.02-4.78c3.23,7.66,5.38,15.66,6.51,23.9l-.71-5.32c1.2,9.34,1.09,18.76-.14,28.09l.71-5.32c-1.51,10.85-4.49,21.4-8.72,31.49l2.02-4.78c-4.53,10.64-10.41,20.58-17.46,29.74l3.13-4.05c-9.07,11.67-19.73,21.94-31.4,30.99l4.05-3.13c-17.48,13.46-36.9,24.11-57.01,33.05l-4.05,3.13-3.13,4.05c-2.28,3.89-2.97,8.34-2.37,12.75,1.04,7.7,6.62,14.6,14.33,16.63,25.67,6.75,51.4,13.65,75.9,23.98l-4.78-2.02c16.18,6.88,31.69,15.29,45.65,26.01l-4.05-3.13c8.99,6.98,17.08,14.85,24.06,23.84l-3.13-4.05c6.74,8.79,12.36,18.35,16.68,28.55l-2.02-4.78c3.78,9.09,6.47,18.58,7.78,28.35l-.71-5.32c.99,7.82,1.08,15.7.07,23.53l.71-5.32c-.94,6.83-2.69,13.47-5.31,19.85l2.02-4.78c-2.74,6.47-6.32,12.49-10.59,18.07l3.13-4.05c-5.39,6.89-11.73,12.91-18.64,18.26l4.05-3.13c-15.88,12.13-34.15,20.55-52.46,28.3l4.78-2.02c-29.92,12.62-60.88,23.6-93.18,28.03l5.32-.71c-16.28,2.16-32.75,2.56-49.06.45l5.32.71c-10.93-1.48-21.85-3.9-32.06-8.15l4.78,2.02c-4.9-2.1-9.54-4.65-13.81-7.85l4.05,3.13c-3.74-2.89-7.04-6.2-9.93-9.93l3.13,4.05c-3.14-4.17-5.67-8.7-7.7-13.51l2.02,4.78c-3.02-7.34-4.83-15.05-5.93-22.89l.71,5.32c-1.62-12.1-1.59-24.31-1.1-36.49.62-15.47,1.65-30.93,2.95-46.36,2.59-30.62,6.28-61.14,10.15-91.62,7.72-60.74,16.25-121.53,18.17-182.8,1.08-34.44-.02-68.97-4.45-103.16-.72-5.51-1.76-10.04-5.86-14.14-3.47-3.47-9.16-6.08-14.14-5.86s-10.54,1.93-14.14,5.86c-3.32,3.61-6.52,9.03-5.86,14.14h0Z"/>
  <path class="cls-1" d="M278.23,284.36v54.27c0,5.13,2.23,10.52,5.86,14.14,1.81,1.95,3.96,3.33,6.44,4.14,2.38,1.25,4.95,1.83,7.71,1.72,5.17-.23,10.54-1.93,14.14-5.86s5.86-8.72,5.86-14.14v-54.27c0-5.13-2.23-10.52-5.86-14.14-1.81-1.95-3.96-3.33-6.44-4.14-2.38-1.25-4.95-1.83-7.71-1.72-5.17.23-10.54,1.93-14.14,5.86s-5.86,8.72-5.86,14.14h0Z"/>
  <path class="cls-1" d="M302.64,301.33c5.75-.73,11.59-.82,17.34-.06l-5.32-.71c3.36.47,6.68,1.23,9.83,2.53l-4.78-2.02c1.84.78,3.59,1.74,5.18,2.96l-4.05-3.13c1.08.85,2.06,1.81,2.9,2.9l-3.13-4.05c.73.96,1.32,1.99,1.8,3.1l-2.02-4.78c.52,1.27.86,2.58,1.04,3.94l-.71-5.32c.17,1.41.15,2.8-.04,4.21l.71-5.32c-.25,1.6-.71,3.14-1.31,4.64l2.02-4.78c-1.42,3.36-3.5,6.35-5.72,9.23l3.13-4.05c-5.12,6.57-10.48,12.97-15.72,19.45s-10.72,13.24-16.08,19.86c-1.95,1.81-3.33,3.96-4.14,6.44-1.25,2.38-1.83,4.95-1.72,7.71-.1,2.75.47,5.32,1.72,7.71.81,2.48,2.19,4.63,4.14,6.44,3.81,3.5,8.82,6.1,14.14,5.86l5.32-.71c3.39-.95,6.33-2.66,8.83-5.14,6.45-7.97,12.91-15.94,19.36-23.91,3.23-3.98,6.45-7.97,9.68-11.95,3.73-4.6,7.78-9.21,10.55-14.49,1.7-3.24,3.3-6.69,4.12-10.27.59-2.57.92-5.26,1.1-7.89.07-1.01.02-2.01-.09-3.01-.66-6.06-1.85-12.09-5.58-17.13-1.74-2.36-3.45-4.82-5.73-6.7s-4.65-3.85-7.27-5.26-5.62-2.62-8.51-3.66c-1.44-.52-2.92-.93-4.42-1.26-8.68-1.93-17.78-2.47-26.6-1.36-2.75-.1-5.32.47-7.71,1.72-2.48.81-4.63,2.19-6.44,4.14-1.95,1.81-3.33,3.96-4.14,6.44-1.25,2.38-1.83,4.95-1.72,7.71.23,5.17,1.93,10.54,5.86,14.14l4.05,3.13c3.12,1.81,6.48,2.72,10.09,2.73h0Z"/>
  <path class="cls-1" d="M285.98,559.59c0,15.51,0,31.01,0,46.52,0,5.13,2.23,10.52,5.86,14.14,1.81,1.95,3.96,3.33,6.44,4.14,2.38,1.25,4.95,1.83,7.71,1.72,5.17-.23,10.54-1.93,14.14-5.86s5.86-8.72,5.86-14.14c0-15.51,0-31.01,0-46.52,0-5.13-2.23-10.52-5.86-14.14-1.81-1.95-3.96-3.33-6.44-4.14-2.38-1.25-4.95-1.83-7.71-1.72-5.17.23-10.54,1.93-14.14,5.86s-5.86,8.72-5.86,14.14h0Z"/>
  <path class="cls-1" d="M324.5,567.27c.49-.24.99-.47,1.5-.69l-4.78,2.02c2-.82,4.08-1.37,6.23-1.66l-5.32.71c2.35-.28,4.7-.25,7.04.06l-5.32-.71c2.7.39,5.32,1.14,7.84,2.19l-4.78-2.02c2.77,1.19,5.35,2.71,7.74,4.54l-4.05-3.13c2.39,1.86,4.54,3.99,6.4,6.38l-3.13-4.05c1.62,2.13,2.99,4.42,4.06,6.88l-2.02-4.78c1.3,3.09,2.14,6.35,2.6,9.67l-.71-5.32c.51,3.93.45,7.88-.07,11.81l.71-5.32c-.66,4.65-1.95,9.17-3.75,13.51l2.02-4.78c-2.1,4.98-4.84,9.65-8.12,13.94l3.13-4.05c-4.92,6.35-10.8,11.84-17.14,16.75l4.05-3.13c-7.3,5.63-15.14,10.5-23.02,15.26-4.34,2.62-7.84,7.03-9.19,11.95-.83,2.66-.95,5.32-.36,7.98.12,2.66.91,5.14,2.37,7.44,2.75,4.27,6.85,8.03,11.95,9.19s10.73.81,15.41-2.02c11.16-6.74,22.08-13.86,31.98-22.39,4.37-3.76,8.42-7.89,11.98-12.43,4.35-5.54,8.35-11.08,11.17-17.56,1.71-3.93,3.43-7.86,4.6-11.99s1.73-8.57,2.27-12.94c.33-2.68.44-5.39.29-8.08-.24-4.25-.79-8.57-1.82-12.71-3.42-13.76-12.69-25.6-24.76-32.89-3.49-2.11-7.37-3.72-11.21-5.05s-8.05-1.83-12.12-2.25-8.28.23-12.35.91-7.93,2.43-11.56,4.23c-2.33,1.26-4.2,2.97-5.61,5.15-1.77,1.93-2.96,4.2-3.58,6.8-.83,2.66-.95,5.32-.36,7.98.12,2.66.91,5.14,2.37,7.44,2.75,4.27,6.85,8.03,11.95,9.19l5.32.71c3.61-.01,6.97-.92,10.09-2.73h0Z"/>
  <path class="cls-1" d="M648.03,527.26c2.5-1.14,5.02-2.25,7.55-3.32l-4.78,2.02c21.99-9.24,45.14-15.53,68.77-18.72l-5.32.71c11.36-1.51,22.8-2.31,34.26-2.36,7.89-.04,15.94-.71,22.89-4.83,8.45-5,13.06-13.46,15.41-22.71,2.68-10.54,4.94-21.21,6.54-31.97,1.79-12.08,3.16-24.22,3.06-36.44-.17-23.61-5.12-47.57-16.87-68.23-9.39-16.5-23.01-30.1-38.7-40.64-8.03-5.4-16.68-9.43-25.6-13.11-7.52-3.1-15.35-5.46-23.32-7.08-9.58-1.95-19.44-3.16-29.22-3.34s-19.29.84-28.81,2.43c-18.32,3.07-36.14,10.47-51.73,20.5-8.7,5.6-16.97,12.06-24.54,19.11s-14.57,15.35-21.03,23.8c-24.47,31.99-37.66,71.72-40.65,111.64-3.46,46.16,7.58,92.25,26.58,134.1,8.82,19.43,19.63,38.1,32.37,55.22,13.91,18.7,29.79,35.76,49.86,47.97,9.9,6.03,20.92,10.76,32.18,13.54,11.01,2.72,22.79,4.08,34.13,2.97,13.18-1.29,25.69-4.55,37.27-11.17,8.85-5.06,17.06-11.91,23.52-19.82s12.22-16.65,16.51-26.2,7.91-19.41,10.63-29.58c2.33-8.74,4.25-17.66,5.64-26.6.91-5.83,1.83-11.82,1.58-17.76-.32-7.65-1.88-14.22-5.14-21.1-2.97-6.26-8.88-12.1-15.04-15.19-7.53-3.78-15.5-4.96-23.85-5.21s-16.97-.2-25.42.48c-10.03.81-20.27,2.14-29.89,5.22-10.75,3.44-20.37,8.52-28.87,15.96-4,3.5-7.37,7.81-10.33,12.2-2.35,3.49-3.83,7.5-6.34,10.88l3.13-4.05c-.65.83-1.35,1.57-2.16,2.24l4.05-3.13c-.7.53-1.42.96-2.23,1.32l4.78-2.02c-.74.29-1.47.49-2.26.62l5.32-.71c-.75.08-1.46.07-2.21-.01l5.32.71c-.89-.15-1.72-.4-2.55-.75l4.78,2.02c-.85-.4-1.64-.88-2.4-1.43l4.05,3.13c-1.34-1.04-2.5-2.24-3.56-3.57l3.13,4.05c-1.42-1.87-2.57-3.89-3.51-6.04l2.02,4.78c-1.34-3.23-1.98-6.6-2.47-10.05l.71,5.32c-.9-6.77-.86-13.6.04-20.37l-.71,5.32c.98-6.96,2.84-13.73,5.56-20.21l-2.02,4.78c2.61-6.1,5.94-11.85,9.98-17.12l-3.13,4.05c2.68-3.44,5.63-6.64,8.86-9.57,3.68-3.35,5.86-9.26,5.86-14.14s-2.18-10.76-5.86-14.14-8.82-6.1-14.14-5.86-10.07,2.16-14.14,5.86c-7.9,7.17-14.7,16.08-19.57,25.59-4.84,9.46-8.48,19.6-9.98,30.14-1.77,12.37-2.04,24.79,1.07,37.04,1.85,7.27,5.59,13.59,10.35,19.29,2.24,2.69,5.16,4.96,8.06,6.83,4.35,2.81,9.2,3.91,14.27,4.36s10.91-1.24,15.49-3.78,8.23-6.69,11.26-11.15c2.72-3.99,4.44-8.5,7.41-12.35l-3.13,4.05c2.25-2.85,4.82-5.37,7.68-7.6l-4.05,3.13c3.66-2.79,7.67-5.03,11.91-6.84l-4.78,2.02c7.27-3.04,14.99-4.8,22.78-5.88l-5.32.71c6.45-.86,12.95-1.27,19.46-1.4,6.78-.13,13.77-.32,20.5.58l-5.32-.71c2.22.33,4.36.86,6.43,1.73l-4.78-2.02c1.23.57,2.36,1.23,3.45,2.04l-4.05-3.13c1.13.9,2.13,1.9,3.02,3.03l-3.13-4.05c.94,1.27,1.7,2.62,2.32,4.07l-2.02-4.78c.86,2.12,1.39,4.32,1.72,6.59l-.71-5.32c.6,4.64.34,9.32-.26,13.95l.71-5.32c-1.17,8.64-3.04,17.25-5.17,25.7-2.17,8.6-4.84,17.08-8.29,25.26l2.02-4.78c-3.48,8.15-7.75,15.96-13.16,23l3.13-4.05c-3.86,4.95-8.25,9.43-13.21,13.28l4.05-3.13c-4.49,3.43-9.35,6.28-14.56,8.48l4.78-2.02c-5.53,2.28-11.3,3.81-17.22,4.65l5.32-.71c-7.39.99-14.84.91-22.22-.07l5.32.71c-8.26-1.15-16.31-3.41-24-6.65l4.78,2.02c-8.6-3.69-16.59-8.61-23.99-14.31l4.05,3.13c-10.99-8.55-20.53-18.76-29.05-29.75l3.13,4.05c-15.49-20.09-28.22-42.48-38.12-65.82l2.02,4.78c-9.33-22.13-15.99-45.36-19.21-69.18l.71,5.32c-2.63-19.81-2.88-39.95-.23-59.78l-.71,5.32c2.32-17.01,6.89-33.67,13.55-49.49l-2.02,4.78c6.1-14.38,13.91-28,23.45-40.38l-3.13,4.05c8.12-10.47,17.43-19.97,27.89-28.11l-4.05,3.13c9.48-7.32,19.81-13.45,30.84-18.12l-4.78,2.02c9.65-4.04,19.81-6.73,30.17-8.15l-5.32.71c11.55-1.54,23.25-1.5,34.8.03l-5.32-.71c11.31,1.54,22.39,4.51,32.93,8.93l-4.78-2.02c9.17,3.89,17.85,8.85,25.75,14.91l-4.05-3.13c6.8,5.27,12.94,11.31,18.23,18.09l-3.13-4.05c5.06,6.56,9.21,13.71,12.46,21.33l-2.02-4.78c3.95,9.43,6.5,19.33,7.88,29.45l-.71-5.32c2.04,15.42,1.42,31.03-.63,46.42l.71-5.32c-.94,6.92-2.16,13.8-3.61,20.64-.72,3.4-1.49,6.79-2.3,10.17-.77,3.19-1.45,6.45-2.67,9.5l2.02-4.78c-.47,1.08-1.02,2.08-1.7,3.04l3.13-4.05c-.61.76-1.26,1.41-2.02,2.01l4.05-3.13c-.76.53-1.54.96-2.38,1.33l4.78-2.02c-1.41.54-2.84.87-4.33,1.08l5.32-.71c-3.68.43-7.42.26-11.12.34-3.89.08-7.79.24-11.67.49-9.56.61-19.08,1.78-28.54,3.22-15.86,2.41-31.5,6.24-46.67,11.43-10.09,3.45-19.97,7.52-29.66,11.95-4.29,1.96-7.99,7.58-9.19,11.95-1.32,4.79-.72,11.16,2.02,15.41s6.85,8.03,11.95,9.19l5.32.71c3.61-.01,6.97-.92,10.09-2.73h0Z"/>
  <path class="cls-1" d="M660.52,448.89c.85-3.71,2.01-7.34,3.47-10.85l-2.02,4.78c1.62-3.83,3.58-7.51,6.1-10.83l-3.13,4.05c1.44-1.86,3.05-3.57,4.91-5.01l-4.05,3.13c1.21-.91,2.49-1.68,3.89-2.27l-4.78,2.02c1.11-.45,2.24-.76,3.42-.93l-5.32.71c1.22-.15,2.43-.14,3.65.02l-5.32-.71c1.19.18,2.35.49,3.46.94l-4.78-2.02c1.03.44,1.98.99,2.87,1.66l-4.05-3.13c.86.68,1.62,1.44,2.3,2.3l-3.13-4.05c.85,1.1,1.53,2.28,2.08,3.56l-2.02-4.78c.65,1.59,1.08,3.23,1.31,4.93l-.71-5.32c.22,1.84.21,3.69-.03,5.53l.71-5.32c-.25,1.75-.7,3.44-1.38,5.07l2.02-4.78c-.61,1.43-1.38,2.77-2.33,4l3.13-4.05c-1.17,1.47-2.53,2.76-4.01,3.9l4.05-3.13c-1.74,1.31-3.62,2.37-5.62,3.24l4.78-2.02c-2.85,1.19-5.83,1.95-8.88,2.38l5.32-.71c-4.23.55-8.49.48-12.72-.09l5.32.71-.37-.05c-2.66-.83-5.32-.95-7.98-.36-2.66.12-5.14.91-7.44,2.37-2.33,1.26-4.2,2.97-5.61,5.15-1.77,1.93-2.96,4.2-3.58,6.8-1.17,5.12-.91,10.87,2.02,15.41l3.13,4.05c2.5,2.48,5.44,4.19,8.83,5.14,6.2.88,12.16,1.64,18.4.86,3.86-.49,7.74-.89,11.46-2.08s7.16-2.6,10.43-4.48c6.12-3.51,11.98-8.93,15.39-15.17,1.17-2.15,2.06-4.49,2.95-6.75.34-.86.63-1.74.85-2.64.6-2.44.82-4.99,1.13-7.48.11-.92.19-1.84.2-2.77,0-.83-.04-1.65-.13-2.47-.27-2.56-.53-5.2-1.14-7.72-.77-3.2-2.13-6.35-3.73-9.21s-3.6-5.52-5.99-7.67c-4.13-3.72-7.42-5.55-12.56-7.47-3.22-1.21-6.81-1.64-10.22-1.73-2.47-.07-4.99.46-7.4.82-.9.14-1.79.34-2.66.64-3.01,1.05-6.31,2.33-8.97,4.23s-5.54,4.03-7.81,6.54c-4.02,4.45-7.51,9.47-10.02,14.92s-4.93,11.44-6.32,17.52c-1.19,5.2-.72,10.74,2.02,15.41,1.26,2.33,2.97,4.2,5.15,5.61,1.93,1.77,4.2,2.96,6.8,3.58,5.12,1.17,10.87.91,15.41-2.02,4.27-2.76,8.02-6.85,9.19-11.95h0Z"/>
  <path class="cls-1" d="M525.15,190.98c-2,6.93-3.2,14.13-3.79,21.32-.22,2.73-.28,5.49-.05,8.22.34,4.21.8,8.66,2.14,12.72.88,2.67,2,5.3,3.26,7.82.54,1.09,1.19,2.1,1.92,3.07,1.63,2.17,3.25,4.56,5.31,6.39s4.39,3.72,6.85,5.14c.52.3,1.06.57,1.62.82,2.27,1.02,4.58,2.11,6.97,2.83.91.27,1.83.47,2.77.62,2.55.41,5.13.8,7.72.99,3.9.29,7.83-.05,11.73-.25,17.06-.85,34.12-1.71,51.18-2.56,16.98-.85,33.95-1.7,50.93-2.55,17.06-.85,34.12-1.71,51.18-2.56,9.8-.49,19.66-.64,29.37-2.07,3.41-.5,6.44-1.85,9.59-3.3.66-.3,1.31-.64,1.91-1.05,1.82-1.24,3.64-2.6,5.27-4.09.44-.4.83-.85,1.21-1.31,1.37-1.68,2.86-3.39,3.96-5.28.27-.47.5-.96.72-1.46.9-2.06,1.95-4.14,2.54-6.33.14-.54.24-1.08.33-1.63.36-2.26.76-4.57.85-6.86.12-2.92-.46-5.95-.92-8.78-.2-1.23-.5-2.43-.92-3.6-.98-2.74-2.08-5.53-3.52-8.06s-3.29-4.73-5.1-6.89c-1.37-1.64-3.01-2.84-4.7-4.15-1.94-1.5-3.77-2.88-5.98-3.93-2.92-1.39-5.95-2.73-9.08-3.64-1.68-.49-3.39-.83-5.12-1.08-3.32-.48-6.65-.98-10.01-1.14-3.53-.17-7.07-.03-10.6.17-8.19.47-16.36.97-24.56,1.23-16.64.54-33.29.47-49.92-.21-16.71-.69-33.4-1.99-50.01-3.92-4.05-.47-8.1-.98-12.14-1.52l5.32.71c-10.03-1.35-20.02-2.92-29.98-4.71-2.66-.83-5.32-.95-7.98-.36-2.66.12-5.14.91-7.44,2.37-2.33,1.26-4.2,2.97-5.61,5.15-1.77,1.93-2.96,4.2-3.58,6.8-1.17,5.12-.91,10.87,2.02,15.41,2.68,4.15,6.9,8.28,11.95,9.19,25.43,4.57,51.15,7.85,76.93,9.7,24.09,1.72,48.27,2.16,72.41,1.31,6.72-.24,13.42-.59,20.13-1.02,5.78-.37,11.59-.68,17.36.05l-5.32-.71c2.93.4,5.8,1.08,8.55,2.19l-4.78-2.02c1.85.78,3.64,1.72,5.24,2.94l-4.05-3.13c1.18.93,2.22,1.99,3.14,3.17l-3.13-4.05c1.04,1.37,1.89,2.85,2.57,4.42l-2.02-4.78c.69,1.66,1.17,3.38,1.42,5.16l-.71-5.32c.19,1.53.21,3.05,0,4.57l.71-5.32c-.17,1.1-.44,2.15-.85,3.18l2.02-4.78c-.39.92-.87,1.78-1.47,2.58l3.13-4.05c-.57.73-1.21,1.38-1.94,1.96l4.05-3.13c-.83.63-1.72,1.13-2.68,1.55l4.78-2.02c-1.56.63-3.17.99-4.83,1.23l5.32-.71c-5.97.75-12.09.74-18.1,1.04s-12.48.63-18.72.94c-12.57.63-25.13,1.26-37.7,1.89-24.97,1.25-49.93,2.5-74.9,3.75-6.99.35-13.98.7-20.97,1.05-3.57.18-7.14.36-10.71.54-3.17.16-6.35.27-9.51-.13l5.32.71c-1.74-.25-3.43-.65-5.07-1.3l4.78,2.02c-1.51-.64-2.91-1.43-4.21-2.43l4.05,3.13c-1.1-.88-2.08-1.87-2.94-2.98l3.13,4.05c-1.02-1.35-1.84-2.81-2.51-4.36l2.02,4.78c-.94-2.29-1.52-4.69-1.86-7.14l.71,5.32c-.58-4.49-.39-9.04.19-13.52l-.71,5.32c.58-4.3,1.52-8.54,2.72-12.71.83-2.66.95-5.32.36-7.98-.12-2.66-.91-5.14-2.37-7.44-1.26-2.33-2.97-4.2-5.15-5.61-1.93-1.77-4.2-2.96-6.8-3.58-5.12-1.17-10.87-.91-15.41,2.02s-7.71,6.82-9.19,11.95h0Z"/>
</svg>