<?xml version="1.0" encoding="UTF-8"?>
<svg xmlns="http://www.w3.org/2000/svg" xmlns:xlink="http://www.w3.org/1999/xlink" width="40px" height="40px" viewBox="0 0 40 40" version="1.1">
<g id="surface1">
<path style=" stroke:none;fill-rule:nonzero;fill:rgb(100%,100%,100%);fill-opacity:1;" d="M 5.507812 4.328125 C 14.320312 2.972656 23.238281 2.328125 32.152344 2.410156 C 33.015625 2.410156 34.003906 2.316406 34.855469 2.515625 C 36.023438 2.785156 36.445312 4 36.808594 5.042969 C 37.5 7.027344 37.773438 9.132812 37.898438 11.238281 C 38.160156 15.609375 38.195312 20.050781 38.046875 24.425781 C 37.976562 26.472656 37.921875 28.574219 37.535156 30.585938 C 37.058594 33.101562 35.765625 34.726562 33.445312 35.683594 C 29.640625 37.238281 25.417969 37.449219 21.375 37.53125 C 16.933594 37.613281 12.492188 37.601562 8.0625 37.625 C 6.554688 37.625 4.121094 38.070312 2.792969 37.074219 C 1.214844 35.894531 1.988281 33.207031 2.226562 31.570312 C 2.917969 26.878906 2.023438 22.109375 2.90625 17.445312 C 3.792969 12.78125 5.507812 8.535156 5.394531 3.824219 C 5.359375 2.585938 3.488281 2.585938 3.519531 3.824219 C 3.644531 8.792969 1.578125 13.375 0.886719 18.230469 C 0.554688 20.578125 0.601562 22.929688 0.636719 25.300781 C 0.679688 27.804688 0.511719 30.1875 0.171875 32.667969 C -0.046875 34.246094 -0.191406 35.988281 0.625 37.414062 C 1.441406 38.839844 3.019531 39.425781 4.601562 39.542969 C 7.042969 39.71875 9.550781 39.542969 12.003906 39.53125 C 14.457031 39.519531 17.023438 39.496094 19.535156 39.484375 C 24.214844 39.449219 29.074219 39.34375 33.527344 37.707031 C 35.253906 37.074219 36.898438 36.164062 37.988281 34.597656 C 39.195312 32.878906 39.464844 30.714844 39.660156 28.65625 C 40.136719 23.546875 40.011719 18.390625 39.851562 13.273438 C 39.785156 11.074219 39.648438 8.863281 39.195312 6.714844 C 38.820312 4.949219 38.261719 2.691406 36.886719 1.453125 C 35.242188 -0.0429688 32.207031 0.480469 30.210938 0.492188 C 27.359375 0.492188 24.519531 0.574219 21.679688 0.738281 C 16.09375 1.042969 10.527344 1.640625 4.996094 2.480469 C 3.804688 2.667969 4.316406 4.527344 5.496094 4.339844 Z M 5.507812 4.328125 "/>
<path style=" stroke:none;fill-rule:nonzero;fill:rgb(100%,100%,100%);fill-opacity:1;" d="M 7.996094 9.695312 C 8.484375 13.878906 7.984375 18.054688 7.460938 22.203125 C 7.210938 24.25 6.949219 26.308594 6.835938 28.363281 C 6.746094 29.964844 6.65625 31.789062 7.667969 33.136719 C 9.859375 36.058594 14.730469 34.539062 17.410156 33.378906 C 20.089844 32.222656 22.78125 30.117188 21.90625 26.613281 C 20.941406 22.753906 17.09375 21.410156 13.765625 20.507812 L 13.992188 22.273438 C 17.445312 20.648438 21.089844 16.847656 19.089844 12.640625 C 17.355469 8.992188 11.789062 7.191406 8.234375 8.535156 C 7.109375 8.957031 7.597656 10.828125 8.734375 10.394531 C 11.4375 9.367188 15.796875 10.59375 17.308594 13.296875 C 19.148438 16.570312 15.570312 19.421875 13.050781 20.613281 C 12.300781 20.964844 12.539062 22.179688 13.277344 22.378906 C 14.980469 22.835938 16.75 23.304688 18.207031 24.367188 C 19.445312 25.277344 20.523438 26.960938 20.171875 28.609375 C 19.785156 30.398438 17.808594 31.183594 16.34375 31.777344 C 14.546875 32.515625 12.527344 33.136719 10.585938 32.714844 C 8.269531 32.210938 8.609375 29.839844 8.746094 27.921875 C 8.882812 26.003906 9.121094 23.957031 9.371094 21.980469 C 9.878906 17.902344 10.359375 13.808594 9.871094 9.695312 C 9.722656 8.476562 7.847656 8.464844 7.996094 9.695312 Z M 7.996094 9.695312 "/>
<path style=" stroke:none;fill-rule:nonzero;fill:rgb(100%,100%,100%);fill-opacity:1;" d="M 12.414062 13.597656 L 12.414062 16.089844 C 12.414062 16.59375 12.84375 17.070312 13.34375 17.046875 C 13.84375 17.023438 14.277344 16.628906 14.277344 16.089844 L 14.277344 13.597656 C 14.277344 13.097656 13.84375 12.617188 13.34375 12.640625 C 12.84375 12.664062 12.414062 13.0625 12.414062 13.597656 Z M 12.414062 13.597656 "/>
<path style=" stroke:none;fill-rule:nonzero;fill:rgb(100%,100%,100%);fill-opacity:1;" d="M 13.550781 14.429688 C 13.800781 14.394531 14.058594 14.394531 14.308594 14.429688 L 14.058594 14.394531 C 14.164062 14.40625 14.265625 14.429688 14.367188 14.464844 C 14.457031 14.488281 14.582031 14.582031 14.320312 14.429688 C 14.355469 14.453125 14.402344 14.464844 14.433594 14.488281 C 14.527344 14.546875 14.539062 14.617188 14.367188 14.429688 C 14.378906 14.441406 14.402344 14.464844 14.414062 14.476562 C 14.46875 14.546875 14.445312 14.511719 14.332031 14.359375 C 14.34375 14.382812 14.355469 14.394531 14.367188 14.417969 C 14.414062 14.5 14.390625 14.453125 14.308594 14.277344 C 14.308594 14.324219 14.332031 14.371094 14.34375 14.417969 L 14.308594 14.160156 C 14.308594 14.230469 14.308594 14.289062 14.308594 14.359375 L 14.34375 14.101562 C 14.34375 14.101562 14.320312 14.207031 14.308594 14.253906 C 14.289062 14.324219 14.289062 14.324219 14.308594 14.242188 C 14.34375 14.160156 14.34375 14.148438 14.308594 14.21875 C 14.277344 14.265625 14.253906 14.3125 14.230469 14.359375 C 14.195312 14.417969 14.070312 14.546875 14.253906 14.347656 C 14.09375 14.523438 13.945312 14.734375 13.800781 14.921875 C 13.480469 15.328125 13.164062 15.726562 12.84375 16.136719 C 12.6875 16.347656 12.574219 16.546875 12.574219 16.8125 C 12.574219 17.046875 12.675781 17.328125 12.84375 17.492188 C 13.1875 17.820312 13.84375 17.914062 14.171875 17.492188 C 14.570312 16.988281 14.957031 16.5 15.355469 15.996094 C 15.570312 15.726562 15.808594 15.457031 15.96875 15.140625 C 16.171875 14.746094 16.242188 14.3125 16.148438 13.867188 C 15.898438 12.699219 14.546875 12.371094 13.550781 12.5 C 13.289062 12.535156 13.070312 12.582031 12.890625 12.78125 C 12.730469 12.945312 12.605469 13.226562 12.617188 13.457031 C 12.628906 13.691406 12.707031 13.960938 12.890625 14.136719 C 13.0625 14.300781 13.3125 14.453125 13.550781 14.417969 Z M 13.550781 14.429688 "/>
<path style=" stroke:none;fill-rule:nonzero;fill:rgb(100%,100%,100%);fill-opacity:1;" d="M 12.753906 26.261719 L 12.753906 28.398438 C 12.753906 28.644531 12.855469 28.902344 13.027344 29.078125 C 13.195312 29.253906 13.457031 29.371094 13.683594 29.359375 C 13.914062 29.347656 14.171875 29.265625 14.34375 29.078125 C 14.515625 28.890625 14.617188 28.65625 14.617188 28.398438 L 14.617188 26.261719 C 14.617188 26.015625 14.515625 25.757812 14.34375 25.582031 C 14.171875 25.40625 13.914062 25.289062 13.683594 25.300781 C 13.457031 25.3125 13.195312 25.394531 13.027344 25.582031 C 12.855469 25.769531 12.753906 26.003906 12.753906 26.261719 Z M 12.753906 26.261719 "/>
<path style=" stroke:none;fill-rule:nonzero;fill:rgb(100%,100%,100%);fill-opacity:1;" d="M 14.546875 26.65625 C 14.308594 26.773438 14.480469 26.691406 14.539062 26.667969 C 14.695312 26.601562 14.332031 26.667969 14.503906 26.667969 C 14.539062 26.667969 14.640625 26.691406 14.671875 26.667969 C 14.628906 26.691406 14.445312 26.613281 14.617188 26.667969 C 14.671875 26.679688 14.730469 26.703125 14.777344 26.714844 C 14.878906 26.738281 14.59375 26.613281 14.730469 26.703125 C 14.777344 26.738281 14.832031 26.761719 14.878906 26.796875 C 15.035156 26.890625 14.742188 26.65625 14.878906 26.796875 C 14.910156 26.84375 14.957031 26.878906 15.003906 26.925781 C 15.128906 27.054688 14.910156 26.75 15.003906 26.925781 C 15.027344 26.972656 15.046875 27.019531 15.070312 27.054688 C 15.105469 27.125 15.09375 27.089844 15.035156 26.960938 C 15.046875 26.996094 15.058594 27.03125 15.070312 27.066406 C 15.082031 27.125 15.09375 27.183594 15.117188 27.242188 C 15.171875 27.453125 15.117188 27.066406 15.117188 27.265625 C 15.117188 27.335938 15.117188 27.40625 15.117188 27.476562 C 15.117188 27.710938 15.160156 27.277344 15.117188 27.5 C 15.082031 27.628906 15.058594 27.757812 15.015625 27.875 C 15.003906 27.910156 14.992188 27.945312 14.980469 27.980469 C 15.027344 27.875 15.035156 27.851562 15.003906 27.910156 C 14.96875 27.957031 14.945312 28.015625 14.921875 28.074219 C 14.890625 28.132812 14.855469 28.203125 14.808594 28.261719 C 14.785156 28.292969 14.777344 28.316406 14.753906 28.351562 C 14.71875 28.410156 14.730469 28.386719 14.785156 28.304688 C 14.765625 28.410156 14.558594 28.5625 14.492188 28.644531 C 14.390625 28.738281 14.289062 28.832031 14.183594 28.925781 C 14.105469 29.007812 14.308594 28.832031 14.171875 28.9375 C 14.117188 28.984375 14.050781 29.03125 13.992188 29.066406 C 13.753906 29.242188 13.492188 29.40625 13.242188 29.558594 C 12.820312 29.816406 12.628906 30.433594 12.902344 30.878906 C 13.175781 31.324219 13.730469 31.5 14.183594 31.230469 C 14.832031 30.820312 15.503906 30.386719 16.011719 29.792969 C 16.582031 29.136719 16.96875 28.304688 16.992188 27.417969 C 17.011719 26.53125 16.605469 25.710938 15.890625 25.195312 C 15.171875 24.683594 14.355469 24.660156 13.617188 25.019531 C 13.175781 25.230469 13.027344 25.933594 13.277344 26.34375 C 13.570312 26.808594 14.082031 26.914062 14.558594 26.691406 Z M 14.546875 26.65625 "/>
<path style=" stroke:none;fill-rule:nonzero;fill:rgb(100%,100%,100%);fill-opacity:1;" d="M 28.996094 24.8125 C 30.222656 24.25 31.550781 23.910156 32.890625 23.839844 C 33.390625 23.816406 33.933594 23.875 34.402344 23.640625 C 34.957031 23.371094 35.140625 22.8125 35.277344 22.25 C 35.808594 20.003906 35.898438 17.445312 34.433594 15.550781 C 31.878906 12.21875 26.882812 12.746094 24.351562 15.773438 C 21.238281 19.515625 21.679688 24.882812 23.976562 28.925781 C 25.109375 30.914062 26.746094 32.84375 29.097656 33.136719 C 31.449219 33.425781 33.050781 31.882812 33.777344 29.757812 C 34.117188 28.75 34.515625 27.382812 34.152344 26.34375 C 33.707031 25.066406 32.324219 25.066406 31.210938 25.148438 C 30.097656 25.230469 29.050781 25.488281 28.300781 26.320312 C 28.199219 26.4375 27.847656 26.796875 27.871094 26.960938 L 27.824219 27.054688 L 28.4375 26.855469 C 28.484375 26.773438 28.40625 26.449219 28.40625 26.332031 C 28.425781 25.59375 28.746094 24.964844 29.257812 24.460938 C 30.121094 23.59375 28.789062 22.226562 27.925781 23.09375 C 26.769531 24.261719 25.972656 26.449219 26.894531 28.003906 C 27.292969 28.679688 28.109375 29.054688 28.835938 28.65625 C 29.1875 28.457031 29.324219 28.132812 29.539062 27.816406 C 29.777344 27.453125 30.074219 27.289062 30.472656 27.171875 C 30.824219 27.066406 31.1875 27.042969 31.550781 27.03125 C 31.71875 27.03125 32.0625 26.960938 32.21875 27.03125 C 32.480469 27.136719 32.3125 26.867188 32.414062 27.253906 C 32.492188 27.558594 32.277344 28.109375 32.207031 28.410156 C 32.09375 28.867188 31.960938 29.335938 31.753906 29.757812 C 30.824219 31.660156 28.734375 31.5 27.324219 30.222656 C 24.554688 27.722656 23.214844 22.953125 24.429688 19.375 C 25.484375 16.265625 28.800781 13.949219 31.878906 15.761719 C 33.683594 16.824219 33.957031 18.90625 33.640625 20.859375 C 33.59375 21.140625 33.492188 21.421875 33.46875 21.699219 L 33.402344 21.980469 C 33.558594 21.816406 33.492188 21.78125 33.1875 21.863281 C 32.675781 21.769531 31.949219 21.957031 31.4375 22.039062 C 30.253906 22.238281 29.140625 22.613281 28.039062 23.117188 C 26.9375 23.617188 27.894531 25.277344 28.984375 24.777344 Z M 28.996094 24.8125 "/>
<path style=" stroke:none;fill-rule:nonzero;fill:rgb(100%,100%,100%);fill-opacity:1;" d="M 29.574219 21.1875 C 29.609375 21.011719 29.664062 20.835938 29.734375 20.671875 L 29.640625 20.90625 C 29.710938 20.730469 29.800781 20.566406 29.914062 20.414062 L 29.765625 20.613281 C 29.824219 20.53125 29.902344 20.460938 29.972656 20.390625 L 29.777344 20.542969 C 29.777344 20.542969 29.890625 20.460938 29.949219 20.4375 L 29.722656 20.53125 C 29.722656 20.53125 29.824219 20.496094 29.878906 20.484375 L 29.632812 20.519531 C 29.632812 20.519531 29.746094 20.519531 29.800781 20.519531 L 29.550781 20.484375 C 29.550781 20.484375 29.652344 20.507812 29.699219 20.53125 L 29.472656 20.4375 C 29.472656 20.4375 29.5625 20.484375 29.597656 20.507812 L 29.402344 20.355469 C 29.402344 20.355469 29.484375 20.425781 29.515625 20.472656 L 29.371094 20.273438 C 29.371094 20.273438 29.4375 20.378906 29.460938 20.4375 L 29.371094 20.203125 C 29.390625 20.273438 29.414062 20.34375 29.425781 20.425781 L 29.390625 20.167969 C 29.390625 20.25 29.390625 20.34375 29.390625 20.425781 L 29.425781 20.167969 C 29.414062 20.25 29.390625 20.320312 29.371094 20.402344 L 29.460938 20.167969 C 29.4375 20.238281 29.402344 20.296875 29.359375 20.355469 L 29.507812 20.15625 C 29.449219 20.226562 29.390625 20.285156 29.324219 20.332031 L 29.515625 20.179688 C 29.4375 20.238281 29.359375 20.285156 29.265625 20.320312 L 29.496094 20.226562 C 29.371094 20.285156 29.234375 20.320312 29.097656 20.332031 L 29.347656 20.296875 C 29.152344 20.320312 28.972656 20.320312 28.777344 20.296875 L 29.027344 20.332031 L 29.007812 20.332031 C 28.882812 20.285156 28.757812 20.285156 28.632812 20.308594 C 28.507812 20.308594 28.394531 20.355469 28.28125 20.425781 C 28.085938 20.542969 27.90625 20.777344 27.847656 21 C 27.792969 21.246094 27.800781 21.527344 27.9375 21.746094 L 28.085938 21.945312 C 28.199219 22.0625 28.335938 22.144531 28.496094 22.191406 C 28.777344 22.226562 29.050781 22.273438 29.335938 22.226562 C 29.699219 22.179688 30.015625 22.109375 30.347656 21.910156 C 30.914062 21.574219 31.265625 20.964844 31.277344 20.285156 C 31.277344 20.121094 31.253906 19.960938 31.222656 19.808594 C 31.1875 19.65625 31.117188 19.503906 31.050781 19.375 C 30.992188 19.269531 30.925781 19.1875 30.847656 19.09375 C 30.824219 19.058594 30.800781 19.035156 30.765625 19.011719 C 30.585938 18.835938 30.425781 18.753906 30.1875 18.660156 C 30.039062 18.601562 29.878906 18.578125 29.722656 18.578125 C 29.640625 18.578125 29.574219 18.578125 29.496094 18.601562 C 29.414062 18.625 29.335938 18.613281 29.265625 18.648438 C 28.972656 18.742188 28.710938 18.917969 28.496094 19.140625 C 28.300781 19.351562 28.144531 19.585938 28.03125 19.855469 C 27.914062 20.121094 27.800781 20.390625 27.746094 20.671875 C 27.6875 20.917969 27.710938 21.1875 27.835938 21.421875 C 27.949219 21.621094 28.175781 21.804688 28.394531 21.863281 C 28.632812 21.921875 28.902344 21.910156 29.121094 21.769531 C 29.324219 21.644531 29.496094 21.445312 29.550781 21.199219 Z M 29.574219 21.1875 "/>
<path style=" stroke:none;fill-rule:nonzero;fill:rgb(100%,100%,100%);fill-opacity:1;" d="M 23.441406 9.296875 C 23.269531 9.941406 23.167969 10.6875 23.382812 11.332031 C 23.667969 12.136719 24.359375 12.570312 25.179688 12.570312 C 26.996094 12.582031 28.824219 12.382812 30.640625 12.289062 C 31.539062 12.242188 32.4375 12.21875 33.332031 12.148438 C 34.171875 12.078125 34.921875 11.589844 34.945312 10.640625 C 34.96875 9.789062 34.414062 9.0625 33.640625 8.804688 C 32.867188 8.546875 32.027344 8.722656 31.253906 8.746094 C 29.234375 8.804688 27.199219 8.664062 25.214844 8.304688 C 24.714844 8.210938 24.203125 8.441406 24.066406 8.980469 C 23.941406 9.449219 24.226562 10.078125 24.722656 10.160156 C 26.496094 10.488281 28.28125 10.675781 30.074219 10.6875 C 30.902344 10.6875 31.730469 10.640625 32.5625 10.605469 C 32.71875 10.605469 32.878906 10.628906 33.027344 10.628906 C 33.480469 10.628906 32.992188 10.699219 33.082031 10.59375 C 33.070312 10.605469 33.480469 9.90625 33.3125 10.253906 C 33.46875 10.21875 33.457031 10.207031 33.300781 10.230469 L 33.015625 10.230469 C 31.230469 10.335938 29.449219 10.429688 27.667969 10.523438 C 26.847656 10.570312 25.960938 10.722656 25.132812 10.652344 C 25.167969 10.652344 25.144531 10.746094 25.15625 10.652344 C 25.191406 10.347656 25.179688 10.136719 25.269531 9.824219 C 25.585938 8.617188 23.78125 8.117188 23.464844 9.308594 Z M 23.441406 9.296875 "/>
</g>
</svg>
