<?xml version="1.0" encoding="UTF-8"?>
<svg id="Layer_1" data-name="Layer 1" xmlns="http://www.w3.org/2000/svg" viewBox="0 0 44.34 46.16">
  <defs>
    <style>
      .cls-1 {
        fill: #6cc2ba;
      }
    </style>
  </defs>
  <path class="cls-1" d="M.3,3.78c3.52,6.88,8.81,12.63,14.19,18.09,2.72,2.76,5.48,5.47,8.1,8.32s4.99,5.65,7.68,8.29c3.03,2.97,6.41,5.67,10.32,7.38,1.24.54,2.68.36,3.42-.9.62-1.06.35-2.88-.9-3.42-6.65-2.92-11.28-8.6-16.05-13.86-5-5.52-10.55-10.52-15.41-16.16-2.72-3.16-5.14-6.56-7.05-10.28C3.15-1.6-1.17.92.3,3.78H.3Z"/>
  <path class="cls-1" d="M5.61,45.13C17.76,31.3,30.2,17.74,42.94,4.46c2.23-2.32-1.3-5.86-3.54-3.54C26.67,14.2,14.22,27.77,2.07,41.59c-.89,1.01-1,2.54,0,3.54.91.91,2.64,1.02,3.54,0h0Z"/>
</svg>