<?xml version="1.0" encoding="UTF-8"?>
<svg xmlns="http://www.w3.org/2000/svg" xmlns:xlink="http://www.w3.org/1999/xlink" width="30px" height="30px" viewBox="0 0 30 30" version="1.1">
<g id="surface1">
<path style=" stroke:none;fill-rule:nonzero;fill:rgb(42.352942%,76.078433%,72.941178%);fill-opacity:1;" d="M 0.203125 2.507812 C 2.585938 6.960938 6.164062 10.683594 9.804688 14.21875 C 11.644531 16.003906 13.511719 17.757812 15.285156 19.601562 C 17.058594 21.445312 18.660156 23.257812 20.480469 24.964844 C 22.53125 26.886719 24.816406 28.636719 27.460938 29.742188 C 28.300781 30.09375 29.277344 29.976562 29.777344 29.160156 C 30.195312 28.472656 30.011719 27.296875 29.167969 26.945312 C 24.667969 25.058594 21.535156 21.382812 18.308594 17.976562 C 14.925781 14.40625 11.171875 11.167969 7.882812 7.519531 C 6.042969 5.472656 4.40625 3.273438 3.113281 0.867188 C 2.132812 -0.972656 -0.792969 0.660156 0.203125 2.507812 Z M 0.203125 2.507812 "/>
<path style=" stroke:none;fill-rule:nonzero;fill:rgb(42.352942%,76.078433%,72.941178%);fill-opacity:1;" d="M 3.796875 29.269531 C 12.015625 20.320312 20.433594 11.542969 29.054688 2.949219 C 30.5625 1.449219 28.171875 -0.84375 26.65625 0.660156 C 18.042969 9.253906 9.621094 18.035156 1.402344 26.980469 C 0.796875 27.632812 0.722656 28.621094 1.402344 29.269531 C 2.015625 29.859375 3.1875 29.929688 3.796875 29.269531 Z M 3.796875 29.269531 "/>
</g>
</svg>
