<?xml version="1.0" encoding="UTF-8"?>
<svg id="Layer_1" data-name="Layer 1" xmlns="http://www.w3.org/2000/svg" viewBox="0 0 64.9 96.26">
  <defs>
    <style>
      .cls-1 {
        fill: #f37264;
      }

      .cls-2 {
        fill: #8062aa;
      }

      .cls-3 {
        fill: #f04f23;
      }

      .cls-4 {
        fill: #45b7e9;
      }

      .cls-5 {
        fill: #47ba7e;
      }
    </style>
  </defs>
  <g>
    <path class="cls-4" d="M46.49,32.73c-2.95.8-5.99,1.69-8.49,3.53-2.3,1.69-3.93,4.14-4.63,6.91-1.43,5.65,1.27,11.56,6.12,14.64,5.09,3.24,12.13,3.08,17.08-.38,4.69-3.28,6.69-8.96,4.93-14.45-2.11-6.56-8.68-10.27-15.34-10.3-1.45,0-1.45,2.24,0,2.25,4.95.02,9.99,2.31,12.39,6.81s1.58,9.72-2.19,13.02-9.46,4.02-14.01,2.03-7.55-6.56-7.09-11.46c.26-2.74,1.61-5.36,3.78-7.06,2.31-1.82,5.26-2.61,8.04-3.37,1.4-.38.8-2.55-.6-2.17h0Z"/>
    <path class="cls-4" d="M38.87,40.95c4.24-1.64,8.56-3.04,12.95-4.21l-1.09-1.88c-4.67,4.47-9.94,8.21-15.69,11.16-1.13.58-.35,2.44.87,2.06,7.28-2.29,14.33-5.28,21.04-8.92l-1.54-1.54c-2.29,3.02-5.07,5.64-8.01,8.02-1.56,1.25-3.17,2.43-4.8,3.58-.8.56-1.6,1.12-2.41,1.67-.34.23-.68.49-1.04.7-.19.12-.89.65-.37.31,3.18-2.11,6.31-4.11,9.84-5.63s7.32-2.63,11.13-3.33l-1.09-1.88c-6.05,5.98-14.19,9.19-20.48,14.89-1.01.92.27,2.26,1.36,1.77,7-3.18,14.01-6.36,21.01-9.54l-1.36-1.77c-3.99,3.67-8.22,7.05-12.68,10.13-1.21.84-.18,2.51,1.14,1.94,2.54-1.09,5.19-1.89,7.9-2.43,1.42-.28.82-2.45-.6-2.17-2.91.58-5.71,1.49-8.43,2.66l1.14,1.94c4.62-3.19,9.01-6.69,13.14-10.48,1-.92-.27-2.26-1.36-1.77-7,3.18-14.01,6.36-21.01,9.54l1.36,1.77c6.29-5.7,14.42-8.9,20.48-14.89.85-.84-.04-2.07-1.09-1.88-7.37,1.36-14.46,4.26-20.63,8.52-1.12.77-2.66,1.88-2.27,3.47s2.09,1.7,3.31,1.16c1.59-.7,3.08-1.99,4.5-2.99,1.5-1.06,2.98-2.16,4.43-3.3,3.3-2.61,6.31-5.51,8.86-8.86.73-.96-.64-2.03-1.54-1.54-6.55,3.55-13.4,6.45-20.5,8.69l.87,2.06c5.92-3.03,11.35-6.92,16.15-11.51.82-.79-.03-2.16-1.09-1.88-4.39,1.17-8.71,2.57-12.95,4.21-1.34.52-.76,2.69.6,2.17h0Z"/>
  </g>
  <path class="cls-1" d="M61.13,21.38c-3.04,2.1-6.08,4.2-9.12,6.3-1.18.81-.13,2.69,1.14,1.94,3.79-2.22,6.52-5.88,7.53-10.15.27-1.15-1.03-1.79-1.88-1.09-4.31,3.54-8.61,7.08-12.92,10.62-.98.8.33,2.53,1.36,1.77,6.36-4.71,11.82-10.47,16.17-17.08.61-.93-.61-2.15-1.54-1.54-8.59,5.67-17.18,11.34-25.77,17.02l1.36,1.77c7.66-6.64,15.32-13.28,22.98-19.93.97-.84-.28-2.42-1.36-1.77-8.69,5.23-17.37,10.45-26.06,15.68l1.14,1.94c7.74-5.54,14.47-12.3,19.98-20.06.64-.9-.64-2.18-1.54-1.54-6.13,4.36-12.26,8.73-18.39,13.09l1.36,1.77c5.03-5.24,10.06-10.48,15.09-15.72.87-.91-.24-2.43-1.36-1.77-4.93,2.9-9.86,5.81-14.79,8.71l1.54,1.54c2.38-3.4,4.76-6.8,7.14-10.2.67-.96-.62-2.06-1.54-1.54-2.77,1.57-5.45,3.54-7.1,6.33-1.32,2.24-1.78,4.81-1.94,7.38-.19,3.03-.07,6.06-.31,9.09-.15,1.87-.58,3.7-.74,5.57s.61,3.66,2.54,4.19c2.05.56,4.53-.13,6.6-.31,2.46-.21,4.93-.28,7.4-.42,4.34-.26,8.52-1.13,11.85-4.1,6.38-5.7,6.49-15.69.9-21.96C53.69-1.13,41.9-.39,32.2.58c-1.43.14-1.44,2.39,0,2.25,8.02-.8,16.87-1.65,23.96,3,6.43,4.22,8.74,13.1,4.02,19.48-2.32,3.13-5.77,4.72-9.57,5.19-4.22.53-8.52.45-12.76.91-.88.1-1.86.31-2.75.19-1.17-.16-1.38-1.03-1.28-2.09.15-1.64.53-3.27.68-4.91.25-2.69.22-5.38.29-8.07.07-2.42.22-4.96,1.31-7.17,1.4-2.84,3.99-4.73,6.69-6.26l-1.54-1.54c-2.38,3.4-4.76,6.8-7.14,10.2-.67.95.62,2.08,1.54,1.54,4.93-2.9,9.86-5.81,14.79-8.71l-1.36-1.77c-5.03,5.24-10.06,10.48-15.09,15.72-.85.88.28,2.53,1.36,1.77,6.13-4.36,12.26-8.73,18.39-13.09l-1.54-1.54c-5.27,7.43-11.77,13.95-19.17,19.25-1.16.83-.13,2.7,1.14,1.94,8.69-5.23,17.37-10.45,26.06-15.68l-1.36-1.77c-7.66,6.64-15.32,13.28-22.98,19.93-.96.83.3,2.47,1.36,1.77,8.59-5.67,17.18-11.34,25.77-17.02l-1.54-1.54c-4.13,6.27-9.33,11.8-15.37,16.27l1.36,1.77c4.31-3.54,8.61-7.08,12.92-10.62l-1.88-1.09c-.89,3.72-3.19,6.87-6.5,8.81l1.14,1.94c3.04-2.1,6.08-4.2,9.12-6.3,1.18-.82.06-2.77-1.14-1.94h0Z"/>
  <g>
    <path class="cls-3" d="M31.83,1.35c-7.63.28-15.58-1.98-22.91,1.08C2.71,5.03-.43,11.24.6,17.83s6.22,11.53,12.11,14c3.53,1.48,7.36,2.11,11.17,2.21,2.01.05,4.04-.03,6.04-.24s2.84-.95,3.19-2.91c1.64-9.19,1.71-18.59.4-27.81-.2-1.43-2.37-.82-2.17.6,1.03,7.26,1.12,14.65.28,21.93-.19,1.67-.28,3.54-.76,5.16-.18.61-.1.56-.7.76-.39.13-.98.09-1.39.12-.93.07-1.86.12-2.79.14-3.61.08-7.24-.27-10.69-1.4-5.39-1.76-10.53-5.74-12.13-11.37s.61-11.71,6.07-14.29c7.04-3.32,15.18-.87,22.6-1.14,1.44-.05,1.45-2.3,0-2.25h0Z"/>
    <path class="cls-3" d="M4.62,11.83l14.51-7.22-1.36-1.77C12.61,7.45,7.46,12.06,2.31,16.67c-.94.84.3,2.48,1.36,1.77L24.78,4.21l-1.36-1.77c-6.52,6.83-13.05,13.65-19.57,20.48-.85.89.27,2.51,1.36,1.77,8.66-5.93,16.45-12.98,24.19-20.04l-1.77-1.36c-6.12,8.07-12.25,16.15-18.37,24.22-.78,1.03.89,2.26,1.77,1.36,6.38-6.57,12.8-13.18,20.12-18.73l-1.69-.97c.13,1.97-1.84,3.36-3.1,4.61-1.42,1.42-2.79,2.9-4.1,4.43-2.64,3.07-5.04,6.34-7.2,9.76-.61.97.59,2.1,1.54,1.54,4.86-2.84,9.6-5.9,14.2-9.15l-1.36-1.77c-2.54,3.24-5.07,6.48-7.61,9.72-.72.92.2,2.54,1.36,1.77l6.64-4.44-1.54-1.54-2.63,6.09c-.44,1.01.47,2.09,1.54,1.54l3.19-1.64c1.29-.66.15-2.61-1.14-1.94l-3.19,1.64,1.54,1.54,2.63-6.09c.4-.92-.5-2.24-1.54-1.54l-6.64,4.44,1.36,1.77c2.54-3.24,5.07-6.48,7.61-9.72.71-.91-.22-2.58-1.36-1.77-4.6,3.25-9.33,6.31-14.2,9.15l1.54,1.54c2.38-3.77,5.05-7.34,8.03-10.65,1.42-1.58,2.95-3.05,4.43-4.57,1.26-1.3,2.38-2.82,2.25-4.72-.05-.75-.96-1.53-1.69-.97-7.48,5.67-14.05,12.36-20.57,19.08l1.77,1.36L29.58,4.42c.8-1.06-.87-2.18-1.77-1.36-7.6,6.93-15.23,13.87-23.74,19.69l1.36,1.77c6.52-6.83,13.05-13.65,19.57-20.48.85-.89-.27-2.51-1.36-1.77L2.54,16.49l1.36,1.77c5.15-4.61,10.3-9.21,15.46-13.82,1-.89-.27-2.31-1.36-1.77L3.48,9.89c-1.3.65-.16,2.59,1.14,1.94h0Z"/>
  </g>
  <g>
    <path class="cls-2" d="M30.25,31.54c-7.46.82-15.39.13-22.21,3.81-5.79,3.13-9.22,9.06-7.66,15.66s7.38,11.15,13.72,13.05c3.71,1.11,7.64,1.39,11.49,1.31,1.93-.04,3.98-.04,5.88-.37,1.58-.27,2.39-1.39,2.49-2.94.15-2.35-.1-4.78-.15-7.13s-.12-4.81-.18-7.22c-.12-4.89-.24-9.79-.37-14.68-.04-1.45-2.29-1.45-2.25,0,.19,7.47.37,14.93.56,22.4.05,1.82.1,3.65.14,5.47.02.81.22,1.6-.69,1.9s-2.13.18-3.07.23c-3.5.19-7.05.19-10.5-.47-5.81-1.1-11.71-4.2-14.16-9.87-1.18-2.75-1.47-5.94-.4-8.77.98-2.58,3.01-4.63,5.33-6.06,6.58-4.07,14.66-3.25,22.04-4.06,1.42-.16,1.44-2.41,0-2.25h0Z"/>
    <path class="cls-2" d="M5.04,43.63l15.65-7.19-1.14-1.94c-6.04,4.55-11.88,9.37-17.47,14.46-1.01.92.27,2.26,1.36,1.77,9.36-4.2,18.07-9.64,26.74-15.09l-1.36-1.77c-7.09,8.33-15.31,15.65-24.43,21.69-1.2.8-.08,2.74,1.14,1.94,8.03-5.23,14.1-14.67,24.21-16.05l-1.27-1.65c-4.47,6.14-10.51,10.87-16.44,15.52l1.59,1.59c4.62-4.83,9.92-8.88,15.79-12.08l-1.36-1.77c-4.72,5.99-10.15,11.34-15.59,16.66-.9.88.28,2.48,1.36,1.77l12.35-8.09-1.54-1.54c-1.48,3.02-3.45,5.67-5.93,7.95-1.1,1.01.48,2.45,1.59,1.59l9.54-7.37-1.77-1.36-4.17,7.4c-.51.91.58,2.24,1.54,1.54,1.92-1.4,3.95-2.61,6.09-3.63l-1.65-1.27c-.54,1.52-1.28,2.91-2.21,4.23-.84,1.19,1.1,2.29,1.94,1.14,1.4-1.92,2.8-4.06,2.63-6.54-.15-2.04-2.22-5.21-.62-7.03.58-.66.25-2.02-.8-1.92-.91.09-1.83.18-2.74.26-1.43.14-1.44,2.39,0,2.25.91-.09,1.83-.18,2.74-.26l-.8-1.92c-1.65,1.87-1.27,4.21-.59,6.41.41,1.32.78,2.57.37,3.94s-1.31,2.55-2.13,3.68l1.94,1.14c1.04-1.48,1.83-3.07,2.43-4.77.36-1.01-.85-1.65-1.65-1.27-2.15,1.02-4.18,2.23-6.09,3.63l1.54,1.54,4.17-7.4c.67-1.19-.81-2.11-1.77-1.36l-9.54,7.37,1.59,1.59c2.6-2.39,4.73-5.23,6.28-8.41.46-.94-.53-2.2-1.54-1.54l-12.35,8.09,1.36,1.77c5.44-5.32,10.87-10.67,15.59-16.66.76-.96-.17-2.42-1.36-1.77-6.02,3.28-11.5,7.48-16.24,12.43-1.03,1.08.48,2.46,1.59,1.59,6.11-4.78,12.19-9.65,16.79-15.97.66-.9-.43-1.77-1.27-1.65-10.4,1.42-16.51,10.91-24.75,16.27l1.14,1.94c9.28-6.15,17.67-13.56,24.89-22.04.78-.92-.22-2.49-1.36-1.77-8.67,5.44-17.38,10.88-26.74,15.09l1.36,1.77c5.45-4.96,11.12-9.67,17.01-14.11,1.15-.87.2-2.56-1.14-1.94l-15.65,7.19c-1.31.6-.17,2.54,1.14,1.94h0Z"/>
  </g>
  <g>
    <path class="cls-5" d="M15.73,63.63c-6.57.53-12.48,4.91-14.52,11.25s.22,14.03,5.81,18.17,12.92,4.29,18.62.59c6.52-4.23,8.34-11.94,7.96-19.28-.13-2.43-.43-4.85-.76-7.27-.24-1.74-.93-3.27-2.84-3.55-2.24-.33-4.73.03-6.99.09-2.58.07-5.16.13-7.74.2-1.45.04-1.45,2.29,0,2.25,3.66-.1,7.33-.19,10.99-.29.95-.02,1.92-.11,2.86-.07.85.04,1.21.26,1.42,1.11.42,1.7.49,3.57.65,5.31.59,6.42.15,13.63-4.96,18.24-4.3,3.88-10.67,4.78-15.83,2.12s-8.35-8.47-7.6-14.43c.82-6.54,6.41-11.68,12.94-12.2,1.43-.11,1.45-2.37,0-2.25h0Z"/>
    <path class="cls-5" d="M29.77,82.36c.45-1.06,1.23-1.79,2.28-2.09l-1.09-1.88c-2.41,2.86-4.54,5.94-6.32,9.23-.69,1.27,1.25,2.41,1.94,1.14,1.69-3.11,3.69-6.06,5.97-8.77.33-.39.44-.91.18-1.36-.25-.43-.79-.65-1.27-.52-1.59.45-2.98,1.59-3.63,3.12-.24.56-.17,1.21.4,1.54.47.28,1.3.16,1.54-.4h0Z"/>
    <path class="cls-5" d="M7.04,73.18c2.58-2.17,5.59-3.63,8.87-4.37l-1.09-1.88c-3.78,4.54-7.81,8.87-12.07,12.97l1.59,1.59c5.05-4.9,11.1-8.52,17.11-12.09l-1.36-1.77-13.97,15.27c-.98,1.08.5,2.54,1.59,1.59,5.43-4.75,11.02-9.33,16.75-13.71l-1.65-1.27c-1.52,4.12-4.61,7.34-7.6,10.45l1.77,1.36c2.52-3.65,5.65-6.84,9.24-9.44l-1.54-1.54-6.05,9.48c-.67,1.05.6,1.94,1.54,1.54,2.28-.98,4.67-1.64,7.12-2.04l-1.27-1.65c-1.57,2.81-3.63,5.23-6.13,7.26l1.59,1.59,2.69-2.59-1.59-1.59c-1.1,1.27-2.27,2.71-3.94,3.21-1.54.46-3.76-.4-2.95-2.33.51-1.22-1.4-1.89-2.06-.87-1.82,2.85-3.86,6.01-7.21,7.18l.6,2.17,12.66-4.8-1.27-1.65c-1.79,2.4-3.58,4.79-5.37,7.19-.8,1.07.87,2.17,1.77,1.36,2.84-2.56,5.68-5.12,8.53-7.68.59-.53,1.59-1.13,2-1.8.46-.2.49-.37.1-.52-.23-.29-.35-.26-.35.1-.23.23-.47.96-.62,1.26-.82,1.68-1.64,3.35-2.47,5.03-.53,1.09.85,2.35,1.77,1.36,5.05-5.4,5.55-12.93,5.8-19.95.03-.9-1.31-1.58-1.92-.8l-3.71,4.77,1.88,1.09,1.01-5.2c.15-.76.21-1.63.46-2.36.29-.82,1.07-1.22,1.86-1.46l-1.42-1.08.05,2.48c.03,1.45,2.28,1.45,2.25,0l-.05-2.48c-.01-.71-.71-1.3-1.42-1.08-.87.26-1.67.66-2.35,1.27-.73.66-.99,1.27-1.18,2.23-.46,2.36-.92,4.72-1.38,7.09-.19.97,1.12,2.07,1.88,1.09l3.71-4.77-1.92-.8c-.23,6.37-.54,13.43-5.14,18.36l1.77,1.36c1.07-2.19,2.44-4.4,3.25-6.69.54-1.53-.32-3.64-2.25-2.8-1,.43-1.85,1.49-2.65,2.21-.97.87-1.93,1.74-2.9,2.61-2.06,1.85-4.11,3.7-6.17,5.56l1.77,1.36c1.79-2.4,3.58-4.79,5.37-7.19.57-.77-.39-1.99-1.27-1.65-4.22,1.6-8.44,3.2-12.66,4.8-1.33.51-.78,2.65.6,2.17,3.96-1.38,6.38-4.82,8.56-8.21l-2.06-.87c-1.04,2.48,1.05,5.03,3.52,5.3,3.04.34,5.3-1.89,7.13-4,.94-1.09-.54-2.61-1.59-1.59l-2.69,2.59c-1.07,1.03.49,2.48,1.59,1.59,2.64-2.13,4.83-4.75,6.48-7.71.51-.92-.33-1.81-1.27-1.65-2.66.43-5.19,1.2-7.66,2.27l1.54,1.54,6.05-9.48c.58-.91-.61-2.21-1.54-1.54-3.92,2.84-7.29,6.27-10.05,10.25-.73,1.06.89,2.27,1.77,1.36,3.28-3.42,6.51-6.93,8.18-11.44.32-.87-.88-1.86-1.65-1.27-5.89,4.5-11.63,9.19-17.21,14.06l1.59,1.59c4.66-5.09,9.32-10.18,13.97-15.27.84-.92-.23-2.44-1.36-1.77-6.18,3.67-12.38,7.41-17.57,12.44-1.04,1.01.55,2.59,1.59,1.59,4.26-4.1,8.29-8.42,12.07-12.97.71-.85.05-2.14-1.09-1.88-3.66.84-6.99,2.54-9.86,4.95-1.11.93.49,2.52,1.59,1.59h0Z"/>
  </g>
</svg>