<?xml version="1.0" encoding="UTF-8"?>
<svg xmlns="http://www.w3.org/2000/svg" xmlns:xlink="http://www.w3.org/1999/xlink" width="60px" height="89px" viewBox="0 0 60 88" version="1.1">
<g id="surface1">
<path style=" stroke:none;fill-rule:nonzero;fill:rgb(27.058825%,71.764708%,91.37255%);fill-opacity:1;" d="M 42.925781 29.921875 C 40.210938 30.652344 37.410156 31.464844 35.109375 33.148438 C 32.992188 34.695312 31.492188 36.933594 30.847656 39.464844 C 29.53125 44.628906 32.015625 50.035156 36.480469 52.847656 C 41.167969 55.8125 47.648438 55.664062 52.203125 52.503906 C 56.523438 49.503906 58.363281 44.3125 56.742188 39.292969 C 54.800781 33.292969 48.753906 29.902344 42.621094 29.875 C 41.285156 29.875 41.285156 31.921875 42.621094 31.933594 C 47.179688 31.949219 51.816406 34.042969 54.027344 38.160156 C 56.238281 42.273438 55.480469 47.042969 52.011719 50.0625 C 48.539062 53.078125 43.300781 53.734375 39.113281 51.917969 C 34.925781 50.097656 32.164062 45.917969 32.585938 41.441406 C 32.828125 38.933594 34.070312 36.539062 36.066406 34.984375 C 38.191406 33.320312 40.910156 32.601562 43.46875 31.90625 C 44.757812 31.558594 44.203125 29.574219 42.914062 29.921875 Z M 42.925781 29.921875 "/>
<path style=" stroke:none;fill-rule:nonzero;fill:rgb(27.058825%,71.764708%,91.37255%);fill-opacity:1;" d="M 35.910156 37.4375 C 39.8125 35.9375 43.789062 34.65625 47.832031 33.585938 L 46.828125 31.867188 C 42.527344 35.957031 37.675781 39.375 32.382812 42.070312 C 31.34375 42.601562 32.0625 44.300781 33.183594 43.953125 C 39.886719 41.859375 46.378906 39.128906 52.554688 35.800781 L 51.136719 34.390625 C 49.027344 37.152344 46.46875 39.546875 43.761719 41.722656 C 42.328125 42.867188 40.84375 43.945312 39.34375 44.996094 C 38.609375 45.507812 37.871094 46.019531 37.125 46.523438 C 36.8125 46.734375 36.5 46.972656 36.167969 47.164062 C 35.992188 47.273438 35.347656 47.757812 35.828125 47.445312 C 38.753906 45.515625 41.636719 43.6875 44.886719 42.300781 C 48.136719 40.910156 51.625 39.894531 55.132812 39.253906 L 54.128906 37.535156 C 48.558594 43.003906 41.066406 45.9375 35.273438 51.148438 C 34.34375 51.988281 35.523438 53.214844 36.527344 52.765625 C 42.972656 49.859375 49.425781 46.953125 55.867188 44.046875 L 54.617188 42.425781 C 50.941406 45.78125 47.050781 48.871094 42.945312 51.6875 C 41.828125 52.457031 42.777344 53.984375 43.992188 53.460938 C 46.332031 52.464844 48.769531 51.734375 51.265625 51.242188 C 52.574219 50.984375 52.019531 49 50.714844 49.257812 C 48.035156 49.785156 45.457031 50.617188 42.953125 51.6875 L 44.003906 53.460938 C 48.253906 50.546875 52.296875 47.347656 56.097656 43.882812 C 57.019531 43.039062 55.851562 41.816406 54.847656 42.261719 C 48.402344 45.171875 41.949219 48.078125 35.503906 50.984375 L 36.757812 52.601562 C 42.546875 47.390625 50.03125 44.464844 55.609375 38.988281 C 56.394531 38.222656 55.574219 37.097656 54.605469 37.273438 C 47.824219 38.515625 41.296875 41.164062 35.617188 45.058594 C 34.585938 45.765625 33.167969 46.777344 33.527344 48.234375 C 33.886719 49.6875 35.449219 49.785156 36.574219 49.292969 C 38.035156 48.652344 39.410156 47.472656 40.714844 46.558594 C 42.097656 45.589844 43.457031 44.585938 44.792969 43.542969 C 47.832031 41.15625 50.601562 38.503906 52.949219 35.441406 C 53.621094 34.566406 52.359375 33.585938 51.53125 34.035156 C 45.503906 37.28125 39.195312 39.933594 32.660156 41.980469 L 33.460938 43.863281 C 38.910156 41.09375 43.910156 37.535156 48.328125 33.339844 C 49.082031 32.617188 48.300781 31.367188 47.324219 31.621094 C 43.285156 32.691406 39.308594 33.972656 35.402344 35.46875 C 34.171875 35.945312 34.703125 37.929688 35.957031 37.453125 Z M 35.910156 37.4375 "/>
<path style=" stroke:none;fill-rule:nonzero;fill:rgb(95.294118%,44.705883%,39.215687%);fill-opacity:1;" d="M 56.402344 19.546875 C 53.605469 21.464844 50.804688 23.386719 48.007812 25.304688 C 46.921875 26.046875 47.886719 27.765625 49.054688 27.078125 C 52.546875 25.046875 55.058594 21.703125 55.988281 17.800781 C 56.238281 16.746094 55.039062 16.164062 54.257812 16.804688 C 50.289062 20.039062 46.332031 23.273438 42.363281 26.511719 C 41.460938 27.242188 42.667969 28.824219 43.617188 28.128906 C 49.46875 23.824219 54.496094 18.558594 58.5 12.515625 C 59.0625 11.664062 57.941406 10.550781 57.082031 11.105469 C 49.175781 16.289062 41.269531 21.472656 33.359375 26.667969 L 34.613281 28.285156 C 41.664062 22.214844 48.714844 16.144531 55.765625 10.066406 C 56.660156 9.296875 55.507812 7.851562 54.515625 8.445312 C 46.515625 13.226562 38.523438 18 30.523438 22.78125 L 31.574219 24.554688 C 38.699219 19.492188 44.894531 13.3125 49.96875 6.214844 C 50.554688 5.394531 49.378906 4.222656 48.550781 4.808594 C 42.90625 8.792969 37.261719 12.789062 31.621094 16.777344 L 32.871094 18.394531 C 37.503906 13.601562 42.132812 8.8125 46.765625 4.023438 C 47.566406 3.191406 46.542969 1.800781 45.511719 2.40625 C 40.972656 5.054688 36.433594 7.714844 31.894531 10.367188 L 33.3125 11.773438 C 35.503906 8.667969 37.695312 5.558594 39.886719 2.449219 C 40.503906 1.574219 39.316406 0.566406 38.46875 1.042969 C 35.917969 2.476562 33.453125 4.277344 31.933594 6.828125 C 30.71875 8.875 30.292969 11.226562 30.148438 13.574219 C 29.972656 16.347656 30.082031 19.117188 29.863281 21.886719 C 29.722656 23.59375 29.328125 25.269531 29.179688 26.976562 C 29.035156 28.6875 29.742188 30.324219 31.519531 30.808594 C 33.40625 31.320312 35.6875 30.6875 37.59375 30.523438 C 39.859375 30.332031 42.132812 30.269531 44.40625 30.140625 C 48.402344 29.902344 52.25 29.109375 55.316406 26.394531 C 61.1875 21.183594 61.289062 12.050781 56.144531 6.316406 C 49.554688 -1.03125 38.699219 -0.355469 29.769531 0.53125 C 28.453125 0.660156 28.445312 2.714844 29.769531 2.585938 C 37.152344 1.855469 45.300781 1.078125 51.828125 5.328125 C 57.746094 9.1875 59.871094 17.304688 55.527344 23.136719 C 53.390625 26 50.214844 27.453125 46.71875 27.882812 C 42.832031 28.367188 38.875 28.292969 34.972656 28.714844 C 34.160156 28.804688 33.257812 29 32.441406 28.886719 C 31.363281 28.742188 31.167969 27.945312 31.261719 26.976562 C 31.398438 25.476562 31.75 23.988281 31.886719 22.488281 C 32.117188 20.03125 32.089844 17.570312 32.152344 15.113281 C 32.21875 12.898438 32.355469 10.578125 33.359375 8.558594 C 34.648438 5.960938 37.035156 4.234375 39.519531 2.835938 L 38.101562 1.425781 C 35.910156 4.535156 33.71875 7.644531 31.527344 10.75 C 30.910156 11.621094 32.097656 12.652344 32.945312 12.160156 C 37.484375 9.507812 42.023438 6.847656 46.5625 4.195312 L 45.308594 2.578125 C 40.679688 7.367188 36.046875 12.160156 31.417969 16.949219 C 30.636719 17.753906 31.675781 19.261719 32.667969 18.566406 C 38.3125 14.582031 43.957031 10.585938 49.597656 6.601562 L 48.179688 5.191406 C 43.328125 11.984375 37.347656 17.945312 30.535156 22.789062 C 29.464844 23.550781 30.414062 25.257812 31.582031 24.5625 C 39.582031 19.78125 47.574219 15.011719 55.574219 10.230469 L 54.320312 8.613281 C 47.269531 14.683594 40.21875 20.753906 33.167969 26.832031 C 32.28125 27.589844 33.441406 29.089844 34.417969 28.449219 C 42.328125 23.265625 50.234375 18.082031 58.140625 12.890625 L 56.722656 11.480469 C 52.921875 17.214844 48.136719 22.269531 42.574219 26.355469 L 43.828125 27.972656 C 47.792969 24.738281 51.753906 21.5 55.722656 18.265625 L 53.992188 17.269531 C 53.171875 20.667969 51.054688 23.550781 48.007812 25.324219 L 49.054688 27.097656 C 51.855469 25.175781 54.652344 23.257812 57.453125 21.335938 C 58.539062 20.585938 57.507812 18.804688 56.402344 19.5625 Z M 56.402344 19.546875 "/>
<path style=" stroke:none;fill-rule:nonzero;fill:rgb(94.117647%,30.980393%,13.725491%);fill-opacity:1;" d="M 29.429688 1.234375 C 22.40625 1.488281 15.085938 -0.574219 8.339844 2.222656 C 2.621094 4.597656 -0.269531 10.277344 0.679688 16.300781 C 1.628906 22.324219 6.40625 26.839844 11.828125 29.097656 C 15.078125 30.453125 18.601562 31.027344 22.109375 31.117188 C 23.960938 31.164062 25.828125 31.089844 27.671875 30.898438 C 29.511719 30.707031 30.285156 30.03125 30.609375 28.238281 C 32.117188 19.839844 32.183594 11.246094 30.976562 2.816406 C 30.792969 1.507812 28.792969 2.066406 28.976562 3.363281 C 29.925781 10 30.007812 16.757812 29.234375 23.414062 C 29.0625 24.9375 28.976562 26.648438 28.535156 28.128906 C 28.371094 28.6875 28.445312 28.640625 27.890625 28.824219 C 27.53125 28.941406 26.988281 28.90625 26.613281 28.933594 C 25.757812 29 24.898438 29.042969 24.042969 29.0625 C 20.71875 29.136719 17.378906 28.816406 14.203125 27.78125 C 9.242188 26.171875 4.507812 22.535156 3.035156 17.386719 C 1.5625 12.242188 3.597656 6.683594 8.625 4.324219 C 15.105469 1.289062 22.597656 3.527344 29.429688 3.28125 C 30.753906 3.234375 30.765625 1.179688 29.429688 1.226562 Z M 29.429688 1.234375 "/>
<path style=" stroke:none;fill-rule:nonzero;fill:rgb(94.117647%,30.980393%,13.725491%);fill-opacity:1;" d="M 4.378906 10.816406 L 17.738281 4.214844 L 16.484375 2.597656 C 11.734375 6.8125 6.996094 11.023438 2.253906 15.238281 C 1.386719 16.007812 2.53125 17.507812 3.503906 16.859375 L 22.9375 3.847656 L 21.6875 2.230469 C 15.683594 8.472656 9.671875 14.710938 3.671875 20.953125 C 2.890625 21.765625 3.917969 23.246094 4.921875 22.570312 C 12.894531 17.148438 20.066406 10.707031 27.191406 4.25 L 25.5625 3.007812 C 19.929688 10.386719 14.285156 17.773438 8.652344 25.148438 C 7.933594 26.089844 9.472656 27.214844 10.28125 26.394531 C 16.15625 20.386719 22.066406 14.34375 28.804688 9.269531 L 27.246094 8.382812 C 27.367188 10.183594 25.554688 11.453125 24.394531 12.597656 C 23.085938 13.894531 21.824219 15.25 20.621094 16.648438 C 18.1875 19.453125 15.980469 22.445312 13.992188 25.570312 C 13.429688 26.457031 14.535156 27.488281 15.410156 26.976562 C 19.882812 24.382812 24.246094 21.585938 28.480469 18.613281 L 27.230469 16.996094 C 24.890625 19.957031 22.5625 22.917969 20.222656 25.878906 C 19.5625 26.722656 20.40625 28.203125 21.476562 27.5 L 27.589844 23.441406 L 26.171875 22.03125 L 23.75 27.597656 C 23.34375 28.523438 24.183594 29.511719 25.167969 29.007812 L 28.105469 27.507812 C 29.292969 26.90625 28.242188 25.121094 27.054688 25.734375 L 24.117188 27.234375 L 25.535156 28.640625 L 27.957031 23.074219 C 28.324219 22.234375 27.496094 21.027344 26.539062 21.667969 L 20.425781 25.726562 L 21.679688 27.34375 C 24.015625 24.382812 26.34375 21.417969 28.683594 18.457031 C 29.335938 17.625 28.480469 16.097656 27.429688 16.839844 C 23.195312 19.808594 18.84375 22.609375 14.359375 25.203125 L 15.777344 26.613281 C 17.96875 23.164062 20.425781 19.902344 23.167969 16.875 C 24.476562 15.429688 25.886719 14.085938 27.246094 12.699219 C 28.40625 11.507812 29.4375 10.121094 29.320312 8.382812 C 29.273438 7.699219 28.433594 6.984375 27.761719 7.496094 C 20.878906 12.679688 14.828125 18.796875 8.828125 24.9375 L 10.457031 26.183594 L 27.359375 4.039062 C 28.09375 3.070312 26.558594 2.046875 25.726562 2.796875 C 18.730469 9.132812 11.707031 15.476562 3.875 20.796875 L 5.125 22.414062 C 11.128906 16.171875 17.140625 9.9375 23.140625 3.691406 C 23.925781 2.878906 22.894531 1.398438 21.890625 2.074219 L 2.464844 15.074219 L 3.71875 16.691406 C 8.457031 12.480469 13.199219 8.273438 17.949219 4.058594 C 18.871094 3.246094 17.699219 1.945312 16.699219 2.441406 L 3.332031 9.042969 C 2.132812 9.636719 3.183594 11.410156 4.378906 10.816406 Z M 4.378906 10.816406 "/>
<path style=" stroke:none;fill-rule:nonzero;fill:rgb(50.196081%,38.431373%,66.666669%);fill-opacity:1;" d="M 27.976562 28.832031 C 21.105469 29.582031 13.808594 28.953125 7.527344 32.316406 C 2.199219 35.179688 -0.960938 40.597656 0.476562 46.632812 C 1.914062 52.667969 7.269531 56.824219 13.105469 58.5625 C 16.523438 59.578125 20.140625 59.832031 23.683594 59.761719 C 25.460938 59.722656 27.347656 59.722656 29.097656 59.421875 C 30.550781 59.175781 31.296875 58.152344 31.390625 56.734375 C 31.527344 54.585938 31.296875 52.363281 31.253906 50.214844 C 31.207031 48.066406 31.140625 45.820312 31.085938 43.617188 C 30.976562 39.144531 30.867188 34.667969 30.746094 30.195312 C 30.707031 28.871094 28.636719 28.871094 28.675781 30.195312 C 28.847656 37.023438 29.015625 43.84375 29.191406 50.671875 C 29.234375 52.335938 29.28125 54.011719 29.320312 55.675781 C 29.335938 56.414062 29.519531 57.136719 28.683594 57.410156 C 27.847656 57.683594 26.722656 57.574219 25.855469 57.621094 C 22.636719 57.796875 19.367188 57.796875 16.191406 57.191406 C 10.84375 56.1875 5.410156 53.351562 3.15625 48.167969 C 2.070312 45.65625 1.800781 42.738281 2.789062 40.152344 C 3.691406 37.792969 5.558594 35.917969 7.695312 34.609375 C 13.75 30.890625 21.191406 31.640625 27.984375 30.898438 C 29.292969 30.753906 29.308594 28.695312 27.984375 28.84375 Z M 27.976562 28.832031 "/>
<path style=" stroke:none;fill-rule:nonzero;fill:rgb(50.196081%,38.431373%,66.666669%);fill-opacity:1;" d="M 4.765625 39.886719 L 19.175781 33.3125 L 18.125 31.539062 C 12.5625 35.699219 7.1875 40.105469 2.042969 44.757812 C 1.113281 45.601562 2.289062 46.824219 3.292969 46.375 C 11.910156 42.539062 19.929688 37.5625 27.910156 32.582031 L 26.660156 30.964844 C 20.132812 38.578125 12.5625 45.269531 4.167969 50.792969 C 3.0625 51.523438 4.09375 53.296875 5.21875 52.566406 C 12.609375 47.785156 18.199219 39.15625 27.503906 37.894531 L 26.335938 36.386719 C 22.222656 41.996094 16.660156 46.320312 11.203125 50.574219 L 12.664062 52.027344 C 16.917969 47.609375 21.796875 43.910156 27.203125 40.984375 L 25.949219 39.363281 C 21.605469 44.839844 16.605469 49.730469 11.597656 54.59375 C 10.769531 55.398438 11.855469 56.863281 12.847656 56.214844 L 24.21875 48.816406 L 22.800781 47.410156 C 21.4375 50.171875 19.625 52.59375 17.34375 54.679688 C 16.328125 55.601562 17.785156 56.917969 18.804688 56.132812 L 27.589844 49.394531 L 25.957031 48.152344 L 22.121094 54.914062 C 21.648438 55.746094 22.652344 56.964844 23.539062 56.324219 C 25.304688 55.042969 27.171875 53.9375 29.144531 53.003906 L 27.625 51.84375 C 27.128906 53.234375 26.445312 54.503906 25.589844 55.710938 C 24.816406 56.796875 26.601562 57.804688 27.375 56.753906 C 28.664062 54.996094 29.953125 53.042969 29.796875 50.773438 C 29.660156 48.910156 27.753906 46.011719 29.226562 44.347656 C 29.761719 43.742188 29.457031 42.5 28.492188 42.59375 C 27.652344 42.675781 26.804688 42.757812 25.96875 42.828125 C 24.652344 42.957031 24.640625 45.015625 25.96875 44.886719 C 26.804688 44.804688 27.652344 44.722656 28.492188 44.648438 L 27.753906 42.894531 C 26.234375 44.601562 26.585938 46.742188 27.210938 48.753906 C 27.589844 49.960938 27.929688 51.101562 27.550781 52.355469 C 27.171875 53.609375 26.34375 54.6875 25.589844 55.71875 L 27.375 56.761719 C 28.332031 55.410156 29.0625 53.957031 29.613281 52.402344 C 29.945312 51.476562 28.832031 50.894531 28.09375 51.242188 C 26.113281 52.171875 24.246094 53.277344 22.488281 54.558594 L 23.90625 55.964844 L 27.746094 49.203125 C 28.363281 48.113281 27 47.273438 26.113281 47.957031 L 17.332031 54.695312 L 18.796875 56.148438 C 21.191406 53.964844 23.152344 51.367188 24.578125 48.460938 C 25 47.601562 24.089844 46.449219 23.160156 47.054688 L 11.789062 54.449219 L 13.042969 56.066406 C 18.050781 51.203125 23.050781 46.3125 27.394531 40.835938 C 28.09375 39.960938 27.238281 38.625 26.144531 39.21875 C 20.601562 42.21875 15.554688 46.058594 11.191406 50.582031 C 10.246094 51.570312 11.632812 52.832031 12.65625 52.035156 C 18.28125 47.664062 23.878906 43.214844 28.113281 37.4375 C 28.71875 36.613281 27.71875 35.816406 26.945312 35.925781 C 17.371094 37.226562 11.746094 45.902344 4.160156 50.800781 L 5.207031 52.574219 C 13.75 46.953125 21.476562 40.179688 28.121094 32.425781 C 28.839844 31.585938 27.917969 30.148438 26.871094 30.808594 C 18.886719 35.78125 10.871094 40.753906 2.253906 44.601562 L 3.503906 46.222656 C 8.523438 41.6875 13.742188 37.382812 19.164062 33.320312 C 20.222656 32.527344 19.347656 30.980469 18.117188 31.546875 L 3.707031 38.121094 C 2.503906 38.671875 3.550781 40.445312 4.757812 39.894531 Z M 4.765625 39.886719 "/>
<path style=" stroke:none;fill-rule:nonzero;fill:rgb(27.843139%,72.941178%,49.411765%);fill-opacity:1;" d="M 14.609375 58.171875 C 8.558594 58.65625 3.117188 62.660156 1.242188 68.453125 C -0.636719 74.25 1.445312 81.28125 6.589844 85.066406 C 11.734375 88.851562 18.484375 88.988281 23.730469 85.605469 C 29.734375 81.738281 31.410156 74.6875 31.058594 67.980469 C 30.9375 65.757812 30.664062 63.546875 30.359375 61.332031 C 30.136719 59.742188 29.503906 58.34375 27.746094 58.085938 C 25.683594 57.785156 23.390625 58.113281 21.308594 58.171875 C 18.933594 58.234375 16.558594 58.289062 14.183594 58.351562 C 12.847656 58.390625 12.847656 60.445312 14.183594 60.410156 C 17.554688 60.316406 20.933594 60.234375 24.300781 60.144531 C 25.175781 60.125 26.070312 60.042969 26.933594 60.082031 C 27.71875 60.117188 28.046875 60.316406 28.242188 61.09375 C 28.628906 62.648438 28.691406 64.359375 28.839844 65.949219 C 29.382812 71.820312 28.976562 78.410156 24.273438 82.625 C 20.316406 86.171875 14.453125 86.996094 9.699219 84.5625 C 4.949219 82.132812 2.015625 76.820312 2.703125 71.371094 C 3.460938 65.390625 8.605469 60.691406 14.617188 60.21875 C 15.933594 60.117188 15.953125 58.050781 14.617188 58.160156 Z M 14.609375 58.171875 "/>
<path style=" stroke:none;fill-rule:nonzero;fill:rgb(27.843139%,72.941178%,49.411765%);fill-opacity:1;" d="M 27.53125 75.292969 C 27.945312 74.324219 28.664062 73.65625 29.632812 73.382812 L 28.628906 71.664062 C 26.410156 74.277344 24.449219 77.09375 22.808594 80.101562 C 22.175781 81.261719 23.960938 82.304688 24.597656 81.144531 C 26.152344 78.300781 27.992188 75.605469 30.09375 73.125 C 30.394531 72.769531 30.496094 72.292969 30.257812 71.882812 C 30.027344 71.488281 29.53125 71.289062 29.089844 71.40625 C 27.625 71.820312 26.34375 72.859375 25.746094 74.257812 C 25.527344 74.773438 25.589844 75.367188 26.113281 75.667969 C 26.546875 75.921875 27.3125 75.8125 27.53125 75.300781 Z M 27.53125 75.292969 "/>
<path style=" stroke:none;fill-rule:nonzero;fill:rgb(27.843139%,72.941178%,49.411765%);fill-opacity:1;" d="M 6.609375 66.902344 C 8.984375 64.917969 11.753906 63.582031 14.773438 62.90625 L 13.769531 61.1875 C 10.289062 65.335938 6.582031 69.296875 2.660156 73.042969 L 4.121094 74.496094 C 8.769531 70.019531 14.339844 66.707031 19.875 63.445312 L 18.621094 61.828125 L 5.761719 75.785156 C 4.859375 76.773438 6.222656 78.109375 7.226562 77.238281 C 12.222656 72.898438 17.371094 68.710938 22.644531 64.707031 L 21.125 63.546875 C 19.726562 67.3125 16.882812 70.253906 14.128906 73.097656 L 15.757812 74.34375 C 18.078125 71.003906 20.960938 68.089844 24.265625 65.710938 L 22.847656 64.304688 L 17.277344 72.96875 C 16.660156 73.929688 17.828125 74.746094 18.695312 74.378906 C 20.792969 73.484375 22.996094 72.878906 25.25 72.511719 L 24.082031 71.003906 C 22.636719 73.574219 20.738281 75.785156 18.4375 77.640625 L 19.902344 79.097656 L 22.378906 76.726562 L 20.914062 75.273438 C 19.902344 76.433594 18.824219 77.75 17.285156 78.210938 C 15.867188 78.628906 13.824219 77.84375 14.570312 76.078125 C 15.039062 74.964844 13.28125 74.351562 12.675781 75.285156 C 11 77.890625 9.121094 80.777344 6.039062 81.847656 L 6.589844 83.832031 L 18.246094 79.441406 L 17.074219 77.933594 C 15.425781 80.128906 13.78125 82.3125 12.132812 84.507812 C 11.394531 85.484375 12.933594 86.492188 13.761719 85.75 C 16.375 83.410156 18.988281 81.070312 21.613281 78.730469 C 22.15625 78.246094 23.078125 77.695312 23.453125 77.085938 C 23.878906 76.902344 23.90625 76.746094 23.546875 76.609375 C 23.335938 76.34375 23.222656 76.371094 23.222656 76.699219 C 23.011719 76.910156 22.792969 77.578125 22.652344 77.851562 C 21.898438 79.386719 21.144531 80.914062 20.378906 82.449219 C 19.890625 83.449219 21.164062 84.597656 22.007812 83.695312 C 26.660156 78.757812 27.117188 71.875 27.347656 65.457031 C 27.375 64.632812 26.144531 64.011719 25.582031 64.726562 L 22.164062 69.085938 L 23.898438 70.082031 L 24.828125 65.328125 C 24.964844 64.632812 25.019531 63.839844 25.25 63.171875 C 25.515625 62.421875 26.234375 62.054688 26.960938 61.835938 L 25.65625 60.847656 L 25.699219 63.117188 C 25.726562 64.441406 27.800781 64.441406 27.773438 63.117188 L 27.726562 60.847656 C 27.71875 60.199219 27.074219 59.660156 26.417969 59.859375 C 25.617188 60.097656 24.882812 60.464844 24.253906 61.023438 C 23.582031 61.625 23.34375 62.183594 23.167969 63.0625 C 22.746094 65.21875 22.324219 67.375 21.898438 69.542969 C 21.722656 70.429688 22.929688 71.433594 23.628906 70.539062 L 27.046875 66.179688 L 25.277344 65.445312 C 25.066406 71.269531 24.78125 77.722656 20.546875 82.230469 L 22.175781 83.476562 C 23.160156 81.472656 24.421875 79.453125 25.167969 77.359375 C 25.664062 75.960938 24.871094 74.03125 23.09375 74.800781 C 22.175781 75.191406 21.390625 76.160156 20.65625 76.820312 C 19.761719 77.613281 18.878906 78.410156 17.988281 79.207031 C 16.089844 80.898438 14.203125 82.589844 12.304688 84.289062 L 13.9375 85.53125 C 15.582031 83.335938 17.230469 81.152344 18.878906 78.957031 C 19.402344 78.253906 18.519531 77.140625 17.710938 77.449219 C 13.824219 78.914062 9.941406 80.375 6.054688 81.839844 C 4.832031 82.304688 5.335938 84.261719 6.609375 83.820312 C 10.253906 82.5625 12.480469 79.414062 14.488281 76.316406 L 12.589844 75.519531 C 11.632812 77.789062 13.558594 80.121094 15.832031 80.367188 C 18.628906 80.675781 20.710938 78.640625 22.394531 76.710938 C 23.261719 75.714844 21.898438 74.324219 20.933594 75.257812 L 18.457031 77.625 C 17.472656 78.566406 18.90625 79.890625 19.917969 79.078125 C 22.351562 77.128906 24.367188 74.734375 25.886719 72.027344 C 26.355469 71.1875 25.582031 70.375 24.714844 70.519531 C 22.265625 70.914062 19.9375 71.617188 17.664062 72.597656 L 19.082031 74.003906 L 24.652344 65.335938 C 25.183594 64.503906 24.089844 63.316406 23.234375 63.929688 C 19.625 66.527344 16.523438 69.660156 13.980469 73.300781 C 13.308594 74.269531 14.800781 75.375 15.609375 74.542969 C 18.628906 71.417969 21.605469 68.207031 23.140625 64.085938 C 23.4375 63.289062 22.332031 62.382812 21.621094 62.921875 C 16.199219 67.039062 10.917969 71.324219 5.78125 75.777344 L 7.242188 77.230469 C 11.53125 72.578125 15.824219 67.925781 20.105469 63.269531 C 20.878906 62.429688 19.890625 61.039062 18.851562 61.652344 C 13.164062 65.007812 7.453125 68.425781 2.675781 73.027344 C 1.71875 73.949219 3.183594 75.394531 4.140625 74.480469 C 8.0625 70.730469 11.773438 66.78125 15.253906 62.621094 C 15.90625 61.84375 15.296875 60.664062 14.25 60.902344 C 10.878906 61.671875 7.8125 63.226562 5.171875 65.429688 C 4.148438 66.277344 5.621094 67.730469 6.636719 66.882812 Z M 6.609375 66.902344 "/>
</g>
</svg>
