<?xml version="1.0" encoding="UTF-8"?>
<svg id="Layer_1" xmlns="http://www.w3.org/2000/svg" version="1.1" viewBox="0 0 50 50">
  <!-- Generator: Adobe Illustrator 29.0.0, SVG Export Plug-In . SVG Version: 2.1.0 Build 186)  -->
  <defs>
    <style>
      .st0 {
        fill: #6dc2ba;
      }
    </style>
  </defs>
  <path class="st0" d="M41.9,43.9c-6.3-4.2-12.6-8.4-19.5-11.6-4.9-2.3-11.2-4-13.9-9.2l-.9,3.4c6.8-3.2,13.4-6.7,19.8-10.6,3.2-1.9,6.3-3.9,9.4-6,2.7-1.8,5.5-4.3,8.9-4.8,1.3-.2,2.1-1.9,1.8-3.1-.4-1.4-1.7-1.9-3.1-1.8-3.6.5-6.6,2.9-9.5,4.9-3.1,2.1-6.3,4.2-9.6,6.1-6.5,4-13.3,7.6-20.2,10.8-1.3.6-1.5,2.3-.9,3.4,3,5.8,9.3,8.1,14.8,10.6,7.2,3.2,13.8,7.6,20.3,11.9,2.7,1.8,5.2-2.5,2.5-4.3h0Z"/>
</svg>