<?xml version="1.0" encoding="UTF-8"?>
<svg xmlns="http://www.w3.org/2000/svg" xmlns:xlink="http://www.w3.org/1999/xlink" width="50px" height="px" viewBox="0 0 50 50" version="1.1">
<g id="surface1">
<path style=" stroke:none;fill-rule:nonzero;fill:rgb(42.745098%,76.078433%,72.941178%);fill-opacity:1;" d="M 9.53125 5.078125 C 15.808594 9.269531 22.121094 13.480469 29 16.648438 C 33.910156 18.910156 40.25 20.660156 42.878906 25.820312 L 43.78125 22.398438 C 37.011719 25.601562 30.390625 29.128906 23.96875 33 C 20.789062 34.910156 17.671875 36.910156 14.589844 38.980469 C 11.851562 40.828125 9.109375 43.300781 5.730469 43.769531 C 4.390625 43.960938 3.660156 45.671875 3.980469 46.851562 C 4.378906 48.289062 5.710938 48.78125 7.058594 48.601562 C 10.671875 48.101562 13.609375 45.671875 16.539062 43.691406 C 19.671875 41.570312 22.859375 39.519531 26.101562 37.558594 C 32.640625 33.601562 39.390625 29.988281 46.300781 26.71875 C 47.570312 26.121094 47.769531 24.421875 47.199219 23.300781 C 44.25 17.511719 37.941406 15.199219 32.371094 12.710938 C 25.171875 9.5 18.589844 5.121094 12.058594 0.761719 C 9.378906 -1.03125 6.871094 3.300781 9.539062 5.078125 Z M 9.53125 5.078125 "/>
</g>
</svg>
