<?xml version="1.0" encoding="UTF-8"?>
<svg id="Layer_1" xmlns="http://www.w3.org/2000/svg" version="1.1" viewBox="0 0 50 50">
  <!-- Generator: Adobe Illustrator 29.0.0, SVG Export Plug-In . SVG Version: 2.1.0 Build 186)  -->
  <defs>
    <style>
      .st0 {
        fill: #6dc2ba;
      }
    </style>
  </defs>
  <path class="st0" d="M9.53,5.08c6.28,4.19,12.59,8.4,19.47,11.57,4.91,2.26,11.25,4.01,13.88,9.17l.9-3.42c-6.77,3.2-13.39,6.73-19.81,10.6-3.18,1.91-6.3,3.91-9.38,5.98-2.74,1.85-5.48,4.32-8.86,4.79-1.34.19-2.07,1.9-1.75,3.08.4,1.44,1.73,1.93,3.08,1.75,3.61-.5,6.55-2.93,9.48-4.91,3.13-2.12,6.32-4.17,9.56-6.13,6.54-3.96,13.29-7.57,20.2-10.84,1.27-.6,1.47-2.3.9-3.42-2.95-5.79-9.26-8.1-14.83-10.59-7.2-3.21-13.78-7.59-20.31-11.95-2.68-1.79-5.19,2.54-2.52,4.32h0Z"/>
</svg>