<?xml version="1.0" encoding="UTF-8"?>
<svg id="Capa_1" xmlns="http://www.w3.org/2000/svg" viewBox="0 0 967.25 911.19">
  <defs>
    <style>
      .cls-1 {
        fill: #6dc2ba;
      }
    </style>
  </defs>
  <path class="cls-1" d="M420.21,257.14c-7.43.25-14.79,1.38-22.14,2.44-3.87.56-7.72,1.33-11.51,2.31s-7.68,2.2-11.42,3.59c-6.77,2.52-13.46,5.33-19.96,8.48-7.17,3.47-14,7.64-20.41,12.38-9.05,6.7-17.91,13.64-25.67,21.83-2.77,2.92-5.41,5.97-7.91,9.13-4.61,5.84-9.25,11.71-13.36,17.93-4.74,7.17-8.86,14.74-12.36,22.59-4.86,10.88-9.39,21.9-12.66,33.37-2.37,8.32-4.17,16.8-5.43,25.36-1.79,12.08-3.35,24.19-3.67,36.41-.32,12.47,1,24.73,3,37.05.71,4.37,1.68,8.69,2.97,12.93.66,2.15,1.4,4.28,2.22,6.38,2.03,5.14,4.12,10.31,6.56,15.28,1.85,3.78,4.02,7.39,6.42,10.85,3.07,4.42,6.46,8.64,9.79,12.86,1.33,1.69,2.71,3.33,4.14,4.94,5.68,6.41,12.02,12.2,18.59,17.69,9.11,7.61,18.52,14.92,28.25,21.72,16.94,11.83,35.21,21.01,54.55,28.28,8.03,3.02,16.3,5.41,24.72,7.02,7.08,1.35,14.27,2.28,21.44,3.03,3.68.38,7.37.61,11.07.68,10.8.2,21.38-1.25,32.07-2.76,7.25-1.03,14.41-2.63,21.42-4.75,10.17-3.09,20.09-7.27,29.69-11.78,6.65-3.13,13.08-6.74,19.21-10.8,4.47-2.96,8.69-6.21,12.93-9.48s8.34-6.45,12.28-9.97c5.47-4.89,10.58-10.2,15.24-15.87,6.71-8.16,13.25-16.64,18.61-25.78s9.77-19.5,13.64-29.62c2.73-7.13,4.87-14.48,6.43-21.94,1.49-7.13,2.35-14.37,3.3-21.59.49-3.75.86-7.52,1.08-11.3.44-7.64.32-15.32-.34-22.95s-1.65-14.51-2.79-21.71c-.61-3.82-1.35-7.63-2.23-11.4-1.75-7.47-4.02-14.81-6.83-21.95-4-10.19-8.31-20.35-13.77-29.85s-12.09-18.17-18.93-26.7c-4.75-5.92-9.96-11.45-15.56-16.57-7.97-7.29-16.61-13.96-25.54-20.03-6.26-4.26-12.82-8.08-19.6-11.43-6.33-3.13-12.89-5.8-19.41-8.51-3.54-1.47-7.12-2.82-10.75-4.05-7.19-2.44-14.55-4.39-22-5.85s-14.35-2.27-21.55-3.2c-3.73-.48-7.47-.84-11.23-1.07-7.58-.46-15.18-.41-22.75.18-7.09.55-14.15,1.58-21.18,2.6-3.65.53-7.28,1.19-10.88,1.98-5.21,1.24-9.74,3.62-13.6,7.16-4.35,2.82-7.79,6.56-10.3,11.22-2.92,4.59-4.51,9.55-4.75,14.87-1.19,5.32-.95,10.63.71,15.95l4.03,9.56c3.56,6.01,8.34,10.79,14.35,14.35l9.56,4.03c7.09,1.91,14.18,1.91,21.27,0,4.18-.91,8.39-1.65,12.63-2.22l-10.63,1.43c14.48-1.92,29.17-1.85,43.65.08l-10.63-1.43c14.92,2.02,29.53,6,43.41,11.82l-9.56-4.03c13.01,5.5,25.31,12.59,36.51,21.21l-8.1-6.25c10.02,7.76,19.08,16.71,26.86,26.72-2.08-2.7-4.17-5.4-6.25-8.1,7.92,10.26,14.42,21.53,19.47,33.46-1.34-3.19-2.69-6.37-4.03-9.56,5.42,12.92,9.11,26.52,11.01,40.4l-1.43-10.63c1.88,14.01,1.93,28.22.05,42.23l1.43-10.63c-1.73,12.64-5.04,25.03-9.98,36.8,1.34-3.19,2.69-6.37,4.03-9.56-4.58,10.8-10.52,20.95-17.69,30.23,2.08-2.7,4.17-5.4,6.25-8.1-7.53,9.69-16.3,18.37-26,25.88l8.1-6.25c-10.3,7.93-21.59,14.52-33.56,19.6l9.56-4.03c-11.81,4.97-24.22,8.44-36.92,10.18,3.54-.48,7.09-.95,10.63-1.43-11.7,1.57-23.56,1.65-35.27.11l10.63,1.43c-13.15-1.78-25.96-5.55-38.18-10.69l9.56,4.03c-17.79-7.53-34.23-17.89-49.5-29.67l8.1,6.25c-11.93-9.23-23.61-19.17-32.88-31.15l6.25,8.1c-4.37-5.7-8.1-11.83-10.93-18.43l4.03,9.56c-3.31-7.86-5.35-16.15-6.48-24.59l1.43,10.63c-1.97-15.18-1.26-30.7.74-45.84l-1.43,10.63c2.26-16.8,6.51-33.32,13.09-48.96l-4.03,9.56c5.21-12.29,11.85-23.95,20.01-34.54l-6.25,8.1c7.04-9.08,15.21-17.23,24.3-24.26l-8.1,6.25c8.59-6.6,17.95-12.15,27.92-16.4l-9.56,4.03c9.21-3.89,18.87-6.62,28.78-7.98l-10.63,1.43c3.52-.47,7.05-.76,10.59-.88,5.51.21,10.64-.94,15.41-3.45,4.96-1.61,9.25-4.37,12.87-8.27,3.9-3.62,6.66-7.91,8.27-12.87,2.5-4.77,3.65-9.9,3.45-15.41l-1.43-10.63c-1.9-6.78-5.33-12.66-10.29-17.65l-8.1-6.25c-6.24-3.62-12.97-5.44-20.19-5.46h0Z"/>
  <path class="cls-1" d="M532.54,303.12c1.31-3.79,2.74-7.52,4.3-11.22l-4.03,9.56c6.27-14.59,14.47-28.17,24.16-40.74-2.08,2.7-4.17,5.4-6.25,8.1,13.21-16.9,28.83-31.66,45.78-44.76l-8.1,6.25c27.28-20.9,57.85-38.25,89.48-51.66l-9.56,4.03c11.83-4.92,23.99-8.91,36.7-10.75l-10.63,1.43c7.31-.94,14.64-1.2,21.97-.34l-10.63-1.43c6.61.89,12.98,2.61,19.13,5.18l-9.56-4.03c4.91,2.15,9.5,4.78,13.8,7.99l-8.1-6.25c3.82,2.98,7.23,6.32,10.21,10.15l-6.25-8.1c2.39,3.23,4.37,6.64,5.95,10.34l-4.03-9.56c1.44,3.66,2.42,7.41,2.99,11.3l-1.43-10.63c.52,4.44.47,8.8-.11,13.23.48-3.54.95-7.09,1.43-10.63-.77,4.88-2.13,9.54-3.96,14.11,1.34-3.19,2.69-6.37,4.03-9.56-3.31,7.82-7.82,14.95-13,21.66,2.08-2.7,4.17-5.4,6.25-8.1-15.29,19.37-35.32,34.75-54.73,49.77l8.1-6.25c-39.69,30.58-82.3,57.22-127.19,79.5,13.46,23.03,26.92,46.05,40.38,69.08,10.96-6.01,22.21-11.45,33.72-16.33l-9.56,4.03c29.82-12.48,61.14-20.97,93.17-25.31l-10.63,1.43c28.72-3.77,58.23-4.64,86.99-.8l-10.63-1.43c17.47,2.43,34.66,6.73,50.97,13.48l-9.56-4.03c11.35,4.79,22.13,10.75,31.91,18.27l-8.1-6.25c6.65,5.23,12.68,11.1,17.93,17.74-2.08-2.7-4.17-5.4-6.25-8.1,4.71,6.12,8.62,12.71,11.67,19.8l-4.03-9.56c2.44,5.89,4.29,11.93,5.15,18.26l-1.43-10.63c.37,3.47.42,6.83.05,10.3.48-3.54.95-7.09,1.43-10.63-.44,2.94-1.17,5.69-2.28,8.45,1.34-3.19,2.69-6.37,4.03-9.56-1.1,2.4-2.4,4.59-4,6.69,2.08-2.7,4.17-5.4,6.25-8.1-1.63,1.98-3.39,3.72-5.38,5.34,2.7-2.08,5.4-4.17,8.1-6.25-2.97,2.27-6.16,4.07-9.57,5.59l9.56-4.03c-6.96,2.92-14.31,4.52-21.77,5.55l10.63-1.43c-15.19,1.95-30.65,2.12-45.92,2.93-17.32.91-34.63,1.82-51.95,2.74-34.92,1.84-69.85,3.68-104.77,5.52-19.96,1.05-39.91,2.1-59.87,3.15s-36.56,14.42-39.29,34.68c-1.15,8.53-.06,18.06,4.75,25.51,5.26,8.15,13.87,16.87,23.91,18.38,45.89,6.91,90.75,19.59,133.53,37.57l-9.56-4.03c43,18.21,83.85,41.65,120.88,70.13-2.7-2.08-5.4-4.17-8.1-6.25,18.72,14.5,36.26,30.55,50.86,49.27l-6.25-8.1c8.04,10.46,15.28,21.62,20.5,33.77l-4.03-9.56c2.61,6.35,4.55,12.85,5.52,19.66l-1.43-10.63c.54,4.69.59,9.32.04,14.02l1.43-10.63c-.65,4.49-1.84,8.77-3.59,12.95,1.34-3.19,2.69-6.37,4.03-9.56-1.83,4.1-4.08,7.89-6.77,11.48l6.25-8.1c-3.58,4.58-7.68,8.58-12.27,12.14l8.1-6.25c-5.08,3.81-10.53,6.93-16.35,9.46l9.56-4.03c-6.64,2.76-13.52,4.66-20.64,5.62l10.63-1.43c-9.16,1.07-18.31.87-27.46-.28l10.63,1.43c-21.02-2.92-40.91-10.51-60.37-18.7l9.56,4.03c-57.49-24.34-111.7-56.04-161.19-94.11,2.7,2.08,5.4,4.17,8.1,6.25-24.69-19.08-48.15-39.7-70.22-61.76-11.42-11.42-29-14.47-43.7-8.27-13.95,5.89-25.41,20.72-24.59,36.55,3.09,59.59,19.84,119.1,12.11,178.97l1.43-10.63c-2.32,17.2-6.57,34.09-13.26,50.13,1.34-3.19,2.69-6.37,4.03-9.56-4.82,11.31-10.83,22.03-18.28,31.82l6.25-8.1c-6.18,7.96-13.22,15.11-21.18,21.28l8.1-6.25c-7.49,5.67-15.6,10.28-24.21,14.01l9.56-4.03c-15.94,6.67-32.85,10.15-49.91,12.48l10.63-1.43c-8.35,1.1-16.72,1.96-25.1,2.76s-16.08,1.52-24.14.62l10.63,1.43c-3.34-.47-6.5-1.22-9.66-2.4,3.19,1.34,6.37,2.69,9.56,4.03-2.77-1.18-5.27-2.59-7.67-4.4,2.7,2.08,5.4,4.17,8.1,6.25-2.03-1.65-3.8-3.43-5.43-5.47,2.08,2.7,4.17,5.4,6.25,8.1-2.01-2.68-3.63-5.53-4.97-8.6l4.03,9.56c-2.07-5.08-3.29-10.35-4.03-15.77l1.43,10.63c-1.56-12.81-.37-25.61.79-38.4,1.49-16.35,3.34-32.67,5.53-48.95l-1.43,10.63c7.55-55.56,19.18-110.52,34.79-164.37,4.48-15.46-1.9-32.44-14.33-42.05-12.16-9.4-30.96-11.85-44.43-3.13-24,15.55-41.24,37.85-55.08,62.56-11.14,19.88-20.76,40.56-34.7,58.73l6.25-8.1c-10.44,13.41-22.53,25.37-35.97,35.77,2.7-2.08,5.4-4.17,8.1-6.25-14.23,10.87-29.74,19.87-46.24,26.84l9.56-4.03c-16.11,6.69-32.94,11.35-50.21,13.8l10.63-1.43c-15.24,2.05-30.74,2.5-46.01.54l10.63,1.43c-8.7-1.22-17.2-3.28-25.32-6.67l9.56,4.03c-5.01-2.2-9.7-4.84-14.11-8.09l8.1,6.25c-4.03-3.12-7.61-6.61-10.77-10.61l6.25,8.1c-3.06-4.05-5.55-8.39-7.54-13.06l4.03,9.56c-2.21-5.45-3.66-11.07-4.47-16.9l1.43,10.63c-.89-7.19-.79-14.37.13-21.55l-1.43,10.63c1.15-8.14,3.32-16.02,6.44-23.62l-4.03,9.56c3.23-7.6,7.33-14.67,12.36-21.22l-6.25,8.1c7.01-8.89,15.14-16.69,24.05-23.66-2.7,2.08-5.4,4.17-8.1,6.25,25.19-19.38,54.87-31.87,83.48-45.2,34.09-15.88,68.17-31.75,102.26-47.63l8.1-6.25,6.25-8.1c4.55-7.78,5.93-16.68,4.75-25.51-.97-7.19-3.43-13.17-7.87-18.92-5.6-7.25-12.1-11.15-20.78-14.33-54.77-20.06-114.19-24.26-168.12-46.88l9.56,4.03c-17.25-7.34-33.72-16.43-48.61-27.87l8.1,6.25c-9.98-7.79-19.08-16.57-26.9-26.55l6.25,8.1c-6.36-8.28-11.7-17.2-15.84-26.79l4.03,9.56c-2.8-6.69-4.85-13.54-5.9-20.72l1.43,10.63c-.69-5.41-.82-10.8-.17-16.22l-1.43,10.63c.58-4,1.56-7.84,3.1-11.58l-4.03,9.56c1.14-2.55,2.48-4.89,4.12-7.16l-6.25,8.1c1.79-2.3,3.75-4.29,6.01-6.13l-8.1,6.25c2.57-1.93,5.23-3.46,8.17-4.76l-9.56,4.03c4.28-1.72,8.67-2.77,13.24-3.4l-10.63,1.43c10-1.16,20.05-.33,30,1l-10.63-1.43c33.58,4.79,66.12,16.61,98.48,26.38,33.42,10.09,66.85,20.19,100.27,30.28,16.28,4.92,37.1-3.11,45.17-18.38,3.32-6.28,5.14-13.09,5.46-20.19.21-5.51-.94-10.64-3.45-15.41-1.61-4.96-4.37-9.25-8.27-12.87-40.48-51.55-80.96-103.11-121.43-154.66-11.3-14.39-22.66-28.72-33.87-43.18l6.25,8.1c-10-12.96-19.52-26.35-25.97-41.48l4.03,9.56c-2.89-7.05-4.98-14.27-6.09-21.82l1.43,10.63c-.83-6.42-.93-12.81-.17-19.25l-1.43,10.63c.75-5.41,2.1-10.6,4.2-15.64l-4.03,9.56c1.67-3.74,3.68-7.22,6.12-10.52l-6.25,8.1c2.59-3.31,5.5-6.24,8.78-8.88l-8.1,6.25c4-3.06,8.29-5.52,12.92-7.51l-9.56,4.03c5.53-2.25,11.22-3.72,17.13-4.54l-10.63,1.43c6.4-.78,12.76-.77,19.16,0l-10.63-1.43c8.05,1.12,15.79,3.44,23.28,6.55l-9.56-4.03c11.41,4.93,21.86,11.6,31.73,19.12l-8.1-6.25c22.17,17.13,41.87,37.47,59.02,59.58l-6.25-8.1c18.41,23.94,33.7,50.12,45.5,77.92l-4.03-9.56c8.95,21.31,15.79,43.42,20.36,66.08,1.9,9.44,10.3,19.17,18.38,23.91,8.57,5.02,21.21,7.14,30.82,4.03s19.02-9.13,23.91-18.38l4.03-9.56c1.91-7.09,1.91-14.18,0-21.27-.89-5.47-1.71-10.94-2.47-16.42l1.43,10.63c-4.12-30.7-5.71-61.81-1.68-92.6l-1.43,10.63c2.52-18.32,7-36.27,14.18-53.33l-4.03,9.56c5.9-13.74,13.36-26.7,22.46-38.57l-6.25,8.1c7.75-9.94,16.56-18.93,26.51-26.69l-8.1,6.25c8.6-6.57,17.86-12.09,27.8-16.37l-9.56,4.03c5.54-2.31,11.16-4.32,17.1-5.27l-10.63,1.43c2.64-.31,5.19-.38,7.83-.16l-10.63-1.43c2.72.4,5.23,1.09,7.77,2.15l-9.56-4.03c2.38,1.13,4.55,2.47,6.67,4.04l-8.1-6.25c3.51,2.81,6.53,6.04,9.3,9.57l-6.25-8.1c6.14,8.15,10.98,17.24,14.95,26.62l-4.03-9.56c5.11,12.43,8.4,25.42,10.26,38.72l-1.43-10.63c2.93,22.27,1.9,44.77-1.05,66.98l1.43-10.63c-3.57,26.11-9.71,51.76-16.34,77.23-2.64,10.13-1.28,21.74,4.03,30.82,4.86,8.3,14.37,16.21,23.91,18.38,10.24,2.33,21.73,1.83,30.82-4.03s15.72-13.67,18.38-23.91c10.23-39.29,19.38-79.58,20.5-120.33.58-20.98-1.43-42.49-6.48-62.87-2.84-11.48-7.26-22.31-12.03-33.12-3.73-8.47-8.29-16.65-13.85-24.07-4.14-5.52-8.28-11.4-13.51-15.99-8.77-7.68-15.72-11.74-26.35-16.01-14.27-5.73-31.77-4.48-46.13.27-22.26,7.37-41.65,19.27-59.3,34.57-29.78,25.83-50.63,62.93-61.17,100.62-14.74,52.75-10.77,107.65-2.11,161,25.71-7.09,51.43-14.18,77.14-21.27-9.74-48.35-29.72-95.6-57.45-136.39-14.59-21.47-31.1-41.92-49.6-60.15-8.54-8.41-17.5-16.39-26.93-23.78-12.07-9.46-24.28-18.71-38.3-25.1-16.5-7.52-31.85-12.18-49.99-13.6-13.44-1.05-28.12.74-40.77,5.44-15.39,5.71-30.26,13.73-40.91,26.6s-18.88,27.94-21.38,44.81c-2.65,17.81-2.36,35.22,2.8,52.69,4.37,14.78,11.43,29.12,19.91,41.98s18.19,24.76,27.66,36.82c9.04,11.51,18.07,23.02,27.11,34.52,40.12,51.09,80.23,102.19,120.35,153.28,12.97-22.29,25.95-44.57,38.92-66.86-46.77-14.12-93.54-28.26-140.31-42.37-25.2-7.6-50.24-14.04-76.53-16.6-12.93-1.26-25.89-.61-38.62,2.25-7.27,1.63-14.52,4.67-20.99,8.25s-13.08,8.66-17.9,14.44c-7.38,8.87-10.92,15.14-15.13,25.74-2.84,7.16-3.68,14.53-4.53,22.21-1.3,11.76.36,24.19,3.33,35.57,6.1,23.37,19.5,44.43,35.23,62.45,13.7,15.69,30.93,28.83,48.72,39.54,18.57,11.18,38.94,19.83,59.46,26.69,48.55,16.23,100.01,21.72,148.15,39.35l-9.56-73.11c-27.16,12.65-54.32,25.3-81.49,37.95-24.23,11.29-48.92,21.93-72.46,34.62-23.46,12.64-46.8,28.59-63.5,49.61-5.08,6.4-10.2,12.81-14.22,19.94s-7.33,15.14-10.23,22.92c-4.69,12.57-6.87,26.53-7.26,39.87-.24,8.16.97,16.26,2.21,24.3.74,4.83,1.94,9.54,3.66,14.11,5.71,15.14,13.67,29.57,26.06,40.36,13.43,11.69,28.73,20.05,45.95,24.77,14.26,3.9,29.48,5.48,44.25,5.54,53.15.22,105.51-18.66,147.39-51.01,21.73-16.79,40.17-36.44,55.18-59.55,12.23-18.84,21.14-39.59,33.13-58.58,2.87-4.55,5.93-8.97,9.22-13.23l-6.25,8.1c5.28-6.7,11.13-12.83,17.84-18.11l-8.1,6.25c2.06-1.57,4.16-3.05,6.33-4.46-19.59-15.06-39.17-30.11-58.76-45.17-15.62,53.86-27.23,108.81-34.79,164.37-2.24,16.45-4.34,32.91-5.99,49.43-1.21,12.07-2.66,24.26-2.55,36.41.3,30.56,10.82,64.85,40.1,79.74,16.65,8.47,34.49,10.46,52.87,8.78,15.22-1.39,30.41-3.1,45.52-5.41,26.4-4.03,53.78-12.24,75.58-28.14,21.61-15.76,39.54-35.6,51.56-59.66,10.89-21.79,18.26-44.87,21.57-68.99,2.23-16.3,3.67-32.32,3.34-48.79-.31-15.32-1.65-30.61-3.4-45.83-3.64-31.66-8.96-63.13-10.61-94.99-22.76,9.43-45.52,18.86-68.28,28.28,43.95,43.93,93.6,82.74,146.8,114.86,25.2,15.21,51.32,28.9,78.17,40.94,34.12,15.3,69.19,30.38,107.18,31.48,20.32.58,39.03-4.03,57.37-12.29,7.04-3.17,13.14-7.38,19.24-12.09,6.03-4.66,11.57-9.28,16.31-15.27,8.16-10.31,13.31-18.96,17.97-31.38,3.32-8.85,4.59-18.99,4.54-28.36-.12-21.57-7.84-42.61-18.64-61.02-16.16-27.56-38.69-51.43-63.44-71.43-25.46-20.57-52.47-39.15-81.06-55.1-54.67-30.51-114.62-52.94-176.14-64.69-7.26-1.39-14.54-2.61-21.85-3.71-3.54,26.19-7.09,52.38-10.63,78.57,57.52-3.03,115.05-6.06,172.57-9.09,27.17-1.43,54.46-2.22,81.58-4.37,12.49-.99,25.68-2.27,37.57-6.59,18.09-6.58,32.43-16.22,43.36-32.35,19.13-28.2,10.31-67.64-6.63-94.63-13.3-21.19-32.41-38.47-54.25-50.54-42.61-23.54-92.6-30.34-140.68-28.32-62.89,2.65-124.53,19.69-179.74,49.96-8.67,4.75-15.79,14.48-18.38,23.91-2.64,9.57-1.45,22.32,4.03,30.82,5.51,8.54,13.71,16.06,23.91,18.38,10.9,2.48,20.78.95,30.82-4.03,42.98-21.33,83.94-46.65,122.16-75.65,42.61-32.33,94.71-70.45,97-129.18,1.25-32.05-17.42-60.78-43.85-77.43-10.2-6.42-22.38-11.37-34.3-13.51-17.88-3.21-33.72-2.73-51.61.53-14.52,2.64-28.06,8.29-41.57,14.04-10.47,4.46-20.71,9.45-30.79,14.72-18.1,9.46-35.67,20-52.17,32.06-20.81,15.2-40.73,31.75-57.1,51.77-8.82,10.79-17.3,21.97-24.27,34.06s-13.04,26.03-17.77,39.68c-3.27,9.43-.88,22.42,4.03,30.82s14.37,16.21,23.91,18.38c10.24,2.33,21.73,1.83,30.82-4.03s14.83-13.65,18.38-23.91h0Z"/>
</svg>