<?xml version="1.0" encoding="UTF-8"?>
<svg id="Capa_1" xmlns="http://www.w3.org/2000/svg" viewBox="0 0 48.34 45.53">
  <defs>
    <style>
      .cls-1 {
        fill: #6dc2ba;
      }
    </style>
  </defs>
  <path class="cls-1" d="M21,12.85c-.37.01-.74.07-1.11.12-.19.03-.39.07-.58.12s-.38.11-.57.18c-.34.13-.67.27-1,.42-.36.17-.7.38-1.02.62-.45.33-.9.68-1.28,1.09-.14.15-.27.3-.4.46-.23.29-.46.59-.67.9-.24.36-.44.74-.62,1.13-.24.54-.47,1.09-.63,1.67-.12.42-.21.84-.27,1.27-.09.6-.17,1.21-.18,1.82-.02.62.05,1.24.15,1.85.04.22.08.43.15.65.03.11.07.21.11.32.1.26.21.52.33.76.09.19.2.37.32.54.15.22.32.43.49.64.07.08.14.17.21.25.28.32.6.61.93.88.46.38.93.75,1.41,1.09.85.59,1.76,1.05,2.73,1.41.4.15.81.27,1.24.35.35.07.71.11,1.07.15.18.02.37.03.55.03.54,0,1.07-.06,1.6-.14.36-.05.72-.13,1.07-.24.51-.15,1-.36,1.48-.59.33-.16.65-.34.96-.54.22-.15.43-.31.65-.47s.42-.32.61-.5c.27-.24.53-.51.76-.79.34-.41.66-.83.93-1.29s.49-.97.68-1.48c.14-.36.24-.72.32-1.1.07-.36.12-.72.16-1.08.02-.19.04-.38.05-.56.02-.38.02-.77-.02-1.15s-.08-.73-.14-1.08c-.03-.19-.07-.38-.11-.57-.09-.37-.2-.74-.34-1.1-.2-.51-.42-1.02-.69-1.49s-.6-.91-.95-1.33c-.24-.3-.5-.57-.78-.83-.4-.36-.83-.7-1.28-1-.31-.21-.64-.4-.98-.57-.32-.16-.64-.29-.97-.43-.18-.07-.36-.14-.54-.2-.36-.12-.73-.22-1.1-.29s-.72-.11-1.08-.16c-.19-.02-.37-.04-.56-.05-.38-.02-.76-.02-1.14,0-.35.03-.71.08-1.06.13-.18.03-.36.06-.54.1-.26.06-.49.18-.68.36-.22.14-.39.33-.51.56-.15.23-.23.48-.24.74-.06.27-.05.53.04.8l.2.48c.18.3.42.54.72.72l.48.2c.35.1.71.1,1.06,0,.21-.05.42-.08.63-.11l-.53.07c.72-.1,1.46-.09,2.18,0l-.53-.07c.75.1,1.48.3,2.17.59l-.48-.2c.65.27,1.26.63,1.82,1.06l-.4-.31c.5.39.95.84,1.34,1.34-.1-.13-.21-.27-.31-.4.4.51.72,1.08.97,1.67-.07-.16-.13-.32-.2-.48.27.65.46,1.33.55,2.02l-.07-.53c.09.7.1,1.41,0,2.11l.07-.53c-.09.63-.25,1.25-.5,1.84.07-.16.13-.32.2-.48-.23.54-.53,1.05-.88,1.51.1-.13.21-.27.31-.4-.38.48-.81.92-1.3,1.29l.4-.31c-.51.4-1.08.73-1.68.98l.48-.2c-.59.25-1.21.42-1.84.51.18-.02.35-.05.53-.07-.58.08-1.18.08-1.76,0l.53.07c-.66-.09-1.3-.28-1.91-.53l.48.2c-.89-.38-1.71-.89-2.47-1.48l.4.31c-.6-.46-1.18-.96-1.64-1.56l.31.4c-.22-.28-.4-.59-.55-.92l.2.48c-.17-.39-.27-.81-.32-1.23l.07.53c-.1-.76-.06-1.53.04-2.29l-.07.53c.11-.84.33-1.67.65-2.45l-.2.48c.26-.61.59-1.2,1-1.73l-.31.4c.35-.45.76-.86,1.21-1.21l-.4.31c.43-.33.9-.61,1.4-.82l-.48.2c.46-.19.94-.33,1.44-.4l-.53.07c.18-.02.35-.04.53-.04.28.01.53-.05.77-.17.25-.08.46-.22.64-.41.19-.18.33-.4.41-.64.12-.24.18-.49.17-.77l-.07-.53c-.09-.34-.27-.63-.51-.88l-.4-.31c-.31-.18-.65-.27-1.01-.27h0Z"/>
  <path class="cls-1" d="M26.61,15.15c.07-.19.14-.38.21-.56l-.2.48c.31-.73.72-1.41,1.21-2.04-.1.13-.21.27-.31.4.66-.84,1.44-1.58,2.29-2.24l-.4.31c1.36-1.04,2.89-1.91,4.47-2.58l-.48.2c.59-.25,1.2-.45,1.83-.54l-.53.07c.37-.05.73-.06,1.1-.02l-.53-.07c.33.04.65.13.96.26l-.48-.2c.25.11.47.24.69.4l-.4-.31c.19.15.36.32.51.51l-.31-.4c.12.16.22.33.3.52l-.2-.48c.07.18.12.37.15.56l-.07-.53c.03.22.02.44,0,.66.02-.18.05-.35.07-.53-.04.24-.11.48-.2.71.07-.16.13-.32.2-.48-.17.39-.39.75-.65,1.08.1-.13.21-.27.31-.4-.76.97-1.77,1.74-2.74,2.49l.4-.31c-1.98,1.53-4.11,2.86-6.36,3.97.67,1.15,1.35,2.3,2.02,3.45.55-.3,1.11-.57,1.69-.82l-.48.2c1.49-.62,3.06-1.05,4.66-1.26l-.53.07c1.44-.19,2.91-.23,4.35-.04l-.53-.07c.87.12,1.73.34,2.55.67l-.48-.2c.57.24,1.11.54,1.59.91l-.4-.31c.33.26.63.55.9.89-.1-.13-.21-.27-.31-.4.24.31.43.64.58.99l-.2-.48c.12.29.21.6.26.91l-.07-.53c.02.17.02.34,0,.51.02-.18.05-.35.07-.53-.02.15-.06.28-.11.42.07-.16.13-.32.2-.48-.05.12-.12.23-.2.33.1-.13.21-.27.31-.4-.08.1-.17.19-.27.27.13-.1.27-.21.4-.31-.15.11-.31.2-.48.28l.48-.2c-.35.15-.72.23-1.09.28l.53-.07c-.76.1-1.53.11-2.29.15-.87.05-1.73.09-2.6.14-1.75.09-3.49.18-5.24.28-1,.05-1.99.1-2.99.16s-1.83.72-1.96,1.73c-.06.43,0,.9.24,1.27.26.41.69.84,1.19.92,2.29.35,4.54.98,6.67,1.88l-.48-.2c2.15.91,4.19,2.08,6.04,3.5-.13-.1-.27-.21-.4-.31.94.72,1.81,1.53,2.54,2.46l-.31-.4c.4.52.76,1.08,1.02,1.69l-.2-.48c.13.32.23.64.28.98l-.07-.53c.03.23.03.47,0,.7l.07-.53c-.03.22-.09.44-.18.65.07-.16.13-.32.2-.48-.09.2-.2.39-.34.57l.31-.4c-.18.23-.38.43-.61.61l.4-.31c-.25.19-.53.35-.82.47l.48-.2c-.33.14-.68.23-1.03.28l.53-.07c-.46.05-.91.04-1.37-.01l.53.07c-1.05-.15-2.04-.53-3.02-.93l.48.2c-2.87-1.22-5.58-2.8-8.06-4.7.13.1.27.21.4.31-1.23-.95-2.41-1.98-3.51-3.09-.57-.57-1.45-.72-2.18-.41-.7.29-1.27,1.04-1.23,1.83.15,2.98.99,5.95.61,8.94l.07-.53c-.12.86-.33,1.7-.66,2.51.07-.16.13-.32.2-.48-.24.57-.54,1.1-.91,1.59l.31-.4c-.31.4-.66.76-1.06,1.06l.4-.31c-.37.28-.78.51-1.21.7l.48-.2c-.8.33-1.64.51-2.49.62l.53-.07c-.42.05-.84.1-1.25.14s-.8.08-1.21.03l.53.07c-.17-.02-.32-.06-.48-.12.16.07.32.13.48.2-.14-.06-.26-.13-.38-.22.13.1.27.21.4.31-.1-.08-.19-.17-.27-.27.1.13.21.27.31.4-.1-.13-.18-.28-.25-.43l.2.48c-.1-.25-.16-.52-.2-.79l.07.53c-.08-.64-.02-1.28.04-1.92.07-.82.17-1.63.28-2.45l-.07.53c.38-2.78.96-5.52,1.74-8.21.22-.77-.09-1.62-.72-2.1-.61-.47-1.55-.59-2.22-.16-1.2.78-2.06,1.89-2.75,3.13-.56.99-1.04,2.03-1.73,2.93l.31-.4c-.52.67-1.13,1.27-1.8,1.79.13-.1.27-.21.4-.31-.71.54-1.49.99-2.31,1.34l.48-.2c-.81.33-1.65.57-2.51.69l.53-.07c-.76.1-1.54.12-2.3.03l.53.07c-.43-.06-.86-.16-1.27-.33l.48.2c-.25-.11-.48-.24-.71-.4l.4.31c-.2-.16-.38-.33-.54-.53l.31.4c-.15-.2-.28-.42-.38-.65l.2.48c-.11-.27-.18-.55-.22-.84l.07.53c-.04-.36-.04-.72,0-1.08l-.07.53c.06-.41.17-.8.32-1.18l-.2.48c.16-.38.37-.73.62-1.06l-.31.4c.35-.44.76-.83,1.2-1.18-.13.1-.27.21-.4.31,1.26-.97,2.74-1.59,4.17-2.26,1.7-.79,3.41-1.59,5.11-2.38l.4-.31.31-.4c.23-.39.3-.83.24-1.27-.05-.36-.17-.66-.39-.95-.28-.36-.6-.56-1.04-.72-2.74-1-5.71-1.21-8.4-2.34l.48.2c-.86-.37-1.69-.82-2.43-1.39l.4.31c-.5-.39-.95-.83-1.34-1.33l.31.4c-.32-.41-.58-.86-.79-1.34l.2.48c-.14-.33-.24-.68-.29-1.04l.07.53c-.03-.27-.04-.54,0-.81l-.07.53c.03-.2.08-.39.15-.58l-.2.48c.06-.13.12-.24.21-.36l-.31.4c.09-.11.19-.21.3-.31l-.4.31c.13-.1.26-.17.41-.24l-.48.2c.21-.09.43-.14.66-.17l-.53.07c.5-.06,1-.02,1.5.05l-.53-.07c1.68.24,3.3.83,4.92,1.32,1.67.5,3.34,1.01,5.01,1.51.81.25,1.85-.16,2.26-.92.17-.31.26-.65.27-1.01.01-.28-.05-.53-.17-.77-.08-.25-.22-.46-.41-.64-2.02-2.58-4.05-5.15-6.07-7.73-.56-.72-1.13-1.44-1.69-2.16l.31.4c-.5-.65-.98-1.32-1.3-2.07l.2.48c-.14-.35-.25-.71-.3-1.09l.07.53c-.04-.32-.05-.64,0-.96l-.07.53c.04-.27.1-.53.21-.78l-.2.48c.08-.19.18-.36.31-.53l-.31.4c.13-.17.27-.31.44-.44l-.4.31c.2-.15.41-.28.65-.38l-.48.2c.28-.11.56-.19.86-.23l-.53.07c.32-.04.64-.04.96,0l-.53-.07c.4.06.79.17,1.16.33l-.48-.2c.57.25,1.09.58,1.59.96l-.4-.31c1.11.86,2.09,1.87,2.95,2.98l-.31-.4c.92,1.2,1.68,2.5,2.27,3.89l-.2-.48c.45,1.06.79,2.17,1.02,3.3.09.47.51.96.92,1.19.43.25,1.06.36,1.54.2s.95-.46,1.19-.92l.2-.48c.1-.35.1-.71,0-1.06-.04-.27-.09-.55-.12-.82l.07.53c-.21-1.53-.29-3.09-.08-4.63l-.07.53c.13-.92.35-1.81.71-2.67l-.2.48c.29-.69.67-1.33,1.12-1.93l-.31.4c.39-.5.83-.95,1.32-1.33l-.4.31c.43-.33.89-.6,1.39-.82l-.48.2c.28-.12.56-.22.85-.26l-.53.07c.13-.02.26-.02.39,0l-.53-.07c.14.02.26.05.39.11l-.48-.2c.12.06.23.12.33.2l-.4-.31c.18.14.33.3.46.48l-.31-.4c.31.41.55.86.75,1.33l-.2-.48c.26.62.42,1.27.51,1.93l-.07-.53c.15,1.11.09,2.24-.05,3.35l.07-.53c-.18,1.3-.49,2.59-.82,3.86-.13.51-.06,1.09.2,1.54.24.41.72.81,1.19.92.51.12,1.09.09,1.54-.2s.79-.68.92-1.19c.51-1.96.97-3.98,1.02-6.01.03-1.05-.07-2.12-.32-3.14-.14-.57-.36-1.11-.6-1.66-.19-.42-.41-.83-.69-1.2-.21-.28-.41-.57-.68-.8-.44-.38-.79-.59-1.32-.8-.71-.29-1.59-.22-2.31.01-1.11.37-2.08.96-2.96,1.73-1.49,1.29-2.53,3.14-3.06,5.03-.74,2.64-.54,5.38-.11,8.05,1.28-.35,2.57-.71,3.85-1.06-.49-2.42-1.49-4.78-2.87-6.82-.73-1.07-1.55-2.09-2.48-3.01-.43-.42-.87-.82-1.35-1.19-.6-.47-1.21-.93-1.91-1.25-.82-.38-1.59-.61-2.5-.68-.67-.05-1.41.04-2.04.27-.77.29-1.51.69-2.04,1.33s-.94,1.4-1.07,2.24c-.13.89-.12,1.76.14,2.63.22.74.57,1.46.99,2.1s.91,1.24,1.38,1.84c.45.58.9,1.15,1.35,1.73,2,2.55,4.01,5.11,6.01,7.66.65-1.11,1.3-2.23,1.94-3.34-2.34-.71-4.67-1.41-7.01-2.12-1.26-.38-2.51-.7-3.82-.83-.65-.06-1.29-.03-1.93.11-.36.08-.73.23-1.05.41s-.65.43-.89.72c-.37.44-.55.76-.76,1.29-.14.36-.18.73-.23,1.11-.06.59.02,1.21.17,1.78.3,1.17.97,2.22,1.76,3.12.68.78,1.55,1.44,2.43,1.98.93.56,1.95.99,2.97,1.33,2.43.81,5,1.09,7.4,1.97l-.48-3.65c-1.36.63-2.71,1.26-4.07,1.9-1.21.56-2.44,1.1-3.62,1.73-1.17.63-2.34,1.43-3.17,2.48-.25.32-.51.64-.71,1s-.37.76-.51,1.15c-.23.63-.34,1.33-.36,1.99-.01.41.05.81.11,1.21.04.24.1.48.18.71.29.76.68,1.48,1.3,2.02.67.58,1.44,1,2.3,1.24.71.19,1.47.27,2.21.28,2.66.01,5.27-.93,7.37-2.55,1.09-.84,2.01-1.82,2.76-2.98.61-.94,1.06-1.98,1.66-2.93.14-.23.3-.45.46-.66l-.31.4c.26-.33.56-.64.89-.91l-.4.31c.1-.08.21-.15.32-.22-.98-.75-1.96-1.5-2.94-2.26-.78,2.69-1.36,5.44-1.74,8.21-.11.82-.22,1.64-.3,2.47-.06.6-.13,1.21-.13,1.82.01,1.53.54,3.24,2,3.98.83.42,1.72.52,2.64.44.76-.07,1.52-.15,2.27-.27,1.32-.2,2.69-.61,3.78-1.41,1.08-.79,1.98-1.78,2.58-2.98.54-1.09.91-2.24,1.08-3.45.11-.81.18-1.62.17-2.44-.02-.77-.08-1.53-.17-2.29-.18-1.58-.45-3.15-.53-4.75-1.14.47-2.27.94-3.41,1.41,2.2,2.2,4.68,4.13,7.34,5.74,1.26.76,2.56,1.44,3.91,2.05,1.71.76,3.46,1.52,5.36,1.57,1.02.03,1.95-.2,2.87-.61.35-.16.66-.37.96-.6.3-.23.58-.46.82-.76.41-.52.67-.95.9-1.57.17-.44.23-.95.23-1.42,0-1.08-.39-2.13-.93-3.05-.81-1.38-1.93-2.57-3.17-3.57-1.27-1.03-2.62-1.96-4.05-2.75-2.73-1.52-5.73-2.65-8.8-3.23-.36-.07-.73-.13-1.09-.19-.18,1.31-.35,2.62-.53,3.93,2.87-.15,5.75-.3,8.62-.45,1.36-.07,2.72-.11,4.08-.22.62-.05,1.28-.11,1.88-.33.9-.33,1.62-.81,2.17-1.62.96-1.41.52-3.38-.33-4.73-.66-1.06-1.62-1.92-2.71-2.53-2.13-1.18-4.63-1.52-7.03-1.42-3.14.13-6.22.98-8.98,2.5-.43.24-.79.72-.92,1.19-.13.48-.07,1.12.2,1.54.28.43.69.8,1.19.92.54.12,1.04.05,1.54-.2,2.15-1.07,4.19-2.33,6.1-3.78,2.13-1.62,4.73-3.52,4.85-6.46.06-1.6-.87-3.04-2.19-3.87-.51-.32-1.12-.57-1.71-.68-.89-.16-1.69-.14-2.58.03-.73.13-1.4.41-2.08.7-.52.22-1.03.47-1.54.74-.9.47-1.78,1-2.61,1.6-1.04.76-2.04,1.59-2.85,2.59-.44.54-.86,1.1-1.21,1.7s-.65,1.3-.89,1.98c-.16.47-.04,1.12.2,1.54s.72.81,1.19.92c.51.12,1.09.09,1.54-.2s.74-.68.92-1.19h0Z"/>
</svg>