<?xml version="1.0" encoding="UTF-8"?>
<svg xmlns="http://www.w3.org/2000/svg" xmlns:xlink="http://www.w3.org/1999/xlink" width="50px" height="50px" viewBox="0 0 50 50" version="1.1">
<g id="surface1">
<path style=" stroke:none;fill-rule:nonzero;fill:rgb(42.745098%,76.078433%,72.941178%);fill-opacity:1;" d="M 21.800781 15.101562 C 21.398438 15.101562 21.101562 15.101562 20.699219 15.199219 C 20.5 15.199219 20.300781 15.199219 20.101562 15.300781 C 19.898438 15.398438 19.699219 15.398438 19.5 15.5 C 19.199219 15.601562 18.800781 15.800781 18.5 15.898438 C 18.101562 16.101562 17.800781 16.300781 17.5 16.5 C 17 16.800781 16.601562 17.199219 16.199219 17.601562 C 16.101562 17.699219 15.898438 17.898438 15.800781 18.101562 C 15.601562 18.398438 15.300781 18.699219 15.101562 19 C 14.898438 19.398438 14.699219 19.699219 14.5 20.101562 C 14.300781 20.601562 14 21.199219 13.898438 21.800781 C 13.800781 22.199219 13.699219 22.601562 13.601562 23.101562 C 13.601562 23.699219 13.398438 24.300781 13.398438 24.898438 C 13.398438 25.5 13.398438 26.101562 13.5 26.800781 C 13.5 27 13.5 27.199219 13.601562 27.398438 C 13.601562 27.5 13.601562 27.601562 13.699219 27.699219 C 13.800781 28 13.898438 28.199219 14 28.5 C 14 28.699219 14.199219 28.898438 14.300781 29 C 14.398438 29.199219 14.601562 29.398438 14.800781 29.601562 C 14.800781 29.601562 14.898438 29.800781 15 29.800781 C 15.300781 30.101562 15.601562 30.398438 15.898438 30.699219 C 16.398438 31.101562 16.800781 31.5 17.300781 31.800781 C 18.199219 32.398438 19.101562 32.800781 20 33.199219 C 20.398438 33.300781 20.800781 33.5 21.199219 33.601562 C 21.601562 33.601562 21.898438 33.699219 22.300781 33.699219 C 22.5 33.699219 22.699219 33.699219 22.800781 33.699219 C 23.300781 33.699219 23.898438 33.699219 24.398438 33.601562 C 24.800781 33.601562 25.101562 33.5 25.5 33.398438 C 26 33.300781 26.5 33 27 32.800781 C 27.300781 32.601562 27.601562 32.5 28 32.300781 C 28.199219 32.199219 28.398438 32 28.601562 31.800781 C 28.800781 31.601562 29 31.5 29.199219 31.300781 C 29.5 31.101562 29.699219 30.800781 30 30.5 C 30.300781 30.101562 30.699219 29.699219 30.898438 29.199219 C 31.101562 28.699219 31.398438 28.199219 31.601562 27.699219 C 31.699219 27.300781 31.800781 27 31.898438 26.601562 C 31.898438 26.199219 32 25.898438 32.101562 25.5 C 32.101562 25.300781 32.101562 25.101562 32.101562 24.898438 C 32.101562 24.5 32.101562 24.101562 32.101562 23.800781 C 32.101562 23.5 32.101562 23.101562 32 22.699219 C 32 22.5 32 22.300781 31.898438 22.101562 C 31.898438 21.699219 31.699219 21.398438 31.601562 21 C 31.398438 20.5 31.199219 20 30.898438 19.5 C 30.601562 19 30.300781 18.601562 29.898438 18.199219 C 29.699219 17.898438 29.398438 17.601562 29.101562 17.398438 C 28.699219 17 28.300781 16.699219 27.800781 16.398438 C 27.5 16.199219 27.199219 16 26.800781 15.800781 C 26.398438 15.601562 26.199219 15.5 25.800781 15.398438 C 25.601562 15.398438 25.398438 15.300781 25.300781 15.199219 C 24.898438 15.101562 24.601562 15 24.199219 14.898438 C 23.800781 14.800781 23.5 14.800781 23.101562 14.699219 C 22.898438 14.699219 22.699219 14.699219 22.5 14.699219 C 22.101562 14.699219 21.699219 14.699219 21.398438 14.699219 C 21 14.699219 20.699219 14.699219 20.300781 14.800781 C 20.101562 14.800781 19.898438 14.800781 19.800781 14.898438 C 19.5 14.898438 19.300781 15.101562 19.101562 15.300781 C 18.898438 15.398438 18.699219 15.601562 18.601562 15.898438 C 18.5 16.101562 18.398438 16.398438 18.398438 16.601562 C 18.398438 16.898438 18.398438 17.101562 18.398438 17.398438 L 18.601562 17.898438 C 18.800781 18.199219 19 18.398438 19.300781 18.601562 L 19.800781 18.800781 C 20.199219 18.898438 20.5 18.898438 20.898438 18.800781 C 21.101562 18.800781 21.300781 18.800781 21.5 18.699219 L 21 18.699219 C 21.699219 18.699219 22.5 18.699219 23.199219 18.699219 L 22.699219 18.699219 C 23.5 18.699219 24.199219 18.898438 24.898438 19.199219 L 24.398438 19 C 25 19.300781 25.699219 19.601562 26.199219 20.101562 L 25.800781 19.800781 C 26.300781 20.199219 26.800781 20.601562 27.101562 21.101562 C 27 21 26.898438 20.800781 26.800781 20.699219 C 27.199219 21.199219 27.5 21.800781 27.800781 22.398438 C 27.800781 22.199219 27.699219 22.101562 27.601562 21.898438 C 27.898438 22.5 28.101562 23.199219 28.101562 23.898438 L 28.101562 23.398438 C 28.101562 24.101562 28.101562 24.800781 28.101562 25.5 L 28.101562 25 C 28.101562 25.601562 27.898438 26.199219 27.699219 26.800781 C 27.699219 26.601562 27.800781 26.5 27.898438 26.300781 C 27.699219 26.800781 27.398438 27.300781 27 27.800781 C 27.101562 27.699219 27.199219 27.5 27.300781 27.398438 C 26.898438 27.898438 26.5 28.300781 26 28.699219 L 26.398438 28.398438 C 25.898438 28.800781 25.300781 29.101562 24.699219 29.398438 L 25.199219 29.199219 C 24.601562 29.398438 24 29.601562 23.398438 29.699219 C 23.601562 29.699219 23.800781 29.699219 23.898438 29.699219 C 23.300781 29.699219 22.699219 29.699219 22.101562 29.699219 L 22.601562 29.699219 C 21.898438 29.699219 21.300781 29.5 20.699219 29.199219 L 21.199219 29.398438 C 20.300781 29 19.5 28.5 18.699219 27.898438 L 19.101562 28.199219 C 18.5 27.699219 17.898438 27.199219 17.5 26.601562 L 17.800781 27 C 17.601562 26.699219 17.398438 26.398438 17.300781 26.101562 L 17.5 26.601562 C 17.300781 26.199219 17.199219 25.800781 17.199219 25.398438 L 17.199219 25.898438 C 17.199219 25.101562 17.199219 24.398438 17.300781 23.601562 L 17.300781 24.101562 C 17.300781 23.300781 17.601562 22.398438 17.898438 21.601562 L 17.699219 22.101562 C 18 21.5 18.300781 20.898438 18.699219 20.398438 L 18.398438 20.800781 C 18.800781 20.300781 19.199219 19.898438 19.601562 19.601562 L 19.199219 19.898438 C 19.601562 19.601562 20.101562 19.300781 20.601562 19.101562 L 20.101562 19.300781 C 20.601562 19.101562 21 19 21.5 18.898438 L 21 18.898438 C 21.199219 18.898438 21.398438 18.898438 21.5 18.898438 C 21.800781 18.898438 22 18.898438 22.300781 18.699219 C 22.5 18.699219 22.800781 18.5 22.898438 18.300781 C 23.101562 18.101562 23.199219 17.898438 23.300781 17.699219 C 23.398438 17.5 23.5 17.199219 23.5 16.898438 L 23.5 16.398438 C 23.300781 16.101562 23.199219 15.800781 22.898438 15.5 L 22.5 15.199219 C 22.199219 15 21.898438 14.898438 21.5 14.898438 Z M 21.800781 15.101562 "/>
<path style=" stroke:none;fill-rule:nonzero;fill:rgb(42.745098%,76.078433%,72.941178%);fill-opacity:1;" d="M 27.398438 17.398438 C 27.398438 17.199219 27.5 17 27.601562 16.800781 L 27.398438 17.300781 C 27.699219 16.601562 28.101562 15.898438 28.601562 15.300781 C 28.5 15.398438 28.398438 15.601562 28.300781 15.699219 C 29 14.898438 29.699219 14.101562 30.601562 13.5 L 30.199219 13.800781 C 31.601562 12.800781 33.101562 11.898438 34.699219 11.199219 L 34.199219 11.398438 C 34.800781 11.199219 35.398438 11 36 10.898438 L 35.5 10.898438 C 35.898438 10.898438 36.199219 10.898438 36.601562 10.898438 L 36.101562 10.898438 C 36.398438 10.898438 36.800781 10.898438 37.101562 11.101562 L 36.601562 10.898438 C 36.800781 11 37.101562 11.101562 37.300781 11.300781 L 36.898438 11 C 37.101562 11.101562 37.300781 11.300781 37.398438 11.5 L 37.101562 11.101562 C 37.199219 11.300781 37.300781 11.398438 37.398438 11.601562 L 37.199219 11.101562 C 37.199219 11.300781 37.300781 11.5 37.398438 11.699219 L 37.398438 11.199219 C 37.398438 11.398438 37.398438 11.601562 37.398438 11.898438 C 37.398438 11.699219 37.398438 11.5 37.398438 11.398438 C 37.398438 11.601562 37.300781 11.898438 37.199219 12.101562 C 37.199219 11.898438 37.300781 11.800781 37.398438 11.601562 C 37.199219 12 37 12.398438 36.699219 12.699219 C 36.699219 12.601562 36.898438 12.398438 37 12.300781 C 36.199219 13.300781 35.199219 14 34.300781 14.800781 L 34.699219 14.5 C 32.699219 16 30.601562 17.398438 28.300781 18.5 C 29 19.601562 29.699219 20.800781 30.300781 22 C 30.800781 21.699219 31.398438 21.398438 32 21.199219 L 31.5 21.398438 C 33 20.800781 34.601562 20.398438 36.199219 20.101562 L 35.699219 20.101562 C 37.101562 20 38.601562 19.898438 40 20.101562 L 39.5 20.101562 C 40.398438 20.101562 41.199219 20.398438 42 20.699219 L 41.5 20.5 C 42.101562 20.699219 42.601562 21 43.101562 21.398438 L 42.699219 21.101562 C 43 21.398438 43.300781 21.601562 43.601562 22 C 43.601562 21.898438 43.398438 21.699219 43.300781 21.601562 C 43.5 21.898438 43.699219 22.199219 43.898438 22.601562 L 43.699219 22.101562 C 43.800781 22.398438 43.898438 22.699219 44 23 L 44 22.5 C 44 22.699219 44 22.800781 44 23 C 44 22.800781 44 22.601562 44 22.5 C 44 22.601562 44 22.800781 43.898438 22.898438 C 43.898438 22.699219 44 22.601562 44.101562 22.398438 C 44.101562 22.5 44 22.601562 43.898438 22.699219 C 43.898438 22.601562 44.101562 22.398438 44.199219 22.300781 C 44.199219 22.398438 44 22.5 43.898438 22.601562 C 44 22.5 44.199219 22.398438 44.300781 22.300781 C 44.101562 22.398438 44 22.5 43.800781 22.601562 L 44.300781 22.398438 C 44 22.5 43.601562 22.601562 43.199219 22.699219 L 43.699219 22.699219 C 42.898438 22.699219 42.199219 22.699219 41.398438 22.699219 C 40.5 22.699219 39.699219 22.699219 38.800781 22.800781 C 37 22.800781 35.300781 23 33.601562 23.101562 C 32.601562 23.101562 31.601562 23.199219 30.601562 23.300781 C 29.601562 23.398438 28.800781 24 28.601562 25 C 28.601562 25.398438 28.601562 25.898438 28.800781 26.300781 C 29.101562 26.699219 29.5 27.101562 30 27.199219 C 32.300781 27.601562 34.5 28.199219 36.699219 29.101562 L 36.199219 28.898438 C 38.398438 29.800781 40.398438 31 42.199219 32.398438 C 42.101562 32.300781 41.898438 32.199219 41.800781 32.101562 C 42.699219 32.800781 43.601562 33.601562 44.300781 34.601562 L 44 34.199219 C 44.398438 34.699219 44.800781 35.300781 45 35.898438 L 44.800781 35.398438 C 44.898438 35.699219 45 36 45.101562 36.398438 L 45.101562 35.898438 C 45.101562 36.101562 45.101562 36.398438 45.101562 36.601562 L 45.101562 36.101562 C 45.101562 36.300781 45.101562 36.5 45 36.800781 C 45 36.601562 45.101562 36.5 45.199219 36.300781 C 45.199219 36.5 45 36.699219 44.898438 36.898438 L 45.199219 36.5 C 45 36.699219 44.800781 36.898438 44.601562 37.101562 L 45 36.800781 C 44.800781 37 44.5 37.101562 44.199219 37.300781 L 44.699219 37.101562 C 44.398438 37.199219 44 37.300781 43.699219 37.398438 L 44.199219 37.398438 C 43.699219 37.398438 43.300781 37.398438 42.800781 37.398438 L 43.300781 37.398438 C 42.300781 37.398438 41.300781 36.898438 40.300781 36.5 L 40.800781 36.699219 C 37.898438 35.5 35.199219 33.898438 32.699219 32 C 32.800781 32.101562 33 32.199219 33.101562 32.300781 C 31.898438 31.300781 30.699219 30.300781 29.601562 29.199219 C 29 28.601562 28.101562 28.5 27.398438 28.800781 C 26.699219 29.101562 26.101562 29.800781 26.199219 30.601562 C 26.300781 33.601562 27.199219 36.601562 26.800781 39.5 L 26.800781 39 C 26.800781 39.898438 26.5 40.699219 26.199219 41.5 C 26.199219 41.300781 26.300781 41.199219 26.398438 41 C 26.199219 41.601562 25.898438 42.101562 25.5 42.601562 L 25.800781 42.199219 C 25.5 42.601562 25.101562 43 24.699219 43.300781 L 25.101562 43 C 24.699219 43.300781 24.300781 43.5 23.898438 43.699219 L 24.398438 43.5 C 23.601562 43.800781 22.800781 44 21.898438 44.101562 L 22.398438 44.101562 C 22 44.101562 21.601562 44.101562 21.199219 44.101562 C 20.800781 44.101562 20.398438 44.101562 20 44.101562 L 20.5 44.101562 C 20.300781 44.101562 20.199219 44.101562 20 44.101562 C 20.199219 44.101562 20.300781 44.199219 20.5 44.300781 C 20.398438 44.300781 20.199219 44.199219 20.101562 44.101562 C 20.199219 44.101562 20.398438 44.300781 20.5 44.398438 C 20.398438 44.398438 20.300781 44.199219 20.199219 44.101562 C 20.300781 44.199219 20.398438 44.398438 20.5 44.5 C 20.398438 44.398438 20.300781 44.199219 20.300781 44.101562 L 20.5 44.601562 C 20.398438 44.398438 20.300781 44.101562 20.300781 43.800781 L 20.300781 44.300781 C 20.300781 43.699219 20.300781 43 20.398438 42.398438 C 20.398438 41.601562 20.601562 40.800781 20.699219 39.898438 L 20.699219 40.398438 C 21 37.601562 21.601562 34.898438 22.398438 32.199219 C 22.601562 31.398438 22.398438 30.601562 21.699219 30.101562 C 21.101562 29.601562 20.199219 29.5 19.5 29.898438 C 18.300781 30.699219 17.398438 31.800781 16.699219 33 C 16.101562 34 15.699219 35 15 35.898438 L 15.300781 35.5 C 14.800781 36.199219 14.199219 36.800781 13.5 37.300781 C 13.601562 37.300781 13.800781 37.101562 13.898438 37 C 13.199219 37.5 12.398438 38 11.601562 38.300781 L 12.101562 38.101562 C 11.300781 38.398438 10.5 38.699219 9.601562 38.800781 L 10.101562 38.800781 C 9.300781 38.800781 8.601562 38.800781 7.800781 38.800781 L 8.300781 38.800781 C 7.898438 38.800781 7.398438 38.800781 7 38.5 L 7.5 38.699219 C 7.300781 38.601562 7 38.5 6.800781 38.300781 L 7.199219 38.601562 C 7 38.398438 6.800781 38.300781 6.699219 38.101562 L 7 38.5 C 6.800781 38.300781 6.699219 38.101562 6.601562 37.800781 L 6.800781 38.300781 C 6.699219 38 6.601562 37.800781 6.601562 37.5 L 6.601562 38 C 6.601562 37.601562 6.601562 37.300781 6.601562 36.898438 L 6.601562 37.398438 C 6.601562 37 6.601562 36.601562 6.800781 36.199219 L 6.601562 36.699219 C 6.800781 36.300781 7 36 7.199219 35.601562 L 6.898438 36 C 7.199219 35.601562 7.699219 35.199219 8.101562 34.800781 C 8 34.800781 7.800781 35 7.699219 35.101562 C 9 34.101562 10.398438 33.5 11.898438 32.800781 C 13.601562 32 15.300781 31.199219 17 30.398438 L 17.398438 30.101562 L 17.699219 29.699219 C 17.898438 29.300781 18 28.898438 17.898438 28.398438 C 17.898438 28 17.699219 27.699219 17.5 27.398438 C 17.199219 27 16.898438 26.800781 16.5 26.699219 C 13.800781 25.699219 10.800781 25.5 8.101562 24.398438 L 8.601562 24.601562 C 7.699219 24.199219 6.898438 23.800781 6.199219 23.199219 L 6.601562 23.5 C 6.101562 23.101562 5.699219 22.699219 5.300781 22.199219 L 5.601562 22.601562 C 5.300781 22.199219 5 21.699219 4.800781 21.300781 L 5 21.800781 C 4.898438 21.5 4.800781 21.101562 4.699219 20.800781 L 4.699219 21.300781 C 4.699219 21 4.699219 20.800781 4.699219 20.5 L 4.699219 21 C 4.699219 20.800781 4.699219 20.601562 4.699219 20.398438 L 4.5 20.898438 C 4.5 20.800781 4.601562 20.699219 4.699219 20.5 L 4.398438 20.898438 C 4.398438 20.800781 4.601562 20.699219 4.699219 20.601562 L 4.300781 20.898438 C 4.398438 20.800781 4.601562 20.699219 4.699219 20.699219 L 4.199219 20.898438 C 4.398438 20.898438 4.601562 20.800781 4.898438 20.699219 L 4.398438 20.699219 C 4.898438 20.699219 5.398438 20.699219 5.898438 20.800781 L 5.398438 20.800781 C 7.101562 21 8.699219 21.601562 10.300781 22 C 12 22.5 13.601562 23 15.300781 23.5 C 16.101562 23.699219 17.101562 23.300781 17.601562 22.601562 C 17.800781 22.300781 17.898438 22 17.898438 21.601562 C 17.898438 21.300781 17.898438 21.101562 17.699219 20.800781 C 17.699219 20.601562 17.5 20.300781 17.300781 20.199219 C 15.300781 17.601562 13.199219 15.101562 11.199219 12.5 C 10.601562 11.800781 10.101562 11.101562 9.5 10.300781 L 9.800781 10.699219 C 9.300781 10 8.800781 9.398438 8.5 8.601562 L 8.699219 9.101562 C 8.601562 8.800781 8.5 8.398438 8.398438 8 L 8.398438 8.5 C 8.398438 8.199219 8.398438 7.898438 8.398438 7.5 L 8.398438 8 C 8.398438 7.699219 8.398438 7.5 8.5 7.199219 L 8.300781 7.699219 C 8.300781 7.5 8.5 7.300781 8.601562 7.199219 L 8.300781 7.601562 C 8.398438 7.398438 8.601562 7.300781 8.699219 7.199219 L 8.300781 7.5 C 8.5 7.300781 8.699219 7.199219 9 7.101562 L 8.5 7.300781 C 8.800781 7.199219 9.101562 7.101562 9.398438 7.101562 L 8.898438 7.101562 C 9.199219 7.101562 9.5 7.101562 9.898438 7.101562 L 9.398438 7.101562 C 9.800781 7.101562 10.199219 7.101562 10.601562 7.398438 L 10.101562 7.199219 C 10.699219 7.398438 11.199219 7.800781 11.699219 8.199219 L 11.300781 7.898438 C 12.398438 8.800781 13.398438 9.800781 14.199219 10.898438 L 13.898438 10.5 C 14.800781 11.699219 15.601562 13 16.199219 14.398438 L 16 13.898438 C 16.398438 15 16.800781 16.101562 17 17.199219 C 17 17.699219 17.5 18.199219 17.898438 18.398438 C 18.300781 18.601562 19 18.800781 19.398438 18.601562 C 19.800781 18.398438 20.398438 18.101562 20.601562 17.699219 L 20.800781 17.199219 C 20.898438 16.800781 20.898438 16.5 20.800781 16.101562 C 20.800781 15.800781 20.800781 15.5 20.699219 15.300781 L 20.699219 15.800781 C 20.601562 14.300781 20.5 12.699219 20.699219 11.199219 L 20.699219 11.699219 C 20.699219 10.800781 21 9.898438 21.300781 9 L 21.101562 9.5 C 21.398438 8.800781 21.800781 8.199219 22.199219 7.601562 L 21.898438 8 C 22.300781 7.5 22.699219 7.101562 23.199219 6.699219 L 22.800781 7 C 23.199219 6.699219 23.699219 6.398438 24.199219 6.199219 L 23.699219 6.398438 C 24 6.300781 24.300781 6.199219 24.601562 6.101562 L 24.101562 6.101562 C 24.199219 6.101562 24.398438 6.101562 24.5 6.101562 L 24 6.101562 C 24.101562 6.101562 24.300781 6.101562 24.398438 6.101562 L 23.898438 5.898438 C 24 5.898438 24.101562 6 24.199219 6.101562 L 23.800781 5.800781 C 24 5.898438 24.101562 6.101562 24.300781 6.300781 L 24 5.898438 C 24.300781 6.300781 24.5 6.800781 24.800781 7.199219 L 24.601562 6.699219 C 24.898438 7.300781 25 8 25.101562 8.601562 L 25.101562 8.101562 C 25.101562 9.199219 25.101562 10.300781 25 11.398438 L 25 10.898438 C 24.898438 12.199219 24.601562 13.5 24.199219 14.800781 C 24.101562 15.300781 24.199219 15.898438 24.398438 16.300781 C 24.601562 16.699219 25.101562 17.101562 25.601562 17.199219 C 26.101562 17.300781 26.699219 17.199219 27.101562 17 C 27.5 16.800781 27.898438 16.300781 28 15.800781 C 28.5 13.800781 29 11.800781 29 9.800781 C 29 8.699219 29 7.699219 28.699219 6.699219 C 28.601562 6.101562 28.300781 5.601562 28.101562 5 C 27.898438 4.601562 27.699219 4.199219 27.398438 3.800781 C 27.199219 3.5 27 3.199219 26.699219 3 C 26.300781 2.601562 25.898438 2.398438 25.398438 2.199219 C 24.699219 1.898438 23.800781 2 23.101562 2.199219 C 22 2.601562 21 3.199219 20.101562 3.898438 C 18.601562 5.199219 17.601562 7 17 8.898438 C 16.300781 11.5 16.5 14.300781 16.898438 17 C 18.199219 16.601562 19.5 16.300781 20.800781 15.898438 C 20.300781 13.5 19.300781 11.101562 17.898438 9.101562 C 17.199219 8 16.300781 7 15.398438 6.101562 C 15 5.699219 14.5 5.300781 14 4.898438 C 13.398438 4.398438 12.800781 4 12.101562 3.699219 C 11.300781 3.300781 10.5 3.101562 9.601562 3 C 8.898438 3 8.199219 3 7.601562 3.300781 C 6.800781 3.601562 6.101562 4 5.601562 4.601562 C 5.101562 5.199219 4.699219 6 4.5 6.800781 C 4.398438 7.699219 4.398438 8.601562 4.601562 9.398438 C 4.800781 10.101562 5.199219 10.898438 5.601562 11.5 C 6 12.101562 6.5 12.699219 7 13.300781 C 7.398438 13.898438 7.898438 14.398438 8.300781 15 C 10.300781 17.601562 12.300781 20.101562 14.300781 22.699219 C 14.898438 21.601562 15.601562 20.5 16.199219 19.398438 C 13.898438 18.699219 11.5 18 9.199219 17.300781 C 7.898438 16.898438 6.699219 16.601562 5.398438 16.5 C 4.699219 16.5 4.101562 16.5 3.5 16.601562 C 3.101562 16.601562 2.800781 16.800781 2.5 17 C 2.199219 17.199219 1.898438 17.398438 1.601562 17.699219 C 1.199219 18.101562 1 18.5 0.800781 19 C 0.699219 19.398438 0.601562 19.699219 0.601562 20.101562 C 0.601562 20.699219 0.601562 21.300781 0.800781 21.898438 C 1.101562 23.101562 1.800781 24.101562 2.601562 25 C 3.300781 25.800781 4.101562 26.398438 5 27 C 5.898438 27.601562 6.898438 28 8 28.300781 C 10.398438 29.101562 13 29.398438 15.398438 30.300781 L 14.898438 26.699219 C 13.5 27.300781 12.199219 28 10.800781 28.601562 C 9.601562 29.199219 8.398438 29.699219 7.199219 30.300781 C 6 30.898438 4.898438 31.699219 4 32.800781 C 3.800781 33.101562 3.5 33.398438 3.300781 33.800781 C 3.101562 34.199219 2.898438 34.601562 2.800781 35 C 2.601562 35.601562 2.5 36.300781 2.398438 37 C 2.398438 37.398438 2.398438 37.800781 2.5 38.199219 C 2.5 38.398438 2.5 38.699219 2.699219 38.898438 C 3 39.699219 3.398438 40.398438 4 40.898438 C 4.699219 41.5 5.398438 41.898438 6.300781 42.101562 C 7 42.300781 7.800781 42.398438 8.5 42.398438 C 11.199219 42.398438 13.800781 41.5 15.898438 39.898438 C 17 39.101562 17.898438 38.101562 18.699219 36.898438 C 19.300781 36 19.800781 34.898438 20.398438 34 C 20.5 33.800781 20.699219 33.5 20.898438 33.300781 L 20.601562 33.699219 C 20.898438 33.398438 21.199219 33.101562 21.5 32.800781 L 21.101562 33.101562 C 21.199219 33.101562 21.300781 33 21.398438 32.898438 C 20.398438 32.101562 19.398438 31.398438 18.5 30.601562 C 17.699219 33.300781 17.101562 36 16.800781 38.800781 C 16.699219 39.601562 16.601562 40.398438 16.5 41.300781 C 16.5 41.898438 16.398438 42.5 16.398438 43.101562 C 16.398438 44.601562 16.898438 46.300781 18.398438 47.101562 C 19.199219 47.5 20.101562 47.601562 21 47.5 C 21.800781 47.5 22.5 47.300781 23.300781 47.199219 C 24.601562 47 26 46.601562 27.101562 45.800781 C 28.199219 45 29.101562 44 29.699219 42.800781 C 30.199219 41.699219 30.601562 40.601562 30.800781 39.300781 C 30.898438 38.5 31 37.699219 31 36.898438 C 31 36.101562 31 35.398438 30.800781 34.601562 C 30.601562 33 30.300781 31.5 30.300781 29.800781 C 29.199219 30.300781 28 30.699219 26.898438 31.199219 C 29.101562 33.398438 31.601562 35.300781 34.199219 36.898438 C 35.5 37.699219 36.800781 38.300781 38.101562 38.898438 C 39.800781 39.699219 41.601562 40.398438 43.5 40.5 C 44.5 40.5 45.5 40.300781 46.398438 39.898438 C 46.699219 39.699219 47.101562 39.5 47.398438 39.300781 C 47.699219 39.101562 48 38.800781 48.199219 38.5 C 48.601562 38 48.898438 37.5 49.101562 36.898438 C 49.300781 36.5 49.300781 35.898438 49.300781 35.5 C 49.300781 34.398438 48.898438 33.398438 48.398438 32.5 C 47.601562 31.101562 46.5 29.898438 45.199219 28.898438 C 43.898438 27.898438 42.601562 26.898438 41.199219 26.101562 C 38.5 24.601562 35.5 23.5 32.398438 22.898438 C 32 22.898438 31.699219 22.800781 31.300781 22.699219 C 31.101562 24 30.898438 25.300781 30.800781 26.601562 C 33.699219 26.5 36.5 26.300781 39.398438 26.101562 C 40.800781 26.101562 42.101562 26 43.5 25.898438 C 44.101562 25.898438 44.800781 25.800781 45.398438 25.601562 C 46.300781 25.300781 47 24.800781 47.601562 24 C 48.601562 22.601562 48.101562 20.601562 47.300781 19.300781 C 46.601562 18.199219 45.699219 17.398438 44.601562 16.800781 C 42.5 15.601562 40 15.300781 37.601562 15.398438 C 34.5 15.5 31.398438 16.398438 28.601562 17.898438 C 28.199219 18.101562 27.800781 18.601562 27.699219 19.101562 C 27.601562 19.601562 27.699219 20.199219 27.898438 20.601562 C 28.199219 21 28.601562 21.398438 29.101562 21.5 C 29.601562 21.601562 30.101562 21.5 30.601562 21.300781 C 32.699219 20.199219 34.800781 19 36.699219 17.5 C 38.800781 15.898438 41.398438 14 41.5 11 C 41.5 9.398438 40.601562 8 39.300781 7.101562 C 38.800781 6.800781 38.199219 6.5 37.601562 6.398438 C 36.699219 6.199219 35.898438 6.300781 35 6.398438 C 34.300781 6.5 33.601562 6.800781 32.898438 7.101562 C 32.398438 7.300781 31.898438 7.601562 31.398438 7.800781 C 30.5 8.300781 29.601562 8.800781 28.800781 9.398438 C 27.800781 10.199219 26.800781 11 25.898438 12 C 25.5 12.5 25 13.101562 24.699219 13.699219 C 24.398438 14.300781 24.101562 15 23.800781 15.699219 C 23.601562 16.199219 23.800781 16.800781 24 17.199219 C 24.199219 17.601562 24.699219 18 25.199219 18.101562 C 25.699219 18.199219 26.300781 18.101562 26.699219 17.898438 C 27.101562 17.699219 27.398438 17.199219 27.601562 16.699219 Z M 27.398438 17.398438 "/>
</g>
</svg>
