<?xml version="1.0" encoding="UTF-8"?>
<svg id="Capa_1" xmlns="http://www.w3.org/2000/svg" viewBox="0 0 34.05 38.38">
  <defs>
    <style>
      .cls-1 {
        fill: #fff;
      }
    </style>
  </defs>
  <path class="cls-1" d="M2.52,13.21c2.08-2.82,5.06-4.86,7.8-6.99,1.45-1.12,2.89-2.24,4.34-3.36.38-.3.77-.67,1.18-.92.64-.38.36-.14.85.02.92.3,1.91,1.19,2.73,1.72,2.83,1.84,5.6,3.78,8.3,5.82,1.35,1.02,2.92,2.03,4.11,3.25.79.82.56,1.91.54,2.96s-.04,1.99-.07,2.98c-.09,3.81-.17,7.61-.26,11.42-.02.83-.04,1.65-.06,2.48-.01.5-.02.99-.03,1.49,0,.38.11,1.15-.03,1.49-.38.91-1.57.61-2.36.61-1,0-1.99,0-2.99,0-7.64,0-15.28.02-22.92,0-.2,0-.61.04-.85,0-.86-.17-.86-.6-.9-1.33-.05-.92.02-1.85.04-2.77.03-2.13.07-4.25.1-6.38.07-4.25.13-8.51.2-12.76.02-1.06-1.63-1.06-1.65,0-.07,4.42-.14,8.84-.21,13.26-.03,2.21-.07,4.42-.1,6.63-.02,1.35-.34,3.25.72,4.33,1.13,1.15,3.47.69,4.9.69,2.24,0,4.48,0,6.73,0,4.4,0,8.8,0,13.21,0,1.08,0,2.16,0,3.24,0,.93,0,1.96.13,2.88-.07,1.74-.38,1.62-1.99,1.66-3.43.1-4.47.2-8.94.3-13.4.05-2.23.16-4.47.15-6.7,0-1.95-1.17-2.75-2.6-3.89-3.12-2.49-6.34-4.85-9.65-7.06-1.02-.68-2.05-1.35-3.09-2.01C18,.83,17.11.03,16.24,0c-.78-.02-1.38.64-1.95,1.08-.99.76-1.97,1.53-2.96,2.29C7.77,6.13,3.8,8.71,1.1,12.38c-.63.86.8,1.68,1.42.83h0Z"/>
  <path class="cls-1" d="M13.16,33.74c-.02-2.66.27-5.3.89-7.89.43-1.78.94-4.88,3.05-5.42.83-.21,1.77,0,2.44.53.86.69,1.1,1.88,1.21,2.92.29,2.65.19,5.38-.19,8.02-.06.44.11.88.58,1.01.39.11.95-.14,1.01-.58.36-2.48.49-4.98.33-7.48-.13-2.03-.45-4.27-2.31-5.45-1.57-1-3.68-.91-5.1.29-1.61,1.36-2.14,3.78-2.61,5.73-.66,2.72-.97,5.52-.95,8.32,0,1.06,1.66,1.06,1.65,0h0Z"/>
  <path class="cls-1" d="M10.16,6.77c2.34-1.51,4.94-2.5,7.71-2.88l-.42-1.54C12.59,5.15,7.72,7.95,2.85,10.74c-.63.36-.47,1.3.2,1.51,3.59,1.1,7.31-.14,10.63-1.54s6.45-3.28,9.3-5.52c.74-.58-.22-1.79-1-1.3C15.12,8.2,6,8.88.98,15.86c-.47.65.3,1.32.93,1.21,8.76-1.46,17.23-4.3,25.11-8.4l-.83-1.42C18.23,11.48,10.09,15.36,1.78,18.86c-.82.35-.77,1.58.22,1.62,2.23.09,4.22-.95,6.21-1.82,2.24-.98,4.49-1.97,6.73-2.95,4.49-1.97,8.98-3.94,13.47-5.91l-1-1.3c-4.97,4-10.18,7.7-15.59,11.1l1,1.3c3.83-4.18,8.31-7.65,13.32-10.32l-1-1.3c-2.42,2.81-4.85,5.61-7.27,8.42-.41.47-.26,1.19.36,1.38,1.91.59,4.03-.83,5.67-1.66,2.12-1.07,4.16-2.27,6.14-3.58l-1-1.3c-3.42,3.82-6.84,7.64-10.26,11.47-.59.65.21,1.89,1,1.3l4.79-3.64,2.49-1.89,1.15-.87.38-.29c.52-.21.51-.39-.03-.52-.18.11-.6.93-.72,1.09-.29.4-.57.8-.86,1.2-.57.8-1.14,1.6-1.72,2.4-1.24,1.73-2.48,3.46-3.72,5.19-.49.69.46,1.53,1.13,1.13,3.17-1.9,6.12-4.12,8.84-6.63l-1.17-1.17c-3.49,3.87-6.8,7.9-9.94,12.07-.42.56.28,1.46.93,1.21,3.25-1.25,6.08-3.2,8.89-5.21l-1.13-1.13c-1.41,2.1-3.06,3.99-4.93,5.69-.7.63.2,1.78,1,1.3,2.26-1.38,4.52-2.75,6.78-4.13l-1.13-1.13c-.69,1.24-1.57,2.26-2.67,3.16-.83.67.35,1.83,1.17,1.17,1.2-.97,2.17-2.14,2.93-3.49.39-.7-.41-1.57-1.13-1.13-2.26,1.38-4.52,2.75-6.78,4.13l1,1.3c1.98-1.79,3.71-3.81,5.19-6.03.45-.67-.46-1.61-1.13-1.13-2.68,1.92-5.4,3.85-8.5,5.04l.93,1.21c3.05-4.05,6.28-7.97,9.68-11.73.71-.79-.38-1.89-1.17-1.17-2.61,2.42-5.45,4.54-8.5,6.38l1.13,1.13c1.57-2.2,3.15-4.39,4.72-6.59.74-1.04,1.7-2.08,2.28-3.22.29-.57.41-1.35.03-1.9-.35-.51-.99-.62-1.54-.38-1.07.46-2.07,1.52-3,2.22l-6.52,4.94,1,1.3c3.42-3.82,6.84-7.64,10.26-11.47.59-.66-.18-1.84-1-1.3-1.59,1.06-3.23,2.05-4.92,2.95-.81.43-1.63.84-2.46,1.24-.93.44-2.11,1.21-3.16.89l.36,1.38c2.42-2.81,4.85-5.61,7.27-8.42.6-.7-.15-1.75-1-1.3-5.12,2.73-9.73,6.3-13.65,10.58-.61.67.18,1.81,1,1.3,5.53-3.47,10.84-7.26,15.92-11.35.79-.64-.22-1.64-1-1.3-4.19,1.84-8.38,3.68-12.57,5.52-2.09.92-4.19,1.84-6.28,2.76s-4.36,2.28-6.72,2.19l.22,1.62c8.44-3.55,16.71-7.48,24.8-11.77.94-.5.11-1.91-.83-1.42C18.43,11.29,10.1,14.05,1.47,15.48l.93,1.21c4.75-6.61,13.89-7.29,20.4-11.38l-1-1.3c-2.56,2.02-5.38,3.71-8.37,5.01s-6.62,2.65-9.95,1.63l.2,1.51c4.87-2.8,9.74-5.59,14.61-8.39.66-.38.43-1.65-.42-1.54-3.07.41-5.93,1.42-8.54,3.1-.89.57-.06,2,.83,1.42h0Z"/>
  <path class="cls-1" d="M1.39,25.28c1.84-1.98,3.83-3.83,5.96-5.5,1.16-.91,2.37-1.76,3.61-2.57.53-.34,1.07-.75,1.64-1.02.13-.09.27-.14.43-.16.25-.07.2-.03-.15.11-.16.23-.27.5-.42.74-1.32,2.09-3.42,3.56-5.23,5.19-2.18,1.96-4.05,4.22-5.91,6.47-.42.5-.19,1.46.58,1.41,1.82-.11,3.33-.98,4.79-2s3.03-2.31,4.93-2.37l-.71-1.24c-2.31,4.72-6.94,7.66-9.91,11.91-.56.79.63,1.61,1.3,1l6.59-6.1,1.61-1.49c.09-.08.58-.43.42-.51.08.04-.16.74-.18.81-.39,1.28-1,2.45-1.77,3.55-.52.74.46,1.44,1.13,1.13-.19.09-.47.75-.65.96-.19.22-.42.41-.6.64-.28.35-.46.69-.6,1.12-.33,1.01,1.26,1.45,1.59.44.42-1.29,2.27-1.91,1.77-3.56-.32-1.05-1.4-1.46-2.34-1.03l1.13,1.13c.96-1.37,1.86-3.04,2.13-4.72.19-1.18-.51-2.63-1.92-2.11-.8.3-1.46,1.16-2.06,1.72l-2.41,2.23-4.98,4.62,1.3,1c2.98-4.25,7.59-7.16,9.91-11.91.26-.54-.05-1.26-.71-1.24-1.81.06-3.34.91-4.79,1.91s-3.03,2.33-4.93,2.45l.58,1.41c2.29-2.77,4.63-5.38,7.36-7.72,1.14-.98,2.28-1.96,3.22-3.13.7-.86,1.97-2.37,1.56-3.57-.94-2.77-5.65,1.26-6.72,2.04-2.77,2.01-5.34,4.29-7.67,6.79-.72.78.44,1.95,1.17,1.17h0Z"/>
</svg>