<?xml version="1.0" encoding="UTF-8"?>
<svg xmlns="http://www.w3.org/2000/svg" xmlns:xlink="http://www.w3.org/1999/xlink" width="35px" height="39px" viewBox="0 0 35 39" version="1.1">
<g id="surface1">
<path style=" stroke:none;fill-rule:nonzero;fill:rgb(100%,100%,100%);fill-opacity:1;" d="M 2.714844 13.421875 C 4.835938 10.558594 7.875 8.484375 10.667969 6.320312 C 12.144531 5.183594 13.613281 4.042969 15.089844 2.90625 C 15.476562 2.601562 15.875 2.226562 16.292969 1.972656 C 16.945312 1.585938 16.660156 1.828125 17.160156 1.992188 C 18.097656 2.296875 19.105469 3.199219 19.941406 3.738281 C 22.824219 5.609375 25.648438 7.582031 28.402344 9.652344 C 29.777344 10.691406 31.375 11.714844 32.589844 12.957031 C 33.394531 13.789062 33.160156 14.898438 33.140625 15.964844 C 33.121094 17.03125 33.097656 17.984375 33.070312 18.992188 C 32.976562 22.863281 32.894531 26.726562 32.804688 30.597656 C 32.78125 31.441406 32.761719 32.273438 32.742188 33.117188 C 32.730469 33.625 32.722656 34.121094 32.710938 34.628906 C 32.710938 35.015625 32.824219 35.800781 32.679688 36.144531 C 32.292969 37.070312 31.082031 36.765625 30.277344 36.765625 C 29.257812 36.765625 28.246094 36.765625 27.226562 36.765625 C 19.441406 36.765625 11.65625 36.785156 3.867188 36.765625 C 3.664062 36.765625 3.246094 36.804688 3 36.765625 C 2.125 36.589844 2.125 36.15625 2.085938 35.414062 C 2.035156 34.476562 2.105469 33.53125 2.125 32.597656 C 2.15625 30.433594 2.195312 28.28125 2.226562 26.113281 C 2.296875 21.796875 2.359375 17.46875 2.429688 13.148438 C 2.453125 12.070312 0.769531 12.070312 0.75 13.148438 C 0.679688 17.640625 0.605469 22.132812 0.535156 26.625 C 0.503906 28.867188 0.464844 31.113281 0.433594 33.359375 C 0.414062 34.730469 0.0859375 36.664062 1.167969 37.761719 C 2.320312 38.929688 4.703125 38.460938 6.160156 38.460938 C 8.445312 38.460938 10.726562 38.460938 13.019531 38.460938 C 17.503906 38.460938 21.988281 38.460938 26.484375 38.460938 C 27.585938 38.460938 28.6875 38.460938 29.785156 38.460938 C 30.734375 38.460938 31.785156 38.59375 32.722656 38.390625 C 34.496094 38.003906 34.375 36.367188 34.414062 34.90625 C 34.515625 30.363281 34.617188 25.820312 34.71875 21.289062 C 34.769531 19.023438 34.882812 16.746094 34.871094 14.480469 C 34.871094 12.5 33.679688 11.6875 32.222656 10.527344 C 29.042969 7.996094 25.761719 5.597656 22.386719 3.351562 C 21.347656 2.664062 20.296875 1.980469 19.238281 1.3125 C 18.492188 0.84375 17.585938 0.03125 16.699219 0 C 15.90625 -0.0195312 15.292969 0.648438 14.710938 1.097656 C 13.703125 1.871094 12.703125 2.652344 11.695312 3.425781 C 8.066406 6.230469 4.019531 8.851562 1.269531 12.578125 C 0.625 13.453125 2.085938 14.289062 2.714844 13.421875 Z M 2.714844 13.421875 "/>
<path style=" stroke:none;fill-rule:nonzero;fill:rgb(100%,100%,100%);fill-opacity:1;" d="M 13.5625 34.285156 C 13.539062 31.582031 13.835938 28.898438 14.46875 26.269531 C 14.90625 24.457031 15.425781 21.308594 17.578125 20.761719 C 18.421875 20.546875 19.378906 20.761719 20.0625 21.296875 C 20.941406 22 21.183594 23.207031 21.296875 24.265625 C 21.59375 26.957031 21.492188 29.734375 21.101562 32.414062 C 21.042969 32.863281 21.214844 33.308594 21.695312 33.441406 C 22.089844 33.554688 22.664062 33.300781 22.722656 32.851562 C 23.089844 30.332031 23.222656 27.792969 23.058594 25.25 C 22.925781 23.1875 22.601562 20.914062 20.707031 19.714844 C 19.105469 18.695312 16.953125 18.789062 15.507812 20.007812 C 13.867188 21.390625 13.328125 23.847656 12.847656 25.832031 C 12.175781 28.59375 11.859375 31.441406 11.878906 34.285156 C 11.878906 35.363281 13.570312 35.363281 13.5625 34.285156 Z M 13.5625 34.285156 "/>
<path style=" stroke:none;fill-rule:nonzero;fill:rgb(100%,100%,100%);fill-opacity:1;" d="M 10.503906 6.878906 C 12.886719 5.34375 15.539062 4.339844 18.359375 3.953125 L 17.933594 2.386719 C 12.980469 5.234375 8.015625 8.078125 3.050781 10.914062 C 2.410156 11.28125 2.574219 12.234375 3.257812 12.449219 C 6.914062 13.566406 10.707031 12.304688 14.089844 10.882812 C 17.472656 9.460938 20.664062 7.550781 23.570312 5.273438 C 24.324219 4.683594 23.34375 3.453125 22.550781 3.953125 C 15.558594 8.332031 6.261719 9.023438 1.148438 16.117188 C 0.667969 16.777344 1.453125 17.457031 2.09375 17.347656 C 11.023438 15.863281 19.65625 12.976562 27.6875 8.808594 L 26.839844 7.367188 C 18.726562 11.664062 10.433594 15.609375 1.960938 19.164062 C 1.125 19.519531 1.175781 20.769531 2.1875 20.8125 C 4.460938 20.902344 6.488281 19.84375 8.515625 18.960938 C 10.796875 17.964844 13.09375 16.960938 15.375 15.964844 C 19.953125 13.960938 24.527344 11.960938 29.105469 9.957031 L 28.085938 8.636719 C 23.019531 12.703125 17.707031 16.460938 12.195312 19.917969 L 13.214844 21.238281 C 17.117188 16.988281 21.683594 13.464844 26.789062 10.75 L 25.769531 9.429688 C 23.304688 12.285156 20.828125 15.128906 18.359375 17.984375 C 17.945312 18.464844 18.097656 19.195312 18.726562 19.386719 C 20.675781 19.988281 22.835938 18.542969 24.507812 17.703125 C 26.667969 16.613281 28.746094 15.394531 30.765625 14.0625 L 29.746094 12.742188 C 26.261719 16.625 22.773438 20.507812 19.289062 24.398438 C 18.6875 25.058594 19.503906 26.320312 20.308594 25.71875 L 25.191406 22.019531 L 27.726562 20.097656 L 28.898438 19.214844 L 29.289062 18.921875 C 29.816406 18.707031 29.808594 18.523438 29.257812 18.390625 C 29.074219 18.503906 28.644531 19.335938 28.523438 19.5 C 28.226562 19.90625 27.941406 20.3125 27.644531 20.71875 C 27.066406 21.53125 26.484375 22.34375 25.894531 23.15625 C 24.628906 24.917969 23.367188 26.675781 22.101562 28.433594 C 21.601562 29.132812 22.570312 29.988281 23.253906 29.582031 C 26.484375 27.648438 29.492188 25.394531 32.261719 22.84375 L 31.070312 21.652344 C 27.515625 25.585938 24.140625 29.683594 20.941406 33.917969 C 20.511719 34.488281 21.226562 35.402344 21.886719 35.148438 C 25.199219 33.878906 28.085938 31.898438 30.949219 29.855469 L 29.796875 28.707031 C 28.359375 30.839844 26.679688 32.761719 24.773438 34.488281 C 24.058594 35.128906 24.976562 36.296875 25.792969 35.808594 C 28.09375 34.40625 30.398438 33.015625 32.703125 31.613281 L 31.550781 30.464844 C 30.847656 31.722656 29.949219 32.761719 28.828125 33.675781 C 27.984375 34.355469 29.183594 35.535156 30.019531 34.863281 C 31.246094 33.878906 32.234375 32.691406 33.007812 31.316406 C 33.40625 30.605469 32.589844 29.722656 31.855469 30.167969 C 29.550781 31.570312 27.25 32.964844 24.945312 34.367188 L 25.964844 35.6875 C 27.984375 33.867188 29.746094 31.816406 31.253906 29.558594 C 31.714844 28.878906 30.785156 27.925781 30.101562 28.410156 C 27.371094 30.363281 24.597656 32.324219 21.4375 33.53125 L 22.386719 34.761719 C 25.496094 30.648438 28.789062 26.664062 32.253906 22.84375 C 32.976562 22.039062 31.867188 20.921875 31.0625 21.652344 C 28.402344 24.113281 25.507812 26.269531 22.398438 28.136719 L 23.550781 29.285156 C 25.148438 27.050781 26.757812 24.824219 28.359375 22.589844 C 29.113281 21.53125 30.09375 20.476562 30.683594 19.316406 C 30.980469 18.738281 31.101562 17.945312 30.714844 17.386719 C 30.359375 16.867188 29.707031 16.757812 29.144531 17 C 28.054688 17.46875 27.035156 18.542969 26.085938 19.257812 L 19.441406 24.277344 L 20.460938 25.597656 C 23.945312 21.714844 27.433594 17.832031 30.917969 13.941406 C 31.519531 13.269531 30.734375 12.070312 29.898438 12.621094 C 28.277344 13.699219 26.605469 14.703125 24.882812 15.617188 C 24.058594 16.054688 23.222656 16.472656 22.378906 16.878906 C 21.429688 17.324219 20.226562 18.109375 19.15625 17.78125 L 19.523438 19.183594 C 21.988281 16.328125 24.464844 13.484375 26.933594 10.628906 C 27.542969 9.917969 26.78125 8.851562 25.914062 9.308594 C 20.695312 12.082031 15.996094 15.710938 12 20.058594 C 11.378906 20.738281 12.183594 21.898438 13.019531 21.378906 C 18.65625 17.855469 24.070312 14.003906 29.246094 9.847656 C 30.050781 9.195312 29.023438 8.179688 28.226562 8.527344 C 23.957031 10.394531 19.6875 12.265625 15.414062 14.132812 C 13.285156 15.070312 11.144531 16.003906 9.015625 16.9375 C 6.886719 17.875 4.570312 19.257812 2.164062 19.164062 L 2.390625 20.8125 C 10.992188 17.203125 19.421875 13.210938 27.667969 8.851562 C 28.625 8.34375 27.777344 6.910156 26.820312 7.40625 C 18.933594 11.472656 10.441406 14.277344 1.644531 15.730469 L 2.59375 16.960938 C 7.433594 10.242188 16.75 9.550781 23.386719 5.394531 L 22.367188 4.074219 C 19.757812 6.128906 16.882812 7.84375 13.835938 9.164062 C 10.789062 10.488281 7.089844 11.859375 3.695312 10.820312 L 3.898438 12.355469 C 8.863281 9.511719 13.824219 6.675781 18.789062 3.832031 C 19.460938 3.445312 19.226562 2.152344 18.359375 2.265625 C 15.230469 2.683594 12.316406 3.707031 9.65625 5.417969 C 8.75 5.996094 9.597656 7.449219 10.503906 6.859375 Z M 10.503906 6.878906 "/>
<path style=" stroke:none;fill-rule:nonzero;fill:rgb(100%,100%,100%);fill-opacity:1;" d="M 1.566406 25.6875 C 3.441406 23.675781 5.46875 21.796875 7.640625 20.097656 C 8.820312 19.175781 10.054688 18.3125 11.320312 17.488281 C 11.859375 17.140625 12.410156 16.726562 12.988281 16.453125 C 13.121094 16.359375 13.265625 16.308594 13.429688 16.289062 C 13.683594 16.21875 13.632812 16.257812 13.273438 16.402344 C 13.113281 16.632812 13 16.910156 12.847656 17.152344 C 11.5 19.277344 9.363281 20.769531 7.515625 22.425781 C 5.292969 24.417969 3.390625 26.714844 1.492188 29 C 1.066406 29.507812 1.300781 30.484375 2.085938 30.433594 C 3.9375 30.320312 5.476562 29.4375 6.964844 28.402344 C 8.453125 27.363281 10.054688 26.054688 11.992188 25.992188 L 11.265625 24.734375 C 8.914062 29.53125 4.195312 32.515625 1.167969 36.835938 C 0.597656 37.636719 1.808594 38.472656 2.492188 37.851562 L 9.207031 31.652344 L 10.847656 30.140625 C 10.941406 30.058594 11.441406 29.703125 11.277344 29.621094 C 11.359375 29.660156 11.113281 30.371094 11.09375 30.445312 C 10.695312 31.746094 10.074219 32.933594 9.289062 34.050781 C 8.761719 34.804688 9.757812 35.515625 10.441406 35.199219 C 10.25 35.292969 9.960938 35.960938 9.78125 36.175781 C 9.585938 36.398438 9.351562 36.589844 9.167969 36.824219 C 8.882812 37.179688 8.699219 37.527344 8.554688 37.964844 C 8.21875 38.988281 9.839844 39.4375 10.175781 38.410156 C 10.605469 37.101562 12.492188 36.46875 11.980469 34.792969 C 11.65625 33.726562 10.554688 33.308594 9.597656 33.746094 L 10.746094 34.894531 C 11.726562 33.503906 12.644531 31.804688 12.917969 30.097656 C 13.113281 28.898438 12.398438 27.425781 10.960938 27.953125 C 10.144531 28.257812 9.472656 29.132812 8.863281 29.703125 L 6.40625 31.96875 L 1.332031 36.664062 L 2.65625 37.679688 C 5.691406 33.359375 10.390625 30.402344 12.753906 25.578125 C 13.019531 25.027344 12.703125 24.296875 12.03125 24.316406 C 10.1875 24.378906 8.628906 25.242188 7.148438 26.257812 C 5.671875 27.273438 4.0625 28.625 2.125 28.746094 L 2.714844 30.179688 C 5.050781 27.363281 7.433594 24.710938 10.21875 22.335938 C 11.378906 21.339844 12.542969 20.34375 13.5 19.15625 C 14.214844 18.28125 15.507812 16.746094 15.089844 15.527344 C 14.132812 12.710938 9.332031 16.808594 8.242188 17.601562 C 5.417969 19.640625 2.796875 21.960938 0.421875 24.5 C -0.3125 25.292969 0.871094 26.480469 1.617188 25.6875 Z M 1.566406 25.6875 "/>
</g>
</svg>
