<?xml version="1.0" encoding="UTF-8"?>
<svg id="Capa_1" xmlns="http://www.w3.org/2000/svg" viewBox="0 0 832.84 940.68">
  <defs>
    <style>
      .cls-1 {
        fill: #fff;
      }
    </style>
  </defs>
  <path class="cls-1" d="M52.11,319.14c6.4-8.92,11.41-15.28,18.96-24.06,6.96-8.09,14.23-15.92,21.73-23.51,15.25-15.44,31.46-29.9,48.1-43.82,34.99-29.26,71.58-56.64,107.62-84.58,39.2-30.39,78.4-60.78,117.6-91.16,4.49-3.48,8.97-6.96,13.46-10.43,4.2-3.26,9.71-7.73,12.87-9.94,1.21-.85,2.43-1.77,3.77-2.41-1.28.61-.86-.34.58-.08-1.28-.23-2.58-.56-.28.5-.6-.28-1.91-1.05.83.4,5.37,2.82,10.46,6.26,15.61,9.44,19.59,12.09,39.06,24.37,58.4,36.84,77.84,50.21,153.66,103.56,227.2,159.89,17.17,13.15,35.04,27.15,52.73,41.29,9.21,7.36,18.38,14.77,27.52,22.22,3.79,3.09,7.58,6.18,11.16,9.51,3.76,3.51,6.37,6.35,8,8.83.78,1.19,1.45,2.42,2.16,3.64,1.35,2.33.6,1.04.3.36,1.02,2.37,1.56,4.9,2.14,7.4,1.04,4.48,0-2.4.33,2.21.07,1.04.16,2.07.21,3.1.16,3.12.14,6.25.09,9.37-.19,12.1-.54,24.19-.81,36.29-.56,24.81-1.11,49.61-1.67,74.42-2.21,98.63-4.42,197.26-6.63,295.89-.55,24.51-1.1,49.02-1.65,73.52-.27,12.25-.55,24.51-.82,36.76-.12,5.56-.21,11.12-.38,16.68-.07,2.42-.16,4.84-.4,7.25.3-3.04-.31,1.51-.37,1.78-.32,1.37-.66,2.78-1.22,4.07,1.02-2.34-.48.34-.74.9-.87,1.87,2.09-1.63-.44.47-.06.05-3.06,2.35-1.25,1.19s-1.53.8-1.54.8c-2.98,2.02,1.66-.38-.38.27-.99.31-1.95.69-2.95.97-.81.23-1.63.43-2.45.62-.65.15-5.97.88-2.45.51-10.21,1.06-20.58.59-30.83.59-24.79,0-49.57,0-74.36,0-98.24,0-196.49,0-294.73,0-98.54,0-197.09,0-295.63,0-5.5,0-11.01.09-16.51-.09-2.52-.08-5.06-.2-7.56-.51,2.48.31-.67-.16-1.27-.28-1.7-.34-3.35-.81-5.02-1.3-2.66-.78-1.28-.43-.6-.13-1.37-.6-2.6-1.41-3.89-2.15-2.28-1.3-.47-.28.04.14-.91-.77-1.78-1.56-2.61-2.42-.54-.57-1.05-1.16-1.57-1.75,2.28,2.6-.09-.26-.44-.82-.42-.66-.81-1.35-1.19-2.03-.22-.4-1.93-4.35-1.28-2.55.78,2.14-.52-1.63-.52-1.64-.25-.78-.49-1.56-.71-2.34-.56-2-1.02-4.03-1.4-6.07-.1-.51-.68-4.68-.24-1.11-.1-.85-.2-1.69-.28-2.54-.25-2.56-.42-5.12-.51-7.69-.42-10.93.07-21.92.24-32.86.77-48.94,1.54-97.88,2.3-146.82,1.54-98.48,3.09-196.96,4.63-295.44.37-23.87.75-47.75,1.12-71.62.12-7.69-6.85-15.06-14.7-14.7s-14.58,6.46-14.7,14.7c-1.59,101.16-3.17,202.33-4.76,303.49-.79,50.43-1.58,100.87-2.37,151.3-.39,25.07-.79,50.13-1.18,75.2-.31,19.49-.55,41.69,10.8,58.55,6.61,9.82,15.99,16.83,27.42,20.09,11.29,3.22,23.35,2.79,34.97,2.79,25.08,0,50.17,0,75.25,0,50.76,0,101.53,0,152.29,0,100.93,0,201.86,0,302.8,0,50.47,0,100.93,0,151.4,0,10.17,0,21-.07,30.69-3.52,12.02-4.28,21.05-12.25,25.46-24.39,3.96-10.89,3.1-23.5,3.35-34.91.28-12.55.56-25.11.84-37.66,2.26-101.02,4.53-202.04,6.79-303.06,1.14-50.81,2.28-101.62,3.42-152.43.52-23.23,4.31-49.69-10.29-69.67-6.59-9.02-14.83-16.03-23.43-23.04-9.35-7.63-18.75-15.21-28.18-22.73-74.92-59.78-152.25-116.55-231.85-169.95-39.16-26.27-78.86-51.74-119.07-76.38-5.16-3.16-10.43-6.42-16.36-7.92-7.83-1.98-15.9-.4-22.76,3.7-5.55,3.32-10.54,7.86-15.64,11.82s-10.39,8.05-15.59,12.08c-20.07,15.56-40.14,31.12-60.22,46.68-39.38,30.53-78.77,61.03-118.13,91.58-35.12,27.26-70.19,54.92-101.25,86.84-15.41,15.84-29.67,32.77-42.55,50.73-4.5,6.27-1.3,16.64,5.28,20.12,7.6,4.01,15.32,1.42,20.12-5.28h0Z"/>
  <path class="cls-1" d="M314.82,830.89c-.31-30.58,1.09-61.16,4.2-91.58.88-8.57,1.89-17.12,3.03-25.66l-.53,3.91c3.12-23.16,7.2-46.18,12.27-68.98s11.11-45.4,18.12-67.68c3.26-10.36,6.77-20.65,10.99-30.66l-1.48,3.51c5.1-12.03,11.22-23.67,19.2-34.05l-2.3,2.98c4.95-6.37,10.57-12.18,16.93-17.15l-2.98,2.3c5.3-4.08,11.02-7.48,17.18-10.1l-3.51,1.48c6.62-2.77,13.58-4.61,20.69-5.59l-3.91.53c8.06-1.07,16.21-1.01,24.27.06l-3.91-.53c8.09,1.12,15.99,3.27,23.52,6.41l-3.51-1.48c7.08,2.99,13.76,6.83,19.86,11.51l-2.98-2.3c5.35,4.16,10.18,8.94,14.34,14.29l-2.3-2.98c5.13,6.69,9.25,14.07,12.55,21.82l-1.48-3.51c5.74,13.67,8.86,28.23,10.85,42.87l-.53-3.91c3.41,25.38,4.49,51.19,4.87,76.78.4,26.8-.48,53.63-2.62,80.35-1.21,15.13-2.84,30.22-4.86,45.26l.53-3.91c-.53,3.95-1.09,7.9-1.68,11.84-.61,1.95-.7,3.91-.26,5.86.09,1.96.67,3.78,1.74,5.47,1.78,3.05,5.28,5.96,8.79,6.76,3.76.86,7.99.67,11.33-1.48,2.99-1.93,6.21-5.1,6.76-8.79,4.45-29.9,7.52-59.99,8.89-90.2,1.32-28.99,1.15-58.05-.51-87.03-.76-13.28-1.69-26.59-3.43-39.79-1.76-13.41-4.01-26.75-8.38-39.6-2.28-6.7-5.02-13.31-8.28-19.59s-7.16-11.88-11.48-17.38c-6.78-8.64-15.48-15.89-24.83-21.6s-19.79-9.95-30.42-12.44-21.9-3.6-32.84-2.64c-12.33,1.08-23.79,4.05-34.99,9.32-10.48,4.93-20.02,12.4-27.91,20.84-17.3,18.49-27.8,41.89-35.99,65.55-8.92,25.77-16.02,52.27-21.99,78.87-6.45,28.71-11.28,57.75-14.76,86.96-3.33,28.01-5.22,56.19-5.64,84.4-.1,6.89-.12,13.78-.05,20.67.04,3.79,1.61,7.7,4.31,10.4,2.55,2.55,6.73,4.47,10.4,4.31,7.9-.35,14.79-6.46,14.7-14.7h0Z"/>
  <path class="cls-1" d="M243.52,157.48c23.3-15.32,47.9-28.52,73.51-39.53.11-.05,2.2-.93.77-.33-1.57.66,1.06-.44,1.4-.58,1.48-.61,2.96-1.21,4.44-1.81,3.39-1.36,6.8-2.68,10.22-3.96,6.42-2.4,12.88-4.66,19.4-6.78,13.24-4.31,26.68-8.04,40.25-11.16,7.57-1.74,15.17-3.29,22.82-4.66,3.82-.68,7.65-1.31,11.49-1.9,1.81-.28,3.61-.54,5.42-.79,2.93-.42.77-.11.16-.03,1.36-.18,2.72-.35,4.08-.52l-7.42-27.4c-47.06,27.01-94.12,54.03-141.18,81.04s-94.12,54.03-141.18,81.04c-26.57,15.25-53.14,30.5-79.71,45.75-11.45,6.57-8.15,22.96,3.51,26.88,68.76,23.06,143.08,5.32,209.15-18.2,64.2-22.86,126.08-52.43,184.06-88.26,33.04-20.43,64.71-42.94,95.1-67.13,5.71-4.55,5.19-14.08,1.15-19.31-4.3-5.56-12.76-7.77-18.97-3.79-34.73,22.24-71.83,40.42-109.73,56.56-1.07.46-2.15.91-3.22,1.37,2.78-1.17-1.48.61-1.65.69-2.15.9-4.31,1.79-6.47,2.68-4.97,2.05-9.95,4.06-14.93,6.06-9.55,3.82-19.14,7.56-28.74,11.26-19.44,7.49-38.94,14.8-58.4,22.26-71.38,27.36-143.03,57.16-204.9,102.87-34.64,25.59-65.49,55.44-90.18,90.85-3.34,4.78-2.18,12.02,1.15,16.33,3.86,5,9.43,6.25,15.46,5.27,84.05-13.75,167.21-32.75,248.89-56.88,82.45-24.36,163.27-54.01,242.05-88.4,44.04-19.22,87.39-40.02,129.96-62.3l-14.84-25.39c-77.44,41.24-155.6,81.1-234.46,119.55s-158.4,75.5-238.58,111.11c-22.45,9.97-44.95,19.83-67.5,29.58-11.04,4.77-22.1,9.52-33.17,14.24-12.02,5.13-21.87,9.29-32.5,13.76-6.84,2.87-11.59,8.25-10.53,16.13s7.05,12.14,14.44,12.75c45.36,3.75,87.88-16.68,128.28-34.41,42.48-18.64,84.96-37.28,127.45-55.92,84.49-37.07,168.98-74.15,253.47-111.22,47.47-20.83,94.93-41.66,142.4-62.48l-17.82-23.09c-12.25,9.89-24.56,19.7-36.93,29.45-5.99,4.72-11.99,9.42-18.01,14.11-2.91,2.27-5.83,4.53-8.74,6.79-.78.6-1.56,1.2-2.33,1.81.51-.39,1.8-1.39-.53.41-1.56,1.2-3.12,2.4-4.68,3.6-24.77,19.04-49.76,37.79-74.96,56.25-50.21,36.77-101.29,72.37-153.16,106.76-29.11,19.3-58.48,38.22-88.09,56.75,5.94,7.7,11.88,15.4,17.82,23.09,37.09-40.73,76.89-78.97,119.11-114.35,10.51-8.81,21.17-17.44,31.97-25.9,1.42-1.11,2.84-2.21,4.26-3.32.1-.08,1.86-1.44.65-.5-1.34,1.03.89-.68,1.18-.91,2.85-2.19,5.72-4.37,8.59-6.53,5.56-4.2,11.17-8.34,16.8-12.45,22.18-16.14,44.9-31.53,68.1-46.15,26.25-16.53,53.14-32.05,80.57-46.55l-17.82-23.09c-46.84,54.21-93.69,108.43-140.53,162.64-13.24,15.32-26.48,30.64-39.72,45.96-5.48,6.34-6.37,19.05,2.98,23.09,11.85,5.13,23.44,6.39,36.19,4.54,9.7-1.41,18.92-4.61,27.94-8.36,19.87-8.26,39.4-17.47,58.75-26.89,37.27-18.15,73.75-37.92,109.3-59.25,20.17-12.1,40.02-24.7,59.57-37.78l-17.82-23.09c-66.11,73.85-132.21,147.7-198.32,221.55-18.69,20.88-37.38,41.76-56.07,62.64-4.92,5.5-5.77,13.33-1.15,19.31,4.04,5.23,13.12,8.23,18.97,3.79,68.6-52.03,137.2-104.06,205.8-156.08,8.4-6.37,16.59-13.4,25.42-19.17.72-.47,1.45-.88,2.18-1.31l-1.23.47c1.67-.43,1.58-.48-.27-.15h.4c1.21.05.54-.07-2.01-.34,1.46.29,2.73,1.37-.96-.6,1.06.57,1.25,1.35-1.42-1.21,1.85,1.77-2.08-3.22-.69-1.03.13.2.5,1.1.62,1.16-.99-2.49-1.25-3.01-.78-1.57.1.35.18.7.25,1.06.68,1.66-.21-4.06-.17-1.28.01.67.06,1.34.06,2.01s-.07,1.39-.09,2.09c-.07,2.41.09-1.06.22-1.33-.59,1.2-.58,3.05-.94,4.38-.41,1.53-1.7,3.62-1.75,5.18.09-2.6.92-2.08-.02-.24-.27.52-.55,1.04-.84,1.55-.82,1.44-1.77,2.77-2.73,4.12-3.31,4.64-6.63,9.26-9.95,13.89-25.03,34.94-50.05,69.89-75.08,104.83-28.04,39.15-56.08,78.31-84.13,117.46-3.62,5.05-2.17,13.72,2.3,17.82,4.8,4.41,12.04,5.74,17.82,2.3,61.14-36.38,119.17-77.95,173.42-123.97,15.12-12.83,29.93-26.03,44.44-39.56l-20.8-20.8c-33.41,36.98-66.17,74.54-98.25,112.68-32.08,38.14-63.47,76.85-94.16,116.12-17.87,22.87-35.53,45.9-52.95,69.12-3.47,4.63-2.07,12.17,1.15,16.33,3.34,4.32,9.99,7.31,15.46,5.27,62.26-23.23,118.78-58.25,173.12-96.04,15.38-10.69,30.61-21.59,45.84-32.49-6.71-6.71-13.41-13.41-20.12-20.12-6.88,10.39-14,20.62-21.38,30.67-1.78,2.42-3.57,4.82-5.37,7.22-.83,1.11-1.67,2.21-2.51,3.31-.42.55-.84,1.1-1.26,1.65l-.84,1.1c.75-.97.81-1.05.18-.24-3.85,4.9-7.71,9.79-11.66,14.61-15.64,19.11-32.22,37.45-49.67,54.92-9.95,9.96-20.19,19.63-30.67,29.02-5.46,4.89-5.39,13.82-1.15,19.31s12.66,7.63,18.97,3.79c55.97-34.12,111.94-68.25,167.91-102.37-6.71-6.71-13.41-13.41-20.12-20.12-4.23,7.86-8.83,15.52-13.84,22.92-2.44,3.61-4.97,7.15-7.59,10.63-.65.87-1.77,2.3-.48.65-.81,1.03-1.62,2.05-2.43,3.07-1.37,1.7-2.75,3.38-4.16,5.04-11.55,13.64-24.5,26.03-38.56,37.04-6.09,4.76-5.37,15.87,0,20.8,6.46,5.93,14.3,5.08,20.8,0,29.42-23.03,53.96-52.42,71.67-85.31,2.99-5.56,2.59-13.33-2.3-17.82s-12.09-5.8-17.82-2.3c-55.97,34.12-111.94,68.25-167.91,102.37,5.94,7.7,11.88,15.4,17.82,23.09,38.12-34.13,72.51-72.11,103.11-113.1,8.56-11.47,16.78-23.18,24.68-35.12,3.45-5.21,2.29-13.61-2.3-17.82s-12.42-6.17-17.82-2.3c-52.78,37.78-105.91,75.78-164.2,104.74-7.92,3.94-15.93,7.7-24.03,11.26-2.13.94-4.27,1.86-6.42,2.77.58-.24,2.34-.97-.36.14-1.29.53-2.59,1.07-3.88,1.59-4.33,1.75-8.68,3.43-13.05,5.07,5.54,7.2,11.07,14.4,16.61,21.6,7.44-9.92,14.92-19.8,22.45-29.65,3.61-4.73,7.24-9.45,10.87-14.16-.03.04,2.95-3.83,1.34-1.73.91-1.18,1.82-2.35,2.73-3.53,2.13-2.74,4.26-5.48,6.39-8.22,15.24-19.56,30.64-38.99,46.23-58.27,31.16-38.57,63.01-76.59,95.52-114.03,18.21-20.97,36.63-41.75,55.24-62.35,5.16-5.71,6.05-15.24,0-20.8s-14.78-5.61-20.8,0c-25.55,23.84-52.08,46.62-79.53,68.25-1.48,1.17-2.97,2.33-4.46,3.5-.93.73-1.86,1.45-2.79,2.18-.26.2-2.58,1.99-1.31,1.02,1.55-1.19-2.14,1.64-1.88,1.44-.75.57-1.5,1.15-2.25,1.72-1.88,1.43-3.76,2.86-5.64,4.28-6.98,5.26-14.01,10.44-21.09,15.56-13.98,10.09-28.16,19.88-42.54,29.38-16.55,10.93-33.36,21.46-50.4,31.6,6.71,6.71,13.41,13.41,20.12,20.12,52.47-73.25,104.93-146.51,157.4-219.76,5.39-7.52,11.89-14.91,15.91-23.29,3.6-7.49,6.07-15.74,6.01-24.13-.06-9.16-3.59-18.96-11.88-23.8-10.47-6.1-22.27-3.04-31.47,3.85-35.71,26.72-71.08,53.91-106.62,80.86-40.5,30.72-81,61.43-121.49,92.15,5.94,7.7,11.88,15.4,17.82,23.09,66.11-73.85,132.21-147.7,198.32-221.55,18.69-20.88,37.38-41.76,56.07-62.64,4.92-5.5,5.77-13.33,1.15-19.31-4.23-5.48-12.84-7.88-18.97-3.79-66.51,44.48-136.71,83.39-209.73,116.12-2.65,1.19-5.31,2.37-7.98,3.55-1.07.47-2.15.93-3.22,1.41-.95.41-.84.37.32-.12-.86.36-1.72.71-2.58,1.06-4.77,1.92-9.62,3.68-14.58,5.05-2.67.74-5.37,1.31-8.08,1.84-4.27.83,2.83-.02-1.47.18-1.34.06-2.67.19-4.02.21-1.11.02-2.22,0-3.32-.06-.66-.03-1.32-.07-1.98-.14,1.72.27,1.71.26-.02-.03-.86-.2-1.73-.36-2.59-.58-.55-.14-5.55-1.93-2.82-.75l2.98,23.09c46.84-54.21,93.69-108.43,140.53-162.64,13.24-15.32,26.48-30.64,39.72-45.96,4.83-5.59,5.83-13.25,1.15-19.31s-12.41-7.25-18.97-3.79c-49.1,25.95-96.43,55.21-141.57,87.57-45.6,32.69-89.1,68.35-129.93,106.83-22.74,21.44-44.65,43.75-65.69,66.86-4.96,5.45-5.74,13.37-1.15,19.31,4.33,5.6,12.71,7.7,18.97,3.79,52.96-33.16,105.15-67.54,156.51-103.13,51.56-35.73,102.27-72.68,152.1-110.79,28.54-21.84,56.82-44.02,84.79-66.59,5.68-4.59,5.21-14.05,1.15-19.31-4.8-6.21-12.14-6.78-18.97-3.79-84.01,36.87-168.03,73.73-252.04,110.6s-168.03,73.73-252.04,110.6c-11.29,4.95-22.56,9.92-33.86,14.85-2.87,1.25-5.74,2.5-8.62,3.73-.54.23-3.4,1.44-1.16.5-1.78.75-3.57,1.49-5.36,2.22-5.37,2.2-10.78,4.31-16.24,6.27-11.26,4.05-22.76,7.5-34.53,9.7-.93.17-1.87.34-2.8.5-.53.09-6.15.86-3.11.5-2.82.34-5.64.61-8.47.78-6.17.38-12.34.29-18.5-.22,1.3,9.63,2.61,19.26,3.91,28.88,82.05-34.49,163.51-70.36,244.28-107.75,79.62-36.85,158.57-75.12,236.82-114.79,44.27-22.44,88.31-45.34,132.11-68.66,6.8-3.62,9.46-13.63,5.28-20.12-4.48-6.95-12.82-9.1-20.12-5.28-37.72,19.75-76.06,38.32-114.94,55.67-9.78,4.36-19.58,8.65-29.43,12.85-2.19.93-4.38,1.87-6.57,2.79,2.7-1.14-1.63.68-1.75.74-.88.37-1.75.74-2.63,1.1-5.27,2.2-10.54,4.38-15.83,6.54-19.82,8.1-39.76,15.88-59.83,23.35-79.36,29.54-160.56,54.16-242.97,73.64-46.3,10.94-92.98,20.25-139.93,27.93l16.61,21.6c2.63-3.78,5.36-7.48,8.12-11.17,2.42-3.22-1.16,1.43.38-.49.65-.81,1.29-1.64,1.94-2.45,1.56-1.95,3.14-3.89,4.74-5.8,5.86-7.01,12-13.78,18.4-20.31s13.03-12.8,19.87-18.85c3.12-2.75,6.28-5.46,9.47-8.11,1.92-1.6,3.86-3.17,5.81-4.74.65-.52,1.3-1.04,1.96-1.56.45-.36,4.63-3.6,1.95-1.55,29.06-22.31,60.71-41.06,93.42-57.47,16.64-8.35,33.57-16.1,50.68-23.42.77-.33,1.55-.66,2.33-.99.4-.17,4.29-1.81,1.14-.49,1.94-.81,3.88-1.62,5.82-2.43,4.74-1.97,9.5-3.9,14.26-5.82,9.32-3.75,18.68-7.42,28.06-11.04,38.4-14.84,77.1-28.92,115.12-44.71,42.89-17.81,85.04-37.57,124.21-62.66l-17.82-23.09c-3.23,2.57-6.47,5.12-9.72,7.65.48-.38,1.99-1.53-.29.22-.73.56-1.45,1.12-2.18,1.67-1.82,1.39-3.65,2.78-5.48,4.15-6.59,4.96-13.24,9.83-19.96,14.62-13.44,9.57-27.12,18.79-41.04,27.64-27.83,17.71-56.59,33.97-86.11,48.7-14.76,7.36-29.71,14.34-44.84,20.92-1.89.82-3.78,1.64-5.68,2.45-.84.36-1.69.72-2.53,1.08-2.43,1.04,3.15-1.3-.92.38-3.81,1.58-7.62,3.16-11.44,4.7-7.65,3.08-15.34,6.06-23.07,8.94-31.96,11.91-64.63,22.48-98.28,28.41-2.35.41-4.71.81-7.07,1.17-.94.15-1.89.29-2.83.43-.17.02-4.74.62-1.75.25-4.71.58-9.43,1.1-14.16,1.48-9.39.75-18.82,1.04-28.23.75-4.68-.14-9.35-.43-14.02-.86-2.33-.22-4.65-.47-6.97-.77,2.79.36-.27-.05-.95-.16-1.39-.21-2.77-.44-4.15-.68-9.51-1.66-18.86-4.04-28.01-7.11,1.17,8.96,2.34,17.92,3.51,26.88,47.06-27.01,94.12-54.03,141.18-81.04,47.06-27.01,94.12-54.03,141.18-81.04,26.57-15.25,53.14-30.5,79.71-45.75,5.43-3.11,8.74-10.49,6.76-16.61-1.82-5.64-7.68-11.6-14.18-10.8-58.29,7.22-114.7,24.39-166.87,51.46-14.39,7.47-28.38,15.7-41.93,24.6-6.42,4.22-9.74,13.2-5.28,20.12,4.13,6.41,13.24,9.79,20.12,5.28h0Z"/>
  <path class="cls-1" d="M25.01,617.16c39.65-42.91,82.26-83.07,127.47-120.1,5.49-4.5,11.03-8.95,16.59-13.36,2.78-2.2,5.58-4.39,8.38-6.57.76-.59,1.51-1.22,2.3-1.78-3.03,2.15-1.04.8-.29.23,1.66-1.28,3.33-2.56,5-3.83,11.55-8.8,23.26-17.41,35.11-25.81,23.7-16.8,47.98-32.78,72.79-47.9,5.42-3.31,10.8-6.74,16.49-9.55,1.01-.5,2.88-1.04-1.36.54.64-.24,1.26-.51,1.9-.75,1.07-.4,2.15-.77,3.24-1.11,1.3-.4,2.62-.76,3.95-1.07,1.4-.32,6.28-.76.69-.3,2.34-.19,4.57-.31,6.91-.21,2.56.11-4.04-.77-1.57-.23.37.08.75.14,1.12.23.54.13,1.07.3,1.61.45,1.37.49.71.19-2-.9.32.14.64.3.96.47.27.17.63.4.91.53,2.04.94-2.78-2.74-1.32-1.04.27.31.76.9,1.09,1.12-2.45-1.59-2.04-2.93-1.34-1.7.27.47.52.99.81,1.45-2.07-3.23-1.11-2.91-.65-1.32l.16.6c.25,1.28.27,1.27.04-.05-.16-1.32-.21-1.33-.15-.04-.11,1.63-.03,1.28.23-1.03-.06,0-1.31,4.74-1.48,5.2-1.07,2.85.27-.22.16-.3.06.05-1.04,2.28-1.13,2.47-1.46,3.14-3,6.24-4.62,9.3-2.94,5.57-6.12,11.01-9.52,16.32-3.54,5.53-7.31,10.91-11.26,16.15-.34.46-.69.91-1.04,1.36-1.89,2.5,2.15-2.72.2-.26-1.07,1.34-2.13,2.69-3.21,4.02-1.99,2.45-4.01,4.86-6.07,7.25-34.75,40.31-78.08,71.87-117,107.86-44.95,41.56-84.72,88.28-123.75,135.33-4.77,5.76-9.54,11.52-14.31,17.29-3.87,4.68-5.52,10.2-3.04,16.06,2.19,5.2,7.59,9.24,13.44,9.04,37.47-1.28,71.12-18.61,101.71-38.99,29.57-19.7,57.49-42.63,89.95-57.58,1.05-.48,2.11-.96,3.17-1.43.42-.19.85-.37,1.27-.55,2.53-1.1-3.52,1.43-.96.41,2.24-.9,4.49-1.79,6.76-2.61,4.41-1.59,8.9-2.98,13.44-4.13,2.33-.59,4.67-1.11,7.03-1.57,1.24-.24,2.48-.46,3.72-.67s5.6-.62.19-.07c4.88-.49,9.72-.92,14.63-.94-4.23-7.38-8.46-14.75-12.7-22.13-10.71,22.57-23.93,43.84-38.76,63.91-1.75,2.36-3.51,4.71-5.3,7.04-.61.79-2.06,2.52.5-.65-.53.65-1.03,1.33-1.55,1.99-1.04,1.32-2.08,2.64-3.13,3.96-3.85,4.83-7.79,9.59-11.79,14.3-8.04,9.46-16.35,18.7-24.82,27.78-34.4,36.89-71.44,71.23-105.52,108.43-19.79,21.6-38.57,44.23-55.17,68.39-4.15,6.04-1.62,14.79,3.79,18.97,5.89,4.55,13.88,3.88,19.31-1.15,49.23-45.61,98.47-91.21,147.7-136.82,12.31-11.4,24.62-22.8,36.92-34.2l18.46-17.1,8.83-8.18c1.29-1.19,2.57-2.4,3.87-3.58.67-.61,1.34-1.22,2.03-1.81.46-.4.93-.79,1.4-1.18,1.22-.98.95-.77-.8.62.39.11,3.19-2.04,3.8-2.4,2.65-1.56-3.26.83-.31.09.66-.17,1.91-.31,2.49-.63l-2.21.34c.58-.03,1.15-.02,1.73.02-1.95.71-3.29-.65-1.81-.2.55.17,1.15.38,1.71.51-3.91-.91-2.59-1.12-.99-.2,2.05,1.19-2.84-2.67-1.25-.92.24.27.52.54.77.8,1.7,1.68-2.15-3.27-.93-1.19.29.5.61.98.88,1.49,1.63,3.07-1.19-3.51-.08-.2.47,1.41.77,2.85,1.06,4.31.51,2.54-.3-3.5-.21-1.62.03.56.11,1.11.15,1.67.09,1.36.12,2.72.09,4.08-.02,1.14-.09,2.28-.19,3.42-.06.68-.16,1.36-.22,2.04.43-5.21.24-1.85,0-.59-1.26,6.71-3.4,13.35-5.45,19.85-2.42,7.66-5.12,15.23-8.12,22.68-.36.89-.72,1.79-1.09,2.68-.25.59-.49,1.19-.74,1.78.86-2.03.98-2.32.35-.85-.78,1.76-1.54,3.53-2.34,5.29-1.72,3.8-3.52,7.57-5.39,11.31-7.49,14.94-16.19,29.25-25.95,42.81-3.63,5.04-2.16,13.73,2.3,17.82s12.42,6.17,17.82,2.3c.63-.45,1.4-.78,2-1.26,1.29-1.02-3.34.97-1.73.72.3-.05.62-.2.91-.28-.06.02,1.21-.21,1.23-.26-.13.27-4.06.18-2.04.35.3.03.64.02.94.01,1.48-.05,1.93,1.03-1.71-.28.69.25,1.48.37,2.19.56,2.76.77-2.79-1.51-.76-.35.69.39,1.39.75,2.06,1.17.38.25.74.54,1.13.77,1.31.78-2.36-2.16-1.34-1.01.53.6,1.22,1.1,1.78,1.69.33.34.62.7.95,1.05.86.92.47,1.59-.99-1.31.36.72.94,1.38,1.35,2.08.35.61,1.76,3.66.66,1.08s-.01.19.18.89.66,3.59.26.78-.1.3-.11,1c0,.58-.06,1.16-.08,1.74-.09,2.16.31-.99.22-1.34.4,1.54-1.12,4.75-1.65,6.2-1.13,3.1,1.12-2.15-.03.06-.54,1.03-1.05,2.07-1.63,3.08-1.03,1.8-2.2,3.49-3.38,5.19-1.39,2,.49-.62.68-.83-.3.34-.56.71-.84,1.05-.85,1.05-1.73,2.08-2.62,3.09-5.75,6.5-12.34,12.2-18.14,18.66-7.64,8.52-14.43,18.31-16.83,29.7-1.59,7.51,2.21,16.25,10.27,18.09,7.38,1.68,16.39-2.22,18.09-10.27.47-2.21,1.53-4.33,1.96-6.51-.55,2.84-1.05,2.35-.46,1.2.26-.5.5-1.01.76-1.51.66-1.25,1.38-2.47,2.15-3.66.54-.84,1.11-1.66,1.69-2.47,2.06-2.86-1.91,2.3.33-.45,1.57-1.92,3.22-3.77,4.92-5.57,6.7-7.11,14.04-13.53,20.07-21.26,7.85-10.05,13.92-21.53,13.94-34.62.01-11.54-5.97-22.45-14.99-29.42-10.19-7.87-25.06-10.97-36.24-2.95,6.71,6.71,13.41,13.41,20.12,20.12,18.77-26.07,33.44-55.01,43.84-85.39,4.55-13.3,9.62-27.67,9.31-41.91s-6.87-31.35-22.8-35.04c-20.38-4.71-35.05,12.82-48.42,25.22-12.84,11.9-25.69,23.79-38.53,35.69-25.69,23.79-51.37,47.59-77.06,71.38-28.9,26.77-57.8,53.54-86.69,80.31l23.09,17.82c3.61-5.25,7.31-10.42,11.12-15.52.93-1.25,1.87-2.49,2.81-3.73.43-.56.86-1.12,1.29-1.69,1.22-1.6-2.32,2.98-.48.62,2.09-2.68,4.19-5.35,6.33-7.99,7.84-9.72,15.99-19.18,24.34-28.46,16.79-18.65,34.4-36.54,52.11-54.31,36.09-36.22,72.5-72.17,103.7-112.81,17.08-22.24,32.28-45.94,44.32-71.29,2.31-4.86,2.83-10.01,0-14.84-2.61-4.46-7.52-7.3-12.7-7.28-37.31.13-71.23,16.97-101.74,37.03-29.77,19.59-57.65,42.61-89.94,58.1-2.1,1.01-4.22,1.98-6.36,2.91-.43.19-.86.36-1.28.55,4.33-1.95,1.98-.83.95-.41-1.18.48-2.36.95-3.55,1.4-4.41,1.69-8.89,3.19-13.44,4.45s-9.38,2.35-14.15,3.12c-1.34.22-5.53.59-.21.07-1.16.11-2.31.28-3.47.39-2.57.25-5.14.41-7.72.5l10.4,25.1c40.04-48.44,80.2-97.02,125.47-140.72,39.64-38.27,84.78-70.74,122.13-111.39,18.62-20.26,35.43-42.7,47.19-67.68,4.45-9.46,8.26-19.08,5.67-29.7-1.73-7.12-6.69-13.74-13.17-17.22-11.46-6.15-25.76-4.73-37.57-.31-13.6,5.1-25.82,13.71-38.06,21.39-12.58,7.89-25.01,16.01-37.3,24.34-25.35,17.19-50.03,35.34-74.13,54.26-46.97,36.87-91.33,77.08-132.61,120.22-5.13,5.36-10.22,10.78-15.25,16.23s-6.01,15.28,0,20.8c5.68,5.21,15.22,6.03,20.8,0h0Z"/>
</svg>