<?xml version="1.0" encoding="UTF-8"?>
<svg id="Capa_1" xmlns="http://www.w3.org/2000/svg" viewBox="0 0 112.69 106.92">
  <defs>
    <style>
      .cls-1 {
        fill: #f4981a;
      }

      .cls-2 {
        fill: #2c0d0e;
      }
    </style>
  </defs>
  <path class="cls-2" d="M22.62,4.17C46.55,1.66,70.61.37,94.67.29c6.24-.02,14.07,1.16,15.86,7.14.73,2.46.15,5.09-.36,7.6-4.58,22.59-2.54,45.94-3.85,68.95-.22,3.92-.63,8.09-3.04,11.2-3.32,4.29-9.32,5.23-14.72,5.76-25.96,2.53-52.13,2.91-78.15,1.14-3.72-.25-8.23-1.13-9.43-4.66-.48-1.41-.28-2.96-.08-4.44,3.29-23.91,6.58-47.83,9.88-71.74.63-4.59,1.36-9.42,4.23-13.05,2.87-3.63,8.66-5.39,12.21-2.42"/>
  <path class="cls-1" d="M21.67,87.44c-1.51-4.58.15-9.38,1.34-13.83,1.3-4.87,2.61-9.75,3.91-14.62,2.61-9.75,5.21-19.49,7.82-29.24.62-2.32,1.17-4.68,1.88-6.98.27-.86.6-1.72,1.47-2.13,1.01-.47,2.32-.5,3.41-.64,2.31-.3,4.78-.72,7.11-.63,1.11.05,1.29.57,1.59,1.57.39,1.27.77,2.54,1.16,3.8,2.95,9.67,5.9,19.34,8.85,29.01,3.31,10.86,6.62,21.72,9.94,32.57l1.42-1.87c-3.44.17-6.88.34-10.32.5-1.62.08-3.4.38-5.01.23-.69-.07-.79-.58-1.05-1.16-.35-.77-.69-1.55-1.03-2.32-2.59-5.92-4.89-12.15-4.6-18.71.03-.58-.47-1.33-1.08-1.42-3.06-.48-6.55-.85-9.37.74-3.31,1.86-3.61,5.69-3.51,9.1.1,3.59.78,7.35-.09,10.89-.8,3.29-3.18,5.48-6.4,6.37-3.61,1-7.52.62-11.18.16l1.48,1.48c.2-2.2.41-4.4.61-6.6.17-1.89-2.78-1.88-2.95,0-.2,2.2-.41,4.4-.61,6.6-.08.86.75,1.39,1.48,1.48,5.97.74,13.73,1.18,18.02-3.95,2.29-2.74,2.92-6.19,2.9-9.67,0-1.86-.17-3.71-.26-5.56-.08-1.73-.23-3.6.2-5.29.99-3.84,5.86-3.36,8.9-2.88l-1.08-1.42c-.34,7.41,2.42,14.39,5.37,21.04.61,1.38,1.11,3.05,2.57,3.75s3.61.27,5.22.19c3.93-.19,7.86-.38,11.79-.57.93-.05,1.71-.91,1.42-1.87-6.33-20.76-12.67-41.53-19-62.29-.62-2.03-.97-5.1-3-6.26-1.88-1.08-4.6-.46-6.62-.27-2.28.22-4.91.27-7.07,1.07s-3.11,2.64-3.69,4.75c-2.88,10.42-5.59,20.89-8.38,31.34-1.58,5.91-3.16,11.82-4.74,17.73-1.42,5.33-3.48,11.12-1.66,16.6.59,1.79,3.44,1.03,2.85-.78h0Z"/>
  <path class="cls-1" d="M81.13,47.03c-1.27,6.87-2.2,13.8-2.76,20.77-.28,3.5-.47,7-.56,10.51-.06,2.4-.99,6.92,2.51,7.2,1.49.12,3.04-.1,4.53-.17,1.63-.07,3.39.02,4.99-.32,3.23-.68,3.67-4.02,4.02-6.78.85-6.78.2-13.71-.11-20.51-.09-1.99-.18-3.98-.27-5.97-.07-1.46.15-3.39-1.26-4.33-1.33-.88-3.48-.76-5.01-.94-1.99-.23-3.98-.46-5.97-.69-1.88-.22-1.87,2.74,0,2.95,2.86.33,5.73.75,8.6.99.72.06.6.05.63.77s.07,1.49.1,2.24c.07,1.57.14,3.15.21,4.72.26,5.72.73,11.48.43,17.2-.07,1.37-.19,2.75-.39,4.11-.14.93-.2,2.52-1.03,3.13-.88.65-2.93.37-3.96.41-1.46.07-2.93.14-4.39.2.07,0-.72-.02-.8.03-.51.31.09-.22.06.22.04-.67,0-1.36.01-2.04.02-1.55.06-3.1.12-4.65.11-2.85.28-5.71.51-8.55.54-6.62,1.43-13.21,2.64-19.74.34-1.86-2.5-2.65-2.85-.78h0Z"/>
  <path class="cls-1" d="M78.56,31.07c-.5,2.88,1.57,5.33,4.26,6.11,1.38.4,2.85.4,4.27.3,1.28-.08,2.71-.12,3.81-.88,1.21-.83,1.72-2.21,1.44-3.64-.24-1.21-1.07-2.32-1.95-3.15-1.63-1.52-3.93-2.5-6.11-2.85-2.69-.44-5.33.11-7,2.41-.47.65-.11,1.64.53,2.02.74.44,1.55.12,2.02-.53-.09.13.2-.23.25-.28s.11-.1.16-.15c.18-.16-.15.1.04-.04.13-.1.28-.18.42-.26.08-.04.17-.09.25-.13-.19.09.03,0,.11-.03.73-.23,1.09-.27,1.96-.21,1.34.08,2.92.64,4.2,1.36.66.37,1.3.9,1.72,1.46.12.16.22.32.32.5.05.09.11.19.15.29-.03-.07-.05-.16.02.08.02.07.04.14.06.22.05.24,0-.2,0,.04,0,.07,0,.14,0,.21.04-.37-.09.23.02-.07-.05.14-.25.33-.33.36-.43.17-.79.21-1.16.24-1.04.09-2.1.17-3.14.09-.93-.06-1.95-.35-2.58-.92-.35-.32-.55-.54-.75-.98.03.07-.1-.33-.12-.43.03.15.02-.5,0-.37.14-.78-.21-1.59-1.03-1.82-.71-.2-1.68.24-1.82,1.03h0Z"/>
  <path class="cls-1" d="M82.27,52.51l-.9.35,1.14,2.7c2.47-1.56,5.05-2.93,7.76-4.04l-1.44-2.47c-2.8,3.58-6.75,6.13-8.41,10.53-.44,1.17,1.15,2.39,2.17,1.67,2.89-2.06,5.78-4.11,8.67-6.17l-2.17-1.67c-1.95,4.68-6.32,7.87-7.58,12.91-.39,1.54,1.36,2.3,2.47,1.44s2.3-1.8,3.45-2.7l1.53-1.2c.46-.36,1.2-1.2,1.83-1.25l-1.42-1.87c-1.26,4.8-5.14,8.43-5.46,13.56-.08,1.23,1.7,2.01,2.52,1.04,2.23-2.63,4.76-4.96,7.6-6.92l-2.02-2.02c-1.91,3.6-3.82,7.2-5.73,10.8-.81,1.53,1.05,2.86,2.32,1.79.59-.5,1.18-1,1.78-1.5,1.46-1.23-.63-3.26-2.09-2.09-3.29,2.65-6.58,5.3-9.87,7.95l2.09,2.09c1.24-1.43,2.61-2.73,4.14-3.85s.05-3.67-1.49-2.55c-1.74,1.27-3.32,2.68-4.74,4.31-1.27,1.46.62,3.27,2.09,2.09,3.29-2.65,6.58-5.3,9.87-7.95l-2.09-2.09c-.59.5-1.18,1-1.78,1.5l2.32,1.79c1.91-3.6,3.82-7.2,5.73-10.8.64-1.21-.73-2.91-2.02-2.02-3.04,2.11-5.8,4.56-8.2,7.39l2.52,1.04c.29-4.67,4.19-8.32,5.36-12.78.23-.87-.44-1.94-1.42-1.87-1.76.13-2.97,1.37-4.3,2.41-1.53,1.2-3.06,2.4-4.6,3.6l2.47,1.44c1.23-4.92,5.66-8.28,7.58-12.91.49-1.17-1.17-2.38-2.17-1.67-2.89,2.06-5.78,4.11-8.67,6.17l2.17,1.67c1.43-3.79,5.23-6.13,7.66-9.23.78-.99.11-3.1-1.44-2.47-2.95,1.2-5.77,2.63-8.46,4.33-1.34.85-.49,3.32,1.14,2.7l.9-.35c1.75-.67.99-3.53-.78-2.85h0Z"/>
  <path class="cls-1" d="M84.23,34.64c.01.06.01.32.02.12,0,.11-.04.33,0,.09.03-.15-.14.23-.04.1.03-.04.07-.11.1-.16.08-.15-.23.26-.03.03.04-.05.08-.1.13-.14.09-.09.18-.18.27-.27.2-.19.41-.38.63-.57.11-.1.23-.19.35-.28.15-.12-.01-.01-.06.05.05-.06.14-.1.2-.15.45-.33.93-.64,1.42-.92.24-.14.49-.27.75-.39.12-.06.24-.12.36-.17.08-.03.15-.07.23-.1.18-.08-.34.14-.03.01l-1.82-1.82c-.02.05-.04.11-.06.16l.08-.2c-.06.06-.09.19-.13.26-.08.15-.17.29-.27.43-.2.3-.42.58-.63.87-.48.64-.9,1.34-1.09,2.13s.24,1.62,1.03,1.82c1.15.29,2.25-.02,3.15-.78l-2.47-.65c.06.18-.02-.23-.02-.23,0,0,.08-.42.03-.23-.05.21.16-.3.07-.16-.02.03-.04.07-.06.11-.09.16-.21.3-.3.46-.39.65-.49,1.48-.07,2.14.25.4.76.79,1.27.73.77-.09,1.45-.27,2.15-.64s.95-1.37.53-2.02c-.45-.69-1.29-.92-2.02-.53-.06.03-.24.09-.28.14.17-.07.21-.09.11-.05-.05.02-.1.04-.15.05-.1.03-.2.06-.31.08-.09.02-.43.07-.02.02l1.27.73c-.08-.13-.05-.06.08.21.06.19.06.39,0,.59.05-.21-.21.39-.04.09.08-.15.19-.28.28-.43.35-.55.53-1.21.33-1.85-.15-.5-.53-.89-1.03-1.03-.54-.15-1.02.03-1.44.38.05-.04.26-.17.09-.07-.05.03-.1.06-.15.09-.19.11.08-.06.11-.04-.03-.01-.17.05-.21.06-.05.01-.26.05-.02,0s.04-.01-.02-.01-.26-.03-.02.01c.27.04-.02-.01-.06-.02l1.03,1.82c.02-.08.04-.16.07-.24.02-.05.04-.11.06-.16-.09.21-.12.26-.07.16.07-.15.15-.3.23-.44.18-.3.39-.59.61-.87.49-.66.92-1.31,1.2-2.09.17-.49-.03-1.08-.38-1.44s-.97-.57-1.44-.38c-1.39.57-2.66,1.27-3.85,2.19-.55.43-1.11.88-1.58,1.4-.73.79-1.13,1.71-.91,2.79.15.76,1.09,1.26,1.82,1.03.8-.26,1.19-1,1.03-1.82h0Z"/>
  <path class="cls-1" d="M40.51,30.44c-1.23,4.24-2.47,8.49-3.14,12.86-.32,2.08-.49,4.16-.56,6.26s-.15,4.37-.79,6.49c-.25.81.43,1.68,1.27,1.67,4.64-.07,9.25-.51,13.82-1.31.65-.11,1.17-1.01.92-1.62-3.23-7.85-6-15.88-8.3-24.05-.46-1.63-3.01-.94-2.54.7,2.3,8.17,5.07,16.2,8.3,24.05l.92-1.62c-4.34.76-8.72,1.15-13.12,1.22l1.27,1.67c1.24-4.12.71-8.54,1.35-12.76s1.91-8.62,3.14-12.86c.48-1.63-2.07-2.33-2.54-.7h0Z"/>
  <path class="cls-1" d="M36.03,26.27c2.06-1.9,4.48-3.3,7.16-4.14l-1.02-2.41c-2.02,1.47-3.48,3.41-4.74,5.54-1.44,2.43-2.78,4.93-4.17,7.4-.73,1.31.98,2.64,2.07,1.6.83-.8,1.92-1.91,3.17-1.57l-.92-1.62c-.95,4.54-3.96,8.12-6.92,11.53-1.14,1.31.54,2.89,1.87,1.87,1.78-1.39,3.57-2.77,5.36-4.15l-2.2-1.28c-.38,1.07-1.25,1.89-1.9,2.8-.76,1.06-1.05,2.22-1.33,3.47-.59,2.68-2.09,4.93-3.61,7.16-.9,1.31,1,2.51,2.07,1.6,2.45-2.07,4.9-4.14,7.35-6.22l-1.87-1.87c-4.52,5.36-8.39,11.2-12.23,17.05-.83,1.26,1.04,2.67,2.07,1.6,2.64-2.75,5.51-5.24,8.62-7.45l-1.8-1.8c-1.79,2.59-3.28,5.35-4.46,8.26-.75,1.84-2.43,5.56.51,6.42.45.13.96,0,1.28-.34,2.08-2.1,4.16-4.2,6.23-6.29l-1.87-1.87c-2.63,2.77-5.18,5.62-7.65,8.53-1.23,1.46-2.45,2.93-3.64,4.43-1.01,1.26-2.22,2.53-2.49,4.19-.19,1.16.85,2.01,1.94,1.49,1.77-.84,3.1-2.53,4.47-3.89,1.58-1.58,3.17-3.16,4.75-4.74l-2.07-1.6c-1.64,2.3-3.19,4.66-4.63,7.08-.7,1.18-1.4,2.37-2.03,3.58-.53,1.01-.88,2.09-.2,3.11.48.71,1.43.88,2.07.27,3.23-3.09,6.55-6.06,9.98-8.93h-1.87c-.19-.22.02-.15-.15.07-.12.15-.21.37-.31.54-.35.56-.74,1.1-1.11,1.64-.79,1.16-1.58,2.32-2.36,3.49-1.53,2.26-3.06,4.51-4.59,6.77-.88,1.29,1,2.56,2.07,1.6,3.29-2.96,6.58-5.92,10.14-8.55l-1.94-1.49c-1.03,2.75-2.36,5.36-3.97,7.82-.93,1.43,1.35,2.75,2.28,1.33,1.73-2.65,3.13-5.48,4.23-8.45.38-1.03-1.03-2.16-1.94-1.49-3.74,2.76-7.21,5.85-10.67,8.96l2.07,1.6c1.95-2.87,3.89-5.74,5.84-8.61,1.27-1.87,4.23-4.8,2.28-7.08-.49-.57-1.35-.43-1.87,0-3.43,2.86-6.75,5.84-9.98,8.93l2.07.27c-.09.21-.06.13.09-.25.14-.27.29-.54.44-.8.29-.53.59-1.07.9-1.6.53-.93,1.08-1.84,1.64-2.75,1.2-1.95,2.47-3.85,3.8-5.71.88-1.24-1.03-2.63-2.07-1.6-1.47,1.47-2.94,2.93-4.41,4.4-1.29,1.29-2.6,3.02-4.27,3.82l1.94,1.49c.26-1.59,1.73-2.93,2.71-4.14,1.1-1.36,2.22-2.71,3.36-4.04,2.27-2.66,4.62-5.26,7.03-7.81,1.17-1.23-.67-3.08-1.87-1.87-2.08,2.1-4.16,4.2-6.23,6.29l1.28-.34c.23.35.31.37.24.05,0-.18.04-.35.1-.52.14-.56.38-1.13.58-1.67.38-1,.79-1.98,1.25-2.94.96-2,2.08-3.9,3.35-5.72.74-1.06-.74-2.56-1.8-1.8-3.29,2.34-6.36,4.95-9.15,7.86l2.07,1.6c3.72-5.66,7.45-11.33,11.82-16.52,1.1-1.3-.56-2.97-1.87-1.87-2.45,2.07-4.9,4.14-7.35,6.22l2.07,1.6c1.56-2.28,3.12-4.65,3.78-7.37.32-1.33.53-2.45,1.38-3.56.77-1.01,1.51-1.92,1.94-3.13.49-1.39-1.29-1.99-2.2-1.28-1.79,1.38-3.57,2.77-5.36,4.15l1.87,1.87c3.24-3.75,6.56-7.72,7.6-12.7.15-.7-.2-1.42-.92-1.62-2.27-.62-4.16.74-5.73,2.25l2.07,1.6c1.25-2.23,2.49-4.47,3.76-6.69,1.12-1.96,2.35-3.95,4.2-5.3,1.12-.82.52-2.89-1.02-2.41-3.12.98-5.92,2.6-8.32,4.82-1.25,1.15.62,3.02,1.87,1.87h0Z"/>
  <path class="cls-1" d="M24.31,70.85c.2.13.31.31.32.52-.01.04,0,.06.03.06.12-.04.35-.5.42-.61.27-.37.54-.75.81-1.12.58-.79,1.17-1.58,1.77-2.37,1.17-1.53,2.36-3.04,3.55-4.55.44-.56.55-1.32,0-1.87-.46-.46-1.42-.56-1.87,0-1.53,1.94-3.07,3.89-4.56,5.87-.71.94-1.41,1.9-2.1,2.86-.38.53-.71,1.11-.69,1.78.02.71.38,1.31.98,1.69s1.45.13,1.8-.47c.37-.63.13-1.42-.47-1.8h0Z"/>
  <path class="cls-1" d="M36.77,64.73c.36.39.36.05.7-.34.18-.2.36-.4.55-.6.51-.54,1.06-1.05,1.63-1.51,1.12-.91,2.36-1.65,3.66-2.26l-1.8-1.8c-1.14,1.56-2.28,3.12-3.41,4.68-.95,1.3,1,2.47,2.07,1.6,2.91-2.38,5.74-5.14,9.1-6.88l-1.6-2.07c-1.93,2.21-3.51,4.66-4.68,7.35-.47,1.09.58,2.61,1.8,1.8,3.72-2.44,6.59-6.06,10.68-7.93l-1.8-1.8c-1.65,3.39-5.07,5.66-5.93,9.47-.3,1.33,1.21,2.14,2.2,1.28,3.17-2.71,6.43-5.49,10.34-7.08l-1.28-2.2c-3.97,4.2-7.93,8.54-9.87,14.09-.47,1.35,1.29,2.06,2.2,1.28,1.59-1.35,3.19-2.67,4.83-3.96.79-.63,1.59-1.24,2.39-1.85.48-.36,2.08-1.96,2.66-1.83l-.79-1.94c-2.45,5.1-6.29,9.46-7.99,14.93-.43,1.37,1.26,2.05,2.2,1.28,3.89-3.16,7.57-6.56,11.04-10.18l-1.87-1.87c-3.88,4.25-7.71,8.61-9.73,14.08-.5,1.36,1.3,2.03,2.2,1.28,3.66-3,7.32-6.01,10.98-9.01l-2.07-1.6-5.08,9.72c-.56,1.06.66,2.64,1.8,1.8l3.49-2.57,1.55-1.14c.5-.36,1.32-1.24,1.99-1.18l-1.27-1.67c-.75,2.25-1.59,4.48-2.52,6.67-.39.93.28,2.39,1.49,1.94,1.4-.52,2.46-1.33,3.32-2.56.98-1.39-1.31-2.71-2.28-1.33-.44.63-1.03,1.08-1.75,1.35l1.49,1.94c1.02-2.4,1.96-4.83,2.78-7.3.29-.87-.47-1.6-1.27-1.67-1.6-.14-2.9,1.23-4.1,2.11l-4.27,3.14,1.8,1.8,5.08-9.72c.72-1.38-.93-2.54-2.07-1.6-3.66,3-7.32,6.01-10.98,9.01l2.2,1.28c1.85-5.01,5.51-9.03,9.06-12.91,1.14-1.25-.69-3.1-1.87-1.87-3.46,3.62-7.15,7.02-11.04,10.18l2.2,1.28c1.63-5.23,5.38-9.41,7.72-14.3.35-.72.1-1.74-.79-1.94-2.29-.51-4.44,1.88-6.11,3.17-2.15,1.67-4.27,3.38-6.34,5.15l2.2,1.28c1.78-5.09,5.56-9.08,9.19-12.93.83-.87.01-2.73-1.28-2.2-4.36,1.78-7.96,4.73-11.5,7.76l2.2,1.28c.79-3.5,4.13-5.7,5.66-8.84.6-1.23-.59-2.36-1.8-1.8-4.1,1.88-6.96,5.49-10.68,7.93l1.8,1.8c1.08-2.48,2.49-4.77,4.27-6.81.98-1.12-.24-2.78-1.6-2.07-3.54,1.84-6.56,4.78-9.63,7.29l2.07,1.6c1.14-1.56,2.28-3.12,3.41-4.68.85-1.17-.74-2.31-1.8-1.8-2.05.97-3.94,2.29-5.55,3.9-1.26,1.26-3.13,3.23-1.53,4.96,1.16,1.25,3.02-.62,1.87-1.87h0Z"/>
  <path class="cls-1" d="M41.97,31.19c.94-2.28,3.01-3.84,4.97-5.2,1-.69,2.02-1.36,3.01-2.08s2.14-1.52,2.37-2.86c.15-.89-.36-1.59-1.27-1.67-2.95-.26-5.35,1.8-7.36,3.69-2.28,2.15-4.28,4.58-6,7.2-.61.92.41,2.33,1.49,1.94,3.69-1.35,7.44-2.53,11.23-3.56l-1.49-1.94c-1.29,1.7-2.6,3.38-3.87,5.1-1.08,1.46-1.87,2.9-2.05,4.73-.11,1.15,1.51,1.72,2.25.93,1.23-1.3,2.46-2.6,3.68-3.91.56-.59,1.12-1.18,1.67-1.78.33-.36.67-.71,1-1.07l.33-.36c.58-.42.41-.59-.52-.53l-.21-1.6c-1.69,3.74-3.38,7.48-5.06,11.22-.6,1.34.91,2.64,2.07,1.6,2.03-1.82,4.05-3.63,6.08-5.45l-2.2-1.28c-1.48,3.52-2.85,7.02-3.32,10.83-.17,1.43,1.8,1.61,2.46.67,1.62-2.32,3.16-4.7,4.62-7.13l-2.41-1.02c-1.57,4.22-3.12,8.46-3.94,12.9-.26,1.4,1.63,2.39,2.41,1.02,1.49-2.62,3.32-4.96,5.51-7.03l-2.2-1.28c-.73,2.48-1.5,4.95-2.1,7.46-.45,1.86-.6,3.8.81,5.29.37.38,1.14.55,1.6.21,2.11-1.58,4.11-3.27,5.98-5.13l-2.2-1.28c-1.03,3.59-2.06,7.18-3.09,10.78-.47,1.63,2.08,2.33,2.54.7,1.03-3.59,2.06-7.18,3.09-10.78.37-1.28-1.28-2.2-2.2-1.28-1.71,1.69-3.52,3.28-5.45,4.72l1.6.21c-1.02-1.06.04-3.42.36-4.6.51-1.87,1.06-3.73,1.61-5.59.38-1.3-1.27-2.16-2.2-1.28-2.34,2.21-4.33,4.76-5.92,7.56l2.41,1.02c.82-4.44,2.37-8.68,3.94-12.9.53-1.43-1.66-2.26-2.41-1.02-1.46,2.43-3,4.8-4.62,7.13l2.46.67c.43-3.54,1.85-6.87,3.22-10.13.55-1.32-1.33-2.07-2.2-1.28-2.03,1.82-4.05,3.63-6.08,5.45l2.07,1.6c1.69-3.74,3.38-7.48,5.06-11.22.26-.57.22-1.12-.21-1.6-1.59-1.79-3.55.9-4.55,1.95-1.79,1.89-3.57,3.79-5.36,5.68l2.25.93c.16-1.58,1.32-2.91,2.24-4.13,1.1-1.46,2.21-2.91,3.32-4.37.73-.96-.47-2.21-1.49-1.94-3.8,1.02-7.54,2.21-11.23,3.56l1.49,1.94c1.44-2.19,3.09-4.21,4.95-6.05,1.63-1.61,3.64-3.75,6.13-3.53l-1.27-1.67c-.17,1.04-1.98,1.87-2.8,2.43-1.05.72-2.11,1.43-3.11,2.21-1.94,1.5-3.49,3.22-4.44,5.5-.65,1.57,1.9,2.25,2.54.7h0Z"/>
</svg>