<?xml version="1.0" encoding="UTF-8"?>
<svg xmlns="http://www.w3.org/2000/svg" xmlns:xlink="http://www.w3.org/1999/xlink" width="100px" height="px" viewBox="0 0 100 95" version="1.1">
<g id="surface1">
<path style=" stroke:none;fill-rule:nonzero;fill:rgb(17.254902%,5.098039%,5.490196%);fill-opacity:1;" d="M 20.132812 3.707031 C 41.324219 1.476562 62.632812 0.328125 83.941406 0.257812 C 89.46875 0.238281 96.402344 1.289062 97.988281 6.601562 C 98.632812 8.789062 98.121094 11.125 97.667969 13.355469 C 93.613281 33.425781 95.417969 54.171875 94.257812 74.617188 C 94.0625 78.101562 93.699219 81.804688 91.566406 84.570312 C 88.625 88.378906 83.3125 89.214844 78.53125 89.6875 C 55.539062 91.933594 32.363281 92.273438 9.320312 90.699219 C 6.023438 90.476562 2.03125 89.695312 0.96875 86.558594 C 0.542969 85.304688 0.71875 83.929688 0.898438 82.613281 C 3.8125 61.371094 6.722656 40.117188 9.648438 18.871094 C 10.203125 14.792969 10.851562 10.503906 13.394531 7.277344 C 15.933594 4.050781 21.0625 2.488281 24.207031 5.125 "/>
<path style=" stroke:none;fill-rule:nonzero;fill:rgb(95.686275%,59.607846%,10.196079%);fill-opacity:1;" d="M 19.292969 77.691406 C 17.953125 73.621094 19.425781 69.359375 20.476562 65.402344 C 21.628906 61.078125 22.789062 56.742188 23.941406 52.414062 C 26.253906 43.75 28.554688 35.097656 30.867188 26.433594 C 31.414062 24.371094 31.902344 22.273438 32.53125 20.230469 C 32.769531 19.46875 33.0625 18.703125 33.832031 18.339844 C 34.726562 17.921875 35.886719 17.894531 36.851562 17.769531 C 38.898438 17.503906 41.085938 17.128906 43.148438 17.210938 C 44.132812 17.253906 44.292969 17.71875 44.558594 18.605469 C 44.902344 19.734375 45.238281 20.863281 45.585938 21.980469 C 48.199219 30.574219 50.808594 39.164062 53.421875 47.757812 C 56.355469 57.40625 59.285156 67.054688 62.226562 76.695312 L 63.484375 75.035156 C 60.4375 75.1875 57.390625 75.335938 54.34375 75.480469 C 52.910156 75.550781 51.332031 75.816406 49.90625 75.683594 C 49.296875 75.621094 49.207031 75.167969 48.976562 74.652344 C 48.667969 73.96875 48.367188 73.277344 48.066406 72.589844 C 45.769531 67.332031 43.734375 61.796875 43.992188 55.96875 C 44.019531 55.453125 43.574219 54.785156 43.035156 54.707031 C 40.324219 54.28125 37.234375 53.949219 34.738281 55.363281 C 31.804688 57.015625 31.539062 60.417969 31.628906 63.449219 C 31.714844 66.636719 32.320312 69.980469 31.546875 73.125 C 30.839844 76.046875 28.730469 77.992188 25.878906 78.785156 C 22.683594 79.671875 19.21875 79.335938 15.980469 78.925781 L 17.289062 80.242188 C 17.46875 78.285156 17.652344 76.332031 17.828125 74.378906 C 17.980469 72.699219 15.367188 72.707031 15.21875 74.378906 C 15.039062 76.332031 14.855469 78.285156 14.675781 80.242188 C 14.605469 81.007812 15.339844 81.476562 15.988281 81.558594 C 21.273438 82.214844 28.148438 82.605469 31.945312 78.046875 C 33.976562 75.613281 34.53125 72.546875 34.515625 69.457031 C 34.515625 67.800781 34.363281 66.160156 34.285156 64.515625 C 34.214844 62.976562 34.082031 61.316406 34.460938 59.816406 C 35.339844 56.402344 39.652344 56.828125 42.34375 57.257812 L 41.386719 55.996094 C 41.085938 62.578125 43.53125 68.78125 46.144531 74.6875 C 46.683594 75.914062 47.125 77.398438 48.417969 78.019531 C 49.710938 78.640625 51.617188 78.261719 53.042969 78.1875 C 56.523438 78.019531 60.003906 77.851562 63.484375 77.683594 C 64.308594 77.636719 64.996094 76.875 64.742188 76.019531 C 59.136719 57.574219 53.519531 39.121094 47.914062 20.675781 C 47.367188 18.871094 47.054688 16.144531 45.257812 15.113281 C 43.59375 14.152344 41.183594 14.703125 39.394531 14.875 C 37.375 15.070312 35.046875 15.113281 33.132812 15.824219 C 31.21875 16.535156 30.378906 18.171875 29.867188 20.042969 C 27.316406 29.304688 24.914062 38.605469 22.445312 47.890625 C 21.042969 53.140625 19.644531 58.394531 18.246094 63.644531 C 16.988281 68.378906 15.164062 73.523438 16.777344 78.394531 C 17.296875 79.984375 19.824219 79.308594 19.300781 77.699219 Z M 19.292969 77.691406 "/>
<path style=" stroke:none;fill-rule:nonzero;fill:rgb(95.686275%,59.607846%,10.196079%);fill-opacity:1;" d="M 71.949219 41.785156 C 70.824219 47.890625 70 54.046875 69.503906 60.242188 C 69.257812 63.351562 69.089844 66.460938 69.011719 69.578125 C 68.957031 71.710938 68.132812 75.726562 71.234375 75.976562 C 72.550781 76.082031 73.925781 75.886719 75.246094 75.824219 C 76.6875 75.761719 78.246094 75.84375 79.664062 75.542969 C 82.523438 74.9375 82.914062 71.96875 83.222656 69.515625 C 83.976562 63.492188 83.402344 57.335938 83.125 51.292969 C 83.046875 49.527344 82.96875 47.757812 82.886719 45.988281 C 82.824219 44.691406 83.019531 42.976562 81.773438 42.140625 C 80.59375 41.359375 78.691406 41.46875 77.335938 41.308594 C 75.570312 41.101562 73.808594 40.898438 72.046875 40.695312 C 70.382812 40.5 70.390625 43.128906 72.046875 43.316406 C 74.582031 43.609375 77.121094 43.980469 79.664062 44.195312 C 80.300781 44.246094 80.195312 44.238281 80.222656 44.878906 C 80.25 45.519531 80.285156 46.203125 80.308594 46.871094 C 80.371094 48.265625 80.433594 49.667969 80.496094 51.0625 C 80.726562 56.144531 81.144531 61.261719 80.878906 66.34375 C 80.816406 67.5625 80.707031 68.789062 80.53125 69.996094 C 80.40625 70.824219 80.355469 72.234375 79.621094 72.777344 C 78.839844 73.355469 77.023438 73.105469 76.113281 73.140625 C 74.820312 73.203125 73.519531 73.265625 72.222656 73.320312 C 72.285156 73.320312 71.585938 73.300781 71.515625 73.347656 C 71.0625 73.621094 71.597656 73.152344 71.570312 73.542969 C 71.605469 72.945312 71.570312 72.335938 71.578125 71.730469 C 71.597656 70.351562 71.632812 68.976562 71.683594 67.597656 C 71.78125 65.066406 71.933594 62.523438 72.136719 60 C 72.613281 54.121094 73.402344 48.265625 74.472656 42.460938 C 74.773438 40.808594 72.261719 40.109375 71.949219 41.769531 Z M 71.949219 41.785156 "/>
<path style=" stroke:none;fill-rule:nonzero;fill:rgb(95.686275%,59.607846%,10.196079%);fill-opacity:1;" d="M 69.675781 27.605469 C 69.230469 30.164062 71.0625 32.34375 73.445312 33.035156 C 74.667969 33.390625 75.972656 33.390625 77.226562 33.300781 C 78.363281 33.230469 79.628906 33.195312 80.601562 32.519531 C 81.675781 31.78125 82.125 30.554688 81.878906 29.285156 C 81.664062 28.210938 80.929688 27.222656 80.152344 26.488281 C 78.707031 25.136719 76.671875 24.265625 74.738281 23.953125 C 72.359375 23.5625 70.019531 24.050781 68.539062 26.09375 C 68.125 26.671875 68.441406 27.554688 69.011719 27.890625 C 69.664062 28.28125 70.382812 27.996094 70.796875 27.417969 C 70.71875 27.535156 70.976562 27.214844 71.019531 27.171875 C 71.0625 27.125 71.117188 27.082031 71.160156 27.039062 C 71.320312 26.894531 71.027344 27.125 71.195312 27.003906 C 71.3125 26.914062 71.445312 26.84375 71.570312 26.769531 C 71.640625 26.734375 71.71875 26.691406 71.789062 26.65625 C 71.621094 26.734375 71.816406 26.65625 71.886719 26.628906 C 72.535156 26.425781 72.851562 26.390625 73.625 26.441406 C 74.8125 26.511719 76.210938 27.011719 77.34375 27.652344 C 77.929688 27.980469 78.496094 28.449219 78.867188 28.949219 C 78.972656 29.089844 79.0625 29.230469 79.148438 29.390625 C 79.195312 29.472656 79.246094 29.5625 79.28125 29.648438 C 79.257812 29.585938 79.238281 29.507812 79.300781 29.722656 C 79.320312 29.78125 79.335938 29.84375 79.355469 29.917969 C 79.398438 30.128906 79.355469 29.738281 79.355469 29.953125 C 79.355469 30.015625 79.355469 30.078125 79.355469 30.136719 C 79.390625 29.808594 79.273438 30.34375 79.371094 30.078125 C 79.328125 30.199219 79.148438 30.371094 79.078125 30.394531 C 78.699219 30.546875 78.378906 30.582031 78.050781 30.609375 C 77.132812 30.6875 76.191406 30.761719 75.269531 30.6875 C 74.449219 30.636719 73.542969 30.378906 72.984375 29.871094 C 72.675781 29.585938 72.5 29.390625 72.320312 29 C 72.347656 29.0625 72.234375 28.707031 72.214844 28.617188 C 72.242188 28.753906 72.234375 28.175781 72.214844 28.289062 C 72.339844 27.597656 72.03125 26.878906 71.304688 26.671875 C 70.675781 26.496094 69.816406 26.886719 69.691406 27.589844 Z M 69.675781 27.605469 "/>
<path style=" stroke:none;fill-rule:nonzero;fill:rgb(95.686275%,59.607846%,10.196079%);fill-opacity:1;" d="M 72.960938 46.65625 L 72.164062 46.96875 L 73.171875 49.367188 C 75.359375 47.980469 77.644531 46.761719 80.042969 45.777344 L 78.769531 43.582031 C 76.289062 46.761719 72.792969 49.027344 71.320312 52.9375 C 70.929688 53.976562 72.339844 55.0625 73.242188 54.421875 C 75.800781 52.589844 78.363281 50.769531 80.921875 48.9375 L 79 47.457031 C 77.273438 51.613281 73.402344 54.449219 72.285156 58.925781 C 71.941406 60.292969 73.492188 60.96875 74.472656 60.207031 C 75.457031 59.441406 76.511719 58.605469 77.53125 57.808594 L 78.882812 56.742188 C 79.292969 56.421875 79.945312 55.675781 80.503906 55.628906 L 79.246094 53.96875 C 78.132812 58.234375 74.695312 61.457031 74.410156 66.015625 C 74.339844 67.109375 75.917969 67.800781 76.644531 66.941406 C 78.617188 64.605469 80.859375 62.535156 83.375 60.792969 L 81.585938 58.996094 C 79.894531 62.195312 78.203125 65.394531 76.511719 68.59375 C 75.792969 69.953125 77.441406 71.132812 78.566406 70.183594 C 79.089844 69.738281 79.609375 69.296875 80.140625 68.851562 C 81.433594 67.757812 79.585938 65.953125 78.292969 66.992188 C 75.378906 69.347656 72.464844 71.703125 69.550781 74.058594 L 71.402344 75.914062 C 72.5 74.644531 73.710938 73.488281 75.066406 72.492188 C 76.421875 71.5 75.113281 69.234375 73.746094 70.226562 C 72.207031 71.355469 70.808594 72.609375 69.550781 74.058594 C 68.425781 75.355469 70.097656 76.964844 71.402344 75.914062 C 74.316406 73.558594 77.226562 71.207031 80.140625 68.851562 L 78.292969 66.992188 C 77.769531 67.4375 77.246094 67.882812 76.714844 68.328125 L 78.769531 69.917969 C 80.460938 66.71875 82.152344 63.519531 83.84375 60.320312 C 84.410156 59.246094 83.199219 57.734375 82.054688 58.527344 C 79.363281 60.402344 76.917969 62.578125 74.792969 65.09375 L 77.023438 66.015625 C 77.28125 61.867188 80.734375 58.625 81.773438 54.660156 C 81.976562 53.886719 81.382812 52.9375 80.515625 53 C 78.957031 53.117188 77.882812 54.21875 76.707031 55.140625 C 75.351562 56.207031 73.996094 57.273438 72.632812 58.339844 L 74.820312 59.621094 C 75.910156 55.246094 79.832031 52.261719 81.53125 48.148438 C 81.964844 47.109375 80.496094 46.035156 79.609375 46.664062 C 77.050781 48.496094 74.492188 50.316406 71.933594 52.148438 L 73.855469 53.628906 C 75.121094 50.261719 78.484375 48.183594 80.636719 45.429688 C 81.328125 44.550781 80.734375 42.675781 79.363281 43.234375 C 76.75 44.300781 74.253906 45.570312 71.871094 47.082031 C 70.683594 47.835938 71.4375 50.03125 72.878906 49.480469 L 73.675781 49.171875 C 75.226562 48.574219 74.554688 46.035156 72.984375 46.636719 Z M 72.960938 46.65625 "/>
<path style=" stroke:none;fill-rule:nonzero;fill:rgb(95.686275%,59.607846%,10.196079%);fill-opacity:1;" d="M 74.695312 30.777344 C 74.703125 30.832031 74.703125 31.0625 74.714844 30.886719 C 74.714844 30.984375 74.679688 31.179688 74.714844 30.964844 C 74.738281 30.832031 74.589844 31.167969 74.679688 31.054688 C 74.703125 31.019531 74.738281 30.957031 74.765625 30.910156 C 74.835938 30.777344 74.5625 31.140625 74.738281 30.9375 C 74.773438 30.894531 74.8125 30.847656 74.855469 30.8125 C 74.933594 30.734375 75.015625 30.652344 75.09375 30.574219 C 75.269531 30.40625 75.457031 30.234375 75.652344 30.066406 C 75.75 29.976562 75.855469 29.898438 75.960938 29.820312 C 76.09375 29.710938 75.953125 29.808594 75.910156 29.863281 C 75.953125 29.808594 76.03125 29.773438 76.085938 29.730469 C 76.484375 29.4375 76.910156 29.160156 77.34375 28.914062 C 77.554688 28.789062 77.777344 28.671875 78.007812 28.566406 C 78.113281 28.511719 78.21875 28.460938 78.328125 28.414062 C 78.398438 28.386719 78.460938 28.351562 78.53125 28.324219 C 78.691406 28.253906 78.230469 28.449219 78.503906 28.335938 L 76.890625 26.71875 C 76.875 26.761719 76.855469 26.816406 76.839844 26.859375 L 76.910156 26.683594 C 76.855469 26.734375 76.828125 26.851562 76.792969 26.914062 C 76.722656 27.046875 76.644531 27.171875 76.554688 27.296875 C 76.378906 27.5625 76.183594 27.808594 75.996094 28.066406 C 75.570312 28.636719 75.199219 29.257812 75.03125 29.960938 C 74.863281 30.664062 75.246094 31.398438 75.945312 31.578125 C 76.960938 31.835938 77.9375 31.558594 78.734375 30.886719 L 76.546875 30.308594 C 76.597656 30.46875 76.527344 30.101562 76.527344 30.101562 C 76.527344 30.101562 76.597656 29.730469 76.554688 29.898438 C 76.511719 30.085938 76.695312 29.632812 76.617188 29.757812 C 76.597656 29.78125 76.582031 29.820312 76.5625 29.855469 C 76.484375 29.996094 76.378906 30.121094 76.296875 30.261719 C 75.953125 30.839844 75.863281 31.578125 76.238281 32.164062 C 76.457031 32.519531 76.910156 32.867188 77.359375 32.8125 C 78.042969 32.734375 78.644531 32.574219 79.265625 32.246094 C 79.886719 31.914062 80.105469 31.027344 79.734375 30.449219 C 79.335938 29.835938 78.59375 29.632812 77.945312 29.976562 C 77.890625 30.003906 77.734375 30.058594 77.699219 30.101562 C 77.847656 30.039062 77.882812 30.023438 77.796875 30.058594 C 77.75 30.078125 77.707031 30.09375 77.664062 30.101562 C 77.574219 30.128906 77.484375 30.15625 77.386719 30.175781 C 77.308594 30.191406 77.007812 30.234375 77.371094 30.191406 L 78.496094 30.839844 C 78.425781 30.726562 78.449219 30.785156 78.566406 31.027344 C 78.617188 31.195312 78.617188 31.375 78.566406 31.550781 C 78.609375 31.363281 78.378906 31.898438 78.53125 31.632812 C 78.601562 31.496094 78.699219 31.382812 78.777344 31.25 C 79.089844 30.761719 79.246094 30.175781 79.070312 29.605469 C 78.9375 29.160156 78.601562 28.816406 78.160156 28.691406 C 77.679688 28.558594 77.253906 28.71875 76.882812 29.027344 C 76.925781 28.992188 77.113281 28.875 76.960938 28.964844 C 76.917969 28.992188 76.875 29.019531 76.828125 29.046875 C 76.660156 29.144531 76.902344 28.992188 76.925781 29.011719 C 76.902344 29 76.777344 29.054688 76.742188 29.0625 C 76.695312 29.070312 76.511719 29.109375 76.722656 29.0625 C 76.9375 29.019531 76.757812 29.054688 76.707031 29.054688 C 76.652344 29.054688 76.476562 29.027344 76.6875 29.0625 C 76.925781 29.097656 76.671875 29.054688 76.636719 29.046875 L 77.546875 30.664062 C 77.566406 30.589844 77.582031 30.519531 77.609375 30.449219 C 77.625 30.40625 77.644531 30.351562 77.664062 30.308594 C 77.582031 30.492188 77.554688 30.539062 77.601562 30.449219 C 77.664062 30.316406 77.734375 30.183594 77.804688 30.058594 C 77.964844 29.792969 78.148438 29.535156 78.34375 29.285156 C 78.777344 28.699219 79.160156 28.121094 79.40625 27.429688 C 79.558594 26.992188 79.378906 26.46875 79.070312 26.148438 C 78.761719 25.828125 78.210938 25.640625 77.796875 25.8125 C 76.5625 26.316406 75.4375 26.941406 74.386719 27.757812 C 73.898438 28.140625 73.402344 28.539062 72.984375 29 C 72.339844 29.703125 71.984375 30.519531 72.179688 31.480469 C 72.3125 32.15625 73.144531 32.597656 73.792969 32.394531 C 74.5 32.164062 74.847656 31.507812 74.703125 30.777344 Z M 74.695312 30.777344 "/>
<path style=" stroke:none;fill-rule:nonzero;fill:rgb(95.686275%,59.607846%,10.196079%);fill-opacity:1;" d="M 35.976562 27.046875 C 34.886719 30.8125 33.789062 34.589844 33.195312 38.472656 C 32.910156 40.320312 32.761719 42.167969 32.699219 44.035156 C 32.636719 45.902344 32.566406 47.917969 32 49.800781 C 31.777344 50.519531 32.378906 51.292969 33.125 51.285156 C 37.234375 51.222656 41.316406 50.832031 45.363281 50.121094 C 45.9375 50.023438 46.398438 49.222656 46.179688 48.683594 C 43.316406 41.707031 40.863281 34.570312 38.828125 27.3125 C 38.421875 25.863281 36.164062 26.476562 36.578125 27.933594 C 38.617188 35.195312 41.070312 42.328125 43.929688 49.304688 L 44.742188 47.863281 C 40.898438 48.539062 37.019531 48.886719 33.125 48.949219 L 34.25 50.433594 C 35.347656 46.769531 34.878906 42.84375 35.445312 39.09375 C 36.011719 35.34375 37.136719 31.4375 38.226562 27.667969 C 38.652344 26.21875 36.390625 25.597656 35.976562 27.046875 Z M 35.976562 27.046875 "/>
<path style=" stroke:none;fill-rule:nonzero;fill:rgb(95.686275%,59.607846%,10.196079%);fill-opacity:1;" d="M 32.007812 23.339844 C 33.832031 21.652344 35.976562 20.410156 38.351562 19.664062 L 37.445312 17.523438 C 35.65625 18.828125 34.363281 20.550781 33.25 22.445312 C 31.972656 24.601562 30.785156 26.824219 29.554688 29.019531 C 28.910156 30.183594 30.421875 31.363281 31.390625 30.441406 C 32.125 29.730469 33.089844 28.742188 34.195312 29.046875 L 33.382812 27.605469 C 32.539062 31.640625 29.875 34.820312 27.253906 37.851562 C 26.242188 39.015625 27.730469 40.417969 28.910156 39.511719 C 30.484375 38.277344 32.070312 37.050781 33.65625 35.824219 L 31.707031 34.6875 C 31.371094 35.636719 30.601562 36.367188 30.023438 37.175781 C 29.351562 38.117188 29.09375 39.148438 28.847656 40.257812 C 28.324219 42.640625 26.996094 44.640625 25.648438 46.621094 C 24.851562 47.785156 26.535156 48.851562 27.484375 48.042969 C 29.652344 46.203125 31.824219 44.363281 33.992188 42.515625 L 32.335938 40.855469 C 28.332031 45.617188 24.90625 50.804688 21.503906 56.003906 C 20.769531 57.121094 22.425781 58.375 23.339844 57.425781 C 25.675781 54.980469 28.21875 52.769531 30.972656 50.804688 L 29.378906 49.207031 C 27.792969 51.507812 26.472656 53.960938 25.429688 56.546875 C 24.765625 58.179688 23.277344 61.484375 25.878906 62.25 C 26.277344 62.363281 26.730469 62.25 27.015625 61.945312 C 28.855469 60.082031 30.699219 58.214844 32.53125 56.359375 L 30.875 54.695312 C 28.546875 57.15625 26.289062 59.691406 24.101562 62.277344 C 23.011719 63.574219 21.929688 64.878906 20.875 66.210938 C 19.980469 67.332031 18.910156 68.460938 18.671875 69.933594 C 18.503906 70.964844 19.425781 71.722656 20.390625 71.257812 C 21.957031 70.511719 23.136719 69.011719 24.347656 67.800781 C 25.746094 66.398438 27.15625 64.996094 28.554688 63.589844 L 26.722656 62.167969 C 25.269531 64.214844 23.894531 66.308594 22.621094 68.460938 C 22 69.507812 21.382812 70.566406 20.824219 71.640625 C 20.355469 72.539062 20.042969 73.496094 20.644531 74.402344 C 21.070312 75.035156 21.914062 75.1875 22.480469 74.644531 C 25.339844 71.898438 28.28125 69.257812 31.316406 66.710938 L 29.660156 66.710938 C 29.492188 66.515625 29.679688 66.578125 29.527344 66.773438 C 29.421875 66.90625 29.34375 67.101562 29.253906 67.25 C 28.945312 67.75 28.597656 68.230469 28.269531 68.707031 C 27.570312 69.738281 26.871094 70.769531 26.179688 71.808594 C 24.828125 73.816406 23.472656 75.816406 22.117188 77.824219 C 21.335938 78.972656 23 80.097656 23.949219 79.246094 C 26.863281 76.617188 29.777344 73.988281 32.929688 71.648438 L 31.210938 70.324219 C 30.300781 72.769531 29.121094 75.089844 27.695312 77.273438 C 26.871094 78.542969 28.890625 79.71875 29.714844 78.457031 C 31.246094 76.101562 32.488281 73.585938 33.460938 70.949219 C 33.796875 70.03125 32.550781 69.027344 31.742188 69.625 C 28.429688 72.078125 25.359375 74.820312 22.292969 77.585938 L 24.125 79.007812 C 25.855469 76.457031 27.570312 73.90625 29.296875 71.355469 C 30.421875 69.695312 33.042969 67.089844 31.316406 65.066406 C 30.882812 64.558594 30.121094 64.683594 29.660156 65.066406 C 26.625 67.605469 23.683594 70.253906 20.824219 73 L 22.65625 73.242188 C 22.578125 73.425781 22.601562 73.355469 22.734375 73.019531 C 22.859375 72.777344 22.992188 72.539062 23.125 72.308594 C 23.382812 71.835938 23.648438 71.355469 23.921875 70.886719 C 24.390625 70.058594 24.878906 69.25 25.375 68.441406 C 26.4375 66.710938 27.5625 65.023438 28.742188 63.367188 C 29.519531 62.265625 27.828125 61.03125 26.90625 61.945312 C 25.605469 63.253906 24.304688 64.550781 23 65.855469 C 21.859375 67.003906 20.699219 68.539062 19.21875 69.25 L 20.9375 70.574219 C 21.167969 69.160156 22.46875 67.972656 23.339844 66.894531 C 24.3125 65.6875 25.304688 64.488281 26.3125 63.308594 C 28.324219 60.941406 30.40625 58.632812 32.539062 56.367188 C 33.578125 55.273438 31.945312 53.628906 30.882812 54.707031 C 29.042969 56.570312 27.199219 58.4375 25.367188 60.292969 L 26.5 59.992188 C 26.703125 60.304688 26.773438 60.320312 26.710938 60.035156 C 26.710938 59.878906 26.75 59.726562 26.800781 59.574219 C 26.925781 59.078125 27.136719 58.570312 27.316406 58.089844 C 27.652344 57.203125 28.015625 56.332031 28.421875 55.480469 C 29.273438 53.703125 30.265625 52.011719 31.390625 50.398438 C 32.042969 49.453125 30.734375 48.121094 29.792969 48.796875 C 26.882812 50.875 24.160156 53.195312 21.691406 55.78125 L 23.523438 57.203125 C 26.820312 52.171875 30.121094 47.136719 33.992188 42.523438 C 34.964844 41.371094 33.496094 39.886719 32.335938 40.863281 C 30.167969 42.703125 27.996094 44.542969 25.828125 46.390625 L 27.660156 47.8125 C 29.042969 45.785156 30.421875 43.679688 31.007812 41.261719 C 31.292969 40.082031 31.476562 39.085938 32.230469 38.097656 C 32.910156 37.203125 33.566406 36.394531 33.949219 35.320312 C 34.382812 34.082031 32.804688 33.550781 32 34.179688 C 30.414062 35.40625 28.839844 36.640625 27.253906 37.867188 L 28.910156 39.53125 C 31.777344 36.199219 34.71875 32.671875 35.640625 28.246094 C 35.773438 27.625 35.460938 26.984375 34.824219 26.804688 C 32.816406 26.253906 31.140625 27.464844 29.75 28.804688 L 31.582031 30.226562 C 32.691406 28.246094 33.789062 26.253906 34.914062 24.28125 C 35.90625 22.542969 36.996094 20.773438 38.632812 19.574219 C 39.625 18.84375 39.09375 17.007812 37.730469 17.433594 C 34.964844 18.304688 32.488281 19.742188 30.363281 21.714844 C 29.253906 22.738281 30.910156 24.398438 32.015625 23.375 Z M 32.007812 23.339844 "/>
<path style=" stroke:none;fill-rule:nonzero;fill:rgb(95.686275%,59.607846%,10.196079%);fill-opacity:1;" d="M 21.628906 62.953125 C 21.804688 63.066406 21.902344 63.226562 21.914062 63.414062 C 21.902344 63.449219 21.914062 63.464844 21.9375 63.464844 C 22.046875 63.429688 22.25 63.023438 22.3125 62.925781 C 22.550781 62.597656 22.789062 62.257812 23.027344 61.929688 C 23.542969 61.226562 24.066406 60.527344 24.597656 59.824219 C 25.632812 58.464844 26.6875 57.121094 27.738281 55.78125 C 28.128906 55.285156 28.226562 54.609375 27.738281 54.121094 C 27.332031 53.710938 26.480469 53.621094 26.082031 54.121094 C 24.730469 55.84375 23.363281 57.574219 22.046875 59.335938 C 21.417969 60.171875 20.796875 61.023438 20.1875 61.875 C 19.847656 62.347656 19.558594 62.863281 19.574219 63.457031 C 19.59375 64.089844 19.910156 64.621094 20.441406 64.960938 C 20.972656 65.296875 21.726562 65.074219 22.035156 64.542969 C 22.363281 63.980469 22.152344 63.28125 21.621094 62.941406 Z M 21.628906 62.953125 "/>
<path style=" stroke:none;fill-rule:nonzero;fill:rgb(95.686275%,59.607846%,10.196079%);fill-opacity:1;" d="M 32.664062 57.511719 C 32.984375 57.859375 32.984375 57.558594 33.285156 57.210938 C 33.445312 57.035156 33.601562 56.855469 33.769531 56.679688 C 34.222656 56.199219 34.710938 55.746094 35.214844 55.335938 C 36.207031 54.527344 37.304688 53.871094 38.457031 53.328125 L 36.863281 51.730469 C 35.851562 53.117188 34.84375 54.5 33.84375 55.886719 C 33 57.042969 34.726562 58.082031 35.675781 57.308594 C 38.253906 55.195312 40.757812 52.742188 43.734375 51.195312 L 42.316406 49.355469 C 40.609375 51.320312 39.207031 53.496094 38.171875 55.886719 C 37.757812 56.855469 38.6875 58.207031 39.765625 57.488281 C 43.0625 55.320312 45.601562 52.101562 49.226562 50.441406 L 47.632812 48.839844 C 46.167969 51.855469 43.140625 53.871094 42.378906 57.257812 C 42.113281 58.4375 43.449219 59.15625 44.328125 58.394531 C 47.136719 55.984375 50.023438 53.515625 53.484375 52.101562 L 52.351562 50.148438 C 48.835938 53.878906 45.328125 57.734375 43.609375 62.667969 C 43.195312 63.867188 44.753906 64.496094 45.558594 63.804688 C 46.964844 62.605469 48.382812 61.433594 49.835938 60.285156 C 50.535156 59.726562 51.246094 59.183594 51.953125 58.640625 C 52.378906 58.320312 53.792969 56.902344 54.308594 57.015625 L 53.609375 55.292969 C 51.4375 59.824219 48.039062 63.699219 46.53125 68.558594 C 46.152344 69.773438 47.648438 70.378906 48.480469 69.695312 C 51.925781 66.886719 55.183594 63.867188 58.257812 60.648438 L 56.601562 58.988281 C 53.167969 62.765625 49.773438 66.636719 47.984375 71.5 C 47.542969 72.707031 49.136719 73.300781 49.933594 72.636719 C 53.175781 69.96875 56.417969 67.296875 59.65625 64.628906 L 57.824219 63.207031 L 53.324219 71.84375 C 52.828125 72.789062 53.910156 74.191406 54.917969 73.445312 L 58.011719 71.160156 L 59.382812 70.148438 C 59.824219 69.828125 60.550781 69.046875 61.144531 69.101562 L 60.019531 67.617188 C 59.355469 69.613281 58.613281 71.597656 57.789062 73.542969 C 57.445312 74.367188 58.035156 75.664062 59.109375 75.265625 C 60.347656 74.804688 61.289062 74.085938 62.050781 72.992188 C 62.917969 71.757812 60.886719 70.582031 60.03125 71.808594 C 59.640625 72.371094 59.117188 72.769531 58.480469 73.007812 L 59.800781 74.734375 C 60.703125 72.601562 61.535156 70.441406 62.261719 68.246094 C 62.519531 67.472656 61.84375 66.824219 61.136719 66.761719 C 59.71875 66.636719 58.566406 67.855469 57.503906 68.636719 L 53.722656 71.425781 L 55.316406 73.027344 L 59.816406 64.390625 C 60.453125 63.164062 58.992188 62.132812 57.984375 62.96875 C 54.742188 65.632812 51.5 68.308594 48.257812 70.972656 L 50.207031 72.113281 C 51.847656 67.660156 55.085938 64.089844 58.230469 60.640625 C 59.242188 59.53125 57.621094 57.886719 56.574219 58.980469 C 53.511719 62.195312 50.242188 65.21875 46.796875 68.023438 L 48.746094 69.160156 C 50.191406 64.515625 53.511719 60.800781 55.582031 56.457031 C 55.894531 55.816406 55.671875 54.910156 54.882812 54.734375 C 52.855469 54.28125 50.953125 56.402344 49.472656 57.550781 C 47.570312 59.03125 45.691406 60.550781 43.859375 62.125 L 45.804688 63.261719 C 47.382812 58.738281 50.730469 55.195312 53.945312 51.773438 C 54.679688 51 53.953125 49.347656 52.8125 49.820312 C 48.949219 51.402344 45.761719 54.023438 42.628906 56.714844 L 44.574219 57.851562 C 45.273438 54.742188 48.234375 52.785156 49.589844 49.996094 C 50.121094 48.902344 49.066406 47.898438 47.992188 48.398438 C 44.363281 50.066406 41.832031 53.273438 38.535156 55.441406 L 40.128906 57.042969 C 41.085938 54.839844 42.335938 52.804688 43.910156 50.992188 C 44.777344 49.996094 43.699219 48.523438 42.496094 49.152344 C 39.359375 50.789062 36.683594 53.398438 33.964844 55.628906 L 35.800781 57.050781 C 36.808594 55.664062 37.816406 54.28125 38.820312 52.894531 C 39.570312 51.855469 38.164062 50.839844 37.226562 51.292969 C 35.410156 52.15625 33.734375 53.328125 32.308594 54.757812 C 31.195312 55.878906 29.539062 57.628906 30.953125 59.167969 C 31.980469 60.277344 33.628906 58.617188 32.609375 57.503906 Z M 32.664062 57.511719 "/>
<path style=" stroke:none;fill-rule:nonzero;fill:rgb(95.686275%,59.607846%,10.196079%);fill-opacity:1;" d="M 37.269531 27.710938 C 38.101562 25.6875 39.933594 24.300781 41.671875 23.09375 C 42.554688 22.480469 43.460938 21.882812 44.335938 21.246094 C 45.214844 20.605469 46.230469 19.894531 46.433594 18.703125 C 46.566406 17.914062 46.117188 17.289062 45.3125 17.21875 C 42.699219 16.988281 40.574219 18.820312 38.792969 20.496094 C 36.773438 22.410156 35.003906 24.566406 33.480469 26.894531 C 32.9375 27.710938 33.84375 28.964844 34.796875 28.617188 C 38.066406 27.417969 41.386719 26.371094 44.742188 25.457031 L 43.425781 23.730469 C 42.28125 25.242188 41.121094 26.734375 39.996094 28.261719 C 39.039062 29.5625 38.339844 30.839844 38.179688 32.464844 C 38.085938 33.488281 39.519531 33.996094 40.175781 33.292969 C 41.261719 32.136719 42.351562 30.984375 43.433594 29.820312 C 43.929688 29.292969 44.425781 28.769531 44.914062 28.238281 C 45.203125 27.917969 45.503906 27.605469 45.796875 27.285156 L 46.089844 26.964844 C 46.605469 26.59375 46.453125 26.441406 45.628906 26.496094 L 45.445312 25.074219 C 43.945312 28.398438 42.449219 31.71875 40.960938 35.042969 C 40.429688 36.234375 41.769531 37.390625 42.796875 36.464844 C 44.59375 34.847656 46.382812 33.238281 48.179688 31.621094 L 46.230469 30.484375 C 44.921875 33.613281 43.707031 36.722656 43.292969 40.109375 C 43.140625 41.378906 44.886719 41.539062 45.46875 40.703125 C 46.90625 38.640625 48.269531 36.527344 49.5625 34.367188 L 47.425781 33.460938 C 46.035156 37.210938 44.664062 40.976562 43.9375 44.921875 C 43.707031 46.167969 45.382812 47.046875 46.074219 45.828125 C 47.390625 43.5 49.011719 41.421875 50.953125 39.582031 L 49.003906 38.445312 C 48.355469 40.648438 47.675781 42.84375 47.144531 45.074219 C 46.746094 46.726562 46.613281 48.449219 47.859375 49.773438 C 48.1875 50.113281 48.871094 50.261719 49.277344 49.960938 C 51.148438 48.558594 52.917969 47.054688 54.574219 45.402344 L 52.625 44.265625 C 51.714844 47.457031 50.800781 50.644531 49.890625 53.84375 C 49.472656 55.292969 51.730469 55.914062 52.140625 54.464844 C 53.050781 51.277344 53.964844 48.085938 54.875 44.886719 C 55.203125 43.75 53.742188 42.933594 52.925781 43.75 C 51.414062 45.253906 49.808594 46.664062 48.101562 47.945312 L 49.515625 48.128906 C 48.613281 47.1875 49.554688 45.09375 49.835938 44.042969 C 50.289062 42.382812 50.773438 40.730469 51.261719 39.078125 C 51.597656 37.921875 50.136719 37.15625 49.3125 37.941406 C 47.242188 39.902344 45.480469 42.167969 44.070312 44.65625 L 46.207031 45.5625 C 46.929688 41.617188 48.304688 37.851562 49.695312 34.101562 C 50.164062 32.832031 48.222656 32.09375 47.558594 33.195312 C 46.265625 35.355469 44.902344 37.460938 43.46875 39.53125 L 45.648438 40.125 C 46.027344 36.980469 47.285156 34.019531 48.5 31.125 C 48.984375 29.953125 47.320312 29.285156 46.550781 29.988281 C 44.753906 31.605469 42.964844 33.210938 41.164062 34.828125 L 43 36.25 C 44.496094 32.929688 45.992188 29.605469 47.480469 26.28125 C 47.710938 25.777344 47.675781 25.289062 47.292969 24.859375 C 45.886719 23.269531 44.152344 25.660156 43.265625 26.59375 C 41.679688 28.273438 40.101562 29.960938 38.519531 31.640625 L 40.511719 32.464844 C 40.652344 31.0625 41.679688 29.878906 42.496094 28.796875 C 43.46875 27.5 44.453125 26.210938 45.433594 24.914062 C 46.082031 24.0625 45.019531 22.949219 44.113281 23.191406 C 40.75 24.097656 37.4375 25.152344 34.167969 26.351562 L 35.488281 28.078125 C 36.765625 26.132812 38.226562 24.335938 39.871094 22.703125 C 41.316406 21.269531 43.097656 19.371094 45.300781 19.566406 L 44.175781 18.082031 C 44.027344 19.003906 42.421875 19.742188 41.699219 20.242188 C 40.765625 20.878906 39.828125 21.511719 38.941406 22.203125 C 37.226562 23.535156 35.851562 25.066406 35.011719 27.089844 C 34.433594 28.484375 36.695312 29.089844 37.261719 27.710938 Z M 37.269531 27.710938 "/>
</g>
</svg>
