<?xml version="1.0" encoding="UTF-8"?>
<svg xmlns="http://www.w3.org/2000/svg" xmlns:xlink="http://www.w3.org/1999/xlink" width="100px" height="px" viewBox="0 0 100 95" version="1.1">
<g id="surface1">
<path style=" stroke:none;fill-rule:nonzero;fill:rgb(27.058825%,4.705882%,12.941177%);fill-opacity:1;" d="M 78.582031 88.992188 C 59.222656 89.367188 39.835938 86.007812 20.414062 85.839844 C 13.226562 85.777344 5.972656 85.242188 3.5 77.308594 C 2.527344 74.191406 2.492188 70.859375 2.464844 67.589844 C 2.375 57.523438 2.289062 47.457031 2.191406 37.378906 C 2.128906 30.984375 2.082031 24.53125 3.367188 18.269531 C 4.429688 13.050781 6.9375 4.984375 11.808594 2.015625 C 17.652344 -1.546875 25.09375 1.449219 31.328125 1.449219 C 36.011719 1.449219 40.757812 1.136719 45.453125 0.984375 C 54.34375 0.691406 63.234375 0.382812 72.128906 0.0703125 C 77.988281 -0.132812 84.359375 -0.195312 89.085938 3.296875 C 94.011719 6.9375 95.78125 13.441406 96.722656 19.511719 C 98.289062 29.667969 98.4375 39.992188 98.21875 50.273438 C 98.003906 60.214844 97.4375 70.15625 96.535156 80.0625 C 96.367188 81.9375 96.144531 83.910156 95.039062 85.429688 C 93.335938 87.777344 90.121094 88.320312 87.234375 88.558594 C 84.359375 88.796875 81.46875 88.941406 78.582031 88.992188 Z M 78.582031 88.992188 "/>
<path style=" stroke:none;fill-rule:nonzero;fill:rgb(90.980393%,23.137255%,40.784314%);fill-opacity:1;" d="M 22.460938 16.800781 C 25.019531 16.5625 27.589844 16.382812 30.167969 16.261719 C 31.378906 16.199219 32.59375 16.152344 33.804688 16.117188 C 35.019531 16.082031 36.429688 15.816406 37.5625 16.074219 C 38.394531 16.261719 38.304688 17.566406 38.402344 18.292969 C 38.578125 19.609375 38.757812 20.933594 38.917969 22.257812 C 39.234375 24.859375 39.511719 27.464844 39.757812 30.078125 C 40.722656 40.375 41.113281 50.726562 40.9375 61.066406 C 40.839844 66.894531 40.554688 72.714844 40.09375 78.527344 L 41.121094 77.175781 C 35.835938 77.976562 30.40625 78.019531 25.101562 77.300781 L 26.074219 78.277344 C 23.125 70.875 23.542969 62.890625 24.320312 55.105469 C 24.730469 51.082031 25.234375 47.066406 25.480469 43.023438 C 25.730469 38.980469 25.570312 34.8125 25.164062 30.707031 C 24.675781 25.820312 24.019531 20.941406 24.125 16.027344 C 24.160156 14.226562 21.363281 14.226562 21.328125 16.027344 C 21.152344 24.664062 23.152344 33.167969 22.746094 41.824219 C 22.363281 49.917969 20.761719 57.941406 20.949219 66.0625 C 21.054688 70.484375 21.734375 74.902344 23.375 79.035156 C 23.542969 79.449219 23.851562 79.949219 24.347656 80.011719 C 30.191406 80.800781 36.03125 80.765625 41.855469 79.886719 C 42.484375 79.789062 42.839844 79.09375 42.882812 78.535156 C 43.753906 67.5 43.980469 56.410156 43.558594 45.351562 C 43.34375 39.894531 42.972656 34.4375 42.441406 29 C 42.175781 26.316406 41.882812 23.644531 41.539062 20.96875 C 41.371094 19.617188 41.191406 18.269531 40.996094 16.917969 C 40.855469 15.949219 40.644531 14.953125 39.945312 14.226562 C 38.933594 13.195312 37.480469 13.257812 36.152344 13.273438 C 34.726562 13.292969 33.292969 13.335938 31.867188 13.390625 C 28.722656 13.515625 25.578125 13.71875 22.453125 14.011719 C 20.671875 14.171875 20.65625 16.980469 22.453125 16.820312 Z M 22.460938 16.800781 "/>
<path style=" stroke:none;fill-rule:nonzero;fill:rgb(90.980393%,23.137255%,40.784314%);fill-opacity:1;" d="M 66.210938 16.125 L 75.785156 15.894531 C 76.113281 15.894531 77.246094 15.683594 77.441406 15.894531 C 77.742188 16.222656 77.722656 17.523438 77.796875 17.921875 C 78.050781 19.492188 78.292969 21.066406 78.511719 22.640625 C 79.371094 28.742188 79.945312 34.875 80.398438 41.023438 C 80.851562 47.171875 81.152344 53.285156 81.417969 59.425781 C 81.558594 62.542969 81.683594 65.671875 81.824219 68.789062 C 81.886719 70.324219 81.957031 71.863281 82.019531 73.390625 C 82.054688 74.121094 82.082031 74.855469 82.117188 75.585938 C 82.152344 76.359375 82.4375 77.496094 82.230469 78.214844 C 81.941406 79.246094 82.355469 78.402344 82.195312 78.582031 C 82.039062 78.757812 81.503906 78.839844 81.3125 78.898438 C 80.664062 79.09375 80.019531 79.273438 79.363281 79.433594 C 77.910156 79.789062 76.429688 80.054688 74.933594 80.207031 C 72.101562 80.5 69.203125 80.480469 66.378906 80.089844 C 61.960938 79.476562 56.574219 77.929688 54.203125 73.773438 C 51.492188 69.019531 54.351562 63.023438 56.832031 58.8125 C 59.523438 54.242188 63.5 50.984375 68.734375 49.84375 C 70.046875 49.5625 71.621094 49.722656 72.828125 49.117188 C 74.03125 48.511719 74.527344 47.3125 74.519531 46.023438 C 74.519531 44.46875 74.09375 42.871094 73.84375 41.34375 C 73.570312 39.628906 73.277344 37.902344 72.984375 36.1875 C 71.800781 29.320312 70.460938 22.488281 68.972656 15.683594 C 68.59375 13.921875 65.890625 14.667969 66.273438 16.429688 C 67.699219 22.949219 68.992188 29.5 70.132812 36.082031 C 70.683594 39.253906 71.472656 42.523438 71.703125 45.730469 C 71.746094 46.328125 71.789062 46.59375 71.1875 46.691406 C 70.585938 46.789062 70 46.808594 69.417969 46.886719 C 67.984375 47.089844 66.582031 47.445312 65.226562 47.960938 C 59.800781 50.023438 56.097656 54.101562 53.433594 59.167969 C 50.863281 64.0625 48.78125 70.324219 51.945312 75.453125 C 54.644531 79.84375 59.984375 81.859375 64.839844 82.667969 C 67.910156 83.183594 71.027344 83.34375 74.128906 83.085938 C 77.226562 82.828125 80.25 82.390625 83.011719 81.273438 C 84.226562 80.785156 84.988281 79.902344 85.039062 78.554688 C 85.109375 76.855469 84.898438 75.089844 84.828125 73.382812 C 84.683594 70.023438 84.542969 66.664062 84.394531 63.316406 C 84.109375 56.667969 83.816406 50.03125 83.367188 43.394531 C 82.871094 36.066406 82.1875 28.734375 81.152344 21.457031 C 80.886719 19.601562 80.613281 17.734375 80.285156 15.886719 C 79.992188 14.226562 79.230469 13.140625 77.421875 13.050781 C 75.617188 12.964844 73.710938 13.132812 71.871094 13.175781 L 66.210938 13.308594 C 64.414062 13.355469 64.40625 16.160156 66.210938 16.117188 Z M 66.210938 16.125 "/>
<path style=" stroke:none;fill-rule:nonzero;fill:rgb(90.980393%,23.137255%,40.784314%);fill-opacity:1;" d="M 70.761719 58.578125 C 68.648438 58.675781 66.582031 59.476562 65.078125 60.988281 C 63.570312 62.5 62.722656 64.816406 62.675781 67.039062 C 62.632812 69.257812 63.554688 71.144531 65.484375 72.136719 C 67.566406 73.203125 70.097656 73.550781 72.382812 73.878906 C 73.109375 73.988281 73.917969 73.710938 74.101562 72.902344 C 74.402344 71.613281 74.191406 70.386719 73.953125 69.109375 C 73.738281 67.980469 73.527344 66.84375 73.3125 65.714844 C 72.871094 63.367188 72.429688 61.015625 71.984375 58.667969 C 71.84375 57.921875 70.949219 57.496094 70.265625 57.691406 C 69.488281 57.90625 69.152344 58.667969 69.292969 59.414062 C 69.699219 61.59375 70.117188 63.769531 70.523438 65.9375 C 70.71875 66.976562 70.914062 68.023438 71.117188 69.0625 C 71.304688 70.050781 71.648438 71.144531 71.410156 72.148438 L 73.128906 71.171875 C 71.234375 70.902344 69.285156 70.574219 67.46875 69.953125 C 66.140625 69.5 65.484375 68.609375 65.46875 67.214844 C 65.457031 65.742188 65.890625 64.195312 66.910156 63.101562 C 67.929688 62.007812 69.300781 61.441406 70.753906 61.378906 C 72.542969 61.296875 72.5625 58.492188 70.753906 58.570312 Z M 70.761719 58.578125 "/>
<path style=" stroke:none;fill-rule:nonzero;fill:rgb(90.980393%,23.137255%,40.784314%);fill-opacity:1;" d="M 25.527344 22.203125 C 27.199219 20.222656 29.316406 18.820312 31.8125 18.117188 L 30.449219 15.769531 C 28.722656 17.664062 26.996094 19.589844 25.738281 21.832031 C 24.480469 24.070312 23.640625 26.511719 22.808594 28.9375 C 22.335938 30.296875 24.199219 31.25 25.144531 30.308594 C 29.015625 26.441406 33.027344 22.664062 38.023438 20.300781 L 36.332031 18.097656 C 31.273438 23.402344 26.207031 28.777344 22.390625 35.085938 C 21.523438 36.519531 23.425781 37.78125 24.585938 36.785156 C 27.058594 34.679688 29.527344 32.574219 32.007812 30.476562 C 33.25 29.425781 34.480469 28.371094 35.71875 27.320312 C 36.277344 26.84375 36.835938 26.363281 37.402344 25.890625 C 37.675781 25.667969 37.878906 25.535156 38.15625 25.339844 C 38.386719 25.171875 38.484375 25.339844 38.332031 25.179688 L 38.332031 23.199219 C 33.671875 28.324219 29.050781 33.558594 26.386719 40.046875 C 25.84375 41.371094 27.828125 42.382812 28.722656 41.414062 C 32.089844 37.761719 35.746094 34.367188 39.679688 31.328125 L 37.765625 29.410156 C 36.003906 32.441406 33.503906 35.050781 31.273438 37.734375 C 29.042969 40.417969 26.605469 43.339844 24.277344 46.148438 C 23.136719 47.527344 24.90625 49.375 26.253906 48.128906 C 30.9375 43.8125 35.71875 39.46875 41.644531 36.9375 L 39.730469 35.015625 C 35.347656 40.835938 31.257812 46.871094 27.484375 53.105469 C 26.675781 54.429688 28.644531 56.054688 29.679688 54.804688 C 32.984375 50.796875 36.375 46.871094 39.847656 43.003906 C 41.050781 41.671875 39.15625 39.742188 37.871094 41.023438 C 33.460938 45.410156 29.050781 49.792969 24.632812 54.179688 L 26.828125 55.878906 C 29.371094 52.574219 32.265625 49.542969 35.402344 46.789062 L 33.425781 44.808594 C 29.015625 49.027344 24.789062 53.425781 20.742188 58.003906 C 20.300781 58.5 20.230469 59.113281 20.523438 59.699219 C 21.613281 61.894531 24.039062 59.769531 25.179688 58.910156 C 27.128906 57.453125 29.078125 55.996094 31.027344 54.527344 C 34.859375 51.660156 38.695312 48.78125 42.539062 45.910156 L 40.847656 43.707031 C 38.304688 46.753906 35.753906 49.792969 33.214844 52.847656 C 30.945312 55.566406 28.707031 58.332031 27.183594 61.539062 C 26.5 62.976562 28.148438 64.3125 29.378906 63.234375 C 33.140625 59.9375 36.789062 56.527344 40.332031 53 C 41.617188 51.71875 39.679688 49.792969 38.359375 51.019531 C 34.027344 55.035156 29.707031 59.078125 25.96875 63.679688 C 24.851562 65.058594 26.722656 67.03125 27.945312 65.660156 C 30.796875 62.488281 34.011719 59.707031 37.578125 57.378906 L 35.472656 56.171875 C 35.570312 57.257812 34.859375 58.074219 34.214844 58.871094 C 33.40625 59.867188 32.585938 60.84375 31.742188 61.8125 C 30.070312 63.75 28.351562 65.652344 26.632812 67.554688 C 25.410156 68.90625 27.242188 70.691406 28.609375 69.535156 C 32.824219 65.980469 37.039062 62.425781 41.253906 58.871094 L 39.058594 57.175781 C 37.695312 60.152344 35.0625 62.523438 32.929688 64.949219 C 30.53125 67.667969 28.128906 70.386719 25.730469 73.105469 C 24.542969 74.449219 26.410156 76.367188 27.703125 75.089844 C 31.664062 71.179688 36.179688 67.945312 41.148438 65.457031 L 39.457031 63.253906 C 37.675781 65.242188 35.90625 67.234375 34.125 69.222656 C 33.257812 70.191406 32.398438 71.160156 31.53125 72.128906 C 30.722656 73.035156 29.9375 73.898438 29.988281 75.1875 C 30.023438 76.144531 31.195312 77.070312 32.097656 76.394531 C 34.53125 74.589844 37.039062 72.875 39.617188 71.269531 L 37.507812 70.058594 C 37.5625 71.625 37.234375 73.054688 36.480469 74.429688 C 35.726562 75.808594 37.570312 77.328125 38.675781 76.128906 C 39.785156 74.929688 40.9375 73.933594 42.253906 73.042969 L 40.34375 71.125 C 39.644531 72.15625 38.953125 73.179688 38.253906 74.207031 C 37.234375 75.710938 39.660156 77.113281 40.671875 75.621094 C 41.371094 74.589844 42.058594 73.570312 42.761719 72.539062 C 43.539062 71.390625 41.988281 69.847656 40.847656 70.621094 C 39.332031 71.640625 37.949219 72.804688 36.703125 74.136719 L 38.898438 75.835938 C 39.890625 74.046875 40.378906 72.09375 40.308594 70.050781 C 40.273438 69.019531 39.136719 68.253906 38.199219 68.84375 C 35.628906 70.449219 33.125 72.15625 30.679688 73.96875 L 32.789062 75.175781 C 32.769531 74.707031 33.371094 74.261719 33.65625 73.941406 L 34.808594 72.652344 C 35.523438 71.84375 36.25 71.035156 36.96875 70.238281 C 38.457031 68.566406 39.945312 66.90625 41.433594 65.234375 C 42.503906 64.035156 41.164062 62.3125 39.738281 63.03125 C 34.566406 65.625 29.839844 69.027344 25.730469 73.097656 L 27.703125 75.078125 C 30.203125 72.253906 32.699219 69.417969 35.195312 66.59375 C 37.394531 64.105469 40.078125 61.644531 41.476562 58.578125 C 42.140625 57.121094 40.527344 55.824219 39.28125 56.882812 C 35.0625 60.4375 30.847656 63.992188 26.632812 67.542969 L 28.609375 69.527344 C 30.609375 67.3125 32.621094 65.09375 34.550781 62.808594 C 36.109375 60.980469 38.507812 58.785156 38.261719 56.152344 C 38.171875 55.167969 37.117188 54.316406 36.152344 54.945312 C 32.390625 57.40625 28.953125 60.320312 25.949219 63.671875 L 27.925781 65.652344 C 31.664062 61.058594 35.984375 57.015625 40.316406 52.992188 L 38.339844 51.007812 C 34.796875 54.546875 31.148438 57.957031 27.386719 61.246094 L 29.582031 62.941406 C 31.070312 59.816406 33.230469 57.148438 35.425781 54.519531 C 37.890625 51.570312 40.351562 48.628906 42.804688 45.679688 C 43.742188 44.558594 42.476562 42.453125 41.113281 43.476562 C 37.863281 45.910156 34.621094 48.335938 31.371094 50.769531 C 29.777344 51.960938 28.183594 53.160156 26.589844 54.351562 C 25.765625 54.972656 24.933594 55.585938 24.109375 56.207031 C 23.753906 56.472656 23.402344 56.742188 23.046875 57.007812 C 22.808594 57.183594 22.578125 57.363281 22.335938 57.539062 C 21.902344 57.746094 21.851562 57.84375 22.167969 57.816406 L 23 58.464844 L 22.914062 58.285156 L 22.691406 59.984375 C 26.738281 55.417969 30.964844 51.007812 35.375 46.789062 C 36.683594 45.527344 34.738281 43.625 33.398438 44.808594 C 30.070312 47.722656 27.085938 50.957031 24.390625 54.464844 C 23.402344 55.753906 25.492188 57.257812 26.589844 56.164062 C 31 51.773438 35.410156 47.394531 39.828125 43.003906 L 37.855469 41.023438 C 34.382812 44.878906 30.988281 48.816406 27.6875 52.820312 L 29.882812 54.519531 C 33.65625 48.28125 37.746094 42.25 42.132812 36.429688 C 42.503906 35.941406 42.316406 35.132812 41.910156 34.730469 C 41.433594 34.253906 40.792969 34.261719 40.21875 34.511719 C 34.089844 37.121094 29.105469 41.671875 24.257812 46.140625 L 26.234375 48.121094 C 28.660156 45.207031 31.085938 42.285156 33.515625 39.371094 C 35.808594 36.617188 38.359375 33.921875 40.164062 30.8125 C 40.8125 29.695312 39.414062 27.996094 38.253906 28.894531 C 34.125 32.085938 30.273438 35.585938 26.730469 39.421875 L 29.070312 40.792969 C 31.539062 34.792969 35.992188 29.917969 40.296875 25.179688 C 40.820312 24.601562 40.828125 23.777344 40.296875 23.199219 C 39.253906 22.0625 37.675781 22.3125 36.480469 23.074219 C 34.878906 24.085938 33.480469 25.5625 32.035156 26.789062 C 28.890625 29.464844 25.738281 32.144531 22.59375 34.820312 L 24.789062 36.519531 C 28.484375 30.414062 33.398438 25.234375 38.296875 20.097656 C 39.4375 18.898438 38.003906 17.226562 36.605469 17.894531 C 31.414062 20.347656 27.191406 24.320312 23.160156 28.335938 L 25.5 29.703125 C 26.253906 27.507812 27.003906 25.304688 28.148438 23.269531 C 29.289062 21.234375 30.847656 19.492188 32.417969 17.769531 C 33.335938 16.765625 32.441406 15.035156 31.050781 15.425781 C 28.121094 16.25 25.5 17.902344 23.523438 20.230469 C 22.363281 21.601562 24.339844 23.597656 25.5 22.210938 Z M 25.527344 22.203125 "/>
<path style=" stroke:none;fill-rule:nonzero;fill:rgb(90.980393%,23.137255%,40.784314%);fill-opacity:1;" d="M 25.101562 63.421875 C 28.191406 59.9375 31.582031 56.75 35.25 53.878906 C 35.84375 53.410156 35.738281 52.386719 35.25 51.898438 C 34.664062 51.3125 33.867188 51.425781 33.273438 51.898438 C 29.617188 54.769531 26.214844 57.957031 23.125 61.441406 C 22.621094 62.007812 22.566406 62.871094 23.125 63.421875 C 23.640625 63.9375 24.597656 63.992188 25.101562 63.421875 Z M 25.101562 63.421875 "/>
<path style=" stroke:none;fill-rule:nonzero;fill:rgb(90.980393%,23.137255%,40.784314%);fill-opacity:1;" d="M 70 22.0625 C 72.109375 20.515625 74.304688 19.101562 76.582031 17.816406 L 74.890625 15.609375 C 72.277344 18.035156 69.753906 20.578125 68.566406 24.027344 C 68.0625 25.492188 69.921875 26.175781 70.90625 25.394531 C 72.800781 23.867188 74.890625 22.613281 77.09375 21.589844 L 75.039062 20.007812 C 74.554688 21.75 73.214844 23.21875 72.179688 24.65625 C 71.003906 26.292969 69.824219 27.933594 68.648438 29.570312 C 67.832031 30.699219 69.433594 32.261719 70.558594 31.488281 C 73.003906 29.808594 75.4375 28.121094 77.882812 26.441406 L 75.972656 25.9375 C 76.058594 26.085938 74.855469 27.765625 74.6875 28.015625 C 74.207031 28.726562 73.695312 29.417969 73.207031 30.121094 C 72.199219 31.570312 71.304688 33.078125 70.816406 34.785156 C 70.488281 35.914062 71.84375 37.070312 72.871094 36.367188 C 75.210938 34.785156 77.554688 33.203125 79.894531 31.613281 L 77.980469 29.695312 C 76.882812 31.25 75.855469 32.847656 74.925781 34.511719 C 74.128906 35.941406 72.757812 37.867188 73.296875 39.59375 C 74.695312 44.050781 79.832031 38.632812 81.277344 37.050781 L 79.300781 35.070312 C 76.671875 38.3125 74.03125 41.582031 72.199219 45.359375 C 71.472656 46.851562 73.15625 48.03125 74.394531 47.054688 C 76.296875 45.570312 78.203125 44.078125 80.105469 42.59375 L 77.910156 40.898438 L 74.457031 45.652344 C 73.457031 47.027344 72.429688 48.414062 72.136719 50.128906 C 71.886719 51.550781 73.367188 52.394531 74.472656 51.5 C 76.332031 49.996094 78.273438 48.601562 80.273438 47.304688 L 78.363281 45.386719 C 77.007812 47.4375 75.652344 49.492188 74.296875 51.550781 C 73.199219 53.214844 71.320312 55.238281 72.492188 57.308594 C 72.710938 57.699219 73.234375 58.0625 73.695312 58.003906 C 75.546875 57.769531 77.148438 57.035156 78.699219 56.011719 C 80.25 54.988281 81.640625 53.851562 83.347656 53.25 L 81.984375 50.902344 C 78.316406 54.535156 74.679688 58.222656 71.851562 62.570312 C 71.117188 63.699219 72.632812 65.332031 73.765625 64.488281 C 76.183594 62.683594 78.601562 60.890625 81.019531 59.085938 L 79.105469 57.167969 C 77.078125 60.304688 75.058594 63.449219 73.03125 66.585938 C 72.285156 67.742188 73.785156 69.296875 74.945312 68.503906 L 77.28125 66.90625 L 78.363281 66.167969 L 78.902344 65.792969 C 79.34375 65.597656 79.398438 65.519531 79.050781 65.527344 L 78.21875 64.878906 L 78.335938 65.039062 L 78.335938 63.625 C 77.53125 65.324219 76.714844 67.019531 75.910156 68.726562 C 75.253906 70.105469 74.128906 71.800781 74.269531 73.410156 C 74.429688 75.195312 76.394531 75.175781 77.609375 74.539062 C 79.230469 73.683594 80.769531 72.644531 82.339844 71.703125 L 80.425781 69.785156 C 78.9375 72.554688 77.324219 75.257812 75.609375 77.894531 C 74.871094 79.023438 76.386719 80.667969 77.519531 79.816406 C 78.34375 79.203125 79.160156 78.582031 79.984375 77.96875 L 81.035156 77.175781 L 81.734375 76.652344 C 82.207031 76.429688 82.011719 76.316406 81.144531 76.316406 L 80.78125 74.945312 C 80.285156 76.351562 79.460938 77.523438 78.351562 78.507812 C 77.015625 79.71875 79 81.699219 80.328125 80.492188 C 81.789062 79.167969 82.816406 77.539062 83.472656 75.683594 C 83.621094 75.25 83.464844 74.625 83.109375 74.316406 C 82.074219 73.417969 80.972656 73.730469 79.957031 74.484375 C 78.664062 75.433594 77.378906 76.421875 76.09375 77.390625 L 78.007812 79.308594 C 79.726562 76.679688 81.335938 73.96875 82.824219 71.195312 C 83.472656 69.988281 82.144531 68.539062 80.914062 69.277344 C 80 69.820312 79.089844 70.371094 78.183594 70.914062 C 77.757812 71.171875 77.335938 71.417969 76.910156 71.675781 C 76.671875 71.820312 76.421875 71.96875 76.183594 72.113281 C 75.882812 72.226562 75.933594 72.253906 76.359375 72.191406 L 77.050781 73.398438 C 77.085938 72.015625 78.105469 70.574219 78.679688 69.359375 C 79.363281 67.917969 80.054688 66.480469 80.734375 65.046875 C 80.9375 64.621094 81.035156 64.054688 80.734375 63.636719 C 79.929688 62.507812 78.75 62.550781 77.652344 63.253906 C 76.246094 64.152344 74.890625 65.144531 73.519531 66.085938 L 75.429688 68.007812 C 77.457031 64.871094 79.476562 61.726562 81.503906 58.589844 C 82.230469 57.460938 80.734375 55.816406 79.59375 56.667969 C 77.175781 58.472656 74.757812 60.269531 72.339844 62.070312 L 74.253906 63.992188 C 76.953125 59.851562 80.460938 56.359375 83.949219 52.894531 C 84.898438 51.953125 83.949219 50.066406 82.585938 50.546875 C 80.929688 51.132812 79.511719 52.066406 78.070312 53.054688 C 76.742188 53.960938 75.316406 55 73.675781 55.203125 L 74.882812 55.894531 C 74.722656 55.613281 75.945312 54.082031 76.085938 53.878906 C 76.597656 53.097656 77.121094 52.308594 77.636719 51.523438 C 78.671875 49.953125 79.707031 48.378906 80.746094 46.816406 C 81.515625 45.652344 79.992188 44.148438 78.832031 44.898438 C 76.625 46.328125 74.507812 47.875 72.464844 49.527344 L 74.800781 50.894531 C 75.085938 49.277344 76.164062 48.023438 77.09375 46.734375 L 80.292969 42.335938 C 80.699219 41.777344 80.433594 40.917969 79.929688 40.523438 C 79.335938 40.0625 78.652344 40.195312 78.097656 40.632812 C 76.191406 42.117188 74.289062 43.609375 72.382812 45.09375 L 74.582031 46.789062 C 76.316406 43.226562 78.761719 40.132812 81.25 37.070312 C 82.363281 35.691406 80.503906 33.726562 79.273438 35.085938 C 78.460938 35.976562 77.601562 36.820312 76.671875 37.585938 C 76.449219 37.761719 76.238281 37.941406 76.007812 38.109375 C 75.800781 38.257812 75.039062 38.542969 75.652344 38.640625 C 76.050781 38.710938 75.925781 38.675781 76.085938 38.296875 C 76.21875 37.984375 76.386719 37.683594 76.539062 37.378906 C 77.664062 35.203125 78.945312 33.125 80.363281 31.125 C 81.167969 29.988281 79.585938 28.441406 78.449219 29.207031 C 76.113281 30.785156 73.765625 32.367188 71.425781 33.960938 L 73.480469 35.539062 C 74.066406 33.507812 75.394531 31.84375 76.589844 30.136719 C 77.671875 28.601562 79.40625 26.449219 78.363281 24.523438 C 78.015625 23.890625 77.058594 23.597656 76.449219 24.015625 C 74.003906 25.695312 71.570312 27.382812 69.125 29.0625 L 71.039062 30.984375 C 72.304688 29.222656 73.5625 27.472656 74.828125 25.714844 C 75.953125 24.148438 77.191406 22.628906 77.722656 20.746094 C 78.078125 19.476562 76.722656 18.675781 75.667969 19.164062 C 73.234375 20.292969 71.003906 21.722656 68.914062 23.402344 L 71.25 24.773438 C 72.261719 21.820312 74.632812 19.664062 76.855469 17.59375 C 78.042969 16.492188 76.527344 14.617188 75.164062 15.390625 C 72.890625 16.675781 70.691406 18.089844 68.585938 19.636719 C 67.140625 20.695312 68.539062 23.128906 69.992188 22.0625 Z M 70 22.0625 "/>
<path style=" stroke:none;fill-rule:nonzero;fill:rgb(90.980393%,23.137255%,40.784314%);fill-opacity:1;" d="M 69.382812 60.648438 C 70.125 57.550781 72.136719 55.070312 74.136719 52.671875 C 75.304688 51.277344 73.554688 49.542969 72.164062 50.691406 C 68.273438 53.863281 64.378906 57.042969 60.488281 60.214844 L 62.6875 61.910156 C 64.625 58.472656 67.824219 55.996094 70.195312 52.875 C 71.207031 51.550781 69.125 50.175781 68 51.179688 C 64.519531 54.269531 61.296875 57.628906 58.328125 61.21875 L 60.304688 61.21875 C 60.394531 61.824219 60.507812 61.945312 60.660156 61.59375 C 60.765625 61.414062 60.871094 61.238281 60.976562 61.066406 C 61.199219 60.722656 61.421875 60.375 61.640625 60.027344 C 62.058594 59.398438 62.484375 58.773438 62.917969 58.152344 C 63.847656 56.847656 64.828125 55.601562 65.867188 54.386719 C 66.679688 53.425781 65.9375 51.507812 64.503906 52.039062 C 59.765625 53.828125 57.496094 58.347656 53.839844 61.519531 L 56.035156 63.21875 C 58.019531 60.207031 60.382812 57.496094 62.765625 54.804688 C 63.953125 53.460938 62.066406 51.523438 60.792969 52.820312 C 56.902344 56.75 53.6875 61.308594 51.316406 66.300781 C 50.640625 67.703125 52.308594 69.136719 53.511719 67.996094 C 54.246094 67.304688 54.980469 66.621094 55.714844 65.929688 L 56.664062 65.039062 L 57.292969 64.445312 C 57.664062 64.140625 57.726562 64.0625 57.480469 64.222656 L 56.488281 63.8125 L 56.65625 63.945312 L 56.292969 62.578125 C 55.300781 65.296875 54.308594 68.007812 53.324219 70.726562 C 52.847656 72.050781 54.75 73.097656 55.664062 72.09375 C 57.140625 70.46875 58.621094 68.832031 60.464844 67.617188 L 58.410156 66.035156 C 57.515625 69.003906 56.621094 71.980469 55.726562 74.945312 C 55.328125 76.261719 57.117188 77.34375 58.0625 76.316406 C 59.632812 74.589844 61.199219 72.875 62.773438 71.152344 L 60.578125 69.457031 C 59.808594 71.109375 59.046875 72.75 58.277344 74.402344 C 57.648438 75.761719 59.3125 77.34375 60.472656 76.101562 C 62.09375 74.359375 63.847656 72.75 65.742188 71.320312 L 63.632812 70.113281 C 63.742188 71.660156 63.359375 73.089844 62.941406 74.574219 C 62.589844 75.816406 63.945312 76.679688 64.996094 76.15625 C 66.421875 75.453125 67.707031 74.527344 68.867188 73.4375 L 66.476562 72.441406 C 66.433594 73.667969 65.777344 74.742188 65.289062 75.835938 C 64.777344 77 64.371094 78.164062 64.429688 79.449219 C 64.476562 80.410156 65.625 81.34375 66.539062 80.660156 C 68.824219 78.945312 71.109375 77.238281 73.402344 75.53125 L 71.347656 74.699219 C 71.667969 75.675781 71.789062 76.597656 71.730469 77.628906 C 71.667969 78.660156 72.667969 79.105469 73.5 78.980469 C 75.429688 78.695312 77.175781 77.761719 78.546875 76.375 C 79.8125 75.089844 77.839844 73.105469 76.574219 74.394531 C 75.511719 75.46875 74.253906 76.066406 72.757812 76.277344 L 74.527344 77.628906 C 74.597656 76.375 74.4375 75.140625 74.050781 73.949219 C 73.792969 73.179688 72.765625 72.539062 71.996094 73.117188 C 69.710938 74.820312 67.414062 76.527344 65.128906 78.242188 L 67.238281 79.449219 C 67.183594 78.207031 67.769531 77.160156 68.273438 76.066406 C 68.816406 74.894531 69.238281 73.746094 69.292969 72.441406 C 69.347656 71.132812 67.753906 70.644531 66.902344 71.445312 C 65.910156 72.386719 64.820312 73.125 63.597656 73.730469 L 65.652344 75.308594 C 66.140625 73.605469 66.566406 71.890625 66.441406 70.105469 C 66.378906 69.160156 65.253906 68.195312 64.332031 68.894531 C 62.242188 70.476562 60.285156 72.199219 58.496094 74.121094 L 60.695312 75.816406 C 61.464844 74.164062 62.226562 72.519531 62.996094 70.867188 C 63.625 69.515625 61.953125 67.910156 60.800781 69.171875 C 59.234375 70.894531 57.664062 72.609375 56.089844 74.332031 L 58.425781 75.703125 C 59.320312 72.734375 60.214844 69.757812 61.109375 66.789062 C 61.457031 65.652344 60.082031 64.53125 59.054688 65.207031 C 57 66.558594 55.328125 68.308594 53.6875 70.121094 L 56.027344 71.488281 C 57.019531 68.769531 58.011719 66.0625 58.992188 63.34375 C 59.144531 62.925781 58.992188 62.257812 58.628906 61.972656 C 57.425781 61.015625 56.34375 61.53125 55.316406 62.472656 C 54.050781 63.644531 52.804688 64.835938 51.546875 66.015625 L 53.742188 67.714844 C 56.019531 62.914062 59.046875 58.570312 62.785156 54.804688 L 60.808594 52.820312 C 58.265625 55.691406 55.742188 58.589844 53.636719 61.804688 C 52.714844 63.199219 54.6875 64.496094 55.832031 63.503906 C 59.003906 60.746094 61.164062 56.277344 65.253906 54.742188 L 63.890625 52.394531 C 62.394531 54.15625 60.976562 55.996094 59.683594 57.921875 C 58.71875 59.351562 56.753906 61.566406 58.328125 63.199219 C 58.816406 63.707031 59.835938 63.777344 60.304688 63.199219 C 63.269531 59.609375 66.496094 56.25 69.976562 53.160156 L 67.777344 51.460938 C 65.394531 54.589844 62.226562 57.023438 60.269531 60.5 C 59.445312 61.957031 61.277344 63.171875 62.464844 62.195312 C 66.351562 59.023438 70.25 55.84375 74.136719 52.671875 L 72.164062 50.691406 C 69.851562 53.453125 67.539062 56.324219 66.691406 59.902344 C 66.273438 61.664062 68.964844 62.410156 69.390625 60.648438 Z M 69.382812 60.648438 "/>
</g>
</svg>
