<?xml version="1.0" encoding="UTF-8"?>
<svg id="Capa_1" xmlns="http://www.w3.org/2000/svg" viewBox="0 0 112.69 106.92">
  <defs>
    <style>
      .cls-1 {
        fill: #e83b68;
      }

      .cls-2 {
        fill: #450c21;
      }
    </style>
  </defs>
  <g>
    <path class="cls-2" d="M88.62,100.16c-21.86.42-43.75-3.36-65.68-3.55-8.12-.07-16.31-.67-19.1-9.6-1.1-3.51-1.14-7.26-1.17-10.94-.1-11.33-.2-22.66-.31-34-.07-7.2-.12-14.46,1.33-21.51C4.89,14.69,7.72,5.61,13.22,2.27c6.6-4.01,15-.64,22.04-.64,5.29,0,10.65-.35,15.95-.52,10.04-.33,20.08-.68,30.12-1.03,6.62-.23,13.81-.3,19.15,3.63,5.56,4.1,7.56,11.42,8.62,18.25,1.77,11.43,1.94,23.05,1.69,34.62-.24,11.19-.88,22.38-1.9,33.53-.19,2.11-.44,4.33-1.69,6.04-1.92,2.64-5.55,3.25-8.81,3.52-3.25.27-6.51.43-9.77.49Z"/>
    <path class="cls-1" d="M25.25,18.91c2.89-.27,5.79-.47,8.7-.61,1.37-.07,2.74-.12,4.11-.16s2.96-.34,4.24-.05c.94.21.84,1.68.95,2.5.2,1.48.4,2.97.58,4.46.36,2.93.67,5.86.95,8.8,1.09,11.59,1.53,23.24,1.33,34.88-.11,6.56-.43,13.11-.95,19.65l1.16-1.52c-5.97.9-12.1.95-18.09.14l1.1,1.1c-3.33-8.33-2.86-17.32-1.98-26.08.46-4.53,1.03-9.05,1.31-13.6s.1-9.24-.36-13.86c-.55-5.5-1.29-10.99-1.17-16.52.04-2.03-3.12-2.03-3.16,0-.2,9.72,2.06,19.29,1.6,29.03-.43,9.11-2.24,18.14-2.03,27.28.12,4.98.89,9.95,2.74,14.6.19.47.54,1.03,1.1,1.1,6.6.89,13.19.85,19.77-.14.71-.11,1.11-.89,1.16-1.52.98-12.42,1.24-24.9.76-37.35-.24-6.14-.66-12.28-1.26-18.4-.3-3.02-.63-6.03-1.02-9.04-.19-1.52-.39-3.04-.61-4.56-.16-1.09-.4-2.21-1.19-3.03-1.14-1.16-2.78-1.09-4.28-1.07-1.61.02-3.23.07-4.84.13-3.55.14-7.1.37-10.63.7-2.01.18-2.03,3.34,0,3.16h0Z"/>
  </g>
  <path class="cls-1" d="M74.65,18.15l10.81-.26c.37,0,1.65-.24,1.87,0,.34.37.32,1.83.4,2.28.29,1.77.56,3.54.81,5.31.97,6.87,1.62,13.77,2.13,20.69s.85,13.8,1.15,20.71c.16,3.51.3,7.03.46,10.54.07,1.73.15,3.46.22,5.18.04.82.07,1.65.11,2.47.04.87.36,2.15.13,2.96-.33,1.16.14.21-.04.41s-.78.29-1,.36c-.73.22-1.46.42-2.2.6-1.64.4-3.31.7-5,.87-3.2.33-6.47.31-9.66-.13-4.99-.69-11.07-2.43-13.75-7.11-3.06-5.35.17-12.1,2.97-16.84,3.04-5.14,7.53-8.81,13.44-10.09,1.48-.32,3.26-.14,4.62-.82s1.92-2.03,1.91-3.48c0-1.75-.48-3.55-.76-5.27-.31-1.93-.64-3.87-.97-5.8-1.34-7.73-2.85-15.42-4.53-23.08-.43-1.98-3.48-1.14-3.05.84,1.61,7.34,3.07,14.71,4.36,22.12.62,3.57,1.51,7.25,1.77,10.86.05.67.1.97-.58,1.08s-1.34.13-2,.22c-1.62.23-3.2.63-4.73,1.21-6.13,2.32-10.31,6.91-13.32,12.61-2.9,5.51-5.25,12.56-1.68,18.33,3.05,4.94,9.08,7.21,14.56,8.12,3.47.58,6.99.76,10.49.47s6.91-.78,10.03-2.04c1.37-.55,2.23-1.54,2.29-3.06.08-1.91-.16-3.9-.24-5.82-.16-3.78-.32-7.56-.49-11.33-.32-7.48-.65-14.95-1.16-22.42-.56-8.25-1.33-16.5-2.5-24.69-.3-2.09-.61-4.19-.98-6.27-.33-1.87-1.19-3.09-3.23-3.19s-4.19.09-6.27.14l-6.39.15c-2.03.05-2.04,3.21,0,3.16h0Z"/>
  <path class="cls-1" d="M79.79,65.93c-2.39.11-4.72,1.01-6.42,2.71s-2.66,4.31-2.71,6.81.99,4.62,3.17,5.74c2.35,1.2,5.21,1.59,7.79,1.96.82.12,1.73-.19,1.94-1.1.34-1.45.1-2.83-.17-4.27-.24-1.27-.48-2.55-.72-3.82-.5-2.64-1-5.29-1.5-7.93-.16-.84-1.17-1.32-1.94-1.1-.88.24-1.26,1.1-1.1,1.94.46,2.45.93,4.9,1.39,7.34.22,1.17.44,2.35.67,3.52.21,1.11.6,2.34.33,3.47l1.94-1.1c-2.14-.3-4.34-.67-6.39-1.37-1.5-.51-2.24-1.51-2.26-3.08-.01-1.66.48-3.4,1.63-4.63s2.7-1.87,4.34-1.94c2.02-.09,2.04-3.25,0-3.16h0Z"/>
  <path class="cls-1" d="M28.71,24.99c1.89-2.23,4.28-3.81,7.1-4.6l-1.54-2.64c-1.95,2.13-3.9,4.3-5.32,6.82s-2.37,5.27-3.31,8c-.53,1.53,1.57,2.6,2.64,1.54,4.37-4.35,8.9-8.6,14.54-11.26l-1.91-2.48c-5.71,5.97-11.43,12.02-15.74,19.12-.98,1.61,1.17,3.03,2.48,1.91,2.79-2.37,5.58-4.74,8.38-7.1,1.4-1.18,2.79-2.37,4.19-3.55.63-.54,1.26-1.08,1.9-1.61.31-.25.54-.4.85-.62.26-.19.37,0,.2-.18v-2.23c-5.26,5.77-10.48,11.66-13.49,18.96-.61,1.49,1.63,2.63,2.64,1.54,3.8-4.11,7.93-7.93,12.37-11.35l-2.16-2.16c-1.99,3.41-4.81,6.35-7.33,9.37s-5.27,6.31-7.9,9.47c-1.29,1.55.71,3.63,2.23,2.23,5.29-4.86,10.69-9.75,17.38-12.6l-2.16-2.16c-4.95,6.55-9.57,13.34-13.83,20.36-.91,1.49,1.31,3.32,2.48,1.91,3.73-4.51,7.56-8.93,11.48-13.28,1.36-1.5-.78-3.67-2.23-2.23-4.98,4.94-9.96,9.87-14.95,14.81l2.48,1.91c2.87-3.72,6.14-7.13,9.68-10.23l-2.23-2.23c-4.98,4.75-9.75,9.7-14.32,14.85-.5.56-.58,1.25-.25,1.91,1.23,2.47,3.97.08,5.26-.89,2.2-1.64,4.4-3.28,6.6-4.93,4.33-3.23,8.66-6.47,13-9.7l-1.91-2.48c-2.87,3.43-5.75,6.85-8.62,10.29-2.56,3.06-5.09,6.17-6.81,9.78-.77,1.62,1.09,3.12,2.48,1.91,4.25-3.71,8.37-7.55,12.37-11.52,1.45-1.44-.74-3.61-2.23-2.23-4.89,4.52-9.77,9.07-13.99,14.25-1.26,1.55.85,3.77,2.23,2.23,3.22-3.57,6.85-6.7,10.88-9.32l-2.38-1.36c.11,1.22-.69,2.14-1.42,3.04-.91,1.12-1.84,2.22-2.79,3.31-1.89,2.18-3.83,4.32-5.77,6.46-1.38,1.52.69,3.53,2.23,2.23,4.76-4,9.52-8,14.28-12l-2.48-1.91c-1.54,3.35-4.51,6.02-6.92,8.75-2.71,3.06-5.42,6.12-8.13,9.18-1.34,1.51.77,3.67,2.23,2.23,4.47-4.4,9.57-8.04,15.18-10.84l-1.91-2.48c-2.01,2.24-4.01,4.48-6.02,6.72-.98,1.09-1.95,2.18-2.93,3.27-.91,1.02-1.8,1.99-1.74,3.44.04,1.08,1.36,2.12,2.38,1.36,2.75-2.03,5.58-3.96,8.49-5.77l-2.38-1.36c.06,1.76-.31,3.37-1.16,4.92s1.23,3.26,2.48,1.91,2.55-2.47,4.04-3.47l-2.16-2.16c-.79,1.16-1.57,2.31-2.36,3.47-1.15,1.69,1.59,3.27,2.73,1.59.79-1.16,1.57-2.31,2.36-3.47.88-1.29-.87-3.03-2.16-2.16-1.71,1.15-3.27,2.46-4.68,3.96l2.48,1.91c1.12-2.01,1.67-4.21,1.59-6.51-.04-1.16-1.32-2.02-2.38-1.36-2.9,1.81-5.73,3.73-8.49,5.77l2.38,1.36c-.02-.53.66-1.03.98-1.39l1.3-1.45c.81-.91,1.63-1.82,2.44-2.72,1.68-1.88,3.36-3.75,5.04-5.63,1.21-1.35-.3-3.29-1.91-2.48-5.84,2.92-11.18,6.75-15.82,11.33l2.23,2.23c2.82-3.18,5.64-6.37,8.46-9.55,2.48-2.8,5.51-5.57,7.09-9.02.75-1.64-1.07-3.1-2.48-1.91-4.76,4-9.52,8-14.28,12l2.23,2.23c2.26-2.49,4.53-4.99,6.71-7.56,1.76-2.06,4.47-4.53,4.19-7.49-.1-1.11-1.29-2.07-2.38-1.36-4.25,2.77-8.13,6.05-11.52,9.82l2.23,2.23c4.22-5.17,9.1-9.72,13.99-14.25l-2.23-2.23c-4,3.98-8.12,7.82-12.37,11.52l2.48,1.91c1.68-3.52,4.12-6.52,6.6-9.48,2.78-3.32,5.56-6.63,8.33-9.95,1.06-1.26-.37-3.63-1.91-2.48-3.67,2.74-7.33,5.47-11,8.21-1.8,1.34-3.6,2.69-5.4,4.03-.93.7-1.87,1.39-2.8,2.09-.4.3-.8.6-1.2.9-.27.2-.53.4-.8.6-.49.23-.55.34-.19.31l.94.73-.1-.2-.25,1.91c4.57-5.14,9.34-10.1,14.32-14.85,1.48-1.42-.72-3.56-2.23-2.23-3.76,3.28-7.13,6.92-10.17,10.87-1.12,1.45,1.24,3.14,2.48,1.91,4.98-4.94,9.96-9.87,14.95-14.81l-2.23-2.23c-3.92,4.34-7.75,8.77-11.48,13.28l2.48,1.91c4.26-7.02,8.88-13.81,13.83-20.36.42-.55.21-1.46-.25-1.91-.54-.54-1.26-.53-1.91-.25-6.92,2.94-12.55,8.06-18.02,13.09l2.23,2.23c2.74-3.28,5.48-6.57,8.22-9.85,2.59-3.1,5.47-6.13,7.51-9.63.73-1.26-.85-3.17-2.16-2.16-4.66,3.59-9.01,7.53-13.01,11.85l2.64,1.54c2.79-6.75,7.82-12.24,12.68-17.57.59-.65.6-1.58,0-2.23-1.18-1.28-2.96-1-4.31-.14-1.81,1.14-3.39,2.8-5.02,4.18-3.55,3.01-7.11,6.03-10.66,9.04l2.48,1.91c4.17-6.87,9.72-12.7,15.25-18.48,1.29-1.35-.33-3.23-1.91-2.48-5.86,2.76-10.63,7.23-15.18,11.75l2.64,1.54c.85-2.47,1.7-4.95,2.99-7.24s3.05-4.25,4.82-6.19c1.04-1.13.03-3.08-1.54-2.64-3.31.93-6.27,2.79-8.5,5.41-1.31,1.54.92,3.79,2.23,2.23h0Z"/>
  <path class="cls-1" d="M28.23,71.38c3.49-3.92,7.32-7.51,11.46-10.74.67-.53.55-1.68,0-2.23-.66-.66-1.56-.53-2.23,0-4.13,3.23-7.97,6.82-11.46,10.74-.57.64-.63,1.61,0,2.23.58.58,1.66.64,2.23,0h0Z"/>
  <path class="cls-1" d="M78.93,24.83c2.38-1.74,4.86-3.33,7.43-4.78l-1.91-2.48c-2.95,2.73-5.8,5.59-7.14,9.47-.57,1.65,1.53,2.42,2.64,1.54,2.14-1.72,4.5-3.13,6.99-4.28l-2.32-1.78c-.55,1.96-2.06,3.61-3.23,5.23-1.33,1.84-2.66,3.69-3.99,5.53-.92,1.27.89,3.03,2.16,2.16,2.76-1.89,5.51-3.79,8.27-5.68l-2.16-.57c.1.17-1.26,2.06-1.45,2.34-.54.8-1.12,1.58-1.67,2.37-1.14,1.63-2.15,3.33-2.7,5.25-.37,1.27,1.16,2.57,2.32,1.78,2.64-1.78,5.29-3.56,7.93-5.35l-2.16-2.16c-1.24,1.75-2.4,3.55-3.45,5.42-.9,1.61-2.45,3.78-1.84,5.72,1.58,5.02,7.38-1.08,9.01-2.86l-2.23-2.23c-2.97,3.65-5.95,7.33-8.02,11.58-.82,1.68,1.08,3.01,2.48,1.91,2.15-1.67,4.3-3.35,6.45-5.02l-2.48-1.91-3.9,5.35c-1.13,1.55-2.29,3.11-2.62,5.04-.28,1.6,1.39,2.55,2.64,1.54,2.1-1.69,4.29-3.26,6.55-4.72l-2.16-2.16c-1.53,2.31-3.06,4.62-4.59,6.94-1.24,1.87-3.36,4.15-2.04,6.48.25.44.84.85,1.36.78,2.09-.26,3.9-1.09,5.65-2.24s3.32-2.43,5.25-3.11l-1.54-2.64c-4.14,4.09-8.25,8.24-11.44,13.13-.83,1.27.88,3.11,2.16,2.16,2.73-2.03,5.46-4.05,8.19-6.08l-2.16-2.16c-2.29,3.53-4.57,7.07-6.86,10.6-.84,1.3.85,3.05,2.16,2.16l2.64-1.8,1.22-.83.61-.42c.5-.22.56-.31.17-.3l-.94-.73.13.18v-1.59c-.91,1.91-1.83,3.82-2.74,5.74-.74,1.55-2.01,3.46-1.85,5.27.18,2.01,2.4,1.99,3.77,1.27,1.83-.96,3.57-2.13,5.34-3.19l-2.16-2.16c-1.68,3.12-3.5,6.16-5.44,9.13-.83,1.27.88,3.12,2.16,2.16.93-.69,1.85-1.39,2.78-2.08l1.19-.89.79-.59c.53-.25.31-.38-.67-.38l-.41-1.54c-.56,1.58-1.49,2.9-2.74,4.01-1.51,1.36.73,3.59,2.23,2.23,1.65-1.49,2.81-3.32,3.55-5.41.17-.49-.01-1.19-.41-1.54-1.17-1.01-2.41-.66-3.56.19-1.46,1.07-2.91,2.18-4.36,3.27l2.16,2.16c1.94-2.96,3.76-6.01,5.44-9.13.73-1.36-.77-2.99-2.16-2.16-1.03.61-2.06,1.23-3.08,1.84-.48.29-.96.57-1.44.86-.27.16-.55.33-.82.49-.34.13-.28.16.2.09l.78,1.36c.04-1.56,1.19-3.18,1.84-4.55.77-1.62,1.55-3.24,2.32-4.85.23-.48.34-1.12,0-1.59-.91-1.27-2.24-1.22-3.48-.43-1.59,1.01-3.12,2.13-4.67,3.19l2.16,2.16c2.29-3.53,4.57-7.07,6.86-10.6.82-1.27-.87-3.12-2.16-2.16-2.73,2.03-5.46,4.05-8.19,6.08l2.16,2.16c3.05-4.66,7.01-8.59,10.95-12.49,1.07-1.06,0-3.18-1.54-2.64-1.87.66-3.47,1.71-5.1,2.82-1.5,1.02-3.11,2.19-4.96,2.42l1.36.78c-.18-.32,1.2-2.04,1.36-2.27.58-.88,1.17-1.77,1.75-2.65,1.17-1.77,2.34-3.54,3.51-5.3.87-1.31-.85-3-2.16-2.16-2.49,1.61-4.88,3.35-7.19,5.21l2.64,1.54c.32-1.82,1.54-3.23,2.59-4.68l3.61-4.95c.46-.63.16-1.6-.41-2.04-.67-.52-1.44-.37-2.07.12-2.15,1.67-4.3,3.35-6.45,5.02l2.48,1.91c1.96-4.01,4.72-7.49,7.53-10.94,1.26-1.55-.84-3.76-2.23-2.23-.92,1-1.89,1.95-2.94,2.81-.25.2-.49.4-.75.59-.23.17-1.09.49-.4.6.45.08.31.04.49-.39.15-.35.34-.69.51-1.03,1.27-2.45,2.72-4.79,4.32-7.04.91-1.28-.88-3.02-2.16-2.16-2.64,1.78-5.29,3.56-7.93,5.35l2.32,1.78c.66-2.29,2.16-4.16,3.51-6.08,1.22-1.73,3.18-4.15,2-6.32-.39-.71-1.47-1.04-2.16-.57-2.76,1.89-5.51,3.79-8.27,5.68l2.16,2.16c1.43-1.98,2.85-3.95,4.28-5.93,1.27-1.76,2.67-3.47,3.27-5.59.4-1.43-1.13-2.33-2.32-1.78-2.75,1.27-5.27,2.88-7.63,4.77l2.64,1.54c1.14-3.32,3.82-5.75,6.33-8.08,1.34-1.24-.37-3.35-1.91-2.48-2.57,1.45-5.05,3.04-7.43,4.78-1.63,1.19-.05,3.93,1.59,2.73h0Z"/>
  <path class="cls-1" d="M78.23,68.26c.84-3.49,3.11-6.28,5.37-8.98,1.32-1.57-.66-3.52-2.23-2.23-4.39,3.57-8.79,7.15-13.18,10.72l2.48,1.91c2.19-3.87,5.8-6.66,8.48-10.17,1.14-1.49-1.21-3.04-2.48-1.91-3.93,3.48-7.57,7.26-10.92,11.3h2.23c.1.68.23.82.4.42.12-.2.24-.4.36-.59.25-.39.5-.78.75-1.17.47-.71.95-1.41,1.44-2.11,1.05-1.47,2.16-2.87,3.33-4.24.92-1.08.08-3.24-1.54-2.64-5.35,2.01-7.91,7.1-12.04,10.67l2.48,1.91c2.24-3.39,4.91-6.44,7.6-9.47,1.34-1.51-.79-3.69-2.23-2.23-4.39,4.42-8.02,9.55-10.7,15.17-.76,1.58,1.12,3.19,2.48,1.91.83-.78,1.66-1.55,2.49-2.33l1.07-1,.71-.67c.42-.34.49-.43.21-.25l-1.12-.46.19.15-.41-1.54c-1.12,3.06-2.24,6.11-3.35,9.17-.54,1.49,1.61,2.67,2.64,1.54,1.67-1.83,3.34-3.67,5.42-5.04l-2.32-1.78c-1.01,3.34-2.02,6.69-3.03,10.03-.45,1.48,1.57,2.7,2.64,1.54,1.77-1.94,3.54-3.87,5.32-5.81l-2.48-1.91c-.87,1.86-1.73,3.71-2.6,5.57-.71,1.53,1.17,3.31,2.48,1.91,1.83-1.96,3.81-3.77,5.95-5.38l-2.38-1.36c.12,1.74-.31,3.35-.78,5.02-.4,1.4,1.13,2.37,2.32,1.78,1.61-.79,3.06-1.83,4.37-3.06l-2.7-1.12c-.05,1.38-.79,2.59-1.34,3.82-.58,1.31-1.04,2.62-.97,4.07.05,1.08,1.35,2.13,2.38,1.36,2.58-1.93,5.16-3.85,7.75-5.77l-2.32-.94c.36,1.1.5,2.14.43,3.3s1.06,1.66,2,1.52c2.18-.32,4.15-1.37,5.7-2.93,1.43-1.45-.8-3.68-2.23-2.23-1.2,1.21-2.62,1.88-4.31,2.12l2,1.52c.08-1.41-.1-2.8-.54-4.14-.29-.87-1.45-1.59-2.32-.94-2.58,1.92-5.17,3.84-7.75,5.77l2.38,1.36c-.06-1.4.6-2.58,1.17-3.81.61-1.32,1.09-2.61,1.15-4.08s-1.74-2.02-2.7-1.12c-1.12,1.06-2.35,1.89-3.73,2.57l2.32,1.78c.55-1.92,1.03-3.85.89-5.86-.07-1.06-1.34-2.15-2.38-1.36-2.36,1.78-4.57,3.72-6.59,5.88l2.48,1.91c.87-1.86,1.73-3.71,2.6-5.57.71-1.52-1.18-3.33-2.48-1.91-1.77,1.94-3.54,3.87-5.32,5.81l2.64,1.54c1.01-3.34,2.02-6.69,3.03-10.03.39-1.28-1.16-2.54-2.32-1.78-2.32,1.52-4.21,3.49-6.06,5.53l2.64,1.54c1.12-3.06,2.24-6.11,3.35-9.17.17-.47,0-1.22-.41-1.54-1.36-1.08-2.58-.5-3.74.56-1.43,1.32-2.84,2.66-4.26,3.99l2.48,1.91c2.57-5.4,5.99-10.29,10.21-14.53l-2.23-2.23c-2.87,3.23-5.72,6.49-8.1,10.11-1.04,1.57,1.19,3.03,2.48,1.91,3.58-3.1,6.02-8.13,10.64-9.86l-1.54-2.64c-1.69,1.98-3.29,4.05-4.75,6.22-1.09,1.61-3.31,4.1-1.53,5.94.55.57,1.7.65,2.23,0,3.35-4.04,6.99-7.82,10.92-11.3l-2.48-1.91c-2.69,3.52-6.27,6.26-8.48,10.17-.93,1.64,1.14,3.01,2.48,1.91,4.39-3.57,8.79-7.15,13.18-10.72l-2.23-2.23c-2.61,3.11-5.22,6.34-6.18,10.37-.47,1.98,2.57,2.82,3.05.84h0Z"/>
</svg>