<?xml version="1.0" encoding="UTF-8"?>
<svg id="Capa_1" xmlns="http://www.w3.org/2000/svg" viewBox="0 0 34.57 34.48">
  <defs>
    <style>
      .cls-1 {
        fill: #fff;
      }
    </style>
  </defs>
  <path class="cls-1" d="M4.68,2.39l12.17-.39,5.71-.18c1.7-.05,3.45-.19,5.14.07,1.56.24,3.02.87,3.91,2.23s1.09,3.15,1.16,4.77c.16,3.68.06,7.39.08,11.07.02,3.4.23,7.34-2.58,9.79s-7,2.51-10.6,2.61c-3.91.11-7.82.23-11.74.34-1.49.04-3.82.53-5.05-.5-1.59-1.33-1.19-3.88-1.05-5.69.35-4.47.7-8.93,1.04-13.4.17-2.15.33-4.3.5-6.45.12-1.59.41-5.35,2.95-4.56,1.05.33,1.5-1.32.45-1.65C5.34,0,3.85.61,2.94,1.79c-1.16,1.5-1.16,3.55-1.3,5.36-.37,4.8-.75,9.59-1.12,14.39C.33,23.88.03,26.24,0,28.59c-.02,1.74.35,3.58,1.68,4.81s3.29,1.08,5.04,1.03c2.36-.07,4.73-.14,7.09-.21,7.21-.21,18.77.94,20.46-8.52.34-1.9.3-3.84.29-5.76-.01-2.4-.02-4.8-.04-7.2-.02-3.33.34-7.32-1.88-10.09C29.95-.72,24.86.04,21.07.16L4.68.68c-1.1.04-1.1,1.74,0,1.71h0Z"/>
  <path class="cls-1" d="M18.59,9.65c-1.74-.35-3.34.39-4.54,1.64s-2.24,2.76-2.96,4.28-1.06,3.29-.39,4.89c.64,1.52,2.14,2.54,3.49,3.39s3.05,1.57,4.75,1.36c1.49-.18,2.78-1.03,3.72-2.17,1.9-2.31,2.59-5.6,1.89-8.5-.86-3.55-4.05-6.03-7.71-5.96-1.1.02-1.1,1.73,0,1.71,2.44-.04,4.71,1.32,5.69,3.58.91,2.08.73,4.65-.27,6.67-.51,1.02-1.23,1.98-2.23,2.56-1.1.63-2.36.53-3.5.06s-2.39-1.29-3.34-2.15c-1.01-.92-1.34-2.11-1.02-3.44.37-1.52,1.38-2.86,2.29-4.09.85-1.15,2.11-2.48,3.68-2.17,1.07.22,1.53-1.43.45-1.65h0Z"/>
  <path class="cls-1" d="M25.13,5.84c-.35.86-.65,1.79-.41,2.72.2.77.86,1.48,1.65,1.66,1.98.46,3.04-2.18,2.42-3.74-.3-.77-.96-1.39-1.8-1.53-.48-.08-.94-.04-1.37.19-.39.2-.69.54-.92.91-.19.32-.37.7-.46,1.06-.15.6,0,1.26.55,1.6.47.3,1.02.2,1.5-.01.33-.15.68-.38.91-.66s.38-.57.4-.92-.12-.69-.35-.93c-.52-.56-1.47-.47-1.84.22-.24.44-.27,1.01-.23,1.5.05.57.19,1.07.42,1.59.15.34.63.49.96.39.46-.13.81-.49.94-.94.14-.48,0-.94-.3-1.31-.28-.35-.92-.32-1.21,0-.34.37-.3.84,0,1.21l-.09-.11c.03.05.02.04-.01-.03-.07-.17,0,.08-.03-.11,0-.09-.01-.1,0-.04v.04s.06-.25,0-.1c-.03.09.08-.19.04-.1-.05.12.03-.03.06-.07-.07.08.07-.05.09-.06-.12.08.2-.06.07-.03l.96.39c-.04-.08,0-.07.01.04,0-.02-.02-.06-.03-.08-.02-.07-.05-.13-.07-.2-.04-.14-.07-.29-.1-.44-.02-.09.01.08,0,.08,0-.03,0-.06,0-.09,0-.07-.01-.14-.01-.21,0-.15,0-.3.02-.45,0-.1-.01.08-.01.08,0-.03.01-.06.02-.09,0-.02.01-.05.02-.07.02-.1-.09.16-.03.08.05-.08-.08.09-.07.08-.1.1-.27.17-.41.17-.19-.01-.37-.09-.47-.26.07.12-.05-.18-.02-.04-.03-.11-.02-.18,0-.28,0,.03-.04.11.01-.01s0-.03-.01,0c-.03.07.06-.07.06-.08-.05.03-.1.1-.14.14-.11.1.16-.11,0,0-.05.03-.09.06-.14.09-.04.03-.08.05-.13.07-.02,0-.07.03-.09.04.02-.02.18-.06.07-.03-.04.01-.23.05-.07.03.15-.02.04,0,0,0-.09-.01.14.02.12.02-.06-.01-.11-.06.09.04-.03-.02-.08-.06.02.02.05.04.1.08.13.14.04.12.06.15.04.09-.01-.04-.01-.03,0,.04.02.13,0,.04,0,.01-.01.22-.02.13,0,.07.01-.05.03-.11.04-.16.02-.06.04-.12.07-.18.04-.1-.07.16-.03.06.01-.03.03-.06.04-.09.05-.11.1-.22.16-.32.03-.05.06-.1.1-.15.01-.02.07-.1,0,0-.09.11,0,0,.03-.03.04-.04.08-.08.13-.12.06-.06-.07.06-.07.06,0,0,.09-.05.09-.05.02-.01.05-.02.06-.03.05-.05-.09.04-.1.04.05,0,.12-.04.17-.05.08-.02.07.04-.1.01.02,0,.05,0,.07,0,.05,0,.1,0,.16,0,.14,0-.21-.05-.03,0,.06.02.12.04.17.05.08.02-.1-.04-.1-.04.02.02.06.03.08.04.04.02.08.04.12.07.01,0,.06.05.08.05,0,0-.14-.12-.08-.06.05.04.09.08.13.13.02.02.04.05.06.07.06.06-.06-.09-.06-.08.01.05.06.1.09.14.01.02.03.05.04.07.04.07,0,.09-.02-.06,0,.07.05.14.07.21.01.05.02.11.03.16-.06-.15-.01-.14-.01-.07,0,.03,0,.05,0,.08,0,.06,0,.13,0,.19,0,.04,0,.07,0,.11,0,.13,0-.04.01-.06-.03.03-.03.14-.04.19-.01.06-.03.13-.05.19s-.04.12-.06.18c-.03.09.03-.08.03-.08,0,0-.05.12-.06.12-.05.1-.14.2-.18.3,0-.02.13-.15.04-.05-.02.02-.04.04-.05.06-.01.01-.05.04-.06.05.1-.07.12-.09.07-.05-.01.01-.03.02-.04.03-.02.01-.05.02-.07.04.1-.1.17-.06.08-.03-.04,0-.22.05-.06.02s-.02,0-.06,0c-.03,0-.12-.01.03,0,.16.02.02,0-.01-.01-.02,0-.04-.01-.06-.02-.1-.03-.05-.08.06.03-.04-.03-.11-.07-.16-.09-.11-.06.14.13,0,0-.05-.04-.09-.08-.13-.13-.13-.14.09.14-.01-.01-.03-.05-.07-.11-.09-.16-.09-.17.05.17,0-.01-.02-.07-.03-.14-.05-.2-.03-.12,0,.16,0,.04,0-.04,0-.08,0-.12,0-.08,0-.17,0-.25,0-.03.01-.17,0-.04s0-.02.01-.04c.02-.08.04-.17.06-.25.09-.34.22-.67.36-1,.08-.19.01-.49-.09-.66s-.31-.35-.51-.39c-.22-.05-.46-.04-.66.09s-.3.29-.39.51h0Z"/>
</svg>