<?xml version="1.0" encoding="UTF-8"?>
<svg xmlns="http://www.w3.org/2000/svg" xmlns:xlink="http://www.w3.org/1999/xlink" width="40px" height="40px" viewBox="0 0 40 40" version="1.1">
<g id="surface1">
<path style=" stroke:none;fill-rule:nonzero;fill:rgb(100%,100%,100%);fill-opacity:1;" d="M 5.792969 2.773438 L 19.511719 2.320312 L 25.945312 2.113281 C 27.859375 2.054688 29.832031 1.890625 31.738281 2.191406 C 33.496094 2.472656 35.140625 3.203125 36.144531 4.78125 C 37.148438 6.355469 37.371094 8.433594 37.449219 10.3125 C 37.632812 14.582031 37.519531 18.886719 37.539062 23.15625 C 37.5625 27.101562 37.800781 31.671875 34.632812 34.511719 C 31.464844 37.355469 26.746094 37.425781 22.6875 37.539062 C 18.28125 37.667969 13.875 37.808594 9.457031 37.933594 C 7.777344 37.980469 5.152344 38.550781 3.765625 37.355469 C 1.972656 35.8125 2.425781 32.855469 2.582031 30.753906 C 2.976562 25.570312 3.371094 20.394531 3.753906 15.207031 C 3.945312 12.714844 4.125 10.21875 4.320312 7.726562 C 4.453125 5.882812 4.78125 1.519531 7.644531 2.4375 C 8.828125 2.820312 9.332031 0.90625 8.148438 0.523438 C 6.539062 0 4.859375 0.707031 3.832031 2.078125 C 2.527344 3.816406 2.527344 6.195312 2.367188 8.292969 C 1.953125 13.863281 1.523438 19.421875 1.105469 24.988281 C 0.894531 27.703125 0.554688 30.441406 0.519531 33.167969 C 0.5 35.1875 0.914062 37.320312 2.414062 38.746094 C 3.914062 40.175781 6.121094 40 8.09375 39.941406 C 10.753906 39.859375 13.425781 39.78125 16.082031 39.699219 C 24.210938 39.453125 37.238281 40.789062 39.140625 29.8125 C 39.523438 27.609375 39.480469 25.359375 39.46875 23.132812 C 39.457031 20.347656 39.445312 17.5625 39.421875 14.78125 C 39.402344 10.917969 39.804688 6.289062 37.304688 3.074219 C 34.273438 -0.835938 28.535156 0.046875 24.265625 0.1875 L 5.792969 0.789062 C 4.554688 0.835938 4.554688 2.808594 5.792969 2.773438 Z M 5.792969 2.773438 "/>
<path style=" stroke:none;fill-rule:nonzero;fill:rgb(100%,100%,100%);fill-opacity:1;" d="M 21.46875 11.195312 C 19.511719 10.789062 17.707031 11.648438 16.355469 13.097656 C 15.003906 14.546875 13.828125 16.300781 13.019531 18.0625 C 12.207031 19.824219 11.824219 21.878906 12.578125 23.734375 C 13.300781 25.5 14.992188 26.683594 16.511719 27.667969 C 18.035156 28.652344 19.949219 29.488281 21.863281 29.246094 C 23.542969 29.039062 24.996094 28.050781 26.058594 26.730469 C 28.199219 24.046875 28.976562 20.230469 28.1875 16.867188 C 27.21875 12.75 23.625 9.871094 19.5 9.953125 C 18.257812 9.976562 18.257812 11.960938 19.5 11.9375 C 22.25 11.890625 24.804688 13.46875 25.910156 16.089844 C 26.9375 18.503906 26.734375 21.484375 25.605469 23.828125 C 25.03125 25.011719 24.21875 26.125 23.09375 26.796875 C 21.855469 27.527344 20.433594 27.414062 19.148438 26.867188 C 17.863281 26.324219 16.457031 25.371094 15.386719 24.375 C 14.246094 23.304688 13.875 21.925781 14.234375 20.382812 C 14.652344 18.621094 15.789062 17.066406 16.816406 15.636719 C 17.773438 14.304688 19.195312 12.761719 20.964844 13.121094 C 22.167969 13.375 22.6875 11.460938 21.46875 11.207031 Z M 21.46875 11.195312 "/>
<path style=" stroke:none;fill-rule:nonzero;fill:rgb(100%,100%,100%);fill-opacity:1;" d="M 28.839844 6.773438 C 28.445312 7.773438 28.109375 8.851562 28.378906 9.929688 C 28.605469 10.824219 29.347656 11.648438 30.238281 11.855469 C 32.46875 12.390625 33.664062 9.328125 32.964844 7.515625 C 32.628906 6.625 31.882812 5.90625 30.9375 5.742188 C 30.394531 5.648438 29.878906 5.695312 29.394531 5.960938 C 28.953125 6.195312 28.617188 6.589844 28.355469 7.019531 C 28.140625 7.390625 27.9375 7.832031 27.839844 8.25 C 27.667969 8.945312 27.839844 9.710938 28.457031 10.105469 C 28.988281 10.453125 29.605469 10.335938 30.148438 10.09375 C 30.519531 9.917969 30.914062 9.652344 31.171875 9.328125 C 31.433594 9.003906 31.601562 8.664062 31.625 8.261719 C 31.648438 7.855469 31.488281 7.460938 31.230469 7.179688 C 30.644531 6.53125 29.574219 6.636719 29.15625 7.4375 C 28.886719 7.945312 28.851562 8.609375 28.898438 9.175781 C 28.953125 9.835938 29.113281 10.417969 29.371094 11.019531 C 29.539062 11.414062 30.082031 11.589844 30.453125 11.472656 C 30.972656 11.324219 31.367188 10.90625 31.511719 10.382812 C 31.667969 9.824219 31.511719 9.292969 31.171875 8.863281 C 30.859375 8.457031 30.136719 8.492188 29.808594 8.863281 C 29.425781 9.292969 29.472656 9.835938 29.808594 10.265625 L 29.707031 10.140625 C 29.742188 10.195312 29.730469 10.1875 29.699219 10.105469 C 29.617188 9.90625 29.699219 10.195312 29.664062 9.976562 C 29.664062 9.871094 29.652344 9.859375 29.664062 9.929688 L 29.664062 9.976562 C 29.664062 9.976562 29.730469 9.6875 29.664062 9.859375 C 29.628906 9.964844 29.753906 9.640625 29.707031 9.746094 C 29.652344 9.882812 29.742188 9.710938 29.777344 9.664062 C 29.699219 9.757812 29.855469 9.605469 29.878906 9.59375 C 29.742188 9.6875 30.101562 9.523438 29.957031 9.558594 L 31.039062 10.011719 C 30.992188 9.917969 31.039062 9.929688 31.050781 10.058594 C 31.050781 10.035156 31.027344 9.988281 31.015625 9.964844 C 30.992188 9.882812 30.960938 9.8125 30.9375 9.734375 C 30.890625 9.570312 30.859375 9.398438 30.824219 9.222656 C 30.800781 9.117188 30.835938 9.316406 30.824219 9.316406 C 30.824219 9.28125 30.824219 9.246094 30.824219 9.210938 C 30.824219 9.128906 30.8125 9.046875 30.8125 8.96875 C 30.8125 8.792969 30.8125 8.621094 30.835938 8.445312 C 30.835938 8.328125 30.824219 8.539062 30.824219 8.539062 C 30.824219 8.503906 30.835938 8.46875 30.847656 8.433594 C 30.847656 8.410156 30.859375 8.375 30.871094 8.351562 C 30.890625 8.238281 30.769531 8.539062 30.835938 8.445312 C 30.890625 8.351562 30.746094 8.550781 30.757812 8.539062 C 30.644531 8.652344 30.453125 8.734375 30.292969 8.734375 C 30.082031 8.722656 29.878906 8.632812 29.765625 8.433594 C 29.84375 8.574219 29.707031 8.226562 29.742188 8.386719 C 29.707031 8.261719 29.71875 8.179688 29.742188 8.0625 C 29.742188 8.097656 29.699219 8.191406 29.753906 8.050781 C 29.808594 7.910156 29.753906 8.015625 29.742188 8.050781 C 29.707031 8.132812 29.808594 7.96875 29.808594 7.957031 C 29.753906 7.992188 29.699219 8.074219 29.652344 8.121094 C 29.527344 8.238281 29.832031 7.992188 29.652344 8.121094 C 29.597656 8.15625 29.550781 8.191406 29.496094 8.226562 C 29.449219 8.261719 29.40625 8.28125 29.347656 8.304688 C 29.324219 8.304688 29.269531 8.339844 29.246094 8.351562 C 29.269531 8.328125 29.449219 8.28125 29.324219 8.316406 C 29.28125 8.328125 29.066406 8.375 29.246094 8.351562 C 29.414062 8.328125 29.292969 8.351562 29.246094 8.351562 C 29.144531 8.339844 29.40625 8.375 29.382812 8.375 C 29.3125 8.363281 29.257812 8.304688 29.484375 8.421875 C 29.449219 8.398438 29.394531 8.351562 29.503906 8.445312 C 29.5625 8.492188 29.617188 8.539062 29.652344 8.609375 C 29.699219 8.746094 29.71875 8.78125 29.699219 8.710938 C 29.6875 8.664062 29.6875 8.675781 29.699219 8.757812 C 29.71875 8.910156 29.699219 8.804688 29.699219 8.769531 C 29.6875 9.027344 29.675781 8.921875 29.699219 8.851562 C 29.707031 8.792969 29.730469 8.722656 29.742188 8.664062 C 29.765625 8.597656 29.789062 8.527344 29.820312 8.457031 C 29.867188 8.339844 29.742188 8.644531 29.789062 8.527344 C 29.796875 8.492188 29.820312 8.457031 29.832031 8.421875 C 29.890625 8.292969 29.945312 8.167969 30.011719 8.050781 C 30.046875 7.992188 30.082031 7.933594 30.125 7.878906 C 30.136719 7.855469 30.203125 7.761719 30.125 7.878906 C 30.023438 8.003906 30.125 7.878906 30.160156 7.84375 C 30.203125 7.796875 30.25 7.75 30.304688 7.703125 C 30.375 7.632812 30.226562 7.773438 30.226562 7.773438 C 30.226562 7.773438 30.328125 7.714844 30.328125 7.714844 C 30.351562 7.703125 30.386719 7.691406 30.394531 7.679688 C 30.453125 7.621094 30.292969 7.726562 30.285156 7.726562 C 30.339844 7.726562 30.417969 7.679688 30.476562 7.667969 C 30.566406 7.644531 30.554688 7.714844 30.363281 7.679688 C 30.386719 7.679688 30.417969 7.679688 30.441406 7.679688 C 30.496094 7.679688 30.554688 7.679688 30.621094 7.679688 C 30.777344 7.679688 30.386719 7.621094 30.585938 7.679688 C 30.65625 7.703125 30.722656 7.726562 30.777344 7.738281 C 30.871094 7.761719 30.667969 7.691406 30.667969 7.691406 C 30.6875 7.714844 30.734375 7.726562 30.757812 7.738281 C 30.800781 7.761719 30.847656 7.785156 30.890625 7.820312 C 30.902344 7.820312 30.960938 7.878906 30.980469 7.878906 C 30.980469 7.878906 30.824219 7.738281 30.890625 7.808594 C 30.949219 7.855469 30.992188 7.898438 31.039062 7.957031 C 31.0625 7.980469 31.082031 8.015625 31.105469 8.039062 C 31.171875 8.109375 31.039062 7.933594 31.039062 7.945312 C 31.050781 8.003906 31.105469 8.0625 31.140625 8.109375 C 31.152344 8.132812 31.171875 8.167969 31.183594 8.191406 C 31.230469 8.269531 31.183594 8.292969 31.164062 8.121094 C 31.164062 8.203125 31.21875 8.28125 31.242188 8.363281 C 31.253906 8.421875 31.265625 8.492188 31.273438 8.550781 C 31.207031 8.375 31.265625 8.386719 31.265625 8.46875 C 31.265625 8.503906 31.265625 8.527344 31.265625 8.5625 C 31.265625 8.632812 31.265625 8.710938 31.265625 8.78125 C 31.265625 8.828125 31.265625 8.863281 31.265625 8.910156 C 31.265625 9.058594 31.265625 8.863281 31.273438 8.839844 C 31.242188 8.875 31.242188 9.003906 31.230469 9.058594 C 31.21875 9.128906 31.195312 9.210938 31.171875 9.28125 C 31.152344 9.351562 31.128906 9.421875 31.105469 9.488281 C 31.070312 9.59375 31.140625 9.398438 31.140625 9.398438 C 31.140625 9.398438 31.082031 9.535156 31.070312 9.535156 C 31.015625 9.652344 30.914062 9.769531 30.871094 9.882812 C 30.871094 9.859375 31.015625 9.710938 30.914062 9.824219 C 30.890625 9.847656 30.871094 9.871094 30.859375 9.894531 C 30.847656 9.90625 30.800781 9.941406 30.789062 9.953125 C 30.902344 9.871094 30.925781 9.847656 30.871094 9.894531 C 30.859375 9.90625 30.835938 9.917969 30.824219 9.929688 C 30.800781 9.941406 30.769531 9.953125 30.746094 9.976562 C 30.859375 9.859375 30.9375 9.90625 30.835938 9.941406 C 30.789062 9.941406 30.585938 10 30.769531 9.964844 C 30.949219 9.929688 30.746094 9.964844 30.699219 9.964844 C 30.667969 9.964844 30.566406 9.953125 30.734375 9.964844 C 30.914062 9.988281 30.757812 9.964844 30.722656 9.953125 C 30.699219 9.953125 30.679688 9.941406 30.65625 9.929688 C 30.542969 9.894531 30.597656 9.835938 30.722656 9.964844 C 30.679688 9.929688 30.597656 9.882812 30.542969 9.859375 C 30.417969 9.792969 30.699219 10.011719 30.542969 9.859375 C 30.484375 9.8125 30.441406 9.769531 30.394531 9.710938 C 30.25 9.546875 30.496094 9.871094 30.386719 9.699219 C 30.351562 9.640625 30.304688 9.570312 30.285156 9.511719 C 30.183594 9.316406 30.339844 9.710938 30.285156 9.5 C 30.261719 9.421875 30.25 9.339844 30.226562 9.269531 C 30.191406 9.128906 30.226562 9.453125 30.226562 9.316406 C 30.226562 9.269531 30.226562 9.222656 30.226562 9.175781 C 30.226562 9.082031 30.226562 8.980469 30.226562 8.886719 C 30.226562 8.851562 30.238281 8.6875 30.226562 8.839844 C 30.214844 8.992188 30.226562 8.816406 30.238281 8.792969 C 30.261719 8.699219 30.285156 8.597656 30.304688 8.503906 C 30.40625 8.109375 30.554688 7.726562 30.710938 7.34375 C 30.800781 7.121094 30.722656 6.773438 30.609375 6.578125 C 30.496094 6.378906 30.261719 6.171875 30.035156 6.125 C 29.789062 6.066406 29.515625 6.078125 29.292969 6.230469 C 29.066406 6.378906 28.953125 6.566406 28.851562 6.820312 Z M 28.839844 6.773438 "/>
</g>
</svg>
