<?xml version="1.0" encoding="UTF-8"?>
<svg id="Capa_1" xmlns="http://www.w3.org/2000/svg" viewBox="0 0 865.86 862.27">
  <defs>
    <style>
      .cls-1 {
        fill: #fff;
      }
    </style>
  </defs>
  <path class="cls-1" d="M118.65,62.55c77.74-2.49,155.48-4.98,233.21-7.47l234.03-7.49c35.31-1.13,70.81-2.53,105.95,2.16l-6.17-.83c14.99,2.07,29.84,5.23,44.13,10.27,1.73.61,3.45,1.25,5.16,1.91.76.29,1.51.6,2.27.9,3.56,1.41-2.17-.94-2.18-.93.6-.29,4.46,2.01,4.98,2.26,1.83.87,3.64,1.77,5.43,2.72,6.51,3.42,12.62,7.38,18.57,11.68,2.48,1.8-4.73-3.85-1.29-.99.64.53,1.28,1.04,1.92,1.57,1.28,1.06,2.53,2.15,3.77,3.26,2.98,2.68,5.85,5.5,8.57,8.45,2.28,2.46,4.41,5.03,6.54,7.62,1.78,2.18-3.14-4.19-1.48-1.91.58.79,1.17,1.57,1.74,2.36,1.14,1.58,2.24,3.19,3.32,4.82,3.86,5.86,7.28,12,10.3,18.33.67,1.41,1.33,2.84,1.96,4.27,2.54,5.75-1.71-4.29.17.42,1.39,3.48,2.68,7.01,3.86,10.57,5.24,15.75,8.54,32.06,10.76,48.49l-.83-6.17c3.16,23.95,4.03,48.11,4.27,72.25.31,30.8.34,61.6.5,92.4.32,62.75.82,125.51.96,188.27.07,30.13-.44,60.35-4.4,90.26l.83-6.17c-2.84,20.84-7.36,41.5-14.88,61.18-.47,1.24-.98,2.47-1.46,3.71-1.78,4.58,2.29-5.13.29-.64-.9,2.03-1.8,4.05-2.75,6.06-2.39,5.03-4.99,9.96-7.82,14.76-2.58,4.38-5.33,8.64-8.28,12.78-.98,1.38-5.9,7.29-.94,1.44-1.92,2.26-3.71,4.64-5.65,6.89-6.36,7.38-13.31,14.25-20.72,20.59-1.94,1.66-3.92,3.25-5.89,4.86-3.69,3,4.49-3.34.67-.51-.68.51-1.36,1.02-2.04,1.53-4.29,3.17-8.69,6.18-13.19,9.03-8.5,5.4-17.35,10.26-26.44,14.61-1.94.93-3.89,1.83-5.85,2.72-1.18.53-2.36,1.04-3.54,1.56-4.41,1.96,5.26-2.13.79-.33-4.79,1.93-9.6,3.8-14.47,5.51-24.52,8.62-50.07,13.91-75.78,17.38,2.06-.28,4.12-.55,6.17-.83-32.02,4.23-64.3,5.6-96.55,6.59-33.81,1.03-67.63,1.96-101.44,2.94-67.74,1.96-135.48,3.92-203.22,5.88-18.77.54-37.54,1.09-56.31,1.63s-35.86,1.8-53.6-.42l6.17.83c-5.73-.79-11.4-1.94-16.9-3.77-1.26-.42-2.77-1.32-4.09-1.49,3.69,1.59,4.43,1.9,2.23.92l-1.08-.51c-2.15-1.03-4.25-2.17-6.29-3.41s-3.88-2.8-5.91-3.98c5.69,3.31,2.48,1.95.97.68-.91-.77-1.81-1.55-2.68-2.36-1.76-1.61-3.45-3.3-5.07-5.06-.81-.88-1.61-1.78-2.39-2.69-.54-.63-3.9-4.87-1.21-1.39s-.18-.32-.69-1.05c-.7-.99-1.38-1.99-2.04-3.01-1.33-2.04-2.59-4.12-3.77-6.24s-2.31-4.29-3.37-6.49c-.53-1.1-1.02-2.22-1.53-3.33-1.02-2.21,2.32,5.77.47,1.04-4.09-10.43-6.56-21.36-8.06-32.44l.83,6.17c-2.5-19.67-1.82-39.5-.45-59.23,1.42-20.43,3.14-40.84,4.74-61.26,3.2-40.98,6.39-81.95,9.59-122.93,6.41-82.22,12.82-164.45,19.23-246.67,1.78-22.79,3.55-45.59,5.33-68.38s2.85-43.48,5.67-65.05l-.83,6.17c1.5-11.09,3.56-22.13,6.93-32.82.83-2.64,1.75-5.26,2.75-7.84.62-1.59,2.85-5.27-.22.44.65-1.2,1.15-2.54,1.75-3.77,2.29-4.69,4.94-9.15,7.92-13.43,2.32-3.33-3.59,4.25-.75.95.78-.9,1.52-1.82,2.31-2.71,1.59-1.78,3.25-3.48,4.99-5.11s3.47-3.41,5.42-4.67l-2.81,2.19c.64-.47,1.28-.93,1.93-1.39.97-.68,1.96-1.33,2.96-1.97,1.99-1.26,4.04-2.43,6.14-3.49.87-.44,1.76-.84,2.64-1.27,2.21-1.09-5.91,2.31-1.26.54s9.09-2.87,13.83-3.55l-6.17.83c4.51-.55,8.98-.61,13.5-.09l-6.17-.83c4.19.58,8.21,1.62,12.14,3.18,5.26,2.07,13.22.39,17.9-2.34s9.41-8.34,10.67-13.88c1.35-5.95,1.06-12.62-2.34-17.9s-7.95-8.34-13.88-10.67c-22.58-8.89-49.22-3.59-69.44,8.75-22.72,13.86-37.5,35.15-46.58,59.8s-10.67,48.96-12.62,73.66c-2.15,27.29-4.26,54.58-6.38,81.88-4.23,54.27-8.46,108.55-12.7,162.82-4.25,54.54-8.51,109.09-12.76,163.63-2.14,27.41-4.27,54.82-6.41,82.22-2.06,26.37-5.04,52.9-4.7,79.39s4.88,53.56,16.85,77.92c10.03,20.41,26.55,39.32,46.98,49.76,24.8,12.67,52.1,12.73,79.26,11.95,27.48-.8,54.95-1.59,82.43-2.39,54.68-1.58,109.37-3.16,164.05-4.75,53.7-1.55,107.48-2.4,161.15-4.96,51.31-2.45,103.86-7.79,152.19-26.2,21.72-8.27,42.78-18.43,61.85-31.78,20.22-14.14,37.59-30.57,52.5-50.2,29.38-38.68,40.93-87.14,45.53-134.65,4.73-48.87,2.58-98.42,2.33-147.44-.28-54.44-.56-108.88-.84-163.32-.24-45.79.55-91.78-7.41-137.06-7.39-42-24.93-84.31-57.97-112.6-36.13-30.95-82.09-42.28-128.6-45.55-21.48-1.51-43.04-1.25-64.54-.61-26.75.8-53.49,1.71-80.23,2.56-54.63,1.75-109.27,3.5-163.9,5.25s-109.27,3.5-163.9,5.25c-26.37.84-52.73,1.69-79.1,2.53-12.13.39-23.8,10.41-23.23,23.23s10.22,23.64,23.23,23.23h0Z"/>
  <path class="cls-1" d="M465.9,239.72c-10.66-2.61-21.91-3.58-32.82-2.2-6.57.83-13.01,1.76-19.37,3.61s-11.95,4.25-17.76,6.81c-10.28,4.53-19.31,10.79-28.13,17.67-7.63,5.95-14.62,12.64-21.1,19.81-14.26,15.79-26.48,33.41-38.61,50.85-11.48,16.49-22.63,33.33-31.35,51.47-5.04,10.49-9.6,21.35-12.89,32.53s-5.03,22.09-5.99,33.33-.09,22.38,1.66,33.56c1.72,11,5.46,21.46,10.29,31.46,4.76,9.85,11.55,18.83,18.83,26.94,6.19,6.9,13.15,13.07,20.38,18.85,16.45,13.14,33.69,25.55,51.74,36.4,18.08,10.86,37.58,20.27,57.95,25.92,10.79,2.99,22.04,4.8,33.2,5.47s22.62-.44,33.66-2.64c9.84-1.96,19.13-5.55,28.25-9.66,7.4-3.34,14.42-7.5,21-12.27,8.13-5.89,15.9-12.26,22.93-19.44,7.11-7.26,13.46-15.24,19.45-23.42,11.06-15.1,19.37-31.64,26.5-48.9,6.41-15.52,11.12-31.74,14.09-48.27,6.59-36.66,6.2-74.56-3.73-110.62-9.79-35.55-29.05-69.13-56.65-93.83-14.46-12.94-30.75-24.03-48.46-32.02-9.65-4.36-19.51-8.28-29.71-11.17s-20.95-4.67-31.66-6c-8.61-1.07-17.3-1.45-25.98-1.16-6.08.21-12.07,2.45-16.42,6.8-4.03,4.03-7.06,10.64-6.8,16.42s2.24,12.24,6.8,16.42,10.21,7.01,16.42,6.8c9.27-.31,18.54.16,27.74,1.38l-6.17-.83c15.07,2.06,29.79,6.12,43.82,11.99l-5.55-2.34c13.82,5.85,26.86,13.42,38.74,22.6l-4.7-3.63c11.03,8.57,20.94,18.47,29.49,29.52l-3.63-4.7c9.03,11.76,16.44,24.67,22.21,38.31l-2.34-5.55c6.75,16.1,11.2,33.07,13.56,50.35l-.83-6.17c2.69,20.13,2.56,40.57-.11,60.7l.83-6.17c-2.8,20.73-8.28,41.05-16.38,60.34l2.34-5.55c-6.83,16.14-15.52,31.48-26.21,45.39,1.21-1.57,2.42-3.13,3.63-4.7-8.24,10.66-17.63,20.41-28.3,28.66,1.57-1.21,3.13-2.42,4.7-3.63-8.18,6.27-17.03,11.6-26.52,15.63l5.55-2.34c-8.61,3.61-17.6,6.08-26.85,7.34l6.17-.83c-9.85,1.27-19.79,1.16-29.63-.14,2.06.28,4.12.55,6.17.83-13.52-1.85-26.61-5.85-39.17-11.13l5.55,2.34c-21.21-8.99-40.79-21.4-59.49-34.75-5.1-3.65-10.17-7.35-15.14-11.18l4.7,3.63c-10.73-8.29-21.02-17.29-29.39-28.01l3.63,4.7c-4.78-6.2-8.81-12.88-11.88-20.09l2.34,5.55c-3.27-7.82-5.39-16.02-6.52-24.42l.83,6.17c-1.33-10.36-1.15-20.84.21-31.19l-.83,6.17c1.83-13.39,5.68-26.32,10.9-38.77l-2.34,5.55c11.07-26.11,27.52-49.45,43.83-72.49,4.5-6.35,9.06-12.66,13.82-18.83l-3.63,4.7c10.01-12.92,20.97-25.17,33.91-35.23l-4.7,3.63c7.74-5.96,16.14-10.97,25.14-14.78l-5.55,2.34c7.41-3.09,15.13-5.32,23.09-6.44l-6.17.83c6.66-.89,13.37-.97,20.03-.09l-6.17-.83c2.43.34,4.83.8,7.22,1.38,5.96,1.46,12.55.79,17.9-2.34,4.82-2.82,9.41-8.34,10.67-13.88,1.35-5.95,1.06-12.62-2.34-17.9-3.23-5.01-7.95-9.22-13.88-10.67h0Z"/>
  <path class="cls-1" d="M626.41,146.01c-3.49,8.55-6.93,17.17-9.19,26.15-1.57,6.25-2.53,12.72-3.05,19.13s.24,12.75,1.23,19.17c.86,5.54,2.93,10.51,5.29,15.61,2.2,4.77,5.52,8.92,8.82,12.97s7.4,7.14,11.57,10.25,9.02,5.15,13.91,7.01c1.45.55,2.94.99,4.46,1.3,2.65.54,5.37.83,8.05,1.14.78.09,1.57.16,2.35.19,3.52.1,7.14-.55,10.57-1.12,1.54-.25,3.03-.68,4.48-1.23,3.38-1.3,6.99-2.67,10.05-4.71,2.29-1.53,4.44-3.29,6.58-5.02.76-.61,1.49-1.26,2.18-1.95,2.71-2.67,4.98-5.84,7.23-8.87,1.14-1.54,2.18-3.16,3.13-4.83,2.89-5.07,5.17-10.56,7.14-16.03,1.37-3.81,2.42-7.75,3.09-11.75.98-5.84,1.83-11.84,1.65-17.79-.09-2.94-.49-5.82-.88-8.73s-.79-5.91-1.54-8.81c-.49-1.88-1.1-3.73-1.83-5.53-1.45-3.59-2.88-7.27-4.8-10.65-.82-1.44-1.74-2.82-2.74-4.14-2.12-2.78-4.18-5.65-6.64-8.15-1.2-1.21-2.47-2.33-3.81-3.39-2.73-2.16-5.49-4.42-8.48-6.24-1.45-.88-2.95-1.68-4.5-2.37-3.19-1.43-6.45-2.91-9.8-3.96-1.59-.5-3.22-.9-4.87-1.18-3.5-.6-7.06-1.16-10.61-1.3-1.64-.06-3.28,0-4.91.19-3.48.39-7.1.73-10.51,1.67s-6.72,2.46-9.88,3.93c-1.57.73-3.07,1.62-4.48,2.62-4.59,3.25-8.89,6.68-12.38,11.09s-6.82,8.9-9.46,13.97-4.77,10.37-6.94,15.62c-.72,1.74-1.42,3.5-2,5.3-.92,2.85-1.33,5.67-1.73,8.64-.25,1.83-.58,3.69-.6,5.55-.03,2.86.53,5.83.99,8.57.14.84.33,1.65.62,2.45.77,2.14,1.73,4.32,2.69,6.38.23.5.51.98.82,1.44,3.35,4.96,6.25,7.89,11.21,11.22,1.37.92,3,1.47,4.49,2.1,1.56.66,3.1,1.44,4.77,1.79,3.32.7,7.05,1.35,10.53,1.03s7.22-.71,10.64-1.72c10.65-3.16,19.69-9.28,28.09-16.36,1.45-1.22,2.83-2.53,4.03-4,2.26-2.75,4.76-5.61,6.26-8.91,2.58-5.67,4.1-9.74,4.24-16.1,0-.38-.01-.75-.04-1.13-.18-2.29-.52-4.73-.93-6.98-.15-.81-.38-1.58-.66-2.36-2.11-5.7-4.01-9.09-8.06-13.68-3.69-4.17-8.34-6.39-13.4-8.32-.32-.12-.63-.24-.97-.33-2.18-.56-4.65-.76-6.89-.97-.34-.03-.68-.07-1.02-.06-.2,0-.4.03-.59.05-1.74.15-4.77.51-6.47.87-.36.08-.7.16-1.05.28-1.84.61-4.1,1.64-5.86,2.46-.2.09-.4.18-.6.28-.29.15-.56.33-.83.51-1.9,1.28-3.9,2.76-5.57,4.36-2.47,2.36-4.68,5.3-6.08,8.45-1.5,3.38-3.02,6.63-3.69,10.26-1.12,6.06-1.86,12.33-1.95,18.5-.1,6.35.71,12.56,1.59,18.84.6,4.27,1.48,8.49,2.7,12.62,1.75,5.9,4.17,11.63,6.76,17.2l3.63,4.7c2.1,2.27,4.6,3.87,7.48,4.8,1.81,1.05,3.77,1.58,5.86,1.59,3.09.69,6.17.55,9.26-.41,5.75-1.39,11.56-4.86,15.67-9.09,2.12-2.19,4.05-4.66,5.58-7.3.29-.5.53-1.01.77-1.53,1.01-2.25,2.09-4.53,2.84-6.89.94-2.95,1.18-6.26,1.46-9.25s-.42-6.31-.89-9.28-1.92-5.8-3.16-8.51c-.25-.56-.52-1.1-.86-1.61-1.35-2.07-2.96-4.08-4.59-5.95-2.1-2.27-4.6-3.87-7.48-4.8-2.77-1.45-5.75-2.12-8.95-2-3.2-.12-6.18.55-8.95,2-2.88.94-5.37,2.54-7.48,4.8-4.06,4.43-7.08,10.24-6.8,16.42l.83,6.17c1.1,3.93,3.09,7.35,5.97,10.25.19.22.37.44.55.67l-3.63-4.7c.5.69.92,1.41,1.27,2.19l-2.34-5.55c.4.96.66,1.94.82,2.96l-.83-6.17c.16,1.23.15,2.45,0,3.68l.83-6.17c-.19,1.33-.55,2.61-1.07,3.86l2.34-5.55c-.46,1.05-1.03,2.03-1.71,2.95l3.63-4.7c-.69.9-1.47,1.69-2.37,2.39l4.7-3.63c-.76.56-1.56,1.02-2.42,1.39l5.55-2.34c-.53.21-1.07.38-1.63.52l26.23,10.67c-.44-.94-.86-1.89-1.27-2.85l2.34,5.55c-2.88-6.86-4.84-14.06-5.85-21.42l.83,6.17c-.98-7.37-1.01-14.83-.06-22.21l-.83,6.17c.35-2.56.79-5.09,1.77-7.49l-2.34,5.55c.41-.94.89-1.82,1.48-2.65l-3.63,4.7c.47-.61.98-1.14,1.58-1.63l-4.7,3.63c.53-.4,1.08-.72,1.69-.99l-5.55,2.34c.5-.19.99-.33,1.52-.43l-6.17.83c.59-.07,1.17-.08,1.76,0l-6.17-.83c.58.1,1.13.25,1.68.47l-5.55-2.34c.65.29,1.23.64,1.79,1.06l-4.7-3.63c.66.53,1.23,1.11,1.76,1.77l-3.63-4.7c.66.87,1.19,1.79,1.62,2.79l-2.34-5.55c.36.92.62,1.86.77,2.83l-.83-6.17c.11.86.12,1.71.03,2.58l.83-6.17c-.15,1.06-.46,2.07-.85,3.07l2.34-5.55c-.63,1.48-1.45,2.83-2.43,4.11l3.63-4.7c-1.82,2.3-4.02,4.22-6.33,6l4.7-3.63c-3.86,2.95-7.9,5.63-12.38,7.55l5.55-2.34c-2.36.98-4.79,1.75-7.32,2.09l6.17-.83c-1.37.16-2.73.19-4.11.02l6.17.83c-1-.15-1.96-.4-2.9-.77l5.55,2.34c-.84-.37-1.61-.82-2.34-1.38l4.7,3.63c-.67-.55-1.26-1.15-1.81-1.83l3.63,4.7c-.6-.8-1.09-1.63-1.48-2.55l2.34,5.55c-.4-1.02-.66-2.07-.8-3.15l.83,6.17c-.16-1.51-.11-3,.08-4.5l-.83,6.17c.61-4.29,2.24-8.31,3.91-12.28l-2.34,5.55c2.66-6.29,5.64-12.49,9.83-17.92l-3.63,4.7c1.95-2.48,4.13-4.74,6.61-6.68l-4.7,3.63c2-1.52,4.15-2.81,6.46-3.81l-5.55,2.34c2.33-.97,4.76-1.62,7.27-1.97l-6.17.83c2.84-.37,5.69-.34,8.53.02l-6.17-.83c3.33.46,6.56,1.37,9.66,2.66l-5.55-2.34c3.13,1.34,6.07,3.05,8.78,5.11l-4.7-3.63c2.6,2.01,4.95,4.32,6.98,6.91l-3.63-4.7c2.04,2.65,3.67,5.56,5,8.63l-2.34-5.55c1.62,3.85,2.68,7.87,3.26,12l-.83-6.17c.68,5.13.6,10.3-.08,15.43l.83-6.17c-.82,5.86-2.43,11.57-4.71,17.02l2.34-5.55c-1.88,4.42-4.14,8.68-7.06,12.5l3.63-4.7c-1.69,2.17-3.59,4.15-5.76,5.84l4.7-3.63c-1.69,1.29-3.51,2.37-5.46,3.21l5.55-2.34c-1.79.73-3.65,1.24-5.56,1.51l6.17-.83c-2.09.27-4.19.25-6.28-.01l6.17.83c-2.44-.34-4.8-1.01-7.08-1.95l5.55,2.34c-2.76-1.17-5.34-2.7-7.72-4.51l4.7,3.63c-2.71-2.1-5.13-4.52-7.24-7.23l3.63,4.7c-2.02-2.64-3.72-5.49-5.03-8.55l2.34,5.55c-1.32-3.18-2.12-6.48-2.59-9.88l.83,6.17c-.67-5.16-.56-10.35.1-15.5l-.83,6.17c1.68-12.42,6.34-24.16,11.04-35.69.97-3.09,1.11-6.17.41-9.26-.14-3.09-1.06-5.97-2.76-8.64-1.46-2.71-3.45-4.88-5.98-6.52-2.24-2.05-4.88-3.44-7.9-4.16l-6.17-.83c-4.19.01-8.1,1.07-11.72,3.17l-4.7,3.63c-2.88,2.9-4.87,6.31-5.97,10.25h0Z"/>
</svg>