<?xml version="1.0" encoding="UTF-8"?>
<svg id="Capa_1" xmlns="http://www.w3.org/2000/svg" viewBox="0 0 877.93 854.85">
  <defs>
    <style>
      .cls-1 {
        fill: #fff;
      }
    </style>
  </defs>
  <path class="cls-1" d="M205.52,136.3c-.6,1.65-1.03,3.35-1.3,5.08-.5,3.19-1.05,6.51-.94,9.78s.58,6.55,1.23,9.74c.34,1.69.83,3.35,1.44,4.97,1.77,4.66,3.74,9.18,6.72,13.19,1.93,2.59,3.89,5.23,6.15,7.54,1.77,1.8,3.72,3.33,5.72,4.87s3.86,2.99,5.99,4.21c2.81,1.61,5.87,2.83,8.88,4,1.62.63,3.28,1.13,4.98,1.48,3.21.66,6.52,1.14,9.8,1.23s6.65-.47,9.9-.98c1.6-.25,3.17-.64,4.7-1.16,4.33-1.47,8.75-3.36,12.48-6.07s7.5-5.64,10.45-9.33,5.78-7.34,7.79-11.62,3.9-8.74,4.84-13.4,1.63-9.54,1.37-14.29c-.18-3.16-.62-6.33-1.22-9.43-.3-1.53-.7-3.03-1.22-4.5-1.59-4.49-3.52-8.93-6.4-12.75-1.84-2.44-3.66-4.93-5.83-7.09s-4.75-4.05-7.21-5.9c-3.88-2.91-8.18-4.73-12.65-6.57-3.05-1.25-6.22-2.17-9.47-2.69-4.75-.76-9.55-1.43-14.38-1.12s-9.73.95-14.34,2.39c-3,.94-5.91,2.23-8.75,3.53-1.44.66-2.84,1.42-4.18,2.27-2.64,1.68-5.12,3.65-7.5,5.67-1.82,1.69-3.11,3.69-3.86,6-1.17,2.22-1.7,4.62-1.61,7.19-.1,2.57.44,4.96,1.61,7.19.75,2.31,2.04,4.31,3.86,6,3.56,3.26,8.22,5.69,13.19,5.46l4.96-.67c3.16-.89,5.9-2.49,8.23-4.8.4-.33.8-.66,1.2-.98l-3.78,2.92c2.37-1.82,4.95-3.3,7.69-4.47l-4.46,1.88c3.13-1.3,6.41-2.17,9.77-2.64l-4.96.67c3.8-.5,7.63-.48,11.42.03l-4.96-.67c3.57.51,7.06,1.44,10.39,2.82l-4.46-1.88c3.01,1.27,5.84,2.89,8.43,4.87l-3.78-2.92c2.25,1.75,4.27,3.75,6.02,5.99l-2.92-3.78c1.62,2.12,2.97,4.41,4.01,6.87l-1.88-4.46c1.04,2.51,1.73,5.13,2.11,7.83l-.67-4.96c.42,3.2.39,6.43-.03,9.63l.67-4.96c-.49,3.43-1.41,6.76-2.75,9.95l1.88-4.46c-1.32,3.08-2.99,5.98-5.02,8.65l2.92-3.78c-1.84,2.38-3.94,4.52-6.31,6.38l3.78-2.92c-2.13,1.64-4.43,3.01-6.9,4.07l4.46-1.88c-2.35.98-4.79,1.65-7.31,2l4.96-.67c-2.4.3-4.8.29-7.2-.02l4.96.67c-2.7-.38-5.3-1.12-7.81-2.18l4.46,1.88c-2.72-1.18-5.27-2.7-7.62-4.5l3.78,2.92c-2.53-1.98-4.8-4.25-6.77-6.79l2.92,3.78c-1.87-2.45-3.44-5.09-4.66-7.92l1.88,4.46c-1.09-2.59-1.86-5.29-2.25-8.08l.67,4.96c-.32-2.46-.33-4.92-.01-7.38l-.67,4.96c.26-1.85.71-3.65,1.35-5.41.78-2.48.89-4.96.33-7.44-.11-2.48-.85-4.79-2.21-6.94-1.17-2.17-2.77-3.92-4.81-5.23-1.8-1.65-3.92-2.76-6.34-3.34-4.78-1.09-10.14-.85-14.38,1.88l-3.78,2.92c-2.31,2.33-3.91,5.07-4.8,8.23h0Z"/>
  <g>
    <path class="cls-1" d="M1.84,131.65C-.2,239.83-.55,348.04.81,456.23c.68,54.1,1.79,108.19,3.32,162.26.77,27.04,1.64,54.08,2.62,81.11.88,24.34.79,49.26,6.24,73.13,5.46,23.9,18.14,44.3,37.95,58.75,16.41,11.97,36.94,17.66,56.8,20.39,22.62,3.11,45.25,2.98,68.03,2.97,27.06,0,54.12-.02,81.19-.02,108.25-.03,216.49-.06,324.74-.09,26.13,0,52.27.08,78.4-.04,26.23-.13,52.36-1.14,78.31-5.13,24.21-3.72,48.5-10.71,69.94-22.8,22.27-12.55,39.54-30.81,49.21-54.55s10.62-49.54,12.78-74.36c2.25-25.99,4.01-52.01,5.25-78.07,2.49-52.11,2.98-104.31,1.46-156.45-3.06-104.88-14.22-209.56-33.13-312.76-4.7-25.66-9.89-51.22-15.58-76.68-2.72-12.19-5.3-24.48-8.56-36.54-4.2-15.53-13.36-27.45-28.79-32.92-11.28-3.99-23.96-3.32-35.74-3.38-13.79-.07-27.59-.14-41.38-.22-27.04-.14-54.07-.28-81.11-.43-104.78-.55-209.72-1.69-314.34,5.23-53.39,3.53-106.68,9.24-159.47,17.99-25.09,4.16-50.32,8.65-74.97,14.94-23.04,5.88-47.1,15.57-62.22,34.78-7.18,9.12-13.05,19.55-15.23,31.08-2.56,13.51-1.09,25.89,4.56,38.42,4.03,8.93,17.67,11.76,25.52,6.69,9.22-5.95,11-15.98,6.69-25.52,2.35,5.2-.31-1.85-.75-3.34-1.14-3.93.16,4.45-.02.36-.05-1.16-.15-2.32-.15-3.49s.11-2.33.15-3.5c.15-4.17-.93,4.39-.03.3.51-2.33,1.06-4.63,1.84-6.9l.4-1.13c.73-1.87.56-1.5-.51,1.11-.04-.02,1.48-3.06,1.59-3.27,1.14-2.17,2.5-4.17,3.8-6.24,2.25-3.58-2.77,3.06.03-.11.54-.61,1.05-1.24,1.59-1.84,1.89-2.11,3.96-3.99,6.08-5.86,3.47-3.06-3.27,2.09.59-.43,1.15-.75,2.25-1.55,3.41-2.29,2.12-1.34,4.3-2.59,6.52-3.74,1.01-.53,2.03-1.04,3.06-1.53.8-.38,5.05-2.42.56-.35,2.91-1.34,6.03-2.35,9.07-3.36,10.83-3.6,22.02-6.01,33.17-8.39,24.58-5.24,49.32-9.68,74.17-13.43,6.34-.96,12.69-1.85,19.04-2.74,5.32-.74-3.94.51,1.39-.19,1.06-.14,2.12-.28,3.18-.42,3.71-.48,7.42-.95,11.13-1.41,12.73-1.56,25.48-2.96,38.25-4.21,101.41-9.93,203.43-10.64,305.23-10.26,52.57.2,105.15.53,157.72.81,12.69.07,25.38.13,38.07.2,2.76.01,5.53,0,8.29.11,1.26.05,2.52.11,3.78.2l1.26.11c2.08.23,1.67.16-1.23-.2,0-.12,6,1.46,6.54,1.6,2.38.61-3.86-2.35-.62-.23.7.37,1.38.78,2.04,1.22-2.16-1.77-2.48-1.99-.98-.67,2.69,3.15-1.72-3.65.33.2.49.91,1.78,2.4,1.85,3.46l-.89-2.01c.3.83.59,1.67.85,2.52.4,1.28.74,2.57,1.07,3.86,1.54,6.01,2.91,12.07,4.31,18.12,2.89,12.44,5.67,24.91,8.33,37.41,10.52,49.47,19.13,99.32,25.98,149.43.73,5.31-.51-3.94.18,1.37.21,1.58.42,3.17.62,4.75.34,2.64.68,5.28,1.01,7.92.87,6.87,1.7,13.74,2.49,20.61,1.47,12.69,2.82,25.4,4.05,38.11,2.41,24.9,4.36,49.85,5.85,74.82,6.06,101.49,4.54,203.43-4.66,304.69-.51,5.57-1.02,11.14-1.6,16.7-.3,2.87-.53,5.77-1.01,8.62.82-4.98,0-.11-.14.77-.22,1.43-.45,2.85-.7,4.28-1,5.65-2.25,11.26-3.93,16.75-.77,2.51-1.41,5.83-2.82,8.06.28-.44,1.71-3.69.21-.54-.82,1.71-1.63,3.43-2.53,5.1-1.3,2.4-2.72,4.72-4.26,6.97-.64.92-2.51,4.58-.14.37-.59,1.05-1.67,2.06-2.46,2.97-3.39,3.91-7.18,7.33-11.09,10.71-3.37,2.91,3.34-2.32-.31.25-1.06.75-2.1,1.52-3.17,2.25-1.79,1.22-3.62,2.39-5.47,3.52-4.86,2.94-9.92,5.41-15.05,7.83-4.1,1.93,3.87-1.49-.34.16-1.21.48-2.41.97-3.63,1.43-2.31.88-4.63,1.7-6.97,2.49-6.25,2.09-12.6,3.87-19.01,5.37-5.43,1.27-10.9,2.34-16.39,3.25-1.5.25-3.01.48-4.51.71-.78.12-5.83,1.02-1.08.17-2.99.54-6.08.73-9.1,1.03-24.52,2.45-49.2,2.39-73.81,2.4-105.21.03-210.42.06-315.63.09-52.74.02-105.49.03-158.23.05-10.5,0-21,.08-31.49-.32-4.69-.18-9.37-.44-14.04-.83-2.43-.2-4.87-.44-7.29-.72-.5-.06-4.39-.79-1.14-.12s-1.72-.26-2.32-.36c-9.35-1.48-18.62-3.67-27.47-7.07l-1.08-.42c-1.85-.75-1.43-.57,1.27.55-.67-.63-2.29-1.03-3.12-1.44-2.05-.99-4.07-2.06-6.04-3.21-1.63-.95-3.23-1.97-4.8-3.03-.77-.53-1.89-1.7-2.77-1.99,2.27,1.77,2.63,2.04,1.1.8-.59-.49-1.16-.98-1.73-1.48-1.73-1.52-3.38-3.13-4.94-4.82-.66-.71-1.31-1.44-1.94-2.18-.9-1.06-2.88-2.35.24.44-1.81-1.62-3.18-4.53-4.41-6.6-1.35-2.28-3.76-5.54-4.18-8.18l.86,2.04c-.33-.81-.65-1.63-.95-2.45-.31-.82-.6-1.65-.88-2.48-.85-2.51-1.6-5.05-2.26-7.62s-1.24-5.2-1.75-7.83c-.25-1.32-.49-2.65-.7-3.98-.15-.89-.28-1.78-.41-2.67-.3-2.1-.26-1.79.12.93-1.41-4.44-1.06-10.26-1.36-14.89-.36-5.5-.58-11-.79-16.5-.51-13.24-.99-26.48-1.45-39.72-1.81-52.41-3.21-104.84-4.22-157.27-2.02-105.42-2.43-210.87-1.21-316.3.29-25.39.68-50.78,1.16-76.17.18-9.76-8.71-19.1-18.66-18.66S2.04,121.19,1.84,131.65h0Z"/>
    <path class="cls-1" d="M145.98,261.01c-15.31,42.58-20.12,88.3-21.04,133.3-.91,44.53,1.92,89.04,1.66,133.57-.15,24.86-1.27,49.73-4.56,74.39l.67-4.96c-1.66,12.27-3.94,24.4-6.7,36.46-2.59,11.3-5.17,23.33-3.82,34.95.89,7.66,2.5,15.05,6.75,21.66s10.54,12.52,17.86,16.25c12.41,6.31,26.24,10.76,39.64,14.41,13.89,3.79,28.02,6.26,42.31,7.99,12.04,1.46,24.57,2.58,36.7,1.68,6.2-.46,12.61-1.24,18.43-3.57,3.4-1.36,6.65-2.67,9.6-4.83,4.5-3.3,7.6-6.29,10.72-10.99,4.8-7.23,5.98-16.38,6.1-24.84.1-6.79.02-13.59.01-20.39-.08-55.29-.71-110.61,1.74-165.87,1.22-27.58,3.22-55.14,6.42-82.57,3.08-26.36,7.53-52.63,8.5-79.19.53-14.5-.29-28.82-2.36-43.18-.93-6.46-2.2-12.86-3.92-19.16s-4.01-13.52-8-19.1c-5.67-7.95-13.13-13.48-22.67-15.97-7.26-1.89-15.07-2.21-22.54-2.73-13.66-.95-27.36-1.36-41.05-1.22-6.92.07-13.84.29-20.76.64-4.93.25-9.64,1.91-13.19,5.46-3.24,3.24-5.67,8.54-5.46,13.19s1.8,9.83,5.46,13.19,8.23,5.71,13.19,5.46c12.63-.63,25.27-.82,37.91-.53,12.21.28,24.62.63,36.74,2.25l-4.96-.67c2.94.43,5.8,1.07,8.55,2.21l-4.46-1.88c1.57.71,3,1.54,4.37,2.6l-3.78-2.92c1.08.9,2.03,1.88,2.92,2.96l-2.92-3.78c1.43,1.87,2.54,3.89,3.5,6.03l-1.88-4.46c3.86,9.15,5.71,19.37,7.08,29.16l-.67-4.96c3.32,24.71,1.39,49.71-1.56,74.35s-6.56,50.15-8.67,75.38c-4.34,51.79-4.99,103.81-4.99,155.75,0,14.43.05,28.86.09,43.3.02,7.21.04,14.43.04,21.64s.44,14.27-.41,21.27l.67-4.96c-.3,2.07-.76,4.05-1.51,6l1.88-4.46c-.64,1.48-1.39,2.82-2.35,4.11l2.92-3.78c-.99,1.24-2.09,2.33-3.33,3.32l3.78-2.92c-1.6,1.2-3.31,2.15-5.14,2.95l4.46-1.88c-3.1,1.27-6.34,2.03-9.65,2.5l4.96-.67c-6.71.88-13.53.66-20.27.37-7.9-.34-15.77-1.05-23.6-2.09l4.96.67c-22.27-3.03-44.24-8.81-64.98-17.5l4.46,1.88c-3.54-1.51-6.95-3.21-10.01-5.57l3.78,2.92c-1.6-1.31-3.02-2.75-4.28-4.37l2.92,3.78c-1.23-1.67-2.25-3.44-3.08-5.35l1.88,4.46c-1.12-2.72-1.8-5.53-2.2-8.43l.67,4.96c-.61-5.08-.33-10.18.33-15.25l-.67,4.96c1.29-9.4,3.83-18.57,5.67-27.86,2.33-11.77,4.04-23.67,5.43-35.59,2.44-20.9,3.39-41.95,3.61-62.98.44-42.63-2.14-85.23-1.77-127.86.21-23.58,1.34-47.18,4.46-70.57l-.67,4.96c3.11-23.01,8.2-45.73,16.06-67.59,1.56-4.35.38-10.5-1.88-14.38s-6.7-7.56-11.15-8.57c-4.78-1.09-10.14-.85-14.38,1.88s-6.85,6.37-8.57,11.15h0Z"/>
    <path class="cls-1" d="M354.59,287.87c12.98-.09,25.96-.18,38.94-.27l19.24-.14c5.86-.04,11.95-.57,17.78.19l-4.96-.67c1.1.18,2.14.44,3.19.82l-4.46-1.88c.8.35,1.52.74,2.24,1.25l-3.78-2.92c.53.44.97.87,1.42,1.4l-2.92-3.78c.55.75.97,1.51,1.33,2.37l-1.88-4.46c.39,1.11.65,2.22.83,3.38l-.67-4.96c.9,7.45.58,15.17.78,22.66.21,7.98.43,15.96.64,23.94.43,15.96.86,31.91,1.29,47.87.21,7.91,5.61,16.15,13.7,17.99s16.34-1.4,21.07-8.57c2.73-4.14,5.62-8.18,8.64-12.12l-2.92,3.78c10.72-13.83,23.21-26.2,37.05-36.9l-3.78,2.92c14.26-10.95,29.86-20.06,46.4-27.11l-4.46,1.88c16.78-7.08,34.4-11.98,52.45-14.41l-4.96.67c7.66-1,15.51-1.9,23.22-.97l-4.96-.67c2.97.42,5.82,1.13,8.59,2.28l-4.46-1.88c2.26,1.02,4.33,2.27,6.31,3.77l-3.78-2.92c3.68,2.91,6.75,6.41,9.61,10.1l-2.92-3.78c9.87,12.87,19.27,26.25,28.13,39.84s17.04,27.85,23.41,42.89l-1.88-4.46c5.5,13.15,9.49,26.81,11.44,40.94l-.67-4.96c2.01,15.17,1.95,30.49,1.64,45.76s-.69,31.83-1.04,47.75c-.69,31.39-1.32,62.78-2.06,94.17-.35,14.83-.93,29.68-2.9,44.4l.67-4.96c-1.83,13.31-4.83,26.47-10.03,38.89l1.88-4.46c-3.26,7.63-7.31,14.91-12.34,21.52l2.92-3.78c-3.62,4.67-7.84,8.79-12.5,12.41l3.78-2.92c-5.23,3.98-10.92,7.26-16.96,9.83l4.46-1.88c-6.17,2.57-12.6,4.36-19.22,5.26l4.96-.67c-5.45.69-10.94.76-16.4.05l4.96.67c-4.36-.61-8.61-1.71-12.69-3.39l4.46,1.88c-3.53-1.5-6.84-3.4-9.89-5.73l3.78,2.92c-2.83-2.22-5.35-4.74-7.58-7.56l2.92,3.78c-2.71-3.52-4.89-7.34-6.66-11.4l1.88,4.46c-3.1-7.36-4.77-15.16-5.84-23.05l.67,4.96c-1.68-12.76-2.26-25.68-3.21-38.51-1.04-14.05-2.08-28.1-3.12-42.16-1.04-14.05-2.08-28.1-3.12-42.16-1.04-14.01-1.6-28.15-3.76-42.05s-8.69-26.79-20.47-35.06c-13.35-9.37-30.93-7.68-44.86-.84-13.89,6.82-22.33,20.22-27.79,34.14-4.54,11.57-6.47,24.26-8.16,36.51-2.3,16.69-3.62,33.41-3.29,50.27s2.56,32.9,4.77,49.33l-.67-4.96c1.27,9.58,2.22,19.25,1.04,28.89l.67-4.96c-.64,4.72-1.8,9.3-3.65,13.69l1.88-4.46c-1.57,3.62-3.54,7.01-5.92,10.15l2.92-3.78c-2.55,3.29-5.5,6.2-8.77,8.77l3.78-2.92c-4.24,3.26-8.9,5.85-13.82,7.95l4.46-1.88c-8.18,3.42-16.84,5.41-25.61,6.61l4.96-.67c-17.47,2.3-35.58,1.81-53.03-.54l4.96.67c-4.29-.61-8.51-1.51-12.52-3.2l4.46,1.88c-1.94-.87-3.75-1.91-5.45-3.18l3.78,2.92c-1.45-1.15-2.73-2.42-3.9-3.85l2.92,3.78c-1.35-1.76-2.44-3.64-3.34-5.67l1.88,4.46c-1.31-3.15-2.08-6.42-2.56-9.79l.67,4.96c-1.52-11.89-.05-24.21.47-36.13.61-13.83,1.22-27.66,1.83-41.5,1.21-27.36,2.42-54.71,3.63-82.07,2.43-55.02,4.86-110.04,7.29-165.07,1.37-31.05,2.74-62.09,4.12-93.14.43-9.76-8.89-19.09-18.66-18.66-10.48.47-18.19,8.2-18.66,18.66-2.13,48.11-4.25,96.21-6.38,144.32-2.13,48.11-4.25,96.21-6.38,144.32-1.06,23.98-2.12,47.95-3.18,71.93-.53,11.99-1.06,23.98-1.59,35.96-.48,10.78-.92,21.85,2.07,32.35,2,7.03,5.47,13.25,10.32,18.69,4.89,5.48,11.31,8.76,18.04,11.34,5.82,2.24,12.21,2.88,18.35,3.6,4,.47,8.03.81,12.05,1.09,17.49,1.19,35.2.61,52.41-2.95,16.73-3.46,33.95-11.02,45.53-23.95,7.27-8.12,12.76-17.78,15.42-28.4,2.97-11.84,2.79-24.04,1.35-36.06-.79-6.64-1.79-13.26-2.69-19.89l.67,4.96c-3.47-25.89-3.52-52.13-.11-78.03l-.67,4.96c1.76-13.04,3.81-26.55,8.84-38.79l-1.88,4.46c1.76-4.13,3.9-8.04,6.61-11.63l-2.92,3.78c1.88-2.4,3.95-4.55,6.35-6.44l-3.78,2.92c2.34-1.76,4.84-3.22,7.53-4.37l-4.46,1.88c2.47-1,5-1.72,7.64-2.12l-4.96.67c2.37-.3,4.71-.32,7.09-.01l-4.96-.67c1.92.3,3.74.81,5.54,1.55l-4.46-1.88c1.59.72,3.05,1.59,4.44,2.63l-3.78-2.92c1.64,1.29,3.07,2.75,4.35,4.4l-2.92-3.78c1.5,2.02,2.69,4.19,3.69,6.5l-1.88-4.46c1.92,4.68,2.95,9.62,3.64,14.61l-.67-4.96c1.1,8.44,1.47,17,2.1,25.48.71,9.62,1.42,19.25,2.14,28.87,1.42,19.25,2.85,38.49,4.27,57.74,1.4,18.89,1.98,38.1,5.35,56.76,2.99,16.53,10.47,33.65,23.96,44.28,6.83,5.39,13.83,9.39,22.21,12.02,6.91,2.17,14.44,3.11,21.67,3.08,15.21-.06,30.29-4.4,43.63-11.58,13.92-7.5,25.26-18.61,33.74-31.88,9.08-14.2,14.83-30.7,18.06-47.17s4.62-34.21,5.2-51.43c.62-18.41.87-36.83,1.27-55.25.42-19.35.85-38.71,1.27-58.06.42-19.06,1.22-38.17.97-57.24s-2.36-38.59-8.16-56.98c-5.4-17.1-13.25-33.51-22.35-48.93-8.55-14.5-18.24-28.29-28.11-41.92-5.36-7.41-10.51-15.25-16.89-21.82-8.19-8.43-18.35-13.53-29.94-15.09-10.32-1.39-20.42-.09-30.66,1.3-7.37,1-14.69,2.38-21.91,4.18-15.76,3.93-31.07,9.82-45.63,16.97-27.65,13.58-52.99,33.31-72.61,57.08-5.52,6.69-10.76,13.63-15.54,20.87l34.76,9.42c-.69-25.78-1.38-51.55-2.08-77.33-.2-7.39-.13-14.78-1.3-22.1-1.66-10.34-9.6-18.59-19.45-21.64-6.61-2.05-13.91-1.53-20.74-1.48l-19.24.14c-14.51.1-29.02.2-43.53.31-4.8.03-9.79,2.06-13.19,5.46s-5.67,8.54-5.46,13.19c.45,10.05,8.2,18.73,18.66,18.66h0Z"/>
  </g>
</svg>