<?xml version="1.0" encoding="UTF-8"?>
<svg id="Capa_1" xmlns="http://www.w3.org/2000/svg" viewBox="0 0 34.57 34.48">
  <defs>
    <style>
      .cls-1 {
        fill: #fff;
      }
    </style>
  </defs>
  <path class="cls-1" d="M8.07,5.77c-.27.76.07,1.68.7,2.17.37.29.77.47,1.25.5.38.02.79-.1,1.1-.32.63-.43,1.04-1.19,1-1.96s-.49-1.49-1.21-1.8c-.39-.17-.81-.27-1.24-.22-.21.02-.41.05-.61.13-.27.11-.47.23-.7.42-.15.12-.23.37-.23.56,0,.19.09.42.23.56s.35.24.56.23.39-.09.56-.23c.02-.01.03-.03.05-.04l-.16.12c.09-.07.2-.13.3-.18l-.19.08c.13-.05.26-.09.4-.11l-.21.03c.15-.02.29-.02.44,0l-.21-.03c.14.02.27.06.4.11l-.19-.08c.12.05.23.11.33.19l-.16-.12c.09.07.17.15.25.24l-.12-.16c.06.08.11.16.15.25l-.08-.19c.04.11.07.22.09.33l-.03-.21c.01.13.01.25,0,.37l.03-.21c-.02.14-.06.27-.11.39l.08-.19c-.05.12-.11.22-.19.33l.12-.16c-.08.1-.16.19-.26.26l.16-.12c-.08.06-.17.11-.27.16l.19-.08c-.09.04-.18.06-.28.07l.21-.03c-.09.01-.19,0-.28,0l.21.03c-.1-.02-.2-.04-.3-.08l.19.08c-.11-.05-.2-.1-.3-.17l.16.12c-.1-.08-.19-.17-.27-.27l.12.16c-.08-.1-.14-.21-.19-.32l.08.19c-.04-.11-.07-.21-.09-.33l.03.21c0-.09,0-.18,0-.28l-.03.21c.01-.07.03-.14.05-.21.14-.39-.16-.88-.55-.97-.44-.1-.82.13-.97.55h0Z"/>
  <g>
    <path class="cls-1" d="M.07,5.6C-.01,10.21-.02,14.82.05,19.43c.04,2.39.09,4.77.17,7.16.06,1.69-.13,3.72.69,5.27.7,1.32,2.07,1.9,3.49,2.09,1.97.26,4.03.1,6.02.1,4.67,0,9.35,0,14.02,0,3.06,0,7.87.25,9.3-3.21.76-1.84.65-4.2.74-6.15.1-2.24.11-4.49.03-6.73-.16-4.39-.69-8.78-1.56-13.09-.3-1.46-.32-3.98-2.12-4.37-.85-.18-1.79-.07-2.66-.08-1.2,0-2.4-.01-3.6-.02-4.97-.03-9.96-.08-14.9.46C7.1,1.13-1.1,1.4.36,5.89c.31.96,1.84.55,1.52-.42-.92-2.8,8.94-3.17,10.61-3.28,3.62-.24,7.26-.24,10.89-.22,1.76,0,3.51.02,5.27.03.41,0,1.05-.11,1.44,0,.6.17.61.34.83.93.35.95.46,2.07.65,3.06.73,3.79,1.18,7.63,1.35,11.48s.13,7.4-.28,11.05c-.12,1.02-.26,2.01-1.09,2.71-.56.48-1.3.73-2,.91-1.88.48-3.92.33-5.84.33-3.85,0-7.71,0-11.56,0-1.8,0-3.61,0-5.41,0-1.42,0-3.52.16-4.38-1.25-.52-.84-.46-1.95-.49-2.9s-.07-1.97-.1-2.96c-.06-2.14-.11-4.28-.14-6.42-.06-4.44-.05-8.89.03-13.33.02-1.02-1.56-1.02-1.58,0H.07Z"/>
    <path class="cls-1" d="M5.73,10.67c-1.08,3.13-.8,6.43-.77,9.68.02,1.64-.05,3.26-.39,4.87-.26,1.23-.29,2.44.98,3.07s3.05.98,4.51.89,1.84-1.08,1.84-2.4c0-3.5-.05-7,.39-10.48.22-1.73.56-3.67-.09-5.36s-3.05-1.28-4.46-1.22c-1.01.04-1.02,1.62,0,1.58.45-.02.91-.03,1.36-.02.36,0,1.04-.08,1.36.07.66.31.53,1.69.52,2.31-.04,1.68-.39,3.35-.51,5.03s-.15,3.44-.15,5.16c0,.92,0,1.84,0,2.76,0,.16.09.84-.03.95-.18.15-.73.05-.94.04-.85-.04-1.68-.21-2.49-.48-.44-.15-.79-.17-.89-.66-.06-.29.1-.69.16-.97.33-1.53.42-3.09.42-4.65,0-3.27-.38-6.59.71-9.74.33-.96-1.19-1.38-1.52-.42h0Z"/>
    <path class="cls-1" d="M13.97,11.79h1.56c.25-.01.62.06.87-.02h.35c-.18-.32-.25-.35-.21-.08-.16.34.03,1.23.04,1.59.02.59.03,1.18.05,1.77.02.81,1.04,1.04,1.47.4,1.17-1.72,3.07-2.93,5.15-3.18.82-.1,1.1.31,1.54.92.3.43.6.86.87,1.31.65,1.09,1.03,2.19,1.05,3.47.04,2.35-.02,4.76-.15,7.11-.05.99-.18,2.14-.85,2.94-.48.56-1.51,1.01-2.2.58-.8-.49-.65-1.99-.71-2.78-.09-1.27-.18-2.55-.28-3.83-.06-.78-.09-1.66-.73-2.22-.68-.6-1.69-.52-2.37.04-1.48,1.22-1.33,4.12-1.13,5.81.11.91.37,2-.63,2.47-.7.32-1.81.4-2.56.22-.8-.2-.57-.94-.54-1.62s.06-1.43.09-2.15c.06-1.43.13-2.86.19-4.29.13-2.86.25-5.73.38-8.59.04-1.02-1.53-1.01-1.58,0-.13,3.04-.27,6.08-.4,9.13-.07,1.55-.14,3.1-.21,4.65-.05,1.09-.4,2.66.27,3.63.59.85,1.79.87,2.73.87s1.98-.14,2.79-.7c.85-.58,1.21-1.54,1.18-2.55-.06-1.51-.33-2.9-.06-4.42.06-.31.26-1.53.78-1.34.33.12.26,1.63.28,1.92.11,1.42.18,2.85.32,4.26.1,1.02.33,2.09,1.22,2.72.76.53,1.76.59,2.63.32,2.28-.71,2.87-3.11,2.97-5.24.07-1.47.07-2.94.1-4.41.03-1.34.15-2.72-.1-4.05-.27-1.46-1.07-2.75-1.91-3.94s-1.5-1.99-3.1-1.82c-2.62.29-4.93,1.79-6.41,3.95l1.47.4c-.02-.83-.04-1.65-.07-2.48-.02-.56.1-1.37-.25-1.87s-.93-.51-1.49-.51c-.81,0-1.62.01-2.42.02-1.02,0-1.02,1.59,0,1.58h0Z"/>
  </g>
</svg>