<?xml version="1.0" encoding="UTF-8"?>
<svg xmlns="http://www.w3.org/2000/svg" xmlns:xlink="http://www.w3.org/1999/xlink" width="40px" height="40px" viewBox="0 0 40 40" version="1.1">
<g id="surface1">
<path style=" stroke:none;fill-rule:nonzero;fill:rgb(100%,100%,100%);fill-opacity:1;" d="M 9.613281 6.695312 C 9.3125 7.574219 9.695312 8.644531 10.402344 9.210938 C 10.820312 9.546875 11.273438 9.757812 11.8125 9.792969 C 12.242188 9.8125 12.703125 9.675781 13.050781 9.421875 C 13.761719 8.921875 14.222656 8.039062 14.179688 7.144531 C 14.132812 6.253906 13.628906 5.417969 12.816406 5.058594 C 12.375 4.859375 11.902344 4.746094 11.417969 4.804688 C 11.179688 4.824219 10.957031 4.859375 10.730469 4.953125 C 10.425781 5.082031 10.203125 5.21875 9.941406 5.441406 C 9.773438 5.578125 9.683594 5.871094 9.683594 6.089844 C 9.683594 6.3125 9.785156 6.578125 9.941406 6.738281 C 10.101562 6.902344 10.335938 7.019531 10.574219 7.007812 C 10.808594 6.996094 11.011719 6.902344 11.203125 6.738281 C 11.226562 6.730469 11.238281 6.707031 11.261719 6.695312 L 11.082031 6.832031 C 11.179688 6.75 11.304688 6.683594 11.417969 6.625 L 11.203125 6.71875 C 11.351562 6.660156 11.496094 6.613281 11.65625 6.589844 L 11.417969 6.625 C 11.585938 6.601562 11.746094 6.601562 11.914062 6.625 L 11.675781 6.589844 C 11.835938 6.613281 11.980469 6.660156 12.128906 6.71875 L 11.914062 6.625 C 12.050781 6.683594 12.171875 6.75 12.285156 6.84375 L 12.105469 6.707031 C 12.207031 6.785156 12.296875 6.878906 12.386719 6.984375 L 12.253906 6.796875 C 12.320312 6.890625 12.375 6.984375 12.421875 7.089844 L 12.332031 6.867188 C 12.375 6.996094 12.410156 7.121094 12.433594 7.25 L 12.398438 7.007812 C 12.410156 7.15625 12.410156 7.296875 12.398438 7.4375 L 12.433594 7.191406 C 12.410156 7.355469 12.363281 7.503906 12.308594 7.644531 L 12.398438 7.425781 C 12.34375 7.5625 12.273438 7.679688 12.183594 7.808594 L 12.320312 7.621094 C 12.230469 7.738281 12.140625 7.84375 12.027344 7.921875 L 12.207031 7.785156 C 12.117188 7.855469 12.015625 7.910156 11.902344 7.96875 L 12.117188 7.878906 C 12.015625 7.921875 11.914062 7.945312 11.800781 7.957031 L 12.039062 7.921875 C 11.9375 7.933594 11.824219 7.921875 11.722656 7.921875 L 11.960938 7.957031 C 11.847656 7.933594 11.734375 7.910156 11.621094 7.867188 L 11.835938 7.957031 C 11.710938 7.898438 11.609375 7.84375 11.496094 7.761719 L 11.675781 7.898438 C 11.566406 7.808594 11.464844 7.703125 11.375 7.585938 L 11.507812 7.773438 C 11.417969 7.65625 11.351562 7.527344 11.292969 7.402344 L 11.382812 7.621094 C 11.339844 7.496094 11.304688 7.378906 11.28125 7.238281 L 11.316406 7.484375 C 11.316406 7.378906 11.316406 7.273438 11.316406 7.15625 L 11.28125 7.402344 C 11.292969 7.320312 11.316406 7.238281 11.339844 7.15625 C 11.496094 6.707031 11.160156 6.136719 10.71875 6.03125 C 10.222656 5.917969 9.796875 6.183594 9.625 6.671875 Z M 9.613281 6.695312 "/>
<path style=" stroke:none;fill-rule:nonzero;fill:rgb(100%,100%,100%);fill-opacity:1;" d="M 0.597656 6.496094 C 0.507812 11.84375 0.5 17.191406 0.578125 22.539062 C 0.621094 25.3125 0.679688 28.074219 0.769531 30.847656 C 0.835938 32.808594 0.621094 35.164062 1.546875 36.960938 C 2.335938 38.492188 3.878906 39.164062 5.480469 39.386719 C 7.699219 39.6875 10.019531 39.5 12.261719 39.5 C 17.527344 39.5 22.800781 39.5 28.0625 39.5 C 31.511719 39.5 36.933594 39.792969 38.542969 35.777344 C 39.402344 33.644531 39.277344 30.90625 39.378906 28.644531 C 39.492188 26.042969 39.5 23.433594 39.410156 20.835938 C 39.230469 15.742188 38.632812 10.648438 37.652344 5.648438 C 37.316406 3.957031 37.292969 1.03125 35.265625 0.578125 C 34.304688 0.371094 33.246094 0.5 32.265625 0.488281 C 30.914062 0.488281 29.5625 0.476562 28.210938 0.464844 C 22.609375 0.429688 16.984375 0.371094 11.417969 0.996094 C 8.523438 1.3125 -0.71875 1.625 0.925781 6.832031 C 1.277344 7.945312 3 7.472656 2.640625 6.347656 C 1.601562 3.097656 12.714844 2.667969 14.597656 2.539062 C 18.675781 2.261719 22.777344 2.261719 26.867188 2.285156 C 28.851562 2.285156 30.824219 2.308594 32.808594 2.320312 C 33.269531 2.320312 33.992188 2.191406 34.429688 2.320312 C 35.105469 2.515625 35.117188 2.714844 35.367188 3.398438 C 35.761719 4.5 35.882812 5.800781 36.097656 6.949219 C 36.921875 11.347656 37.429688 15.800781 37.621094 20.265625 C 37.8125 24.734375 37.765625 28.851562 37.304688 33.085938 C 37.167969 34.269531 37.011719 35.417969 36.074219 36.230469 C 35.445312 36.785156 34.609375 37.078125 33.820312 37.285156 C 31.703125 37.84375 29.40625 37.667969 27.242188 37.667969 C 22.902344 37.667969 18.550781 37.667969 14.214844 37.667969 C 12.183594 37.667969 10.144531 37.667969 8.117188 37.667969 C 6.515625 37.667969 4.148438 37.855469 3.179688 36.21875 C 2.59375 35.242188 2.660156 33.957031 2.628906 32.855469 C 2.59375 31.75 2.550781 30.570312 2.515625 29.421875 C 2.449219 26.9375 2.390625 24.453125 2.359375 21.972656 C 2.289062 16.820312 2.300781 11.660156 2.390625 6.507812 C 2.414062 5.324219 0.632812 5.324219 0.609375 6.507812 L 0.597656 6.507812 Z M 0.597656 6.496094 "/>
<path style=" stroke:none;fill-rule:nonzero;fill:rgb(100%,100%,100%);fill-opacity:1;" d="M 6.976562 12.378906 C 5.761719 16.007812 6.078125 19.835938 6.109375 23.609375 C 6.132812 25.511719 6.054688 27.390625 5.671875 29.257812 C 5.378906 30.683594 5.34375 32.089844 6.773438 32.820312 C 8.207031 33.550781 10.210938 33.957031 11.859375 33.851562 C 13.503906 33.746094 13.929688 32.597656 13.929688 31.066406 C 13.929688 27.007812 13.875 22.945312 14.371094 18.910156 C 14.617188 16.902344 15.003906 14.652344 14.269531 12.691406 C 13.535156 10.730469 10.832031 11.207031 9.242188 11.277344 C 8.105469 11.324219 8.09375 13.15625 9.242188 13.109375 C 9.75 13.085938 10.269531 13.074219 10.777344 13.085938 C 11.179688 13.085938 11.949219 12.992188 12.308594 13.167969 C 13.050781 13.527344 12.90625 15.128906 12.894531 15.847656 C 12.847656 17.796875 12.457031 19.734375 12.320312 21.683594 C 12.183594 23.632812 12.152344 25.671875 12.152344 27.667969 C 12.152344 28.734375 12.152344 29.804688 12.152344 30.871094 C 12.152344 31.054688 12.253906 31.84375 12.117188 31.972656 C 11.914062 32.144531 11.292969 32.03125 11.058594 32.019531 C 10.101562 31.972656 9.164062 31.773438 8.25 31.460938 C 7.753906 31.289062 7.359375 31.265625 7.25 30.695312 C 7.179688 30.359375 7.359375 29.894531 7.429688 29.570312 C 7.800781 27.796875 7.902344 25.984375 7.902344 24.175781 C 7.902344 20.382812 7.472656 16.53125 8.703125 12.878906 C 9.074219 11.761719 7.359375 11.277344 6.988281 12.390625 Z M 6.976562 12.378906 "/>
<path style=" stroke:none;fill-rule:nonzero;fill:rgb(100%,100%,100%);fill-opacity:1;" d="M 16.265625 13.675781 L 18.023438 13.675781 C 18.304688 13.664062 18.722656 13.746094 19.003906 13.652344 L 19.398438 13.652344 C 19.195312 13.28125 19.117188 13.25 19.160156 13.5625 C 18.980469 13.957031 19.195312 14.988281 19.207031 15.40625 C 19.226562 16.089844 19.238281 16.773438 19.261719 17.460938 C 19.285156 18.398438 20.433594 18.664062 20.917969 17.921875 C 22.238281 15.929688 24.378906 14.523438 26.722656 14.234375 C 27.644531 14.117188 27.960938 14.59375 28.457031 15.300781 C 28.796875 15.800781 29.132812 16.300781 29.4375 16.820312 C 30.171875 18.085938 30.597656 19.363281 30.621094 20.847656 C 30.667969 23.574219 30.597656 26.367188 30.453125 29.09375 C 30.394531 30.242188 30.25 31.578125 29.496094 32.503906 C 28.953125 33.15625 27.792969 33.675781 27.015625 33.179688 C 26.113281 32.609375 26.28125 30.871094 26.214844 29.953125 C 26.113281 28.480469 26.011719 26.996094 25.898438 25.511719 C 25.832031 24.605469 25.796875 23.585938 25.078125 22.933594 C 24.3125 22.238281 23.171875 22.332031 22.40625 22.980469 C 20.738281 24.398438 20.90625 27.761719 21.132812 29.722656 C 21.257812 30.777344 21.550781 32.042969 20.421875 32.585938 C 19.632812 32.957031 18.382812 33.050781 17.539062 32.84375 C 16.636719 32.609375 16.894531 31.75 16.929688 30.960938 C 16.960938 30.175781 16.996094 29.304688 17.03125 28.46875 C 17.097656 26.808594 17.175781 25.152344 17.246094 23.492188 C 17.390625 20.175781 17.527344 16.84375 17.671875 13.527344 C 17.71875 12.34375 15.949219 12.355469 15.890625 13.527344 C 15.746094 17.054688 15.589844 20.578125 15.441406 24.117188 C 15.363281 25.917969 15.285156 27.714844 15.203125 29.511719 C 15.148438 30.777344 14.753906 32.597656 15.507812 33.722656 C 16.175781 34.710938 17.527344 34.734375 18.585938 34.734375 C 19.644531 34.734375 20.816406 34.570312 21.730469 33.921875 C 22.6875 33.25 23.09375 32.132812 23.058594 30.960938 C 22.992188 29.210938 22.6875 27.597656 22.992188 25.835938 C 23.058594 25.476562 23.285156 24.058594 23.871094 24.28125 C 24.242188 24.421875 24.164062 26.171875 24.1875 26.507812 C 24.3125 28.15625 24.390625 29.8125 24.546875 31.449219 C 24.660156 32.632812 24.917969 33.875 25.921875 34.605469 C 26.777344 35.21875 27.90625 35.289062 28.886719 34.976562 C 31.457031 34.152344 32.121094 31.367188 32.234375 28.898438 C 32.3125 27.191406 32.3125 25.488281 32.347656 23.78125 C 32.378906 22.226562 32.515625 20.625 32.234375 19.082031 C 31.929688 17.390625 31.027344 15.894531 30.082031 14.511719 C 29.132812 13.132812 28.390625 12.203125 26.585938 12.402344 C 23.632812 12.738281 21.03125 14.476562 19.363281 16.984375 L 21.019531 17.449219 C 20.996094 16.484375 20.976562 15.535156 20.941406 14.570312 C 20.917969 13.921875 21.054688 12.980469 20.660156 12.402344 C 20.265625 11.820312 19.609375 11.808594 18.980469 11.808594 C 18.066406 11.808594 17.15625 11.820312 16.253906 11.832031 C 15.101562 11.832031 15.101562 13.675781 16.253906 13.664062 Z M 16.265625 13.675781 "/>
</g>
</svg>
