<?xml version="1.0" encoding="UTF-8"?>
<svg id="Capa_1" xmlns="http://www.w3.org/2000/svg" viewBox="0 0 885.24 607.79">
  <defs>
    <style>
      .cls-1 {
        fill: #fff;
      }
    </style>
  </defs>
  <path class="cls-1" d="M37.13,88.22c.87,41.27-2.96,82.44-8.42,123.31l.88-6.54C18.92,284.3,1.95,363.25.15,443.51c-.91,40.47,2.41,81.41,11.9,120.83,2.67,11.1,7.05,22.56,15.73,30.4,10.59,9.57,23.93,12.64,37.88,12.89,21.07.38,42.19-.02,63.27-.07,85.37-.2,170.73-.68,256.1-1.43,85.36-.76,170.72-1.79,256.08-3.1,42.95-.66,85.9-1.39,128.85-2.19,10.4-.19,20.79-.39,31.19-.59s20.72.1,30.97-.81c13.22-1.19,26.43-4.61,35.85-14.69,9.29-9.94,12.79-22.15,14.1-35.34.89-8.96.46-18.08.46-27.07,0-10.94.01-21.88.02-32.83.01-21.34.02-42.67.03-64.01.02-42.67.04-85.35.06-128.02.02-42.67.04-85.35.06-128.02.01-21.34.02-42.67.03-64.01,0-10.39.01-20.79.02-31.18s.93-22.54-2.23-33.03c-4.33-14.41-15.03-24.75-29.33-29.14-10.38-3.19-21.97-2.55-32.7-2.4-21.08.29-42.14,1.37-63.16,2.92-42.09,3.11-84.01,8.07-126,12.23-84.25,8.35-168.78,13.87-253.4,16.54-84.63,2.67-169.36,2.51-253.98-.51-20.61-.73-41.22-1.64-61.81-2.71-12.88-.67-25.19,11.8-24.62,24.62.62,13.91,10.82,23.9,24.62,24.62,101.91,5.28,204.03,6.47,306.03,3.51,102-2.96,203.67-10.53,305.15-21.17,28.51-2.99,57.03-5.94,85.63-8.02,14.02-1.02,28.05-1.83,42.09-2.32s27.48-1.71,40.8,0l-6.54-.88c2.43.39,4.75.95,7.05,1.84l-5.88-2.48c.72.33,1.41.7,2.12,1.04,3.46,1.66-3.48-3.42-1.69-1.39s-2.72-4.63-1.57-2.2c.42.89.97,1.72,1.39,2.62l-2.48-5.88c.89,2.28,1.42,4.57,1.76,7l-.88-6.54c.78,7.18.39,14.52.39,21.73,0,8.21,0,16.41-.01,24.62,0,16.41-.02,32.83-.02,49.24-.02,32.83-.03,65.65-.05,98.48-.03,65.65-.06,131.3-.1,196.95,0,18.6-.02,37.2-.03,55.8,0,9.03,0,18.05-.01,27.08,0,8.04.33,16.15-.6,24.15l.88-6.54c-.48,3.49-1.24,6.85-2.55,10.12l2.48-5.88c-.47,1.04-1,2-1.52,3.02-.99,1.5-.77,1.29.66-.64,1.51-1.86,1.68-2.11.51-.74l-.8.82c-1.82,1.61-1.1,1.08,2.15-1.59-1,.16-2.45,1.39-3.38,1.82l5.88-2.48c-2.86,1.16-5.74,1.84-8.79,2.29l6.54-.88c-12.14,1.48-24.69.93-36.9,1.17s-25.17.48-37.75.71c-25.17.46-50.34.9-75.5,1.32-50.88.84-101.77,1.58-152.66,2.22-101.77,1.28-203.55,2.17-305.34,2.66-28.46.14-56.91.24-85.37.32-13.95.04-27.91.07-41.86.09-13.55.02-27.63,1.09-41.1-.46l6.54.88c-2.63-.38-5.12-.96-7.61-1.9l5.88,2.48c-1.09-.48-2.32-1.39-3.43-1.78,3.03,2.51,3.86,3.14,2.47,1.89-.47-.41-.9-.85-1.31-1.32.41-.26,3.8,5.89,1,.95-.62-1.09-1.13-2.23-1.63-3.38l2.48,5.88c-2.98-7.51-4.46-15.67-6.05-23.57-1.72-8.52-3.13-17.1-4.3-25.71l.88,6.54c-7.57-57.32-3.06-115.24,4.6-172.29l-.88,6.54c9.36-69.25,23.19-138,27.99-207.81,1.31-19.01,1.87-38.07,1.47-57.12-.27-12.86-11.13-25.22-24.62-24.62s-24.91,10.82-24.62,24.62h0Z"/>
  <path class="cls-1" d="M48.17,97.43c23.37,11.94,46.81,23.93,68.73,38.42,6.17,4.08,12.21,8.36,18.08,12.87l-4.98-3.85c8.44,6.52,16.5,13.53,23.96,21.15s14.81,16.34,22.59,24.16c8.81,8.85,18.71,16.76,29.41,23.19s21.62,11.04,32.83,15.74c10.89,4.57,21.97,8.66,32.85,13.24l-5.88-2.48c19.11,8.08,36.87,18.42,53.32,31.07l-4.98-3.85c22.71,17.55,42.57,38.4,61.57,59.82,5.42,6.12,10.78,12.29,16.14,18.46,2.23,2.4,4.87,4.1,7.92,5.09,2.93,1.54,6.09,2.25,9.48,2.12,6.04,0,13.25-2.68,17.41-7.21s7.5-10.85,7.21-17.41l-.88-6.54c-1.17-4.17-3.28-7.79-6.33-10.86-17.88-20.62-35.87-41.25-55.94-59.8-21.33-19.71-45.02-37.52-71.52-49.65-15.78-7.22-32.11-13.08-48.09-19.81l5.88,2.48c-13.27-5.61-26.29-12.01-37.77-20.82l4.98,3.85c-9.6-7.45-17.74-16.49-25.89-25.44s-16.38-17.28-25.55-24.96c-19.76-16.54-41.39-30.39-63.94-42.77-11.8-6.48-23.78-12.61-35.76-18.73-5.89-3.01-12.45-4.28-18.97-2.48-5.71,1.57-11.9,5.99-14.71,11.31-3.02,5.71-4.53,12.63-2.48,18.97,1.91,5.91,5.61,11.8,11.31,14.71h0Z"/>
  <path class="cls-1" d="M843.2,7.23c-18.18,19.52-36.52,38.88-55.05,58.07s-37.24,38.24-56.12,57.11c-18.89,18.88-37.95,37.59-57.18,56.13s-38.51,36.8-58.01,54.94-39.33,36.26-59.23,54.13c-2.44,2.19-4.88,4.37-7.32,6.55-2.4,2.23-4.1,4.87-5.09,7.92-1.54,2.93-2.25,6.09-2.12,9.48-.13,3.39.58,6.55,2.12,9.48.99,3.05,2.69,5.69,5.09,7.92,4.69,4.31,10.85,7.5,17.41,7.21l6.54-.88c4.17-1.17,7.79-3.28,10.86-6.33,19.94-17.82,39.73-35.82,59.35-54,19.61-18.16,39.06-36.5,58.34-55.02,19.27-18.5,38.37-37.17,57.3-56.01s37.54-37.69,56.05-56.79c18.57-19.15,36.96-38.47,55.18-57.95,2.23-2.38,4.45-4.77,6.68-7.16,4.4-4.73,7.21-10.86,7.21-17.41.13-3.39-.58-6.55-2.12-9.48-.99-3.05-2.69-5.69-5.09-7.92-4.69-4.31-10.85-7.5-17.41-7.21s-12.92,2.4-17.41,7.21h0Z"/>
  <path class="cls-1" d="M515.85,403.88c-3.84-1.13-7.62-2.47-11.31-4.02l5.88,2.48c-9.06-3.83-17.52-8.9-25.31-14.89l4.98,3.85c-10.68-8.27-19.97-18.16-28.23-28.82l3.85,4.98c-12.59-16.32-22.8-34.34-32.15-52.68-2.62-5.13-5.39-10.27-7.65-15.57l2.48,5.88c-.73-1.76-1.33-3.56-1.6-5.45l.88,6.54c-.1-.9-.13-1.78-.04-2.68l-.88,6.54c.1-.76.28-1.47.56-2.19l-2.48,5.88c.27-.6.58-1.15.96-1.68l-3.85,4.98c.48-.61,1.02-1.14,1.62-1.63l-4.98,3.85c1.06-.8,2.21-1.41,3.42-1.94l-5.88,2.48c3.29-1.37,6.78-2.24,10.31-2.74l-6.54.88c4.16-.55,8.35-.54,12.51,0l-6.54-.88c4.15.57,8.19,1.65,12.05,3.25l-5.88-2.48c3.47,1.47,6.74,3.34,9.74,5.62l-4.98-3.85c5.28,4.1,9.38,9.41,13.46,14.64,2.05,2.63,4.09,5.26,6.32,7.75,3.48,3.9,7.43,6.99,11.64,10.13,4.47,3.33,9.84,5.66,15.17,7.19,8.41,2.43,17.8-.18,23.95-6.33,6.25-6.25,8.59-15.43,6.33-23.95-.56-2.09-.98-4.22-1.27-6.36l.88,6.54c-.59-4.55-.59-9.14,0-13.69l-.88,6.54c.61-4.54,1.8-8.96,3.57-13.19l-2.48,5.88c1.61-3.76,3.65-7.29,6.15-10.53l-3.85,4.98c2.25-2.87,4.82-5.44,7.7-7.68l-4.98,3.85c2.74-2.09,5.73-3.8,8.9-5.15l-5.88,2.48c3.64-1.52,7.45-2.54,11.36-3.09l-6.54.88c4.02-.53,8.08-.56,12.11-.04l-6.54-.88c3.62.49,7.16,1.42,10.54,2.83l-5.88-2.48c2.81,1.2,5.44,2.71,7.87,4.56l-4.98-3.85c2.28,1.78,4.32,3.84,6.1,6.12l-3.85-4.98c1.87,2.44,3.41,5.08,4.62,7.91l-2.48-5.88c1.35,3.23,2.23,6.61,2.72,10.07l-.88-6.54c.63,4.74.53,9.52-.1,14.26l.88-6.54c-.91,6.51-2.78,12.84-5.33,18.89l2.48-5.88c-4.39,10.29-10.93,19.3-17.73,28.11l3.85-4.98c-10.1,13.06-21.27,25.77-28.78,40.59-2.77,5.45-5.2,11.15-7.11,16.96-1.03,3.27-1.17,6.54-.44,9.82.15,3.28,1.12,6.33,2.92,9.15,1.55,2.87,3.66,5.17,6.34,6.91,2.38,2.18,5.17,3.64,8.37,4.41l6.54.88c4.44-.01,8.58-1.13,12.42-3.36l4.98-3.85c3.05-3.07,5.16-6.69,6.33-10.86.63-1.91,1.33-3.79,2.1-5.64l-2.48,5.88c4.64-10.96,11.62-20.66,18.86-30.03l-3.85,4.98c6.35-8.21,12.92-16.26,18.95-24.7,2.33-3.26,4.59-6.59,6.59-10.07,2.87-4.99,5.06-10.24,7.27-15.55,3.7-8.9,5.49-18.14,6.37-27.74.32-3.52.33-7.08-.07-10.59-.63-5.53-1.24-11.14-3.22-16.38s-4.05-10.34-7.39-14.76c-2.24-2.97-4.45-6.06-7.1-8.69s-5.73-4.85-8.72-7.04c-4.38-3.2-9.62-5.3-14.65-7.16-5.29-1.96-10.97-2.6-16.53-3.2-3.51-.38-7.06-.34-10.56.1-5.68.71-11.27,1.34-16.65,3.33-5.1,1.89-10.37,4.01-14.89,7.12s-9.28,6.77-12.98,11.07c-3.64,4.22-7.19,8.79-9.77,13.77-1.78,3.43-3.23,7.04-4.63,10.63-.65,1.68-1.21,3.39-1.68,5.13s-.87,3.63-1.16,5.47c-.61,3.88-1.21,7.82-1.43,11.75-.32,5.83.51,11.6,1.41,17.35.28,1.78.66,3.55,1.12,5.29,10.09-10.09,20.19-20.19,30.28-30.28-1.09-.31-2.15-.69-3.2-1.13l5.88,2.48c-2.33-1.01-4.48-2.33-6.48-3.88l4.98,3.85c-6.53-5.13-11.18-12.14-16.36-18.52-2.67-3.29-5.51-6.48-8.8-9.16s-6.58-5.34-10.22-7.48-7.69-3.73-11.62-5.32c-6.21-2.52-12.75-3.4-19.38-4.12s-13.43.15-19.98,1.36c-2.24.41-4.44,1-6.58,1.76-2.93,1.04-5.85,2.24-8.63,3.62-.53.26-1.05.55-1.54.88-2.15,1.41-4.29,3.09-6.22,4.78-2.28,2.01-4.23,4.56-5.66,7.23-.61,1.13-1.13,2.59-1.57,3.63s-1.05,2.3-1.44,3.47c-.78,2.38-1.14,6.84-1.24,8.2-.24,3.12.48,6.47.95,9.42.2,1.27.54,2.51.97,3.72,2.2,6.13,5.2,11.97,8.11,17.79,1.96,3.92,3.95,7.83,5.99,11.71,4.15,7.9,8.49,15.7,13.14,23.31s9.58,14.95,14.97,22c6.47,8.46,13.09,16.73,20.72,24.18,7.55,7.38,15.94,14.09,24.77,19.87s18.55,10.23,28.47,13.82c2.07.75,4.16,1.42,6.27,2.04,3.27,1.03,6.54,1.17,9.82.44,3.28-.15,6.33-1.12,9.15-2.92,2.87-1.55,5.17-3.66,6.91-6.34,2.18-2.38,3.64-5.17,4.41-8.37l.88-6.54c-.01-4.44-1.13-8.58-3.36-12.42l-3.85-4.98c-3.07-3.05-6.69-5.16-10.86-6.33h0Z"/>
  <path class="cls-1" d="M446.29,378.43c5.42-5.46,10.83-10.92,16.25-16.38,2.68-2.7,5.36-5.4,8.04-8.1,2.45-2.47,4.8-5.11,7.54-7.26l-4.98,3.85c.97-.73,1.98-1.36,3.09-1.87l-5.88,2.48c.93-.38,1.86-.66,2.85-.8l-6.54.88c.92-.11,1.81-.1,2.73,0l-6.54-.88c1.14.16,2.23.48,3.29.92l-5.88-2.48c1.07.48,2.07,1.08,3.01,1.78l-4.98-3.85c1.14.88,2.14,1.88,3.04,3.01l-3.85-4.98c.87,1.14,1.59,2.35,2.17,3.67l-2.48-5.88c.56,1.37.9,2.78,1.12,4.24l-.88-6.54c.3,2.29.25,4.56-.03,6.84l.88-6.54c-.56,4.18-1.82,8.21-3.12,12.22l-.88,6.54c-.13,3.39.58,6.55,2.12,9.48.58,2.09,1.64,3.9,3.17,5.43,1.74,2.68,4.04,4.79,6.91,6.34l5.88,2.48,6.54.88c3.39.13,6.55-.58,9.48-2.12,3.05-.99,5.69-2.69,7.92-5.09,14.52-17.09,30.23-33.14,47.01-48.01,4.77-4.23,9.62-8.36,14.55-12.4-14.01-5.8-28.01-11.6-42.02-17.41-.07,5-.44,9.98-1.1,14.94l.88-6.54c-1.54,11.28-4.6,22.31-9.01,32.8l2.48-5.88c-4.43,10.43-10.17,20.26-17.09,29.23l3.85-4.98c-3.2,4.12-6.64,8.05-10.3,11.77l-3.85,4.98-2.48,5.88-.88,6.54c-.13,3.39.58,6.55,2.12,9.48.58,2.09,1.64,3.9,3.17,5.43,1.09,1.85,2.57,3.32,4.42,4.42,1.54,1.53,3.35,2.58,5.43,3.17,2.93,1.54,6.09,2.25,9.48,2.12,3.78-.22,7.62-.66,11.29-1.6s7.06-2.55,10.37-4.09c1.49-.7,2.92-1.53,4.26-2.49,2.92-2.08,5.91-4.25,8.47-6.79s4.71-5.53,6.79-8.44c.94-1.31,1.76-2.71,2.43-4.18,1.45-3.15,3.1-6.62,3.95-10.08.9-3.68,1.41-7.51,1.5-11.3.21-8.61-4.85-16.96-12.19-21.26-3.84-2.23-7.98-3.35-12.42-3.36-4.44.01-8.58,1.13-12.42,3.36-16.59,8.48-33.18,16.97-49.77,25.45-2.87,1.55-5.17,3.66-6.91,6.34-2.18,2.38-3.64,5.17-4.41,8.37-1.03,3.27-1.17,6.54-.44,9.82.15,3.28,1.12,6.33,2.92,9.15,3.39,5.26,8.43,9.88,14.71,11.31l6.54.88c4.44-.01,8.58-1.13,12.42-3.36,16.59-8.48,33.18-16.97,49.77-25.45-12.35-7.09-24.69-14.17-37.04-21.26-.02.8-.08,1.6-.18,2.4l.88-6.54c-.29,2.05-.84,4.02-1.63,5.93l2.48-5.88c-.88,2.02-2,3.9-3.33,5.65l3.85-4.98c-1.45,1.85-3.11,3.49-4.96,4.94l4.98-3.85c-1.88,1.43-3.91,2.62-6.08,3.54l5.88-2.48c-1.98.81-4.02,1.38-6.13,1.7l6.54-.88c-.71.09-1.42.16-2.13.2,5.8,14.01,11.6,28.01,17.41,42.02,6-6.09,11.34-12.8,16.37-19.7,3.86-5.29,7.32-10.87,10.35-16.68,3.86-7.41,7.17-15.19,9.93-23.07,2.15-6.13,3.84-12.42,5.04-18.81,1.72-9.17,2.88-18.55,3.01-27.88l-.88-6.54-2.48-5.88-3.85-4.98c-2.23-2.4-4.87-4.1-7.92-5.09-1.92-1.11-3.99-1.67-6.21-1.68-2.18-.59-4.36-.59-6.54,0-2.22,0-4.29.57-6.21,1.68-3.05.99-5.69,2.69-7.92,5.09-17.37,14.22-33.76,29.65-48.97,46.17-4.29,4.66-8.49,9.41-12.59,14.24,13.71,7.98,27.43,15.97,41.14,23.95,1.06-3.27,2.11-6.55,2.75-9.93.7-3.65,1.27-7.4,1.45-11.12s-.48-7.54-1.06-11.1c-.24-1.47-.57-2.86-1.12-4.24-1.2-3.01-2.3-6.29-4.22-8.97-3.95-5.53-8.01-10.19-14.07-13.57-5.53-3.09-12.59-5.38-19.01-4.97-2.6.17-5.36.54-7.92,1.06-.62.12-1.2.32-1.79.53-2.57.94-5.28,1.95-7.68,3.37s-4.74,3.47-6.64,4.98c-2.54,2.02-4.74,4.43-7.02,6.73-2.5,2.52-5.01,5.05-7.51,7.57-5.77,5.81-11.53,11.63-17.3,17.44-2.4,2.23-4.1,4.87-5.09,7.92-1.54,2.93-2.25,6.09-2.12,9.48-.13,3.39.58,6.55,2.12,9.48.99,3.05,2.69,5.69,5.09,7.92,4.69,4.31,10.85,7.5,17.41,7.21l6.54-.88c4.17-1.17,7.79-3.28,10.86-6.33h0Z"/>
</svg>