<?xml version="1.0" encoding="UTF-8"?>
<svg xmlns="http://www.w3.org/2000/svg" xmlns:xlink="http://www.w3.org/1999/xlink" width="130px" height="89px" viewBox="0 0 129 89" version="1.1">
<g id="surface1">
<path style=" stroke:none;fill-rule:nonzero;fill:rgb(100%,100%,100%);fill-opacity:1;" d="M 5.414062 12.972656 C 5.542969 19.003906 4.984375 25.027344 4.1875 30.996094 L 4.316406 30.039062 C 2.757812 41.636719 0.285156 53.175781 0.0195312 64.910156 C -0.109375 70.824219 0.375 76.804688 1.757812 82.570312 C 2.144531 84.195312 2.785156 85.867188 4.050781 87.015625 C 5.597656 88.414062 7.535156 88.867188 9.574219 88.898438 C 12.644531 88.953125 15.722656 88.898438 18.792969 88.894531 C 31.230469 88.867188 43.667969 88.789062 56.109375 88.679688 C 68.546875 88.570312 80.988281 88.421875 93.425781 88.230469 C 99.683594 88.136719 105.945312 88.027344 112.203125 87.910156 C 113.722656 87.882812 115.234375 87.855469 116.75 87.820312 C 118.269531 87.792969 119.769531 87.835938 121.265625 87.703125 C 123.191406 87.535156 125.121094 87.027344 126.488281 85.558594 C 127.84375 84.105469 128.351562 82.324219 128.542969 80.398438 C 128.671875 79.085938 128.613281 77.753906 128.613281 76.445312 C 128.613281 74.84375 128.613281 73.246094 128.613281 71.640625 C 128.613281 68.523438 128.613281 65.40625 128.613281 62.285156 C 128.613281 56.050781 128.613281 49.808594 128.617188 43.574219 C 128.617188 37.339844 128.617188 31.097656 128.625 24.863281 C 128.625 21.742188 128.625 18.628906 128.625 15.507812 C 128.625 13.992188 128.625 12.46875 128.625 10.953125 C 128.625 9.4375 128.761719 7.660156 128.296875 6.125 C 127.664062 4.019531 126.105469 2.503906 124.023438 1.863281 C 122.511719 1.398438 120.824219 1.488281 119.257812 1.515625 C 116.1875 1.554688 113.117188 1.710938 110.050781 1.9375 C 103.917969 2.394531 97.808594 3.117188 91.691406 3.726562 C 79.414062 4.949219 67.097656 5.753906 54.761719 6.144531 C 42.429688 6.535156 30.078125 6.511719 17.75 6.070312 C 14.746094 5.960938 11.746094 5.828125 8.742188 5.671875 C 6.863281 5.578125 5.074219 7.402344 5.152344 9.273438 C 5.242188 11.308594 6.734375 12.769531 8.742188 12.871094 C 23.589844 13.640625 38.476562 13.8125 53.335938 13.382812 C 68.199219 12.953125 83.015625 11.847656 97.804688 10.289062 C 101.957031 9.851562 106.117188 9.421875 110.285156 9.113281 C 112.324219 8.964844 114.367188 8.847656 116.417969 8.773438 C 118.46875 8.699219 120.421875 8.519531 122.363281 8.773438 L 121.410156 8.644531 C 121.761719 8.699219 122.101562 8.78125 122.4375 8.910156 L 121.578125 8.546875 C 121.679688 8.59375 121.78125 8.648438 121.886719 8.699219 C 122.390625 8.945312 121.382812 8.199219 121.640625 8.492188 C 121.898438 8.785156 121.246094 7.816406 121.410156 8.171875 C 121.46875 8.300781 121.550781 8.425781 121.613281 8.554688 L 121.253906 7.695312 C 121.382812 8.027344 121.457031 8.363281 121.511719 8.71875 L 121.382812 7.761719 C 121.496094 8.8125 121.4375 9.886719 121.4375 10.9375 C 121.4375 12.140625 121.4375 13.335938 121.4375 14.535156 C 121.4375 16.933594 121.4375 19.339844 121.4375 21.734375 C 121.4375 26.535156 121.4375 31.328125 121.429688 36.128906 C 121.429688 45.726562 121.421875 55.320312 121.414062 64.914062 C 121.414062 67.632812 121.414062 70.351562 121.414062 73.070312 C 121.414062 74.386719 121.414062 75.707031 121.414062 77.03125 C 121.414062 78.207031 121.464844 79.394531 121.328125 80.5625 L 121.457031 79.605469 C 121.386719 80.117188 121.273438 80.609375 121.082031 81.085938 L 121.441406 80.226562 C 121.375 80.378906 121.300781 80.519531 121.21875 80.671875 C 121.074219 80.890625 121.109375 80.863281 121.3125 80.574219 C 121.53125 80.300781 121.558594 80.269531 121.386719 80.464844 L 121.273438 80.589844 C 121.007812 80.820312 121.109375 80.746094 121.585938 80.355469 C 121.441406 80.378906 121.230469 80.5625 121.09375 80.621094 L 121.953125 80.261719 C 121.539062 80.433594 121.117188 80.527344 120.671875 80.59375 L 121.625 80.464844 C 119.855469 80.683594 118.03125 80.601562 116.246094 80.636719 C 114.464844 80.671875 112.578125 80.703125 110.746094 80.738281 C 107.078125 80.808594 103.414062 80.867188 99.742188 80.929688 C 92.328125 81.054688 84.914062 81.164062 77.5 81.257812 C 62.671875 81.441406 47.835938 81.570312 33.007812 81.648438 C 28.859375 81.667969 24.714844 81.679688 20.570312 81.695312 C 18.53125 81.695312 16.503906 81.703125 14.46875 81.707031 C 12.492188 81.707031 10.445312 81.867188 8.476562 81.640625 L 9.429688 81.769531 C 9.046875 81.714844 8.679688 81.625 8.320312 81.488281 L 9.179688 81.851562 C 9.019531 81.785156 8.835938 81.648438 8.679688 81.59375 C 9.125 81.960938 9.246094 82.050781 9.042969 81.867188 C 8.972656 81.804688 8.914062 81.742188 8.851562 81.675781 C 8.914062 81.632812 9.402344 82.535156 8.992188 81.8125 C 8.90625 81.652344 8.832031 81.484375 8.753906 81.320312 L 9.117188 82.179688 C 8.679688 81.082031 8.46875 79.890625 8.238281 78.738281 C 7.988281 77.496094 7.78125 76.238281 7.613281 74.980469 L 7.742188 75.9375 C 6.636719 67.558594 7.296875 59.089844 8.410156 50.753906 L 8.277344 51.707031 C 9.640625 41.585938 11.65625 31.535156 12.355469 21.332031 C 12.546875 18.550781 12.628906 15.765625 12.570312 12.980469 C 12.527344 11.101562 10.949219 9.292969 8.980469 9.382812 C 7.011719 9.46875 5.351562 10.964844 5.390625 12.980469 Z M 5.414062 12.972656 "/>
<path style=" stroke:none;fill-rule:nonzero;fill:rgb(100%,100%,100%);fill-opacity:1;" d="M 7.019531 14.324219 C 10.421875 16.074219 13.839844 17.820312 17.035156 19.9375 C 17.933594 20.53125 18.8125 21.160156 19.667969 21.816406 L 18.941406 21.257812 C 20.171875 22.214844 21.34375 23.238281 22.433594 24.351562 C 23.523438 25.464844 24.59375 26.742188 25.730469 27.882812 C 27.015625 29.171875 28.453125 30.332031 30.011719 31.269531 C 31.570312 32.203125 33.164062 32.878906 34.796875 33.570312 C 36.382812 34.238281 38 34.832031 39.585938 35.503906 L 38.726562 35.140625 C 41.511719 36.320312 44.097656 37.832031 46.496094 39.683594 L 45.765625 39.121094 C 49.074219 41.691406 51.96875 44.734375 54.738281 47.863281 C 55.53125 48.757812 56.3125 49.660156 57.089844 50.5625 C 57.414062 50.910156 57.796875 51.160156 58.246094 51.304688 C 58.675781 51.53125 59.132812 51.632812 59.628906 51.613281 C 60.507812 51.613281 61.5625 51.222656 62.167969 50.5625 C 62.773438 49.898438 63.265625 48.976562 63.214844 48.011719 L 63.085938 47.058594 C 62.917969 46.449219 62.609375 45.917969 62.167969 45.472656 C 59.558594 42.460938 56.9375 39.441406 54.019531 36.730469 C 50.90625 33.851562 47.453125 31.246094 43.59375 29.472656 C 41.292969 28.414062 38.917969 27.558594 36.589844 26.578125 L 37.445312 26.9375 C 35.511719 26.121094 33.613281 25.183594 31.945312 23.894531 L 32.671875 24.453125 C 31.277344 23.367188 30.085938 22.042969 28.902344 20.730469 C 27.71875 19.417969 26.511719 18.203125 25.175781 17.085938 C 22.296875 14.667969 19.144531 12.644531 15.855469 10.835938 C 14.132812 9.886719 12.390625 8.992188 10.648438 8.097656 C 9.789062 7.660156 8.835938 7.46875 7.882812 7.734375 C 7.054688 7.96875 6.148438 8.609375 5.738281 9.386719 C 5.296875 10.222656 5.078125 11.230469 5.378906 12.160156 C 5.65625 13.019531 6.195312 13.886719 7.027344 14.3125 Z M 7.019531 14.324219 "/>
<path style=" stroke:none;fill-rule:nonzero;fill:rgb(100%,100%,100%);fill-opacity:1;" d="M 122.871094 1.136719 C 120.222656 3.992188 117.546875 6.820312 114.851562 9.625 C 112.148438 12.433594 109.425781 15.214844 106.675781 17.972656 C 103.925781 20.730469 101.148438 23.46875 98.339844 26.175781 C 95.535156 28.886719 92.730469 31.554688 89.886719 34.203125 C 87.039062 36.855469 84.152344 39.503906 81.253906 42.121094 C 80.898438 42.441406 80.542969 42.761719 80.183594 43.074219 C 79.835938 43.402344 79.585938 43.785156 79.441406 44.238281 C 79.214844 44.667969 79.113281 45.125 79.136719 45.625 C 79.113281 46.121094 79.214844 46.578125 79.441406 47.007812 C 79.585938 47.453125 79.835938 47.84375 80.183594 48.171875 C 80.863281 48.800781 81.761719 49.269531 82.722656 49.222656 L 83.675781 49.09375 C 84.28125 48.921875 84.8125 48.613281 85.253906 48.171875 C 88.164062 45.570312 91.042969 42.933594 93.902344 40.277344 C 96.761719 37.621094 99.59375 34.941406 102.40625 32.230469 C 105.210938 29.527344 107.996094 26.796875 110.753906 24.042969 C 113.511719 21.292969 116.21875 18.53125 118.921875 15.738281 C 121.625 12.9375 124.308594 10.117188 126.964844 7.269531 C 127.292969 6.921875 127.609375 6.574219 127.9375 6.226562 C 128.578125 5.535156 128.988281 4.640625 128.988281 3.679688 C 129.007812 3.179688 128.90625 2.722656 128.679688 2.292969 C 128.535156 1.847656 128.285156 1.460938 127.9375 1.132812 C 127.257812 0.503906 126.359375 0.03125 125.398438 0.078125 C 124.4375 0.128906 123.511719 0.429688 122.859375 1.132812 Z M 122.871094 1.136719 "/>
<path style=" stroke:none;fill-rule:nonzero;fill:rgb(100%,100%,100%);fill-opacity:1;" d="M 75.171875 59.117188 C 74.613281 58.953125 74.0625 58.757812 73.523438 58.53125 L 74.382812 58.890625 C 73.0625 58.332031 71.828125 57.59375 70.691406 56.714844 L 71.421875 57.273438 C 69.863281 56.066406 68.511719 54.617188 67.308594 53.058594 L 67.867188 53.792969 C 66.035156 51.40625 64.542969 48.773438 63.183594 46.085938 C 62.800781 45.335938 62.398438 44.585938 62.066406 43.8125 L 62.425781 44.675781 C 62.316406 44.414062 62.234375 44.15625 62.195312 43.875 L 62.324219 44.832031 C 62.3125 44.703125 62.304688 44.570312 62.324219 44.441406 L 62.195312 45.398438 C 62.207031 45.289062 62.234375 45.1875 62.277344 45.078125 L 61.917969 45.9375 C 61.957031 45.847656 61.996094 45.765625 62.058594 45.691406 L 61.5 46.421875 C 61.570312 46.332031 61.652344 46.257812 61.738281 46.183594 L 61.011719 46.742188 C 61.167969 46.628906 61.332031 46.539062 61.507812 46.457031 L 60.648438 46.820312 C 61.125 46.621094 61.636719 46.492188 62.15625 46.414062 L 61.203125 46.546875 C 61.808594 46.464844 62.421875 46.464844 63.027344 46.546875 L 62.074219 46.414062 C 62.679688 46.496094 63.265625 46.65625 63.828125 46.894531 L 62.972656 46.53125 C 63.476562 46.742188 63.953125 47.015625 64.386719 47.351562 L 63.660156 46.792969 C 64.429688 47.390625 65.027344 48.164062 65.621094 48.929688 C 65.917969 49.3125 66.21875 49.699219 66.539062 50.0625 C 67.042969 50.628906 67.621094 51.085938 68.234375 51.542969 C 68.886719 52.027344 69.671875 52.371094 70.445312 52.597656 C 71.671875 52.949219 73.042969 52.570312 73.941406 51.675781 C 74.851562 50.757812 75.191406 49.421875 74.859375 48.171875 C 74.777344 47.863281 74.714844 47.554688 74.675781 47.242188 L 74.804688 48.199219 C 74.714844 47.535156 74.714844 46.859375 74.804688 46.195312 L 74.675781 47.152344 C 74.765625 46.492188 74.941406 45.84375 75.191406 45.226562 L 74.832031 46.085938 C 75.0625 45.542969 75.363281 45.023438 75.730469 44.550781 L 75.171875 45.28125 C 75.5 44.867188 75.875 44.488281 76.296875 44.160156 L 75.566406 44.722656 C 75.96875 44.414062 76.40625 44.167969 76.859375 43.972656 L 76.003906 44.332031 C 76.535156 44.105469 77.085938 43.964844 77.65625 43.882812 L 76.703125 44.011719 C 77.289062 43.9375 77.882812 43.929688 78.46875 44.011719 L 77.515625 43.882812 C 78.039062 43.949219 78.554688 44.085938 79.054688 44.296875 L 78.195312 43.9375 C 78.605469 44.113281 78.984375 44.332031 79.339844 44.605469 L 78.609375 44.046875 C 78.945312 44.304688 79.238281 44.605469 79.503906 44.941406 L 78.945312 44.210938 C 79.214844 44.566406 79.441406 44.953125 79.617188 45.363281 L 79.257812 44.503906 C 79.453125 44.976562 79.585938 45.464844 79.652344 45.980469 L 79.523438 45.023438 C 79.613281 45.710938 79.597656 46.414062 79.507812 47.105469 L 79.636719 46.148438 C 79.507812 47.097656 79.230469 48.027344 78.863281 48.910156 L 79.222656 48.046875 C 78.582031 49.550781 77.628906 50.867188 76.644531 52.160156 L 77.203125 51.429688 C 75.730469 53.339844 74.101562 55.199219 73.007812 57.363281 C 72.605469 58.160156 72.25 58.996094 71.972656 59.839844 C 71.824219 60.320312 71.800781 60.796875 71.910156 61.277344 C 71.929688 61.753906 72.074219 62.199219 72.332031 62.613281 C 72.558594 63.03125 72.863281 63.371094 73.257812 63.625 C 73.605469 63.945312 74.015625 64.15625 74.476562 64.265625 L 75.429688 64.398438 C 76.078125 64.398438 76.683594 64.234375 77.242188 63.90625 L 77.96875 63.34375 C 78.414062 62.894531 78.71875 62.367188 78.890625 61.761719 C 78.976562 61.480469 79.082031 61.207031 79.195312 60.933594 L 78.835938 61.792969 C 79.507812 60.191406 80.53125 58.777344 81.585938 57.402344 L 81.027344 58.132812 C 81.953125 56.933594 82.914062 55.757812 83.792969 54.523438 C 84.132812 54.042969 84.460938 53.558594 84.75 53.046875 C 85.167969 52.316406 85.488281 51.550781 85.8125 50.773438 C 86.351562 49.476562 86.617188 48.121094 86.738281 46.714844 C 86.789062 46.203125 86.789062 45.679688 86.734375 45.164062 C 86.644531 44.359375 86.550781 43.539062 86.261719 42.769531 C 85.976562 41.996094 85.671875 41.257812 85.1875 40.609375 C 84.859375 40.171875 84.539062 39.722656 84.152344 39.339844 C 83.765625 38.957031 83.316406 38.628906 82.878906 38.308594 C 82.238281 37.84375 81.476562 37.539062 80.742188 37.265625 C 79.972656 36.976562 79.140625 36.882812 78.332031 36.800781 C 77.820312 36.746094 77.304688 36.753906 76.792969 36.8125 C 75.960938 36.917969 75.152344 37.011719 74.367188 37.296875 C 73.625 37.570312 72.855469 37.886719 72.195312 38.335938 C 71.535156 38.789062 70.84375 39.328125 70.304688 39.957031 C 69.773438 40.570312 69.253906 41.238281 68.882812 41.96875 C 68.621094 42.46875 68.410156 43 68.207031 43.527344 C 68.113281 43.773438 68.03125 44.023438 67.960938 44.277344 C 67.894531 44.53125 67.832031 44.8125 67.792969 45.078125 C 67.703125 45.644531 67.613281 46.21875 67.582031 46.792969 C 67.53125 47.644531 67.65625 48.484375 67.785156 49.324219 C 67.824219 49.585938 67.878906 49.84375 67.949219 50.097656 C 69.417969 48.621094 70.890625 47.144531 72.359375 45.671875 C 72.203125 45.625 72.046875 45.570312 71.898438 45.507812 L 72.753906 45.871094 C 72.414062 45.71875 72.101562 45.527344 71.808594 45.300781 L 72.539062 45.863281 C 71.585938 45.109375 70.910156 44.085938 70.15625 43.15625 C 69.765625 42.679688 69.351562 42.207031 68.875 41.820312 C 68.398438 41.429688 67.914062 41.042969 67.382812 40.726562 C 66.851562 40.414062 66.261719 40.179688 65.6875 39.949219 C 64.78125 39.578125 63.828125 39.449219 62.863281 39.347656 C 61.894531 39.246094 60.910156 39.367188 59.949219 39.546875 C 59.621094 39.605469 59.300781 39.6875 58.988281 39.804688 C 58.558594 39.957031 58.136719 40.132812 57.730469 40.332031 C 57.652344 40.371094 57.578125 40.414062 57.503906 40.460938 C 57.191406 40.664062 56.878906 40.910156 56.597656 41.15625 C 56.265625 41.449219 55.980469 41.828125 55.773438 42.214844 C 55.6875 42.378906 55.613281 42.589844 55.542969 42.75 C 55.476562 42.90625 55.394531 43.082031 55.332031 43.253906 C 55.214844 43.601562 55.167969 44.25 55.148438 44.457031 C 55.113281 44.914062 55.214844 45.398438 55.285156 45.835938 C 55.3125 46.019531 55.367188 46.203125 55.425781 46.382812 C 55.746094 47.277344 56.183594 48.128906 56.613281 48.984375 C 56.898438 49.558594 57.191406 50.128906 57.484375 50.699219 C 58.089844 51.851562 58.722656 52.992188 59.398438 54.105469 C 60.070312 55.21875 60.792969 56.289062 61.574219 57.320312 C 62.515625 58.558594 63.480469 59.765625 64.59375 60.859375 C 65.695312 61.9375 66.914062 62.921875 68.199219 63.761719 C 69.488281 64.601562 70.902344 65.257812 72.347656 65.78125 C 72.644531 65.890625 72.953125 65.988281 73.257812 66.082031 C 73.734375 66.234375 74.210938 66.253906 74.6875 66.144531 C 75.164062 66.125 75.609375 65.980469 76.023438 65.722656 C 76.4375 65.496094 76.777344 65.1875 77.03125 64.792969 C 77.351562 64.445312 77.5625 64.035156 77.671875 63.570312 L 77.800781 62.613281 C 77.800781 61.964844 77.636719 61.359375 77.308594 60.796875 L 76.75 60.066406 C 76.300781 59.625 75.777344 59.316406 75.171875 59.144531 L 75.164062 59.144531 Z M 75.171875 59.117188 "/>
<path style=" stroke:none;fill-rule:nonzero;fill:rgb(100%,100%,100%);fill-opacity:1;" d="M 65.035156 55.394531 C 65.824219 54.597656 66.613281 53.796875 67.402344 53 C 67.792969 52.601562 68.1875 52.207031 68.574219 51.816406 C 68.929688 51.457031 69.277344 51.074219 69.671875 50.757812 L 68.941406 51.320312 C 69.085938 51.210938 69.226562 51.121094 69.390625 51.046875 L 68.535156 51.40625 C 68.671875 51.351562 68.804688 51.3125 68.949219 51.292969 L 67.996094 51.421875 C 68.132812 51.40625 68.261719 51.40625 68.390625 51.421875 L 67.4375 51.292969 C 67.601562 51.3125 67.765625 51.359375 67.914062 51.429688 L 67.054688 51.066406 C 67.214844 51.132812 67.355469 51.222656 67.492188 51.324219 L 66.765625 50.765625 C 66.925781 50.894531 67.078125 51.039062 67.207031 51.203125 L 66.648438 50.472656 C 66.777344 50.636719 66.878906 50.8125 66.960938 51.011719 L 66.601562 50.152344 C 66.683594 50.347656 66.730469 50.5625 66.765625 50.773438 L 66.632812 49.816406 C 66.675781 50.152344 66.667969 50.484375 66.632812 50.8125 L 66.765625 49.859375 C 66.683594 50.464844 66.5 51.058594 66.308594 51.648438 L 66.179688 52.601562 C 66.15625 53.101562 66.261719 53.558594 66.484375 53.988281 C 66.566406 54.296875 66.722656 54.554688 66.949219 54.78125 C 67.199219 55.171875 67.53125 55.484375 67.957031 55.710938 L 68.8125 56.070312 L 69.765625 56.203125 C 70.261719 56.222656 70.71875 56.121094 71.148438 55.894531 C 71.589844 55.75 71.980469 55.5 72.304688 55.148438 C 74.421875 52.652344 76.710938 50.308594 79.15625 48.128906 C 79.851562 47.507812 80.558594 46.90625 81.273438 46.320312 C 79.230469 45.472656 77.1875 44.625 75.152344 43.773438 C 75.144531 44.503906 75.089844 45.234375 74.988281 45.957031 L 75.117188 45 C 74.894531 46.648438 74.449219 48.265625 73.804688 49.796875 L 74.164062 48.9375 C 73.519531 50.457031 72.679688 51.898438 71.671875 53.210938 L 72.230469 52.480469 C 71.769531 53.082031 71.265625 53.65625 70.734375 54.199219 L 70.175781 54.929688 L 69.8125 55.792969 L 69.683594 56.75 C 69.664062 57.246094 69.765625 57.703125 69.992188 58.132812 C 70.074219 58.441406 70.230469 58.703125 70.453125 58.925781 C 70.609375 59.199219 70.828125 59.410156 71.101562 59.574219 C 71.324219 59.800781 71.589844 59.949219 71.890625 60.039062 C 72.320312 60.265625 72.777344 60.367188 73.273438 60.347656 C 73.824219 60.3125 74.382812 60.25 74.921875 60.113281 C 75.457031 59.976562 75.949219 59.738281 76.433594 59.515625 C 76.648438 59.410156 76.855469 59.289062 77.050781 59.152344 C 77.472656 58.84375 77.910156 58.53125 78.285156 58.160156 C 78.660156 57.792969 78.972656 57.355469 79.269531 56.925781 C 79.40625 56.734375 79.53125 56.53125 79.625 56.316406 C 79.835938 55.859375 80.074219 55.347656 80.203125 54.84375 C 80.332031 54.304688 80.40625 53.742188 80.421875 53.191406 C 80.449219 51.933594 79.714844 50.710938 78.644531 50.082031 C 78.085938 49.753906 77.480469 49.589844 76.832031 49.589844 C 76.1875 49.589844 75.582031 49.753906 75.023438 50.082031 C 72.605469 51.324219 70.1875 52.5625 67.769531 53.804688 C 67.355469 54.03125 67.015625 54.335938 66.765625 54.734375 C 66.445312 55.082031 66.234375 55.492188 66.125 55.957031 C 65.972656 56.433594 65.953125 56.910156 66.0625 57.390625 C 66.082031 57.867188 66.226562 58.3125 66.484375 58.730469 C 66.980469 59.5 67.710938 60.167969 68.628906 60.382812 L 69.582031 60.511719 C 70.230469 60.511719 70.835938 60.347656 71.394531 60.019531 C 73.8125 58.777344 76.226562 57.539062 78.644531 56.296875 C 76.847656 55.257812 75.050781 54.226562 73.246094 53.191406 C 73.246094 53.304688 73.230469 53.421875 73.21875 53.539062 L 73.347656 52.582031 C 73.308594 52.882812 73.226562 53.167969 73.109375 53.449219 L 73.46875 52.589844 C 73.339844 52.882812 73.175781 53.15625 72.988281 53.414062 L 73.546875 52.683594 C 73.332031 52.957031 73.089844 53.195312 72.824219 53.410156 L 73.550781 52.847656 C 73.28125 53.058594 72.980469 53.230469 72.667969 53.367188 L 73.523438 53.003906 C 73.238281 53.121094 72.9375 53.210938 72.632812 53.25 L 73.585938 53.121094 C 73.484375 53.136719 73.382812 53.140625 73.273438 53.148438 C 74.117188 55.199219 74.960938 57.246094 75.8125 59.289062 C 76.683594 58.402344 77.464844 57.417969 78.195312 56.40625 C 78.761719 55.636719 79.265625 54.816406 79.707031 53.96875 C 80.273438 52.882812 80.75 51.75 81.15625 50.59375 C 81.46875 49.699219 81.714844 48.777344 81.890625 47.84375 C 82.144531 46.503906 82.3125 45.132812 82.328125 43.765625 L 82.199219 42.808594 L 81.835938 41.949219 L 81.28125 41.21875 C 80.953125 40.871094 80.570312 40.617188 80.121094 40.472656 C 79.84375 40.308594 79.542969 40.226562 79.214844 40.226562 C 78.898438 40.140625 78.582031 40.140625 78.261719 40.226562 C 77.9375 40.226562 77.636719 40.308594 77.359375 40.472656 C 76.914062 40.617188 76.527344 40.871094 76.199219 41.21875 C 73.667969 43.292969 71.277344 45.554688 69.066406 47.964844 C 68.4375 48.648438 67.824219 49.339844 67.234375 50.046875 C 69.226562 51.214844 71.230469 52.382812 73.230469 53.550781 C 73.386719 53.074219 73.539062 52.597656 73.632812 52.097656 C 73.734375 51.566406 73.816406 51.019531 73.84375 50.472656 C 73.871094 49.925781 73.777344 49.371094 73.6875 48.847656 C 73.652344 48.636719 73.605469 48.429688 73.523438 48.226562 C 73.347656 47.789062 73.191406 47.304688 72.910156 46.914062 C 72.332031 46.109375 71.746094 45.425781 70.863281 44.933594 C 70.058594 44.484375 69.03125 44.148438 68.089844 44.210938 C 67.710938 44.238281 67.308594 44.292969 66.933594 44.367188 C 66.84375 44.386719 66.757812 44.414062 66.675781 44.441406 C 66.300781 44.578125 65.90625 44.730469 65.558594 44.933594 C 65.210938 45.136719 64.871094 45.4375 64.59375 45.664062 C 64.222656 45.957031 63.902344 46.3125 63.570312 46.648438 C 63.203125 47.015625 62.84375 47.386719 62.472656 47.753906 C 61.636719 48.601562 60.792969 49.453125 59.957031 50.300781 C 59.609375 50.628906 59.355469 51.011719 59.214844 51.460938 C 58.988281 51.894531 58.886719 52.351562 58.90625 52.847656 C 58.886719 53.347656 58.988281 53.804688 59.214844 54.234375 C 59.355469 54.679688 59.609375 55.066406 59.957031 55.394531 C 60.636719 56.023438 61.535156 56.496094 62.496094 56.449219 L 63.449219 56.316406 C 64.054688 56.148438 64.585938 55.839844 65.027344 55.394531 Z M 65.035156 55.394531 "/>
</g>
</svg>
