<?xml version="1.0" encoding="UTF-8"?>
<svg id="Capa_1" xmlns="http://www.w3.org/2000/svg" viewBox="0 0 189.47 130.09">
  <defs>
    <style>
      .cls-1 {
        fill: #fff;
      }
    </style>
  </defs>
  <path class="cls-1" d="M7.95,18.88c.19,8.83-.63,17.65-1.8,26.39l.19-1.4C4.05,60.85.42,77.75.03,94.93c-.19,8.66.52,17.42,2.55,25.86.57,2.38,1.51,4.83,3.37,6.51,2.27,2.05,5.12,2.71,8.11,2.76,4.51.08,9.03,0,13.54-.01,18.27-.04,36.54-.15,54.81-.31,18.27-.16,36.54-.38,54.81-.66,9.19-.14,18.39-.3,27.58-.47,2.23-.04,4.45-.08,6.68-.13,2.23-.04,4.43.02,6.63-.17,2.83-.25,5.66-.99,7.67-3.14,1.99-2.13,2.74-4.74,3.02-7.56.19-1.92.1-3.87.1-5.79,0-2.34,0-4.68,0-7.03,0-4.57,0-9.13,0-13.7,0-9.13,0-18.27.01-27.4,0-9.13,0-18.27.01-27.4,0-4.57,0-9.13,0-13.7,0-2.22,0-4.45,0-6.67s.2-4.82-.48-7.07c-.93-3.08-3.22-5.3-6.28-6.24-2.22-.68-4.7-.55-7-.51-4.51.06-9.02.29-13.52.62-9.01.67-17.98,1.73-26.97,2.62-18.03,1.79-36.12,2.97-54.24,3.54-18.11.57-36.25.54-54.36-.11-4.41-.16-8.82-.35-13.23-.58-2.76-.14-5.39,2.53-5.27,5.27.13,2.98,2.32,5.12,5.27,5.27,21.81,1.13,43.67,1.38,65.5.75,21.83-.63,43.59-2.25,65.31-4.53,6.1-.64,12.21-1.27,18.33-1.72,3-.22,6-.39,9.01-.5s5.88-.37,8.73,0l-1.4-.19c.52.08,1.02.2,1.51.39l-1.26-.53c.15.07.3.15.45.22.74.36-.74-.73-.36-.3s-.58-.99-.34-.47c.09.19.21.37.3.56l-.53-1.26c.19.49.3.98.38,1.5l-.19-1.4c.17,1.54.08,3.11.08,4.65,0,1.76,0,3.51,0,5.27,0,3.51,0,7.03,0,10.54,0,7.03,0,14.05-.01,21.08,0,14.05-.01,28.1-.02,42.15,0,3.98,0,7.96,0,11.94,0,1.93,0,3.86,0,5.8,0,1.72.07,3.46-.13,5.17l.19-1.4c-.1.75-.27,1.47-.55,2.17l.53-1.26c-.1.22-.21.43-.33.65-.21.32-.16.28.14-.14.32-.4.36-.45.11-.16l-.17.18c-.39.34-.24.23.46-.34-.21.03-.52.3-.72.39l1.26-.53c-.61.25-1.23.39-1.88.49l1.4-.19c-2.6.32-5.28.2-7.9.25s-5.39.1-8.08.15c-5.39.1-10.77.19-16.16.28-10.89.18-21.78.34-32.67.48-21.78.27-43.57.46-65.35.57-6.09.03-12.18.05-18.27.07-2.99,0-5.97.01-8.96.02-2.9,0-5.91.23-8.8-.1l1.4.19c-.56-.08-1.1-.21-1.63-.41l1.26.53c-.23-.1-.5-.3-.73-.38.65.54.83.67.53.4-.1-.09-.19-.18-.28-.28.09-.06.81,1.26.21.2-.13-.23-.24-.48-.35-.72l.53,1.26c-.64-1.61-.95-3.35-1.29-5.04-.37-1.82-.67-3.66-.92-5.5l.19,1.4c-1.62-12.27-.65-24.67.98-36.88l-.19,1.4c2-14.82,4.96-29.54,5.99-44.48.28-4.07.4-8.15.31-12.23-.06-2.75-2.38-5.4-5.27-5.27s-5.33,2.32-5.27,5.27h0Z"/>
  <path class="cls-1" d="M10.31,20.86c5,2.56,10.02,5.12,14.71,8.22,1.32.87,2.61,1.79,3.87,2.75l-1.07-.82c1.81,1.4,3.53,2.9,5.13,4.53s3.17,3.5,4.84,5.17c1.89,1.89,4,3.59,6.29,4.96s4.63,2.36,7.03,3.37c2.33.98,4.7,1.85,7.03,2.83l-1.26-.53c4.09,1.73,7.89,3.94,11.41,6.65l-1.07-.82c4.86,3.76,9.11,8.22,13.18,12.8,1.16,1.31,2.31,2.63,3.45,3.95.48.51,1.04.88,1.7,1.09.63.33,1.3.48,2.03.45,1.29,0,2.84-.57,3.73-1.54s1.61-2.32,1.54-3.73l-.19-1.4c-.25-.89-.7-1.67-1.35-2.32-3.83-4.41-7.68-8.83-11.97-12.8-4.57-4.22-9.64-8.03-15.31-10.63-3.38-1.55-6.87-2.8-10.29-4.24l1.26.53c-2.84-1.2-5.63-2.57-8.08-4.46l1.07.82c-2.05-1.59-3.8-3.53-5.54-5.45s-3.51-3.7-5.47-5.34c-4.23-3.54-8.86-6.5-13.69-9.15-2.53-1.39-5.09-2.7-7.65-4.01-1.26-.64-2.66-.92-4.06-.53-1.22.34-2.55,1.28-3.15,2.42-.65,1.22-.97,2.7-.53,4.06.41,1.26,1.2,2.53,2.42,3.15h0Z"/>
  <path class="cls-1" d="M180.47,1.55c-3.89,4.18-7.82,8.32-11.78,12.43-3.97,4.11-7.97,8.18-12.01,12.22-4.04,4.04-8.12,8.05-12.24,12.01-4.12,3.97-8.24,7.88-12.42,11.76s-8.42,7.76-12.68,11.59c-.52.47-1.04.94-1.57,1.4-.51.48-.88,1.04-1.09,1.7-.33.63-.48,1.3-.45,2.03-.03.73.12,1.4.45,2.03.21.65.58,1.22,1.09,1.7,1,.92,2.32,1.61,3.73,1.54l1.4-.19c.89-.25,1.67-.7,2.32-1.35,4.27-3.81,8.5-7.67,12.7-11.56,4.2-3.89,8.36-7.81,12.49-11.78,4.12-3.96,8.21-7.96,12.26-11.99,4.05-4.03,8.03-8.07,12-12.16,3.97-4.1,7.91-8.23,11.81-12.4.48-.51.95-1.02,1.43-1.53.94-1.01,1.54-2.32,1.54-3.73.03-.73-.12-1.4-.45-2.03-.21-.65-.58-1.22-1.09-1.7-1-.92-2.32-1.61-3.73-1.54s-2.77.51-3.73,1.54h0Z"/>
  <path class="cls-1" d="M110.41,86.45c-.82-.24-1.63-.53-2.42-.86l1.26.53c-1.94-.82-3.75-1.9-5.42-3.19l1.07.82c-2.29-1.77-4.27-3.89-6.04-6.17l.82,1.07c-2.69-3.49-4.88-7.35-6.88-11.28-.56-1.1-1.15-2.2-1.64-3.33l.53,1.26c-.16-.38-.28-.76-.34-1.17l.19,1.4c-.02-.19-.03-.38,0-.57l-.19,1.4c.02-.16.06-.31.12-.47l-.53,1.26c.06-.13.12-.25.21-.36l-.82,1.07c.1-.13.22-.24.35-.35l-1.07.82c.23-.17.47-.3.73-.42l-1.26.53c.7-.29,1.45-.48,2.21-.59l-1.4.19c.89-.12,1.79-.12,2.68,0l-1.4-.19c.89.12,1.75.35,2.58.7l-1.26-.53c.74.31,1.44.71,2.08,1.2l-1.07-.82c1.13.88,2.01,2.01,2.88,3.13.44.56.88,1.13,1.35,1.66.74.83,1.59,1.5,2.49,2.17.96.71,2.11,1.21,3.25,1.54,1.8.52,3.81-.04,5.13-1.35,1.34-1.34,1.84-3.3,1.35-5.13-.12-.45-.21-.9-.27-1.36l.19,1.4c-.13-.97-.13-1.96,0-2.93l-.19,1.4c.13-.97.39-1.92.76-2.82l-.53,1.26c.34-.8.78-1.56,1.32-2.25l-.82,1.07c.48-.61,1.03-1.16,1.65-1.64l-1.07.82c.59-.45,1.23-.81,1.9-1.1l-1.26.53c.78-.33,1.59-.54,2.43-.66l-1.4.19c.86-.11,1.73-.12,2.59,0l-1.4-.19c.77.1,1.53.3,2.26.61l-1.26-.53c.6.26,1.16.58,1.68.98l-1.07-.82c.49.38.92.82,1.31,1.31l-.82-1.07c.4.52.73,1.09.99,1.69l-.53-1.26c.29.69.48,1.41.58,2.16l-.19-1.4c.13,1.01.11,2.04-.02,3.05l.19-1.4c-.19,1.39-.6,2.75-1.14,4.04l.53-1.26c-.94,2.2-2.34,4.13-3.79,6.02l.82-1.07c-2.16,2.8-4.55,5.52-6.16,8.69-.59,1.17-1.11,2.39-1.52,3.63-.22.7-.25,1.4-.09,2.1.03.7.24,1.35.62,1.96.33.61.78,1.11,1.36,1.48.51.47,1.11.78,1.79.94l1.4.19c.95,0,1.84-.24,2.66-.72l1.07-.82c.65-.66,1.1-1.43,1.35-2.32.13-.41.28-.81.45-1.21l-.53,1.26c.99-2.35,2.49-4.42,4.04-6.43l-.82,1.07c1.36-1.76,2.77-3.48,4.06-5.29.5-.7.98-1.41,1.41-2.16.61-1.07,1.08-2.19,1.56-3.33.79-1.9,1.18-3.88,1.36-5.94.07-.75.07-1.52-.01-2.27-.13-1.18-.27-2.38-.69-3.51s-.87-2.21-1.58-3.16c-.48-.64-.95-1.3-1.52-1.86s-1.23-1.04-1.87-1.51c-.94-.68-2.06-1.13-3.14-1.53-1.13-.42-2.35-.56-3.54-.68-.75-.08-1.51-.07-2.26.02-1.22.15-2.41.29-3.56.71-1.09.4-2.22.86-3.19,1.52s-1.99,1.45-2.78,2.37c-.78.9-1.54,1.88-2.09,2.95-.38.73-.69,1.51-.99,2.28-.14.36-.26.73-.36,1.1s-.19.78-.25,1.17c-.13.83-.26,1.67-.31,2.51-.07,1.25.11,2.48.3,3.71.06.38.14.76.24,1.13,2.16-2.16,4.32-4.32,6.48-6.48-.23-.07-.46-.15-.68-.24l1.26.53c-.5-.22-.96-.5-1.39-.83l1.07.82c-1.4-1.1-2.39-2.6-3.5-3.96-.57-.7-1.18-1.39-1.88-1.96s-1.41-1.14-2.19-1.6-1.65-.8-2.49-1.14c-1.33-.54-2.73-.73-4.15-.88s-2.87.03-4.28.29c-.48.09-.95.21-1.41.38-.63.22-1.25.48-1.85.77-.11.06-.22.12-.33.19-.46.3-.92.66-1.33,1.02-.49.43-.91.98-1.21,1.55-.13.24-.24.55-.34.78s-.22.49-.31.74c-.17.51-.24,1.46-.27,1.76-.05.67.1,1.38.2,2.02.04.27.12.54.21.8.47,1.31,1.11,2.56,1.74,3.81.42.84.85,1.68,1.28,2.51.89,1.69,1.82,3.36,2.81,4.99s2.05,3.2,3.2,4.71c1.38,1.81,2.8,3.58,4.43,5.18,1.62,1.58,3.41,3.02,5.3,4.25s3.97,2.19,6.09,2.96c.44.16.89.3,1.34.44.7.22,1.4.25,2.1.09.7-.03,1.35-.24,1.96-.62.61-.33,1.11-.78,1.48-1.36.47-.51.78-1.11.94-1.79l.19-1.4c0-.95-.24-1.84-.72-2.66l-.82-1.07c-.66-.65-1.43-1.1-2.32-1.35h-.01Z"/>
  <path class="cls-1" d="M95.52,81c1.16-1.17,2.32-2.34,3.48-3.51.57-.58,1.15-1.16,1.72-1.73.52-.53,1.03-1.09,1.61-1.55l-1.07.82c.21-.16.42-.29.66-.4l-1.26.53c.2-.08.4-.14.61-.17l-1.4.19c.2-.02.39-.02.58,0l-1.4-.19c.24.03.48.1.7.2l-1.26-.53c.23.1.44.23.64.38l-1.07-.82c.24.19.46.4.65.64l-.82-1.07c.19.24.34.5.46.79l-.53-1.26c.12.29.19.6.24.91l-.19-1.4c.06.49.05.98,0,1.46l.19-1.4c-.12.89-.39,1.76-.67,2.62l-.19,1.4c-.03.73.12,1.4.45,2.03.12.45.35.83.68,1.16.37.57.86,1.03,1.48,1.36l1.26.53,1.4.19c.73.03,1.4-.12,2.03-.45.65-.21,1.22-.58,1.7-1.09,3.11-3.66,6.47-7.09,10.06-10.28,1.02-.91,2.06-1.79,3.11-2.65-3-1.24-6-2.48-8.99-3.73-.01,1.07-.09,2.14-.24,3.2l.19-1.4c-.33,2.41-.98,4.78-1.93,7.02l.53-1.26c-.95,2.23-2.18,4.34-3.66,6.26l.82-1.07c-.68.88-1.42,1.72-2.2,2.52l-.82,1.07-.53,1.26-.19,1.4c-.03.73.12,1.4.45,2.03.12.45.35.83.68,1.16.23.4.55.71.95.95.33.33.72.55,1.16.68.63.33,1.3.48,2.03.45.81-.05,1.63-.14,2.42-.34s1.51-.55,2.22-.88c.32-.15.62-.33.91-.53.62-.45,1.26-.91,1.81-1.45s1.01-1.18,1.45-1.81c.2-.28.38-.58.52-.89.31-.67.66-1.42.85-2.16.19-.79.3-1.61.32-2.42.04-1.84-1.04-3.63-2.61-4.55-.82-.48-1.71-.72-2.66-.72-.95,0-1.84.24-2.66.72-3.55,1.82-7.1,3.63-10.65,5.45-.61.33-1.11.78-1.48,1.36-.47.51-.78,1.11-.94,1.79-.22.7-.25,1.4-.09,2.1.03.7.24,1.35.62,1.96.73,1.13,1.8,2.11,3.15,2.42l1.4.19c.95,0,1.84-.24,2.66-.72,3.55-1.82,7.1-3.63,10.65-5.45-2.64-1.52-5.28-3.03-7.93-4.55,0,.17-.02.34-.04.51l.19-1.4c-.06.44-.18.86-.35,1.27l.53-1.26c-.19.43-.43.83-.71,1.21l.82-1.07c-.31.4-.67.75-1.06,1.06l1.07-.82c-.4.31-.84.56-1.3.76l1.26-.53c-.42.17-.86.3-1.31.36l1.4-.19c-.15.02-.3.03-.46.04,1.24,3,2.48,6,3.73,8.99,1.28-1.3,2.43-2.74,3.5-4.22.83-1.13,1.57-2.33,2.22-3.57.83-1.59,1.53-3.25,2.13-4.94.46-1.31.82-2.66,1.08-4.03.37-1.96.62-3.97.64-5.97l-.19-1.4-.53-1.26-.82-1.07c-.48-.51-1.04-.88-1.7-1.09-.41-.24-.85-.36-1.33-.36-.47-.13-.93-.13-1.4,0-.48,0-.92.12-1.33.36-.65.21-1.22.58-1.7,1.09-3.72,3.04-7.23,6.35-10.48,9.88-.92,1-1.82,2.01-2.69,3.05,2.93,1.71,5.87,3.42,8.81,5.13.23-.7.45-1.4.59-2.13.15-.78.27-1.58.31-2.38s-.1-1.61-.23-2.38c-.05-.31-.12-.61-.24-.91-.26-.64-.49-1.35-.9-1.92-.85-1.18-1.71-2.18-3.01-2.9-1.18-.66-2.69-1.15-4.07-1.06-.56.04-1.15.12-1.7.23-.13.03-.26.07-.38.11-.55.2-1.13.42-1.64.72s-1.01.74-1.42,1.07c-.54.43-1.01.95-1.5,1.44-.54.54-1.07,1.08-1.61,1.62-1.23,1.24-2.47,2.49-3.7,3.73-.51.48-.88,1.04-1.09,1.7-.33.63-.48,1.3-.45,2.03-.03.73.12,1.4.45,2.03.21.65.58,1.22,1.09,1.7,1,.92,2.32,1.61,3.73,1.54l1.4-.19c.89-.25,1.67-.7,2.32-1.35h0Z"/>
</svg>