<?xml version="1.0" encoding="UTF-8"?>
<svg id="Layer_1" data-name="Layer 1" xmlns="http://www.w3.org/2000/svg" viewBox="0 0 28.35 23.99">
  <defs>
    <style>
      .cls-1 {
        fill: #fff;
      }
    </style>
  </defs>
  <path class="cls-1" d="M1.81,3.75c1.84-.03,3.71.23,5.55.33,2.14.11,4.28.1,6.42.11,4.22.02,8.45.11,12.67-.03,2.41-.08,2.42-3.83,0-3.75-4.22.14-8.45.05-12.67.03-2.06,0-4.13,0-6.19-.1C5.67.25,3.73-.03,1.81,0-.6.04-.61,3.8,1.81,3.75h0Z"/>
  <path class="cls-1" d="M2.39,14.16c7.97.16,15.9-.47,23.86-.44,2.41,0,2.42-3.74,0-3.75-7.96-.03-15.89.6-23.86.44-2.41-.05-2.41,3.7,0,3.75h0Z"/>
  <path class="cls-1" d="M3.06,23.98h12.28c2.01,0,4.02,0,6.03,0,.97,0,1.94-.07,2.92-.08s1.79.07,2.72-.16c2.34-.58,1.35-4.2-1-3.62-.72.18-1.57.02-2.31.06-1.01.05-2.01.05-3.02.05-1.93,0-3.86,0-5.8,0H3.06c-2.41,0-2.42,3.75,0,3.75h0Z"/>
</svg>