<?xml version="1.0" encoding="UTF-8"?>
<svg xmlns="http://www.w3.org/2000/svg" xmlns:xlink="http://www.w3.org/1999/xlink" width="35px" height="30px" viewBox="0 0 35 30" version="1.1">
<g id="surface1">
<path style=" stroke:none;fill-rule:nonzero;fill:rgb(100%,100%,100%);fill-opacity:1;" d="M 2.234375 4.820312 C 4.507812 4.785156 6.816406 5.105469 9.085938 5.226562 C 11.726562 5.363281 14.371094 5.351562 17.011719 5.363281 C 22.222656 5.390625 27.445312 5.5 32.65625 5.328125 C 35.628906 5.226562 35.640625 0.597656 32.65625 0.699219 C 27.445312 0.871094 22.222656 0.757812 17.011719 0.734375 C 14.46875 0.734375 11.914062 0.734375 9.371094 0.609375 C 7 0.5 4.605469 0.15625 2.234375 0.191406 C -0.742188 0.242188 -0.753906 4.882812 2.234375 4.820312 Z M 2.234375 4.820312 "/>
<path style=" stroke:none;fill-rule:nonzero;fill:rgb(100%,100%,100%);fill-opacity:1;" d="M 2.949219 17.671875 C 12.789062 17.871094 22.582031 17.09375 32.40625 17.128906 C 35.382812 17.128906 35.394531 12.511719 32.40625 12.5 C 22.582031 12.464844 12.789062 13.242188 2.949219 13.042969 C -0.0234375 12.980469 -0.0234375 17.609375 2.949219 17.671875 Z M 2.949219 17.671875 "/>
<path style=" stroke:none;fill-rule:nonzero;fill:rgb(100%,100%,100%);fill-opacity:1;" d="M 3.777344 29.796875 L 18.9375 29.796875 C 21.417969 29.796875 23.902344 29.796875 26.382812 29.796875 C 27.582031 29.796875 28.777344 29.710938 29.988281 29.699219 C 31.199219 29.683594 32.199219 29.785156 33.34375 29.5 C 36.234375 28.785156 35.011719 24.316406 32.109375 25.03125 C 31.222656 25.253906 30.171875 25.054688 29.257812 25.105469 C 28.011719 25.167969 26.777344 25.167969 25.53125 25.167969 C 23.148438 25.167969 20.765625 25.167969 18.371094 25.167969 L 3.777344 25.167969 C 0.800781 25.167969 0.789062 29.796875 3.777344 29.796875 Z M 3.777344 29.796875 "/>
</g>
</svg>
