<?xml version="1.0" encoding="UTF-8"?>
<svg xmlns="http://www.w3.org/2000/svg" xmlns:xlink="http://www.w3.org/1999/xlink" width="100px" height="px" viewBox="0 0 100 95" version="1.1">
<g id="surface1">
<path style=" stroke:none;fill-rule:nonzero;fill:rgb(7.450981%,12.54902%,20.392157%);fill-opacity:1;" d="M 18.589844 0.140625 C 39.546875 0.238281 60.5 0.335938 81.453125 0.445312 C 86.066406 0.460938 91.195312 0.691406 94.488281 4.140625 C 98.507812 8.324219 98.023438 15.230469 97.4375 21.191406 C 96.019531 35.796875 95.800781 50.53125 96.773438 65.179688 C 97.058594 69.5 97.445312 73.878906 96.695312 78.136719 C 95.941406 82.390625 93.859375 86.605469 90.328125 88.71875 C 87.308594 90.523438 83.675781 90.59375 80.222656 90.609375 C 59.84375 90.707031 39.464844 90.460938 19.097656 89.882812 C 15.359375 89.777344 11.304688 89.527344 8.488281 86.90625 C 5.574219 84.1875 4.855469 79.71875 4.519531 75.605469 C 3.207031 59.308594 5.15625 42.65625 1.765625 26.71875 C 0.71875 21.757812 -0.828125 16.507812 0.835938 11.753906 C 1.976562 8.484375 4.527344 5.972656 7.316406 4.148438 C 13.09375 0.363281 20.265625 -0.878906 26.863281 0.746094 "/>
<path style=" stroke:none;fill-rule:nonzero;fill:rgb(32.156864%,62.7451%,84.705883%);fill-opacity:1;" d="M 16.164062 18.410156 C 17.5625 25.5625 18.964844 32.722656 19.992188 39.9375 C 21.019531 47.152344 21.488281 54.164062 21.59375 61.351562 C 21.648438 64.746094 21.746094 68.148438 22.265625 71.515625 C 22.53125 73.214844 22.859375 74.972656 23.488281 76.570312 C 24.046875 77.992188 25.171875 78.582031 26.640625 78.660156 C 28.386719 78.757812 30.148438 78.714844 31.902344 78.738281 C 33.488281 78.765625 35.304688 79.035156 36.84375 78.570312 C 39.632812 77.746094 39.757812 74.707031 39.28125 72.316406 C 38.492188 68.378906 37.683594 64.507812 37.359375 60.488281 C 37.03125 56.472656 37.011719 52.367188 37.296875 48.316406 C 37.410156 46.683594 34.871094 46.691406 34.753906 48.316406 C 34.292969 54.839844 34.640625 61.386719 35.753906 67.828125 C 36.019531 69.375 36.355469 70.902344 36.703125 72.433594 C 36.914062 73.355469 37.304688 74.734375 36.773438 75.628906 C 36.152344 76.671875 33.992188 76.226562 32.964844 76.207031 C 31.246094 76.179688 29.527344 76.15625 27.8125 76.136719 C 27.148438 76.128906 26.289062 76.316406 25.863281 75.738281 C 25.550781 75.320312 25.4375 74.332031 25.304688 73.835938 C 24.898438 72.226562 24.632812 70.59375 24.464844 68.949219 C 24.144531 65.8125 24.136719 62.648438 24.089844 59.496094 C 23.992188 52.929688 23.425781 46.40625 22.515625 39.902344 C 21.480469 32.464844 20.035156 25.101562 18.601562 17.734375 C 18.289062 16.125 15.835938 16.8125 16.15625 18.410156 Z M 16.164062 18.410156 "/>
<path style=" stroke:none;fill-rule:nonzero;fill:rgb(32.156864%,62.7451%,84.705883%);fill-opacity:1;" d="M 15.871094 15.78125 C 15.449219 17.789062 17.421875 18.703125 19.132812 18.585938 C 21.671875 18.417969 24.207031 17.976562 26.757812 17.789062 C 31.699219 17.421875 36.851562 17.371094 41.660156 18.738281 C 45.78125 19.910156 49.394531 22.347656 50.625 26.65625 C 51.234375 28.789062 51.316406 31.007812 51.261719 33.210938 C 51.234375 34.289062 51.183594 35.371094 51.101562 36.445312 C 51.015625 37.726562 50.625 38.429688 49.542969 39.09375 C 44.789062 42.007812 39.378906 43.894531 33.914062 44.898438 C 32.308594 45.191406 32.992188 47.652344 34.585938 47.347656 C 39.667969 46.414062 44.59375 44.691406 49.152344 42.230469 C 51.136719 41.164062 53.085938 40.089844 53.511719 37.683594 C 53.9375 35.273438 53.902344 32.832031 53.777344 30.492188 C 53.527344 25.953125 51.988281 21.796875 48.242188 19.03125 C 44.496094 16.269531 39.714844 15.453125 35.230469 15.148438 C 32.125 14.9375 29.007812 15.050781 25.90625 15.308594 C 24.347656 15.441406 22.796875 15.601562 21.238281 15.789062 C 20.539062 15.867188 19.832031 15.992188 19.132812 16.046875 C 18.953125 16.054688 18.707031 16.011719 18.539062 16.046875 C 17.8125 16.1875 18.53125 15.46875 18.316406 16.464844 C 18.664062 14.863281 16.210938 14.179688 15.871094 15.789062 Z M 15.871094 15.78125 "/>
<path style=" stroke:none;fill-rule:nonzero;fill:rgb(32.156864%,62.7451%,84.705883%);fill-opacity:1;" d="M 78.875 42.027344 C 79.007812 44.160156 79.140625 46.28125 79.273438 48.414062 L 80.539062 47.144531 C 77.8125 47.011719 75.09375 47.1875 72.410156 47.6875 C 70.375 48.058594 67.707031 48.789062 67.824219 51.382812 C 67.910156 53.460938 69.832031 55.027344 71.765625 55.320312 C 74.144531 55.675781 76.546875 54.742188 78.742188 56.046875 C 82.417969 58.222656 83.355469 63.183594 82.390625 67.046875 C 81.238281 71.667969 77.832031 75.105469 73.359375 76.554688 C 68.886719 78.003906 63.015625 78.703125 58.691406 76.15625 C 56.851562 75.070312 55.300781 73.292969 54.628906 71.242188 C 54.300781 70.253906 54.15625 69.1875 54.316406 68.148438 C 54.414062 67.5625 54.519531 67.152344 55.085938 66.894531 C 55.691406 66.613281 56.382812 66.46875 57.019531 66.265625 C 57.699219 66.042969 58.382812 65.820312 59.074219 65.589844 C 59.304688 65.511719 59.921875 65.429688 60.101562 65.253906 L 60.304688 65.179688 C 60.082031 64.941406 60.046875 64.976562 60.207031 65.269531 C 60.402344 66.230469 61.429688 67.039062 62.261719 67.402344 C 64.324219 68.316406 66.566406 67.457031 68.035156 65.875 C 69.503906 64.292969 70.640625 61.761719 69.648438 59.558594 C 68.886719 57.851562 67.210938 57.015625 65.601562 56.277344 C 63.6875 55.40625 61.828125 54.519531 61.535156 52.191406 C 61.242188 49.863281 62.402344 47.667969 64.175781 46.257812 C 66.203125 44.628906 68.816406 43.910156 71.3125 43.378906 C 74.542969 42.683594 77.820312 42.300781 81.125 42.152344 C 82.753906 42.078125 82.761719 39.53125 81.125 39.601562 C 78 39.742188 74.890625 40.097656 71.816406 40.683594 C 69.398438 41.148438 66.972656 41.75 64.769531 42.878906 C 60.898438 44.871094 57.929688 49.152344 59.269531 53.65625 C 59.90625 55.796875 61.492188 57.140625 63.4375 58.074219 C 64.792969 58.722656 67.378906 59.398438 67.511719 61.226562 C 67.644531 63.058594 65.015625 66.40625 63.023438 64.941406 C 62.269531 64.390625 62.367188 63.269531 61.4375 62.792969 C 60.25 62.1875 58.726562 63.03125 57.59375 63.40625 C 56.320312 63.820312 54.910156 64.132812 53.714844 64.746094 C 52.519531 65.359375 52.03125 66.515625 51.847656 67.792969 C 51.519531 70.042969 52.09375 72.34375 53.28125 74.261719 C 55.964844 78.605469 60.90625 80.410156 65.832031 80.367188 C 70.753906 80.320312 76.722656 78.9375 80.515625 75.285156 C 83.78125 72.128906 85.703125 67.394531 85.277344 62.828125 C 84.828125 57.976562 81.480469 52.945312 76.246094 52.722656 C 74.792969 52.664062 73.039062 53.230469 71.640625 52.679688 C 70.761719 52.332031 69.78125 51.1875 70.992188 50.636719 C 72.332031 50.023438 74.183594 49.917969 75.625 49.785156 C 77.265625 49.625 78.910156 49.605469 80.558594 49.6875 C 81.214844 49.722656 81.867188 49.074219 81.824219 48.414062 C 81.691406 46.28125 81.558594 44.160156 81.425781 42.027344 C 81.328125 40.402344 78.785156 40.382812 78.882812 42.027344 Z M 78.875 42.027344 "/>
<path style=" stroke:none;fill-rule:nonzero;fill:rgb(32.156864%,62.7451%,84.705883%);fill-opacity:1;" d="M 33.84375 25.347656 C 35.78125 25.367188 38.011719 25.367188 39.484375 26.84375 C 40.148438 27.507812 40.589844 28.386719 40.953125 29.257812 C 41.28125 30.050781 41.820312 31.097656 41.503906 31.960938 C 41.238281 32.671875 40.582031 33.195312 39.96875 33.613281 C 39.121094 34.179688 38.199219 34.6875 37.261719 35.097656 C 35.445312 35.878906 33.328125 36.4375 31.34375 36.339844 L 31.9375 36.5 L 31.742188 36.421875 L 32.167969 36.847656 C 31.875 36.464844 31.769531 35.914062 31.601562 35.46875 C 31.425781 34.980469 31.238281 34.5 31.0625 34.011719 C 30.707031 33.054688 30.324219 32.09375 30.023438 31.105469 C 29.722656 30.121094 29.582031 29.230469 29.511719 28.253906 C 29.46875 27.710938 29.441406 27.171875 29.414062 26.628906 C 29.394531 26.253906 29.238281 25.625 29.351562 25.261719 L 29.050781 25.785156 L 29.183594 25.679688 L 28.660156 25.980469 C 30.664062 25.457031 32.832031 25.304688 34.886719 25.082031 C 35.515625 25.011719 36.066406 24.585938 36.066406 23.902344 C 36.066406 23.316406 35.523438 22.648438 34.886719 22.71875 C 32.929688 22.933594 30.972656 23.199219 29.023438 23.519531 C 28.234375 23.652344 27.375 23.75 27.074219 24.628906 C 26.800781 25.457031 27.050781 26.574219 27.101562 27.4375 C 27.207031 29.269531 27.464844 31 28.078125 32.734375 C 28.378906 33.59375 28.707031 34.449219 29.023438 35.308594 C 29.34375 36.171875 29.589844 37.273438 30.121094 38.046875 C 30.652344 38.820312 31.484375 38.75 32.285156 38.695312 C 33.214844 38.632812 34.144531 38.5 35.046875 38.296875 C 36.703125 37.921875 38.324219 37.289062 39.8125 36.472656 C 41.210938 35.710938 42.726562 34.75 43.476562 33.285156 C 44.308594 31.648438 43.777344 30.015625 43.113281 28.421875 C 42.386719 26.683594 41.394531 25.046875 39.695312 24.105469 C 37.898438 23.109375 35.835938 23.019531 33.824219 23.003906 C 32.308594 22.984375 32.308594 25.347656 33.824219 25.367188 Z M 33.84375 25.347656 "/>
<path style=" stroke:none;fill-rule:nonzero;fill:rgb(32.156864%,62.7451%,84.705883%);fill-opacity:1;" d="M 20.089844 23.554688 C 21.515625 21.636719 23.363281 20.132812 25.464844 19.023438 L 23.726562 17.28125 C 21.894531 21.464844 20.320312 25.75 19.027344 30.136719 C 18.601562 31.578125 20.566406 32.28125 21.347656 31.117188 C 22.203125 29.835938 23.054688 28.546875 23.933594 27.277344 C 24.101562 27.039062 24.25 26.789062 24.464844 26.574219 C 24.5625 26.460938 24.675781 26.363281 24.800781 26.28125 L 24.550781 26.195312 C 24.445312 26.707031 24.410156 27.222656 24.277344 27.757812 C 23.550781 30.6875 23.117188 33.691406 22.914062 36.703125 C 22.832031 37.964844 24.710938 38.445312 25.277344 37.34375 C 26.039062 35.886719 27.050781 34.625 28.378906 33.648438 L 26.640625 31.90625 C 25.039062 35.085938 23.082031 38.285156 22.832031 41.929688 C 22.746094 43.269531 24.5625 43.554688 25.199219 42.570312 C 26.128906 41.15625 27.164062 39.839844 28.324219 38.605469 L 26.332031 37.058594 C 25.1875 39.359375 24.222656 41.742188 23.460938 44.195312 C 23.0625 45.457031 24.695312 46.257812 25.589844 45.429688 L 30.441406 40.925781 L 28.449219 39.378906 C 27.332031 41.609375 26.242188 43.847656 25.445312 46.210938 C 24.949219 47.695312 26.96875 48.253906 27.765625 47.1875 C 30.300781 43.832031 33.25 40.820312 36.507812 38.160156 L 34.515625 36.617188 C 33.132812 39.496094 31.75 42.363281 30.371094 45.242188 C 29.785156 46.460938 31.363281 47.953125 32.363281 46.789062 L 37.417969 40.917969 L 39.871094 38.0625 L 41.03125 36.722656 L 41.757812 35.886719 L 42.050781 35.550781 C 42.289062 35.363281 42.238281 35.300781 41.882812 35.363281 L 41.121094 33.488281 C 39.847656 35.914062 38.5625 38.332031 37.285156 40.757812 C 36.5 42.25 38.507812 43.304688 39.484375 42.042969 C 41.910156 38.882812 44.335938 35.71875 46.761719 32.554688 L 44.441406 31.578125 L 41.421875 40.621094 C 41.023438 41.804688 42.714844 42.816406 43.546875 41.859375 C 46.523438 38.410156 49.003906 34.597656 51.449219 30.769531 L 49.082031 30.128906 C 48.730469 33.265625 46.816406 35.96875 46.929688 39.210938 C 46.984375 40.667969 48.960938 40.90625 49.429688 39.546875 C 50.855469 35.34375 51.695312 30.984375 51.96875 26.558594 C 52.03125 25.507812 50.492188 24.796875 49.800781 25.660156 C 48.394531 27.410156 47.039062 29.195312 45.734375 31.019531 L 47.472656 30.566406 C 47.824219 30.742188 47.535156 31.0625 47.738281 30.6875 C 47.859375 30.457031 47.835938 29.878906 47.871094 29.597656 C 47.949219 28.9375 48.03125 28.289062 48.109375 27.632812 C 48.269531 26.328125 48.4375 25.011719 48.597656 23.707031 C 48.730469 22.621094 47.109375 22.007812 46.425781 22.808594 C 44.875 24.621094 43.316406 26.433594 41.769531 28.246094 L 43.894531 29.480469 C 44.167969 28.042969 44.476562 26.59375 44.71875 25.144531 C 44.894531 24.085938 44.894531 23.066406 44.0625 22.285156 C 43.679688 21.917969 42.992188 21.757812 42.519531 22.089844 C 41.386719 22.886719 40.296875 23.75 39.269531 24.675781 L 41.441406 25.570312 C 41.617188 23.742188 41.785156 21.910156 41.964844 20.082031 C 42.070312 18.953125 40.519531 18.445312 39.792969 19.183594 C 38.667969 20.320312 37.542969 21.457031 36.429688 22.59375 L 38.226562 22.59375 C 37.800781 22.160156 38.074219 21.050781 38.03125 20.488281 C 37.96875 19.628906 37.722656 18.820312 37.046875 18.242188 C 36.640625 17.894531 35.992188 17.699219 35.507812 18.046875 C 34.605469 18.675781 33.691406 19.316406 32.789062 19.945312 L 31.433594 20.898438 C 31.085938 21.136719 30.664062 21.582031 30.238281 21.644531 L 31.210938 21.769531 L 31.035156 21.652344 L 31.617188 23.09375 C 32.097656 21.6875 32.574219 20.277344 33.0625 18.871094 C 33.515625 17.539062 31.832031 16.925781 30.9375 17.636719 C 29.519531 18.765625 28.101562 19.894531 26.6875 21.023438 L 28.855469 21.917969 C 28.945312 20.898438 29.023438 19.867188 29.113281 18.84375 C 29.191406 17.929688 28.246094 17.511719 27.507812 17.621094 C 27.136719 17.671875 26.765625 17.726562 26.402344 17.777344 C 24.789062 18.019531 25.472656 20.472656 27.074219 20.230469 C 27.449219 20.179688 27.820312 20.125 28.183594 20.070312 L 26.578125 18.84375 C 26.492188 19.867188 26.410156 20.898438 26.324219 21.917969 C 26.214844 23.144531 27.722656 23.429688 28.492188 22.816406 C 29.910156 21.6875 31.328125 20.558594 32.742188 19.433594 L 30.617188 18.195312 C 30.140625 19.601562 29.660156 21.011719 29.175781 22.417969 C 28.988281 22.96875 29.308594 23.554688 29.757812 23.855469 C 30.953125 24.648438 32.105469 23.527344 33.054688 22.863281 C 34.300781 21.992188 35.542969 21.109375 36.789062 20.242188 L 35.25 20.042969 C 35.746094 20.460938 35.472656 21.484375 35.507812 22.070312 C 35.558594 22.96875 35.789062 23.742188 36.429688 24.398438 C 36.90625 24.886719 37.738281 24.886719 38.226562 24.398438 C 39.351562 23.261719 40.476562 22.125 41.589844 20.988281 L 39.421875 20.089844 C 39.246094 21.917969 39.074219 23.75 38.898438 25.582031 C 38.785156 26.761719 40.316406 27.144531 41.070312 26.476562 C 41.945312 25.695312 42.847656 24.96875 43.804688 24.292969 L 42.265625 24.097656 C 42.53125 24.34375 42.007812 25.847656 41.9375 26.210938 L 41.441406 28.816406 C 41.226562 29.953125 42.664062 31.105469 43.566406 30.050781 C 45.117188 28.238281 46.675781 26.425781 48.222656 24.613281 L 46.054688 23.714844 C 45.832031 25.535156 45.601562 27.355469 45.382812 29.171875 C 45.230469 30.414062 44.804688 32.066406 46.1875 32.777344 C 46.84375 33.113281 47.507812 32.910156 47.921875 32.324219 C 49.101562 30.671875 50.3125 29.054688 51.589844 27.480469 L 49.417969 26.585938 C 49.164062 30.796875 48.320312 34.910156 46.964844 38.898438 L 49.464844 39.238281 C 49.359375 36.089844 51.269531 33.265625 51.617188 30.15625 C 51.765625 28.816406 49.871094 28.546875 49.25 29.515625 C 46.921875 33.160156 44.585938 36.8125 41.75 40.089844 L 43.875 41.324219 L 46.894531 32.28125 C 47.390625 30.785156 45.382812 30.253906 44.574219 31.300781 C 42.148438 34.464844 39.722656 37.628906 37.296875 40.792969 L 39.492188 42.078125 C 40.765625 39.65625 42.050781 37.238281 43.328125 34.8125 C 43.726562 34.046875 43.363281 33.222656 42.566406 32.9375 C 41.273438 32.484375 40.441406 33.578125 39.6875 34.449219 L 36.648438 37.976562 C 34.628906 40.328125 32.601562 42.675781 30.582031 45.03125 L 32.574219 46.574219 L 36.71875 37.949219 C 37.367188 36.617188 35.851562 35.488281 34.726562 36.402344 C 31.292969 39.203125 28.261719 42.398438 25.589844 45.945312 L 27.910156 46.921875 C 28.632812 44.761719 29.636719 42.730469 30.652344 40.695312 C 31.292969 39.414062 29.75 38.144531 28.660156 39.148438 L 23.808594 43.652344 L 25.933594 44.886719 C 26.640625 42.640625 27.507812 40.472656 28.554688 38.367188 C 29.164062 37.132812 27.597656 35.71875 26.5625 36.820312 C 25.261719 38.207031 24.082031 39.699219 23.046875 41.296875 L 25.410156 41.9375 C 25.625 38.808594 27.492188 35.929688 28.875 33.203125 C 29.386719 32.183594 28.246094 30.644531 27.136719 31.460938 C 25.464844 32.707031 24.101562 34.214844 23.136719 36.074219 L 25.5 36.714844 C 25.648438 34.414062 25.960938 32.136719 26.4375 29.890625 C 26.765625 28.363281 27.640625 26.378906 26.785156 24.878906 C 25.925781 23.375 23.96875 23.554688 22.816406 24.664062 C 22.117188 25.339844 21.621094 26.246094 21.082031 27.046875 C 20.453125 27.980469 19.832031 28.902344 19.203125 29.835938 L 21.523438 30.8125 C 22.753906 26.636719 24.222656 22.550781 25.96875 18.570312 C 26.464844 17.433594 25.429688 16.199219 24.234375 16.828125 C 21.726562 18.152344 19.636719 20 17.945312 22.273438 C 16.960938 23.589844 19.167969 24.859375 20.140625 23.5625 Z M 20.089844 23.554688 "/>
<path style=" stroke:none;fill-rule:nonzero;fill:rgb(32.156864%,62.7451%,84.705883%);fill-opacity:1;" d="M 23.789062 53.753906 C 26.03125 51.007812 28.722656 48.769531 31.839844 47.101562 L 30.300781 45.101562 C 27.109375 48.894531 24.222656 52.929688 21.699219 57.195312 C 21.097656 58.214844 22.089844 59.265625 23.136719 59.070312 C 25.613281 58.597656 27.085938 55.859375 28.722656 54.179688 C 30.699219 52.15625 32.910156 50.441406 35.453125 49.195312 L 33.914062 47.199219 C 30.042969 52.066406 26.375 57.097656 22.949219 62.285156 C 22.160156 63.484375 23.976562 64.90625 24.941406 63.832031 C 28.078125 60.332031 31.503906 56.492188 35.628906 54.15625 L 33.894531 52.414062 C 30.574219 56.75 27.589844 61.324219 24.976562 66.125 C 24.171875 67.597656 26.214844 68.699219 27.171875 67.410156 C 29.226562 64.640625 31.691406 62.152344 34.433594 60.0625 L 32.699219 58.320312 C 29.226562 62.90625 25.765625 67.535156 23.285156 72.75 C 22.710938 73.960938 24.3125 75.496094 25.277344 74.296875 C 28.386719 70.441406 31.523438 66.59375 35.347656 63.421875 L 33.222656 62.1875 C 31.894531 65.917969 28.660156 68.601562 27.652344 72.503906 C 27.261719 73.996094 29.140625 74.574219 29.972656 73.480469 C 31.59375 71.355469 33.503906 69.464844 35.605469 67.820312 L 33.613281 66.273438 C 31.644531 69.402344 29.734375 72.566406 28.527344 76.082031 C 28.101562 77.320312 29.785156 78.179688 30.652344 77.320312 C 31.734375 76.242188 32.816406 75.175781 33.894531 74.101562 C 34.789062 73.214844 35.65625 72.09375 36.835938 71.585938 L 34.921875 70.484375 C 34.964844 71.410156 34.921875 72.308594 34.761719 73.214844 C 34.585938 74.199219 35.628906 75.347656 36.632812 74.652344 C 37.695312 73.914062 38.703125 73.105469 39.652344 72.21875 L 37.660156 70.671875 C 37.285156 71.269531 36.925781 71.863281 36.550781 72.457031 C 35.683594 73.851562 37.878906 75.132812 38.75 73.746094 C 39.121094 73.152344 39.484375 72.554688 39.855469 71.960938 C 40.632812 70.699219 38.898438 69.457031 37.863281 70.414062 C 37.074219 71.152344 36.242188 71.828125 35.355469 72.449219 L 37.226562 73.890625 C 37.429688 72.761719 37.527344 71.632812 37.480469 70.484375 C 37.4375 69.4375 36.453125 69.003906 35.570312 69.382812 C 34.3125 69.925781 33.371094 71.046875 32.425781 71.988281 C 31.238281 73.160156 30.058594 74.332031 28.875 75.507812 L 31 76.742188 C 32.132812 73.445312 33.984375 70.476562 35.835938 67.542969 C 36.667969 66.222656 34.894531 65.171875 33.84375 66 C 31.558594 67.792969 29.574219 69.863281 27.8125 72.175781 L 30.132812 73.152344 C 31.125 69.3125 34.375 66.558594 35.703125 62.835938 C 36.171875 61.519531 34.460938 60.871094 33.578125 61.601562 C 29.75 64.765625 26.617188 68.621094 23.507812 72.476562 L 25.5 74.023438 C 27.988281 68.804688 31.449219 64.175781 34.914062 59.59375 C 35.667969 58.597656 34.167969 57.097656 33.175781 57.851562 C 30.058594 60.222656 27.339844 62.960938 25.003906 66.113281 L 27.199219 67.402344 C 29.8125 62.605469 32.789062 58.027344 36.117188 53.691406 C 36.933594 52.625 35.390625 51.375 34.382812 51.953125 C 30.070312 54.402344 26.464844 58.359375 23.179688 62.027344 L 25.171875 63.574219 C 28.484375 58.5625 32 53.703125 35.738281 49 C 36.621094 47.882812 35.550781 46.34375 34.195312 47.003906 C 31.8125 48.167969 29.660156 49.765625 27.75 51.597656 C 26.800781 52.503906 25.914062 53.460938 25.074219 54.464844 C 24.347656 55.335938 23.65625 56.394531 22.480469 56.617188 L 23.914062 58.492188 C 26.332031 54.414062 29.070312 50.539062 32.125 46.914062 C 33.035156 45.828125 31.910156 44.203125 30.582031 44.914062 C 27.289062 46.671875 24.375 49.0625 22.019531 51.96875 C 20.992188 53.230469 22.78125 55.042969 23.816406 53.773438 Z M 23.789062 53.753906 "/>
<path style=" stroke:none;fill-rule:nonzero;fill:rgb(32.156864%,62.7451%,84.705883%);fill-opacity:1;" d="M 55.160156 72.433594 C 56.921875 70.371094 59.039062 68.789062 61.507812 67.6875 L 59.773438 65.945312 C 57.691406 69.117188 56.175781 72.617188 55.265625 76.296875 C 54.972656 77.476562 56.496094 78.507812 57.390625 77.53125 C 60.730469 73.851562 64.078125 70.191406 67.796875 66.90625 L 65.804688 65.359375 C 63.703125 68.53125 61.625 71.792969 60.738281 75.550781 C 60.472656 76.671875 62.023438 77.859375 62.863281 76.785156 C 65.722656 73.105469 68.914062 69.710938 72.402344 66.636719 L 70.410156 65.09375 C 69.195312 67.074219 67.992188 69.054688 66.9375 71.125 C 65.972656 73.035156 65.15625 74.894531 65.46875 77.070312 C 65.609375 78.082031 66.964844 78.207031 67.59375 77.628906 C 71.242188 74.261719 73.800781 69.765625 77.867188 66.835938 L 76.128906 65.09375 C 75.085938 66.914062 74.085938 68.761719 73.144531 70.644531 C 72.347656 72.234375 70.949219 74.191406 71.464844 76.039062 C 71.765625 77.113281 73.207031 77.265625 73.785156 76.339844 C 75.882812 72.945312 78.015625 69.5625 80.949219 66.816406 L 78.777344 65.917969 C 78.628906 67.507812 78.273438 69.046875 77.75 70.558594 C 77.28125 71.90625 79.433594 72.832031 80.070312 71.535156 C 81.886719 67.863281 82.976562 63.980469 83.355469 59.902344 C 83.453125 58.847656 81.867188 58.171875 81.1875 59.007812 C 79.476562 61.101562 77.652344 63.109375 75.722656 65.011719 L 77.847656 66.246094 C 78.0625 64.683594 78.539062 63.269531 79.210938 61.847656 C 79.832031 60.542969 80.230469 59.265625 79.488281 57.921875 C 79.125 57.273438 78 57.015625 77.492188 57.664062 C 75.625 60.046875 73.570312 62.257812 71.332031 64.292969 L 73.457031 65.527344 C 74.457031 63.039062 75.464844 60.542969 76.464844 58.054688 C 77.007812 56.722656 75.199219 56.152344 74.339844 56.820312 C 72.453125 58.296875 70.558594 59.761719 68.671875 61.238281 L 70.796875 62.472656 C 71.339844 60.871094 71.886719 59.273438 72.429688 57.664062 C 72.757812 56.714844 71.753906 55.878906 70.871094 56.101562 C 69.558594 56.429688 68.34375 56.972656 67.246094 57.753906 L 69.117188 58.519531 C 68.886719 57.574219 69.84375 56.472656 70.117188 55.59375 C 70.398438 54.660156 70.265625 53.558594 69.347656 53.027344 C 68.523438 52.546875 67.574219 52.847656 66.804688 53.257812 C 65.53125 53.925781 64.296875 54.722656 63.058594 55.453125 L 64.792969 57.195312 C 65.671875 55.558594 66.554688 53.933594 67.433594 52.296875 C 68.160156 50.957031 66.53125 49.882812 65.441406 50.753906 C 64.484375 51.515625 63.519531 52.289062 62.5625 53.054688 L 64.6875 54.289062 C 65.394531 52.503906 66.433594 50.875 67.714844 49.453125 C 68.1875 48.929688 68.203125 48.183594 67.714844 47.652344 C 67.027344 46.894531 66.042969 47.011719 65.203125 47.445312 C 63.980469 48.078125 62.808594 48.859375 61.625 49.550781 L 63.164062 51.550781 C 65.113281 49.039062 67.355469 46.78125 69.859375 44.824219 L 67.867188 43.28125 C 66.972656 44.675781 66.078125 46.070312 65.183594 47.464844 C 64.839844 48.007812 65.035156 48.921875 65.636719 49.207031 C 67.078125 49.882812 68.140625 48.902344 69.320312 48.121094 C 70.710938 47.1875 72.101562 46.265625 73.492188 45.332031 L 71.621094 43.894531 C 71.488281 44.871094 71.402344 45.828125 71.410156 46.824219 C 71.410156 47.714844 72.515625 48.511719 73.324219 47.925781 C 74.785156 46.859375 76.226562 45.785156 77.664062 44.683594 L 75.792969 43.242188 C 75.535156 44.230469 75.210938 45.171875 74.75 46.085938 C 74.21875 47.164062 75.34375 48.546875 76.484375 47.828125 C 77.433594 47.234375 78.378906 46.628906 79.328125 46.035156 C 80.707031 45.164062 79.433594 42.960938 78.042969 43.832031 L 75.199219 45.625 L 76.9375 47.367188 C 77.484375 46.257812 77.929688 45.117188 78.230469 43.917969 C 78.476562 42.949219 77.300781 41.769531 76.359375 42.480469 C 74.925781 43.582031 73.472656 44.65625 72.019531 45.722656 L 73.933594 46.824219 C 73.933594 46.070312 73.953125 45.324219 74.058594 44.566406 C 74.191406 43.582031 73.226562 42.445312 72.1875 43.128906 C 71.152344 43.8125 70.222656 44.445312 69.230469 45.101562 C 68.769531 45.410156 68.300781 45.722656 67.839844 46.035156 C 67.609375 46.183594 67.378906 46.34375 67.140625 46.496094 C 66.867188 46.683594 66.398438 46.769531 66.894531 47.003906 L 67.34375 48.742188 C 68.238281 47.347656 69.132812 45.953125 70.027344 44.558594 C 70.871094 43.242188 69.089844 42.195312 68.035156 43.011719 C 65.53125 44.976562 63.289062 47.222656 61.339844 49.738281 C 60.515625 50.804688 61.535156 52.527344 62.882812 51.738281 C 63.535156 51.355469 64.191406 50.964844 64.847656 50.582031 C 65.148438 50.40625 65.441406 50.226562 65.742188 50.058594 L 66.097656 49.84375 C 66.636719 49.648438 66.566406 49.515625 65.890625 49.4375 L 65.890625 47.632812 C 64.296875 49.402344 63.09375 51.382812 62.207031 53.59375 C 61.675781 54.917969 63.476562 55.523438 64.332031 54.832031 C 65.289062 54.066406 66.253906 53.292969 67.210938 52.527344 L 65.21875 50.984375 C 64.34375 52.617188 63.457031 54.242188 62.582031 55.878906 C 61.988281 56.980469 63.191406 58.277344 64.316406 57.621094 C 65.128906 57.140625 65.9375 56.667969 66.75 56.191406 C 67.050781 56.011719 67.902344 55.710938 68.0625 55.425781 L 68.265625 55.320312 C 67.894531 54.574219 67.664062 54.484375 67.582031 55.042969 C 66.804688 56.179688 66.300781 57.808594 66.636719 59.15625 C 66.824219 59.902344 67.832031 60.390625 68.503906 59.921875 C 69.445312 59.253906 70.410156 58.800781 71.523438 58.527344 L 69.964844 56.960938 L 68.335938 61.769531 C 67.886719 63.109375 69.566406 63.707031 70.460938 63.003906 C 72.347656 61.53125 74.242188 60.0625 76.128906 58.589844 L 74.003906 57.355469 L 70.992188 64.824219 C 70.480469 66.097656 72.269531 66.835938 73.117188 66.0625 C 75.359375 64.027344 77.414062 61.8125 79.28125 59.433594 L 77.289062 59.175781 C 77.679688 59.886719 76.527344 61.503906 76.253906 62.203125 C 75.828125 63.28125 75.554688 64.390625 75.394531 65.535156 C 75.234375 66.683594 76.527344 67.75 77.519531 66.773438 C 79.453125 64.871094 81.277344 62.871094 82.984375 60.765625 L 80.816406 59.867188 C 80.480469 63.464844 79.476562 66.976562 77.882812 70.210938 L 80.203125 71.1875 C 80.804688 69.457031 81.160156 67.695312 81.328125 65.875 C 81.433594 64.710938 79.902344 64.285156 79.160156 64.976562 C 76.078125 67.863281 73.808594 71.445312 71.597656 75.015625 L 73.917969 75.320312 C 73.730469 74.660156 74.5 73.605469 74.773438 73.019531 C 75.148438 72.261719 75.519531 71.507812 75.910156 70.761719 C 76.679688 69.269531 77.484375 67.792969 78.328125 66.335938 C 78.917969 65.296875 77.664062 63.820312 76.589844 64.59375 C 72.320312 67.667969 69.636719 72.253906 65.804688 75.78125 L 67.929688 76.339844 C 67.679688 74.609375 68.949219 72.6875 69.734375 71.242188 C 70.640625 69.570312 71.632812 67.945312 72.625 66.328125 C 73.402344 65.046875 71.675781 63.859375 70.628906 64.78125 C 67.140625 67.863281 63.953125 71.25 61.09375 74.929688 L 63.21875 76.164062 C 64.050781 72.617188 66.042969 69.578125 68.027344 66.585938 C 68.859375 65.324219 67.070312 64.132812 66.035156 65.039062 C 62.316406 68.328125 58.96875 71.996094 55.628906 75.664062 L 57.753906 76.902344 C 58.613281 73.417969 60.039062 70.15625 62.003906 67.164062 C 62.773438 65.988281 61.324219 64.949219 60.269531 65.421875 C 57.628906 66.601562 55.28125 68.363281 53.40625 70.566406 C 52.351562 71.808594 54.140625 73.613281 55.203125 72.371094 Z M 55.160156 72.433594 "/>
</g>
</svg>
