<?xml version="1.0" encoding="UTF-8"?>
<svg id="Capa_1" xmlns="http://www.w3.org/2000/svg" viewBox="0 0 112.69 106.92">
  <defs>
    <style>
      .cls-1 {
        fill: #52a0d8;
      }

      .cls-2 {
        fill: #132034;
      }
    </style>
  </defs>
  <path class="cls-2" d="M20.88.16c23.66.11,47.32.22,70.98.34,5.21.02,11,.28,14.72,4.16,4.54,4.71,3.99,12.48,3.33,19.19-1.6,16.44-1.85,33.02-.75,49.51.32,4.86.76,9.79-.09,14.58s-3.2,9.53-7.19,11.91c-3.41,2.03-7.51,2.11-11.41,2.13-23.01.11-46.02-.17-69.02-.82-4.22-.12-8.8-.4-11.98-3.35-3.29-3.06-4.1-8.09-4.48-12.72-1.48-18.34.72-37.08-3.11-55.02C.7,24.49-1.05,18.58.83,13.23c1.29-3.68,4.17-6.51,7.32-8.56C14.67.41,22.77-.99,30.22.84"/>
  <path class="cls-1" d="M18.14,20.72c1.58,8.05,3.16,16.11,4.32,24.23s1.69,16.01,1.81,24.1c.06,3.82.17,7.65.76,11.44.3,1.91.67,3.89,1.38,5.69.63,1.6,1.9,2.26,3.56,2.35,1.97.11,3.96.06,5.94.09,1.79.03,3.84.33,5.58-.19,3.15-.93,3.29-4.35,2.75-7.04-.89-4.43-1.8-8.79-2.17-13.31s-.39-9.14-.07-13.7c.13-1.84-2.74-1.83-2.87,0-.52,7.34-.13,14.71,1.13,21.96.3,1.74.68,3.46,1.07,5.18.24,1.04.68,2.59.08,3.6-.7,1.17-3.14.67-4.3.65-1.94-.03-3.88-.06-5.82-.08-.75-.01-1.72.2-2.2-.45-.35-.47-.48-1.58-.63-2.14-.46-1.81-.76-3.65-.95-5.5-.36-3.53-.37-7.09-.42-10.64-.11-7.39-.75-14.73-1.78-22.05-1.17-8.37-2.8-16.66-4.42-24.95-.35-1.81-3.12-1.04-2.76.76h0Z"/>
  <path class="cls-1" d="M17.81,17.76c-.48,2.26,1.75,3.29,3.68,3.16,2.87-.19,5.73-.69,8.61-.9,5.58-.41,11.4-.47,16.83,1.07,4.65,1.32,8.73,4.06,10.12,8.91.69,2.4.78,4.9.72,7.38-.03,1.21-.09,2.43-.18,3.64-.1,1.44-.54,2.23-1.76,2.98-5.37,3.28-11.48,5.4-17.65,6.53-1.81.33-1.04,3.1.76,2.76,5.74-1.05,11.3-2.99,16.45-5.76,2.24-1.2,4.44-2.41,4.92-5.12s.44-5.46.3-8.09c-.28-5.11-2.02-9.79-6.25-12.9s-9.63-4.03-14.69-4.37c-3.51-.24-7.03-.11-10.53.18-1.76.15-3.51.33-5.27.54-.79.09-1.59.23-2.38.29-.2.01-.48-.04-.67,0-.82.16-.01-.65-.25.47.39-1.8-2.38-2.57-2.76-.76h0Z"/>
  <path class="cls-1" d="M88.95,47.3c.15,2.4.3,4.79.45,7.19l1.43-1.43c-3.08-.15-6.15.05-9.18.61-2.3.42-5.31,1.24-5.18,4.16.1,2.34,2.27,4.1,4.45,4.43,2.69.4,5.4-.65,7.88.82,4.15,2.45,5.21,8.03,4.12,12.38-1.3,5.2-5.15,9.07-10.2,10.7s-11.68,2.42-16.56-.45c-2.08-1.22-3.83-3.22-4.59-5.53-.37-1.11-.53-2.31-.35-3.48.11-.66.23-1.12.87-1.41.68-.32,1.46-.48,2.18-.71.77-.25,1.54-.5,2.32-.76.26-.09.96-.18,1.16-.38l.23-.08c-.25-.27-.29-.23-.11.1.22,1.08,1.38,1.99,2.32,2.4,2.33,1.03,4.86.06,6.52-1.72s2.94-4.63,1.82-7.11c-.86-1.92-2.75-2.86-4.57-3.69-2.16-.98-4.26-1.98-4.59-4.6s.98-5.09,2.98-6.68c2.29-1.83,5.24-2.64,8.06-3.24,3.65-.78,7.35-1.21,11.08-1.38,1.84-.08,1.85-2.95,0-2.87-3.53.16-7.04.56-10.51,1.22-2.73.52-5.47,1.2-7.96,2.47-4.37,2.24-7.72,7.06-6.21,12.13.72,2.41,2.51,3.92,4.71,4.97,1.53.73,4.45,1.49,4.6,3.55s-2.82,5.83-5.07,4.18c-.85-.62-.74-1.88-1.79-2.42-1.34-.68-3.06.27-4.34.69-1.44.47-3.03.82-4.38,1.51s-1.9,1.99-2.11,3.43c-.37,2.53.28,5.12,1.62,7.28,3.03,4.89,8.61,6.92,14.17,6.87s12.3-1.61,16.58-5.72c3.69-3.55,5.86-8.88,5.38-14.02-.51-5.46-4.29-11.12-10.2-11.37-1.64-.07-3.62.57-5.2-.05-.99-.39-2.1-1.68-.73-2.3,1.51-.69,3.6-.81,5.23-.96,1.85-.18,3.71-.2,5.57-.11.74.04,1.48-.69,1.43-1.43-.15-2.4-.3-4.79-.45-7.19-.11-1.83-2.98-1.85-2.87,0h0Z"/>
  <path class="cls-1" d="M38.1,28.53c2.19.02,4.71.02,6.37,1.68.75.75,1.25,1.74,1.66,2.72.37.89.98,2.07.62,3.04-.3.8-1.04,1.39-1.73,1.86-.96.64-2,1.21-3.06,1.67-2.05.88-4.44,1.51-6.68,1.4l.67.18-.22-.09.48.48c-.33-.43-.45-1.05-.64-1.55-.2-.55-.41-1.09-.61-1.64-.4-1.08-.83-2.16-1.17-3.27s-.5-2.11-.58-3.21c-.05-.61-.08-1.22-.11-1.83-.02-.42-.2-1.13-.07-1.54l-.34.59.15-.12-.59.34c2.26-.59,4.71-.76,7.03-1.01.71-.08,1.33-.56,1.33-1.33,0-.66-.61-1.41-1.33-1.33-2.21.24-4.42.54-6.62.9-.89.15-1.86.26-2.2,1.25-.31.93-.03,2.19.03,3.16.12,2.06.41,4.01,1.1,5.96.34.97.71,1.93,1.07,2.9s.64,2.21,1.24,3.08,1.54.79,2.44.73c1.05-.07,2.1-.22,3.12-.45,1.87-.42,3.7-1.13,5.38-2.05,1.58-.86,3.29-1.94,4.14-3.59.94-1.84.34-3.68-.41-5.47-.82-1.96-1.94-3.8-3.86-4.86-2.03-1.12-4.36-1.22-6.63-1.24-1.71-.02-1.71,2.64,0,2.66h0Z"/>
  <path class="cls-1" d="M22.57,26.51c1.61-2.16,3.7-3.85,6.07-5.1l-1.96-1.96c-2.07,4.71-3.85,9.53-5.31,14.47-.48,1.62,1.74,2.41,2.62,1.1.97-1.44,1.93-2.89,2.92-4.32.19-.27.36-.55.6-.79.11-.13.24-.24.38-.33l-.28-.1c-.12.58-.16,1.16-.31,1.76-.82,3.3-1.31,6.68-1.54,10.07-.09,1.42,2.03,1.96,2.67.72.86-1.64,2-3.06,3.5-4.16l-1.96-1.96c-1.81,3.58-4.02,7.18-4.3,11.28-.1,1.51,1.95,1.83,2.67.72,1.05-1.59,2.22-3.07,3.53-4.46l-2.25-1.74c-1.29,2.59-2.38,5.27-3.24,8.03-.45,1.42,1.39,2.32,2.4,1.39l5.48-5.07-2.25-1.74c-1.26,2.51-2.49,5.03-3.39,7.69-.56,1.67,1.72,2.3,2.62,1.1,2.86-3.78,6.19-7.17,9.87-10.16l-2.25-1.74c-1.56,3.24-3.12,6.47-4.68,9.71-.66,1.37,1.12,3.05,2.25,1.74l5.71-6.61,2.77-3.21,1.31-1.51.82-.94.33-.38c.27-.21.21-.28-.19-.21l-.86-2.11c-1.44,2.73-2.89,5.45-4.33,8.18-.89,1.68,1.38,2.87,2.48,1.45,2.74-3.56,5.48-7.12,8.22-10.68l-2.62-1.1-3.41,10.18c-.45,1.33,1.46,2.47,2.4,1.39,3.36-3.88,6.16-8.17,8.92-12.48l-2.67-.72c-.4,3.53-2.56,6.57-2.43,10.22.06,1.64,2.29,1.91,2.82.38,1.61-4.73,2.56-9.64,2.87-14.62.07-1.18-1.67-1.98-2.45-1.01-1.59,1.97-3.12,3.98-4.59,6.03l1.96-.51c.4.2.07.56.3.14.14-.26.11-.91.15-1.23.09-.74.18-1.47.27-2.21.18-1.47.37-2.95.55-4.42.15-1.22-1.68-1.91-2.45-1.01-1.75,2.04-3.51,4.08-5.26,6.12l2.4,1.39c.31-1.62.66-3.25.93-4.88.2-1.19.2-2.34-.74-3.22-.43-.41-1.21-.59-1.74-.22-1.28.9-2.51,1.87-3.67,2.91l2.45,1.01c.2-2.06.39-4.12.59-6.18.12-1.27-1.63-1.84-2.45-1.01-1.27,1.28-2.54,2.56-3.8,3.84h2.03c-.48-.49-.17-1.74-.22-2.37-.07-.97-.35-1.88-1.11-2.53-.46-.39-1.19-.61-1.74-.22-1.02.71-2.05,1.43-3.07,2.14l-1.53,1.07c-.39.27-.87.77-1.35.84l1.1.14-.2-.13.66,1.62c.54-1.58,1.08-3.17,1.63-4.75.51-1.5-1.39-2.19-2.4-1.39-1.6,1.27-3.2,2.54-4.8,3.81l2.45,1.01c.1-1.15.19-2.31.29-3.46.09-1.03-.98-1.5-1.81-1.38-.42.06-.84.12-1.25.18-1.82.27-1.05,3.03.76,2.76.42-.06.84-.12,1.25-.18l-1.81-1.38c-.1,1.15-.19,2.31-.29,3.46-.12,1.38,1.58,1.7,2.45,1.01,1.6-1.27,3.2-2.54,4.8-3.81l-2.4-1.39c-.54,1.58-1.08,3.17-1.63,4.75-.21.62.15,1.28.66,1.62,1.35.89,2.65-.37,3.72-1.12,1.41-.98,2.81-1.97,4.22-2.95l-1.74-.22c.56.47.25,1.62.29,2.28.06,1.01.32,1.88,1.04,2.62.54.55,1.48.55,2.03,0,1.27-1.28,2.54-2.56,3.8-3.84l-2.45-1.01c-.2,2.06-.39,4.12-.59,6.18-.13,1.33,1.6,1.76,2.45,1.01.99-.88,2.01-1.7,3.09-2.46l-1.74-.22c.3.28-.29,1.97-.37,2.38l-.56,2.93c-.24,1.28,1.38,2.58,2.4,1.39,1.75-2.04,3.51-4.08,5.26-6.12l-2.45-1.01c-.25,2.05-.51,4.1-.76,6.14-.17,1.4-.65,3.26.91,4.06.74.38,1.49.15,1.96-.51,1.33-1.86,2.7-3.68,4.14-5.45l-2.45-1.01c-.29,4.74-1.24,9.37-2.77,13.86l2.82.38c-.12-3.54,2.04-6.72,2.43-10.22.17-1.51-1.97-1.81-2.67-.72-2.63,4.1-5.27,8.21-8.47,11.9l2.4,1.39,3.41-10.18c.56-1.68-1.71-2.28-2.62-1.1-2.74,3.56-5.48,7.12-8.22,10.68l2.48,1.45c1.44-2.73,2.89-5.45,4.33-8.18.45-.86.04-1.79-.86-2.11-1.46-.51-2.4.72-3.25,1.7l-3.43,3.97c-2.28,2.65-4.57,5.29-6.85,7.94l2.25,1.74,4.68-9.71c.73-1.5-.98-2.77-2.25-1.74-3.88,3.15-7.3,6.75-10.32,10.74l2.62,1.1c.82-2.43,1.95-4.72,3.1-7.01.72-1.44-1.02-2.87-2.25-1.74l-5.48,5.07,2.4,1.39c.8-2.53,1.78-4.97,2.96-7.34.69-1.39-1.08-2.98-2.25-1.74-1.47,1.56-2.8,3.24-3.97,5.04l2.67.72c.24-3.52,2.35-6.76,3.91-9.83.58-1.15-.71-2.88-1.96-1.96-1.89,1.4-3.43,3.1-4.52,5.19l2.67.72c.17-2.59.52-5.15,1.06-7.68.37-1.72,1.36-3.95.39-5.64s-3.18-1.49-4.48-.24c-.79.76-1.35,1.78-1.96,2.68-.71,1.05-1.41,2.09-2.12,3.14l2.62,1.1c1.39-4.7,3.05-9.3,5.02-13.78.56-1.28-.61-2.67-1.96-1.96-2.83,1.49-5.19,3.57-7.1,6.13-1.11,1.48,1.38,2.91,2.48,1.45h0Z"/>
  <path class="cls-1" d="M26.75,60.5c2.53-3.09,5.57-5.61,9.09-7.49l-1.74-2.25c-3.6,4.27-6.86,8.81-9.71,13.61-.68,1.15.44,2.33,1.62,2.11,2.8-.53,4.46-3.61,6.31-5.5,2.23-2.28,4.73-4.21,7.6-5.61l-1.74-2.25c-4.37,5.48-8.51,11.14-12.38,16.98-.89,1.35,1.16,2.95,2.25,1.74,3.54-3.94,7.41-8.26,12.07-10.89l-1.96-1.96c-3.75,4.88-7.12,10.03-10.07,15.43-.91,1.66,1.4,2.9,2.48,1.45,2.32-3.12,5.1-5.92,8.2-8.27l-1.96-1.96c-3.92,5.16-7.83,10.37-10.63,16.24-.65,1.36,1.16,3.09,2.25,1.74,3.51-4.34,7.05-8.67,11.37-12.24l-2.4-1.39c-1.5,4.2-5.15,7.22-6.29,11.61-.44,1.68,1.68,2.33,2.62,1.1,1.83-2.39,3.99-4.52,6.36-6.37l-2.25-1.74c-2.22,3.52-4.38,7.08-5.74,11.04-.48,1.39,1.42,2.36,2.4,1.39,1.22-1.21,2.44-2.41,3.66-3.62,1.01-1,1.99-2.26,3.32-2.83l-2.16-1.24c.05,1.04,0,2.05-.18,3.07-.2,1.11.98,2.4,2.11,1.62,1.2-.83,2.34-1.74,3.41-2.74l-2.25-1.74c-.42.67-.83,1.34-1.25,2.01-.98,1.57,1.5,3.01,2.48,1.45.42-.67.83-1.34,1.25-2.01.88-1.42-1.08-2.82-2.25-1.74-.89.83-1.83,1.59-2.83,2.29l2.11,1.62c.23-1.27.34-2.54.29-3.83-.05-1.18-1.16-1.67-2.16-1.24-1.42.61-2.48,1.87-3.55,2.93-1.34,1.32-2.67,2.64-4.01,3.96l2.4,1.39c1.28-3.71,3.37-7.05,5.46-10.35.94-1.49-1.06-2.67-2.25-1.74-2.58,2.02-4.82,4.35-6.81,6.95l2.62,1.1c1.12-4.32,4.79-7.42,6.29-11.61.53-1.48-1.4-2.21-2.4-1.39-4.32,3.56-7.86,7.9-11.37,12.24l2.25,1.74c2.81-5.87,6.72-11.08,10.63-16.24.85-1.12-.84-2.81-1.96-1.96-3.52,2.67-6.59,5.75-9.23,9.3l2.48,1.45c2.95-5.4,6.31-10.55,10.07-15.43.92-1.2-.82-2.61-1.96-1.96-4.87,2.76-8.94,7.21-12.65,11.34l2.25,1.74c3.74-5.64,7.71-11.11,11.93-16.4,1-1.26-.21-2.99-1.74-2.25-2.69,1.31-5.12,3.11-7.28,5.17-1.07,1.02-2.07,2.1-3.02,3.23-.82.98-1.6,2.17-2.93,2.42l1.62,2.11c2.73-4.59,5.82-8.95,9.27-13.03,1.03-1.22-.24-3.05-1.74-2.25-3.72,1.98-7.01,4.67-9.67,7.94-1.16,1.42.86,3.46,2.03,2.03h0Z"/>
  <path class="cls-1" d="M62.17,81.52c1.99-2.32,4.38-4.1,7.17-5.34l-1.96-1.96c-2.35,3.57-4.06,7.51-5.09,11.65-.33,1.33,1.39,2.49,2.4,1.39,3.77-4.14,7.55-8.26,11.75-11.96l-2.25-1.74c-2.37,3.57-4.72,7.24-5.72,11.47-.3,1.26,1.45,2.6,2.4,1.39,3.23-4.14,6.83-7.96,10.77-11.42l-2.25-1.74c-1.37,2.23-2.73,4.46-3.92,6.79-1.09,2.15-2.01,4.24-1.66,6.69.16,1.14,1.69,1.28,2.4.63,4.12-3.79,7.01-8.85,11.6-12.15l-1.96-1.96c-1.18,2.05-2.31,4.13-3.37,6.25-.9,1.79-2.48,3.99-1.9,6.07.34,1.21,1.97,1.38,2.62.34,2.37-3.82,4.78-7.63,8.09-10.72l-2.45-1.01c-.17,1.79-.57,3.52-1.16,5.22-.53,1.52,1.9,2.56,2.62,1.1,2.05-4.13,3.28-8.5,3.71-13.09.11-1.19-1.68-1.95-2.45-1.01-1.93,2.36-3.99,4.62-6.17,6.76l2.4,1.39c.24-1.76.78-3.35,1.54-4.95.7-1.47,1.15-2.91.31-4.42-.41-.73-1.68-1.02-2.25-.29-2.11,2.68-4.43,5.17-6.96,7.46l2.4,1.39c1.13-2.8,2.27-5.61,3.4-8.41.61-1.5-1.43-2.14-2.4-1.39-2.13,1.66-4.27,3.31-6.4,4.97l2.4,1.39c.61-1.8,1.23-3.6,1.84-5.41.37-1.07-.76-2.01-1.76-1.76-1.48.37-2.85.98-4.09,1.86l2.11.86c-.26-1.06.82-2.3,1.13-3.29.32-1.05.17-2.29-.87-2.89-.93-.54-2-.2-2.87.26-1.44.75-2.83,1.65-4.23,2.47l1.96,1.96c.99-1.84,1.99-3.67,2.98-5.51.82-1.51-1.02-2.72-2.25-1.74-1.08.86-2.17,1.73-3.25,2.59l2.4,1.39c.8-2.01,1.97-3.84,3.42-5.44.53-.59.55-1.43,0-2.03-.78-.85-1.89-.72-2.84-.23-1.38.71-2.7,1.59-4.04,2.37l1.74,2.25c2.2-2.83,4.73-5.37,7.56-7.57l-2.25-1.74c-1.01,1.57-2.02,3.14-3.03,4.71-.39.61-.17,1.64.51,1.96,1.63.76,2.83-.34,4.16-1.22,1.57-1.05,3.14-2.09,4.71-3.14l-2.11-1.62c-.15,1.1-.25,2.18-.24,3.3,0,1,1.25,1.9,2.16,1.24,1.65-1.2,3.28-2.41,4.9-3.65l-2.11-1.62c-.29,1.11-.66,2.17-1.18,3.2-.6,1.21.67,2.77,1.96,1.96,1.07-.67,2.14-1.35,3.21-2.02,1.56-.98.12-3.46-1.45-2.48l-3.21,2.02,1.96,1.96c.62-1.25,1.12-2.53,1.46-3.88.28-1.09-1.05-2.42-2.11-1.62-1.62,1.24-3.26,2.45-4.9,3.65l2.16,1.24c0-.85.02-1.69.14-2.54.15-1.11-.94-2.39-2.11-1.62s-2.22,1.48-3.34,2.22c-.52.35-1.05.7-1.57,1.05-.26.17-.52.35-.79.52-.31.21-.84.31-.28.57l.51,1.96c1.01-1.57,2.02-3.14,3.03-4.71.95-1.48-1.06-2.66-2.25-1.74-2.83,2.21-5.36,4.74-7.56,7.57-.93,1.2.22,3.14,1.74,2.25.74-.43,1.48-.87,2.22-1.3.34-.2.67-.4,1.01-.59l.4-.24c.61-.22.53-.37-.23-.46v-2.03c-1.8,1.99-3.16,4.22-4.16,6.71-.6,1.49,1.43,2.17,2.4,1.39,1.08-.86,2.17-1.73,3.25-2.59l-2.25-1.74c-.99,1.84-1.99,3.67-2.98,5.51-.67,1.24.69,2.7,1.96,1.96.92-.54,1.83-1.07,2.75-1.61.34-.2,1.3-.54,1.48-.86l.23-.12c-.42-.84-.68-.94-.77-.31-.88,1.28-1.45,3.11-1.07,4.63.21.84,1.35,1.39,2.11.86,1.06-.75,2.15-1.26,3.41-1.57l-1.76-1.76-1.84,5.41c-.51,1.51,1.39,2.18,2.4,1.39,2.13-1.66,4.27-3.31,6.4-4.97l-2.4-1.39-3.4,8.41c-.58,1.43,1.44,2.26,2.4,1.39,2.53-2.29,4.85-4.78,6.96-7.46l-2.25-.29c.44.8-.86,2.62-1.17,3.41-.48,1.21-.79,2.46-.97,3.75s1.28,2.49,2.4,1.39c2.18-2.14,4.24-4.39,6.17-6.76l-2.45-1.01c-.38,4.05-1.51,8-3.31,11.64l2.62,1.1c.68-1.95,1.08-3.93,1.27-5.98.12-1.31-1.61-1.79-2.45-1.01-3.48,3.25-6.04,7.28-8.54,11.3l2.62.34c-.21-.74.66-1.93.97-2.59.42-.85.84-1.7,1.28-2.54.87-1.68,1.78-3.34,2.73-4.98.67-1.17-.75-2.83-1.96-1.96-4.82,3.46-7.85,8.62-12.18,12.59l2.4.63c-.28-1.95,1.15-4.11,2.04-5.74,1.02-1.88,2.14-3.71,3.26-5.53.88-1.44-1.07-2.78-2.25-1.74-3.94,3.47-7.54,7.28-10.77,11.42l2.4,1.39c.94-3.99,3.19-7.41,5.43-10.78.94-1.42-1.08-2.76-2.25-1.74-4.2,3.7-7.98,7.83-11.75,11.96l2.4,1.39c.97-3.92,2.58-7.59,4.8-10.96.87-1.32-.77-2.49-1.96-1.96-2.98,1.33-5.63,3.31-7.75,5.79-1.19,1.4.83,3.43,2.03,2.03h0Z"/>
</svg>