<?xml version="1.0" encoding="UTF-8"?>
<svg id="Capa_1" xmlns="http://www.w3.org/2000/svg" viewBox="0 0 899.53 426.52">
  <defs>
    <style>
      .cls-1 {
        fill: #fff;
      }
    </style>
  </defs>
  <path class="cls-1" d="M324.49,26.4c-3.48-.3-7.21.22-10.49,1.41-2.44.89-5.22,1.87-7.54,3.29-.3.18-.58.39-.86.6-1.95,1.44-4.01,2.89-5.81,4.53-2.53,2.3-4.68,5.18-6.34,8.17-1.33,2.4-2.32,5.07-3.29,7.62-.26.68-.48,1.37-.62,2.09-.55,2.74-.97,5.63-1.12,8.43s.66,6.64.98,8.68c.1.6.21,1.2.42,1.78.78,2.23,1.82,4.61,2.83,6.74.17.36.34.71.56,1.04.72,1.13,1.72,2.27,2.47,3.25.91,1.18,1.62,2.18,2.55,3.21.49.54.95,1.12,1.48,1.62,1.95,1.84,4.22,3.47,6.41,5,.55.38,1.13.7,1.73.99,2.41,1.14,4.94,2.34,7.52,3.1,1.63.48,3.47.59,5.09.81s3.43.58,5.15.57,3.51-.36,5.18-.58c2.44-.33,4.78-.53,7.08-1.39,3.2-1.2,6.6-2.46,9.56-4.26.55-.34,1.09-.7,1.61-1.08,2.29-1.66,4.6-3.37,6.72-5.25,1.86-1.64,3.27-3.59,4.79-5.56s3.06-3.79,4.13-6.01c1.2-2.48,2.28-5.07,3.23-7.65.25-.68.46-1.38.61-2.09.6-2.76.93-5.64,1.17-8.44.06-.68.09-1.36.06-2.05-.14-2.88-.61-5.8-1.13-8.63-.14-.77-.34-1.53-.58-2.27-2.36-7.45-5.77-12.99-10.87-18.83-1.03-1.17-2.17-2.23-3.39-3.2-2.82-2.24-5.71-4.69-8.91-6.47s-6.8-3.18-10.25-4.51c-1.54-.6-3.11-1.08-4.72-1.46-3.73-.88-7.62-1.29-11.41-1.71-1.65-.18-3.3-.26-4.96-.22-3.81.09-7.65.74-11.39,1.32-1.79.28-3.57.69-5.29,1.28-3.61,1.24-7.32,2.62-10.56,4.67-2.48,1.57-4.84,3.47-7.05,5.39-1.46,1.26-2.53,2.85-3.71,4.37s-2.48,2.97-3.33,4.68c-1.28,2.59-2.57,5.28-3.33,8.09-.09.35-.17.71-.23,1.07-.45,2.52-.84,5.2-1.03,7.76-.06.78,0,1.54.07,2.32.25,2.54.52,6.05,1.34,8.82s2.09,5.49,3.32,8.08c.33.69.68,1.36,1.09,2,1.59,2.49,3.5,4.82,5.39,7.07,2.39,2.85,5.71,5.1,8.65,7.22.64.46,1.31.88,2,1.26,2.63,1.42,5.5,2.52,8.28,3.57,3.7,1.39,7.91,1.65,11.76,1.96,4.29.34,8.82-.52,12.96-1.19,2.2-.36,4.35-.96,6.44-1.72,4.06-1.48,8.09-3.19,11.96-5.13,2.03-1.01,4-2.13,5.95-3.28,7.81-4.61,12.73-13.1,12.73-22.19-.01-4.64-1.18-8.96-3.51-12.97-2.28-3.86-5.36-6.93-9.22-9.22-4.05-2.61-8.16-5.17-12.56-7.16-4-1.81-8.2-3.75-12.49-4.9-1.03-.28-2.08-.5-3.14-.67-3.29-.52-6.66-1.11-10.01-1.23-1.14-.04-2.29.01-3.42.13-3,.31-6.28.57-9.29,1.35-2.81.73-5.48,2.1-8.11,3.26-.78.34-1.53.72-2.26,1.17-2.41,1.49-4.62,3.37-6.81,5.14-.71.57-1.39,1.17-2.01,1.83-1.24,1.3-2.29,2.8-3.38,4.21-1.15,1.49-2.39,2.95-3.34,4.59-.4.68-.74,1.38-1.05,2.1-1.15,2.62-2.48,5.27-3.25,8.04s-1.03,6.28-1.32,8.75c-.09.77-.14,1.54-.11,2.31.34,6.92,1.47,10.46,4.34,16.59.31.67.67,1.28,1.09,1.88,1.37,1.93,2.91,3.95,4.46,5.75.33.38.68.73,1.05,1.07,1.38,1.26,2.93,2.37,4.4,3.51,1.58,1.22,3.11,2.48,4.8,3.53,3.29,2.06,7.04,3.44,10.6,4.89,1.71.7,3.47,1.27,5.27,1.67.82.19,1.65.34,2.48.46,3.09.47,6.21.97,9.33,1.19,1.84.13,3.69.11,5.52-.06,3.9-.37,7.92-.79,11.74-1.78s7.36-2.67,10.81-4.23c1.65-.74,3.23-1.65,4.7-2.71,3.07-2.22,6.43-4.58,9.04-7.44s4.81-5.66,6.71-8.82c.41-.69.79-1.39,1.13-2.11,1.24-2.63,2.39-5.34,3.4-8.07.58-1.55,1-3.15,1.29-4.78.64-3.71,1.28-7.55,1.33-11.34s-.65-7.75-1.23-11.5c-.24-1.59-.6-3.16-1.09-4.68-.25-.76-.53-1.5-.83-2.24-1.1-2.68-2.13-5.44-3.48-8.02-1.7-3.26-4.24-6.24-6.49-9.04-1.02-1.26-2.13-2.44-3.39-3.46-2.77-2.27-5.69-4.81-8.94-6.46-2.6-1.32-5.37-2.43-8.1-3.45-.76-.28-1.53-.52-2.32-.7-2.91-.68-5.95-.95-8.91-1.29C322.15.06,321.3,0,320.44,0c-3.8,0-7.63.63-11.34,1.38-1.65.33-3.25.85-4.81,1.49-3.43,1.4-7.06,2.71-10.21,4.73s-6.1,4.3-8.82,6.82-4.98,5.73-7.12,8.68c-.96,1.33-1.75,2.75-2.41,4.25-1.46,3.35-3.19,6.74-3.8,10.39s-1.39,7.63-1.05,11.35c-.13,3.54.6,6.84,2.21,9.9,1.04,3.19,2.81,5.94,5.31,8.27,2.33,2.51,5.08,4.28,8.27,5.31,3.06,1.61,6.36,2.35,9.9,2.21l6.83-.92c4.35-1.22,8.13-3.42,11.34-6.61l4.02-5.2c2.32-4.01,3.49-8.33,3.51-12.97-.13-1.41-.1-2.82.08-4.22l-.92,6.83c.23-1.57.66-3.08,1.26-4.54l-2.59,6.14c.74-1.74,1.7-3.35,2.86-4.85l-4.02,5.2c1.32-1.67,2.83-3.15,4.52-4.45l-5.2,4.02c1.8-1.36,3.75-2.49,5.82-3.37l-6.14,2.59c2.08-.86,4.23-1.46,6.46-1.76l-6.83.92c1.91-.23,3.81-.24,5.72,0l-6.83-.92c1.71.25,3.36.7,4.95,1.37l-6.14-2.59c1.57.69,3.03,1.56,4.39,2.6l-5.2-4.02c1.47,1.16,2.78,2.48,3.94,3.95l-4.02-5.2c1.33,1.73,2.41,3.61,3.27,5.61l-2.59-6.14c.97,2.32,1.62,4.74,1.97,7.22l-.92-6.83c.34,2.61.35,5.23.01,7.84l.92-6.83c-.34,2.39-.96,4.71-1.89,6.94l2.59-6.14c-.8,1.84-1.8,3.57-3.02,5.17l4.02-5.2c-1.27,1.62-2.73,3.05-4.34,4.32l5.2-4.02c-1.84,1.4-3.83,2.55-5.96,3.47l6.14-2.59c-2.46,1.02-5.02,1.7-7.65,2.08l6.83-.92c-3,.4-6.02.39-9.01-.01l6.83.92c-2.78-.4-5.48-1.12-8.08-2.19l6.14,2.59c-2.37-1-4.6-2.27-6.66-3.82l5.2,4.02c-1.16-.9-2.3-1.85-3.21-3.01l4.02,5.2c-.49-.66-.9-1.36-1.23-2.12l2.59,6.14c-.34-.83-.56-1.68-.69-2.57l.92,6.83c-.13-1.09-.12-2.16.02-3.25l-.92,6.83c.2-1.32.56-2.59,1.07-3.82l-2.59,6.14c.63-1.46,1.43-2.82,2.39-4.09l-4.02,5.2c.99-1.28,2.12-2.43,3.39-3.44l-5.2,4.02c1.2-.92,2.47-1.69,3.86-2.29l-6.14,2.59c1.29-.53,2.61-.85,3.99-1.05l-6.83.92c2.14-.26,4.26-.23,6.4.03l-6.83-.92c3.16.45,6.18,1.4,9.11,2.63l-6.14-2.59c4.78,2.06,9.21,4.8,13.57,7.61v-44.38c-3.13,1.85-6.32,3.58-9.67,4.99l6.14-2.59c-3.03,1.25-6.16,2.22-9.41,2.67l6.83-.92c-2.2.27-4.38.29-6.58,0l6.83.92c-1.41-.21-2.75-.55-4.07-1.08l6.14,2.59c-1.46-.62-2.81-1.41-4.08-2.35l5.2,4.02c-1.34-1.04-2.52-2.22-3.56-3.56l4.02,5.2c-.85-1.14-1.57-2.36-2.14-3.67l2.59,6.14c-.44-1.08-.76-2.18-.93-3.34l.92,6.83c-.13-1.03-.15-2.06-.03-3.09l-.92,6.83c.14-.95.38-1.85.74-2.74l-2.59,6.14c.42-.96.95-1.84,1.59-2.67l-4.02,5.2c.67-.82,1.42-1.56,2.25-2.22l-5.2,4.02c1.24-.95,2.59-1.71,4.02-2.34l-6.14,2.59c2.45-1.03,5.02-1.66,7.64-2.03l-6.83.92c3.28-.43,6.59-.4,9.87.03l-6.83-.92c3.17.45,6.26,1.27,9.21,2.5l-6.14-2.59c2.37,1.01,4.6,2.27,6.65,3.82l-5.2-4.02c1.65,1.27,3.13,2.71,4.43,4.34l-4.02-5.2c1.14,1.48,2.08,3.06,2.82,4.77l-2.59-6.14c.63,1.52,1.11,3.1,1.34,4.73l-.92-6.83c.14,1.19.14,2.37,0,3.56l.92-6.83c-.19,1.36-.55,2.66-1.07,3.93l2.59-6.14c-.65,1.54-1.5,2.96-2.51,4.28l4.02-5.2c-1.16,1.48-2.49,2.79-3.97,3.94l5.2-4.02c-1.47,1.11-3.05,2.04-4.75,2.76l6.14-2.59c-1.38.56-2.81.97-4.29,1.18l6.83-.92c-1.17.14-2.33.16-3.49.02l6.83.92c-.98-.14-1.92-.39-2.83-.76l6.14,2.59c-.85-.37-1.63-.83-2.37-1.39l5.2,4.02c-1.05-.84-1.96-1.87-2.82-2.91l4.02,5.2c-.43-.56-.79-1.16-1.08-1.81l2.59,6.14c-.3-.73-.49-1.48-.61-2.26l.92,6.83c-.1-.89-.09-1.76,0-2.65l-.92,6.83c.15-1.08.44-2.12.85-3.14l-2.59,6.14c.44-1.01.98-1.94,1.65-2.82l-4.02,5.2c.56-.7,1.18-1.33,1.88-1.89l-5.2,4.02c.63-.48,1.3-.88,2.02-1.2l-6.14,2.59c.65-.27,1.31-.45,2.01-.56l-6.83.92c.63-.08,1.25-.09,1.89-.03,3.54.13,6.84-.6,9.9-2.21,3.19-1.04,5.94-2.81,8.27-5.31,2.51-2.33,4.28-5.08,5.31-8.27,1.61-3.06,2.35-6.36,2.21-9.9l-.92-6.83c-1.22-4.35-3.42-8.13-6.61-11.34l-5.2-4.02c-4.01-2.32-8.33-3.49-12.97-3.51h0Z"/>
  <path class="cls-1" d="M575.45,16.83c-.74-.4-1.5-.76-2.28-1.09-2.72-1.17-5.44-2.47-8.27-3.37-1.65-.53-3.35-.88-5.06-1.13-3.85-.56-7.84-1.27-11.78-1.21s-7.93.73-11.74,1.35c-1.68.27-3.34.68-4.95,1.22-2.71.92-5.32,2.14-7.95,3.27-.79.34-1.56.69-2.31,1.1-6.59,3.57-11.46,8.7-15.67,14.77-.39.56-.74,1.15-1.05,1.77-1.26,2.54-2.44,5.23-3.32,7.93-.23.71-.39,1.43-.51,2.17-.46,2.9-1.07,5.92-1.07,8.89s.6,6.13,1.09,9.1c.18,1.1.45,2.17.85,3.21,1.13,2.97,2.25,6.03,3.87,8.79s3.73,5.21,5.71,7.65c2.73,3.36,6.4,5.9,9.83,8.46,1.81,1.35,3.75,2.5,5.8,3.44,3.89,1.79,7.94,3.65,12.14,4.69.97.24,1.95.44,2.94.59,3.36.53,6.77,1.08,10.17,1.27,4.35.24,8.65-.54,12.94-1.15,2.19-.31,4.33-.83,6.39-1.62,3.9-1.49,8.14-3.06,11.64-5.49,3.24-2.26,6.74-4.7,9.35-7.76s5.29-6.27,7.11-9.84,3.56-7.44,4.55-11.38c.24-.96.41-1.93.55-2.9.45-3.11,1.05-6.28,1.12-9.44.02-.92-.01-1.84-.1-2.75-.3-3.17-.65-6.41-1.35-9.53-.87-3.91-2.58-7.72-4.47-11.21s-4.42-6.77-7.26-9.51c-2.65-2.55-5.67-5-8.97-6.68-2.59-1.32-5.34-2.44-8.06-3.42-.84-.3-1.7-.54-2.57-.72-7.85-1.61-15.24-1.79-23.06.29-7.17,1.9-14.19,5.86-19.43,11.12-2.59,2.6-5.07,5.61-6.7,8.93-1.09,2.23-2.02,4.59-2.93,6.89-.15.39-.3.78-.43,1.19-.92,2.97-1.13,6.2-1.41,9.26-.07.81-.04,1.61.03,2.42.22,2.48.54,6.36,1.42,9.18.11.36.25.72.38,1.07.92,2.35,1.89,4.78,3,7.05.4.82.88,1.61,1.41,2.35,2.19,3.02,4.42,6.29,7.35,8.68,2.23,1.82,4.52,3.75,6.99,5.29,1.69,1.05,3.55,1.73,5.38,2.51,1.69.71,3.42,1.56,5.22,2.05,2.95.8,6.25,1.1,9.16,1.35.78.07,1.55.08,2.33.01,2.96-.27,6.08-.47,8.97-1.32,1.4-.41,2.82-1.12,4.1-1.66s2.79-1.07,4.07-1.78c2.59-1.41,4.89-3.48,7.1-5.34l-11.34,6.61c5.13-1.78,8.72-3.56,12.7-7.32,1.97-1.86,3.65-4.07,5.01-6.42.7-1.21,2.19-4.98,2.67-6.32.06-.15.13-.3.17-.46.08-.3.14-.58.19-.88.4-2.37.93-5.03.96-7.45,0-.36-.04-.71-.08-1.07-.59-5.98-1.45-11.08-4.77-16.3-1.27-1.99-2.9-3.93-4.4-5.75-.21-.25-.41-.51-.64-.75s-.47-.43-.71-.63c-1.83-1.54-3.81-3.24-5.89-4.46-2.3-1.35-4.9-2.48-7.53-3.06-2.41-.53-5-.95-7.51-.96-.13,0-.27.03-.4.04l-6.83.92c-.14.02-.27.05-.4.08-2.16.65-6.64,2.75-6.74,2.81-.13.07-.28.13-.41.21-1.35.86-4.2,3.04-5.4,4.14l-4.02,5.2c-1.88,2.95-2.89,6.13-3.05,9.55-.12.91-.47,2.66-.49,3.92,0,.28.03.55.06.83l.92,6.83c.02.16.06.32.11.48.08.27.18.52.27.78.7,1.86,1.77,4.71,2.73,6.44,1.2,2.16,2.99,4.16,4.55,6.05,1.98,2.4,4.62,4.43,7.37,5.84,5.36,2.73,8.97,3.87,15.03,4.11,5.48.21,10.53-1.41,15.3-3.91,4.08-2.14,6.46-4.72,9.09-8.13.94-1.22,1.98-2.35,2.7-3.71.55-1.04,1.23-2.9,1.47-3.47.44-1.05,1.18-2.49,1.53-3.76,1.37-4.98,1.26-8.03.64-12.69-.57-4.26-1.33-8.25-4.03-11.91l-4.02-5.2c-2.33-2.51-5.08-4.28-8.27-5.31-2-1.16-4.17-1.75-6.49-1.75-3.42-.76-6.83-.61-10.25.46-.49.1-.97.22-1.44.38-2.52.87-5.1,1.92-7.46,3.16-2.76,1.44-5.23,3.52-7.48,5.66-.34.32-.65.67-.95,1.03-1.7,2.01-3.43,4.12-4.85,6.35-1.7,2.67-2.78,5.81-3.87,8.73-.38,1-.62,2.04-.8,3.09-.54,3.14-1.19,6.54-1.11,9.8.01.49.05.99.11,1.48.29,2.75.57,5.57,1.16,8.28.66,3.04,2.17,6.02,3.44,8.77s3.52,5.26,5.46,7.63c.32.39.65.78,1.02,1.13,1.88,1.79,4.09,3.37,6.2,4.85.43.3.87.58,1.33.82,2.37,1.2,4.91,2.27,7.42,3.13.59.2,1.19.33,1.8.43,2.41.41,4.94.78,7.38.98.32.03.64.04.96.03,3.34-.05,6.84-.4,10.02-1.49,2.56-.87,5.11-1.98,7.53-3.16.54-.26,1.06-.57,1.56-.9,2.2-1.47,4.31-3.17,6.33-4.86.51-.43,1-.88,1.45-1.36,1.1-1.17,2.06-2.54,3.03-3.8,1.04-1.34,2.18-2.68,3.07-4.14,3.64-6.01,5.59-13.14,5.7-20.15.03-1.72-.35-3.52-.57-5.18s-.33-3.59-.9-5.26c-.78-2.28-1.84-4.59-2.84-6.78-.13-.29-.26-.59-.42-.87-.18-.33-.38-.65-.6-.96-1.38-2.02-3-4-4.55-5.89-2.33-2.51-5.08-4.28-8.27-5.31-3.06-1.61-6.36-2.35-9.9-2.21-3.54-.13-6.84.6-9.9,2.21-3.19,1.04-5.94,2.81-8.27,5.31l-4.02,5.2c-2.32,4.01-3.49,8.33-3.51,12.97l.92,6.83c1.22,4.35,3.42,8.13,6.61,11.34.13.15.25.3.36.46l-4.02-5.2c.5.68.91,1.41,1.24,2.19l-2.59-6.14c.3.77.51,1.54.63,2.36l-.92-6.83c.14,1.09.13,2.18,0,3.27l.92-6.83c-.18,1.21-.51,2.37-.97,3.51l2.59-6.14c-.57,1.33-1.29,2.56-2.16,3.71l4.02-5.2c-.83,1.05-1.75,1.99-2.8,2.82l5.2-4.02c-.89.68-1.83,1.25-2.85,1.71l6.14-2.59c-.93.39-1.87.67-2.87.82l6.83-.92c-.91.12-1.81.12-2.73,0l6.83.92c-.83-.13-1.63-.35-2.41-.66l6.14,2.59c-.82-.35-1.58-.79-2.29-1.34l5.2,4.02c-.68-.54-1.27-1.15-1.8-1.84l4.02,5.2c-.57-.76-1.03-1.58-1.42-2.44l2.59,6.14c-.5-1.2-.83-2.44-1.01-3.73l.92,6.83c-.19-1.48-.18-2.96.02-4.44l-.92,6.83c.21-1.38.57-2.73,1.11-4.02l-2.59,6.14c.45-1.03,1.01-1.99,1.69-2.88l-4.02,5.2c.59-.74,1.25-1.4,1.99-1.98l-5.2,4.02c.64-.47,1.31-.87,2.03-1.19l-6.14,2.59c.69-.29,1.39-.5,2.11-.64-9.67-3.94-19.35-7.87-29.02-11.81.23.32.43.63.6.99l-2.59-6.14c.18.45.31.89.39,1.37l-.92-6.83c.07.58.06,1.14-.02,1.73l.92-6.83c-.09.48-.21.94-.39,1.4l2.59-6.14c-.23.54-.51,1.03-.87,1.5l4.02-5.2c-.31.37-.64.7-1.02,1l5.2-4.02c-.32.22-.64.41-.99.57l6.14-2.59c-.4.15-.79.26-1.21.32l6.83-.92c-.45.04-.87.03-1.32-.02l6.83.92c-.44-.08-.85-.2-1.28-.35l6.14,2.59c-.52-.23-.99-.5-1.45-.84l5.2,4.02c-.44-.36-.82-.75-1.18-1.19l4.02,5.2c-.26-.37-.48-.74-.68-1.15l2.59,6.14c-.17-.42-.29-.82-.38-1.26l.92,6.83c-.06-.45-.07-.88-.03-1.33l-12.73,22.19c.2-.12.4-.23.61-.33l-6.14,2.59c.33-.14.66-.24,1.01-.3l-6.83.92c.33-.04.65-.05.98-.01l-6.83-.92c.39.06.76.16,1.13.31l-6.14-2.59c.37.17.71.38,1.05.62l-5.2-4.02c.51.4.96.86,1.36,1.38l-4.02-5.2c.45.61.81,1.26,1.11,1.95l-2.59-6.14c.25.63.43,1.26.54,1.93l-.92-6.83c.08.56.09,1.12.04,1.69l.92-6.83c-.06.47-.18.91-.36,1.34l2.59-6.14c-.14.3-.31.57-.51.83l4.02-5.2c-.17.21-.36.39-.57.56l5.2-4.02c-.29.22-.59.4-.92.55l6.14-2.59c-2.27.91-3.51.78-6.58,2.75-1.95,1.26-3.84,2.94-5.66,4.39l5.2-4.02c-.76.58-1.57,1.05-2.44,1.42l6.14-2.59c-.85.34-1.72.57-2.63.71l6.83-.92c-1.1.14-2.18.13-3.28,0l6.83.92c-1.41-.2-2.76-.59-4.07-1.14l6.14,2.59c-1.34-.59-2.59-1.33-3.76-2.21l5.2,4.02c-1.24-.96-2.35-2.05-3.33-3.29l4.02,5.2c-.82-1.08-1.51-2.22-2.06-3.46l2.59,6.14c-.48-1.14-.81-2.32-.98-3.54l.92,6.83c-.12-1.05-.12-2.09.02-3.13l-.92,6.83c.16-1.05.45-2.05.85-3.04l-2.59,6.14c.47-1.1,1.06-2.11,1.77-3.06l-4.02,5.2c.78-1,1.67-1.89,2.66-2.68l-5.2,4.02c1.24-.96,2.59-1.73,4.03-2.35l-6.14,2.59c1.65-.69,3.37-1.15,5.14-1.4l-6.83.92c1.88-.25,3.77-.25,5.65,0l-6.83-.92c1.58.23,3.12.64,4.6,1.24l-6.14-2.59c1.3.55,2.5,1.24,3.63,2.09l-5.2-4.02c1.12.87,2.09,1.87,2.96,2.99l-4.02-5.2c.97,1.29,1.76,2.67,2.39,4.15l-2.59-6.14c.69,1.69,1.14,3.44,1.39,5.25l-.92-6.83c.26,2.05.24,4.11,0,6.16l.92-6.83c-.31,2.29-.92,4.51-1.82,6.65l2.59-6.14c-.83,1.92-1.88,3.72-3.16,5.37l4.02-5.2c-1.1,1.39-2.34,2.63-3.74,3.73l5.2-4.02c-1.76,1.35-3.66,2.45-5.69,3.33l6.14-2.59c-2.38.99-4.87,1.64-7.42,1.99l6.83-.92c-2.84.35-5.69.33-8.53-.04l6.83.92c-2.98-.42-5.87-1.2-8.65-2.35l6.14,2.59c-2.54-1.08-4.93-2.45-7.13-4.12l5.2,4.02c-1.69-1.33-3.23-2.81-4.56-4.5l4.02,5.2c-.98-1.29-1.81-2.65-2.46-4.13l2.59,6.14c-.58-1.38-.97-2.78-1.17-4.26l.92,6.83c-.14-1.24-.15-2.46,0-3.7l-.92,6.83c.17-1.23.49-2.41.97-3.55l-2.59,6.14c.49-1.11,1.11-2.14,1.85-3.11l-4.02,5.2c.88-1.11,1.89-2.09,3-2.96l-5.2,4.02c1.61-1.24,3.38-2.22,5.25-3.01l-6.14,2.59c2.44-1,5-1.66,7.61-2.03l-6.83.92c2.99-.39,6.01-.4,9-.01l-6.83-.92c2.47.35,4.89.97,7.2,1.92l-6.14-2.59c.78.33,1.54.69,2.28,1.09,2.95,1.88,6.13,2.89,9.55,3.05,3.42.76,6.83.61,10.25-.46,3.34-.8,6.26-2.33,8.74-4.6,2.8-1.81,5-4.22,6.62-7.21l2.59-6.14c1.22-4.55,1.22-9.11,0-13.66l-2.59-6.14c-2.28-3.86-5.36-6.93-9.22-9.22h0Z"/>
  <path class="cls-1" d="M1.27,194.37c26.5,71.41,78.95,129.99,143.85,169.15,71.44,43.1,155.87,61.18,238.6,62.87s163.09-11.62,238-42.17c71.86-29.31,137.43-73.22,188.16-132.37,23.97-27.95,45.01-58.54,61.24-91.63,8.48-17.3,15.93-35.22,22-53.51,3.09-9.3,6.52-18.92,6.41-28.85-.14-12.28-4.04-24.65-12.31-33.87-10.18-11.36-28.09-14.12-40.96-5.63-11.21,7.39-17.02,23.06-9.22,35.16,7.21,11.18,23.16,17.14,35.16,9.22.48-.35.98-.65,1.51-.9l-6.14,2.59c.75-.3,1.38-.49,2.17-.62l-6.83.92c.46-.05.92-.03,1.37.03l-6.83-.92c.45.07.88.19,1.31.36l-6.14-2.59c1.13.53,3.01,2.01-.79-.89-2.05-1.72-2.63-2.14-1.75-1.27,1.41,1.46.51.24-2.72-3.65.72,1.35,1.53,2.58,2.14,4l-2.59-6.14c.86,2.24,1.43,4.49,1.81,6.86l-.92-6.83c.36,2.76.41,5.47.08,8.24l.92-6.83c-1.22,7.55-4.23,15.1-6.72,22.31-2.65,7.66-5.56,15.22-8.69,22.7l2.59-6.14c-8.35,19.77-18.3,38.83-29.74,57-5.61,8.91-11.56,17.6-17.83,26.06-1.25,1.68-7.18,9.18-1.55,2.15-1.64,2.06-3.25,4.15-4.9,6.2-3.31,4.11-6.69,8.15-10.15,12.13-14.14,16.28-29.49,31.51-45.85,45.56-3.67,3.15-7.4,6.25-11.17,9.28-2.06,1.66-4.15,3.26-6.22,4.91,6.32-5.03,2.41-1.87,1.01-.81s-2.81,2.12-4.23,3.16c-8.49,6.27-17.2,12.23-26.11,17.89-22.85,14.5-46.95,26.95-71.87,37.5l6.14-2.59c-45.5,19.1-93.5,31.63-142.37,38.23l6.83-.92c-51.99,6.89-104.98,7.42-157,.56l6.83.92c-39.47-5.32-78.3-15.09-115.09-30.46l6.14,2.59c-15.66-6.61-30.91-14.16-45.53-22.84-6.77-4.02-13.41-8.27-19.9-12.73-3.24-2.23-6.45-4.52-9.62-6.87-1.41-1.04-2.78-2.14-4.2-3.16,6.92,4.96.69.52-1-.84-12.27-9.84-23.86-20.52-34.6-32.02-5.35-5.73-10.49-11.65-15.39-17.77-.54-.68-1.08-1.36-1.62-2.04-3.01-3.75,3.23,4.26,1.22,1.59-1.18-1.56-2.36-3.12-3.51-4.7-2.31-3.15-4.56-6.35-6.74-9.59-9.94-14.78-18.46-30.46-25.4-46.86l2.59,6.14c-1.51-3.62-2.95-7.26-4.31-10.94-2.38-6.41-5.74-11.8-11.81-15.36-5.51-3.22-13.63-4.59-19.8-2.59-12.31,3.98-22.96,18.12-17.95,31.61h0Z"/>
</svg>