<?xml version="1.0" encoding="UTF-8"?>
<svg id="Capa_1" xmlns="http://www.w3.org/2000/svg" viewBox="0 0 196.92 93.35">
  <defs>
    <style>
      .cls-1 {
        fill: #fff;
      }
    </style>
  </defs>
  <path class="cls-1" d="M71.04,5.76c-1.99-.14-3.95.81-5.38,2.13-1.04.96-1.93,2.47-2.26,3.86-.45,1.95-.32,4.06.72,5.81.72,1.22,1.88,2.42,3.13,3.12,5.18,2.9,11.92-.71,13.39-6.21.41-1.52.4-3.18-.03-4.7-.45-1.61-1.23-2.84-2.29-4.1-.72-.86-1.68-1.59-2.64-2.17-1.02-.61-2.17-1.08-3.32-1.38-2.32-.6-5.02-.67-7.32.09-1.58.53-3.17,1.32-4.28,2.6-.9,1.04-1.46,1.95-1.87,3.28-.11.36-.14.79-.19,1.15-.06.45-.14.85-.11,1.3.25,3.97,3.04,7.45,6.9,8.51,1.92.53,4.1.42,5.99-.14,1.55-.45,3.05-1.19,4.44-2.01,1.71-1.01,2.79-2.87,2.79-4.86s-1.1-3.77-2.79-4.86c-2.56-1.64-5.35-3-8.46-3.06-3.43-.06-6.6,1.79-8.34,4.72-1.91,3.21-1.66,7.41,1.02,10.12,2.15,2.17,5.05,3.15,8.02,3.42,1.27.12,2.61-.07,3.84-.37.8-.2,1.56-.55,2.31-.88.4-.18.78-.38,1.14-.63,1.41-1,2.49-2.01,3.42-3.48.43-.69.73-1.48,1.02-2.23.14-.35.24-.72.31-1.09.34-1.85.33-3.15.04-4.99-.18-1.16-.64-2.27-1.17-3.3s-1.29-2.02-2.17-2.77c-1.26-1.06-2.63-1.96-4.26-2.33-1.76-.41-3.48-.4-5.23.04s-3.15,1.33-4.54,2.44c-2.27,1.8-3.82,5.03-3.58,7.95.13,1.51.54,2.87,1.65,3.98.98.98,2.58,1.71,3.98,1.65s2.96-.54,3.98-1.65c.96-1.05,1.77-2.51,1.65-3.98-.03-.31-.02-.62.02-.93l-.2,1.5c.06-.35.15-.68.28-1l-.57,1.34c.16-.36.36-.7.59-1.01l-.88,1.14c.3-.39.65-.73,1.04-1.03l-1.14.88c.4-.3.83-.54,1.29-.74l-1.34.57c.42-.17.85-.29,1.29-.36l-1.5.2c.44-.06.88-.06,1.33-.01l-1.5-.2c.36.05.69.14,1.03.27l-1.34-.57c.37.16.71.36,1.03.6l-1.14-.88c.31.25.58.52.83.83l-.88-1.14c.3.38.54.8.73,1.24l-.57-1.34c.22.54.37,1.09.45,1.67l-.2-1.5c.06.54.06,1.07,0,1.61l.2-1.5c-.07.53-.21,1.04-.41,1.54l.57-1.34c-.18.41-.4.79-.67,1.15l.88-1.14c-.27.34-.57.64-.9.91l1.14-.88c-.43.33-.88.59-1.37.81l1.34-.57c-.55.22-1.11.37-1.69.45l1.5-.2c-.64.08-1.28.08-1.91,0l1.5.2c-.64-.09-1.25-.26-1.85-.5l1.34.57c-.5-.22-.96-.49-1.4-.81l1.14.88c-.26-.2-.5-.41-.71-.66l.88,1.14c-.1-.13-.18-.27-.25-.41l.57,1.34c-.08-.18-.13-.37-.17-.56l.2,1.5c-.03-.24-.03-.47,0-.72l-.2,1.5c.04-.29.12-.57.23-.84l-.57,1.34c.14-.32.31-.62.52-.91l-.88,1.14c.22-.28.47-.54.74-.76l-1.14.88c.28-.22.58-.39.91-.53l-1.34.57c.27-.1.53-.16.82-.21l-1.5.2c.5-.06.99-.05,1.49.02l-1.5-.2c.63.1,1.22.29,1.81.53l-1.34-.57c1.08.46,2.08,1.07,3.06,1.7V7.18c-.7.41-1.41.79-2.15,1.11l1.34-.57c-.68.27-1.37.48-2.1.58l1.5-.2c-.46.05-.91.05-1.37,0l1.5.2c-.31-.05-.61-.13-.9-.24l1.34.57c-.32-.14-.62-.31-.9-.53l1.14.88c-.28-.22-.52-.46-.74-.73l.88,1.14c-.21-.28-.37-.56-.51-.87l.57,1.34c-.08-.22-.14-.44-.19-.67l.2,1.5c-.03-.23-.03-.45,0-.68l-.2,1.5c.04-.24.1-.45.19-.67l-.57,1.34c.09-.19.2-.36.33-.53l-.88,1.14c.14-.16.28-.31.44-.44l-1.14.88c.3-.23.62-.41.97-.57l-1.34.57c.55-.22,1.11-.36,1.7-.43l-1.5.2c.67-.08,1.34-.07,2.02,0l-1.5-.2c.72.1,1.42.28,2.09.56l-1.34-.57c.52.22,1,.5,1.46.84l-1.14-.88c.36.28.68.59.97.95l-.88-1.14c.25.33.45.67.62,1.04l-.57-1.34c.14.34.24.68.29,1.04l-.2-1.5c.03.29.03.56-.01.84l.2-1.5c-.05.28-.12.54-.23.81l.57-1.34c-.15.34-.33.65-.56.94l.88-1.14c-.26.32-.55.61-.88.86l1.14-.88c-.3.22-.61.4-.94.55l1.34-.57c-.32.14-.65.23-1,.29l1.5-.2c-.26.03-.51.04-.77,0l1.5.2c-.22-.03-.42-.09-.62-.16l1.34.57c-.17-.08-.33-.16-.48-.27l1.14.88c-.25-.2-.46-.43-.67-.68l.88,1.14c-.09-.13-.17-.26-.24-.4l.57,1.34c-.06-.15-.1-.29-.12-.44l.2,1.5c-.02-.2-.03-.39,0-.59l-.2,1.5c.03-.24.09-.47.18-.7l-.57,1.34c.1-.22.21-.43.36-.63l-.88,1.14c.13-.16.26-.29.41-.42l-1.14.88c.16-.12.32-.21.5-.29l-1.34.57c.15-.05.29-.09.45-.11l-1.5.2c.12,0,.24,0,.36,0,1.38.1,3.03-.7,3.98-1.65s1.71-2.58,1.65-3.98-.54-2.96-1.65-3.98-2.42-1.54-3.98-1.65h0Z"/>
  <path class="cls-1" d="M125.97,3.67c-5.1-2.69-12.11-1.7-15.38,3.34-.83,1.28-1.31,3.07-1.24,4.6.1,2.4,1.03,4.43,2.58,6.23.95,1.1,2.24,2.03,3.57,2.62,1.8.8,3.47,1.28,5.46,1.35,1.72.06,3.39-.31,4.96-.98,1.48-.63,2.9-1.51,3.92-2.78,1.1-1.38,2.03-2.85,2.41-4.61s.44-3.58-.05-5.37c-.89-3.26-3.61-6.13-7.01-6.75-1.69-.31-3.41-.37-5.07.16-1.51.48-3.06,1.29-4.14,2.48-1.49,1.64-2.49,3.76-2.41,6.02s1.03,4.39,2.61,6.02c1.17,1.2,2.89,2.26,4.56,2.56,1.37.25,2.68.34,4.05-.04s2.33-1.04,3.44-1.95l-2.48,1.45c1.2-.46,1.93-.75,2.86-1.67.73-.74,1.39-1.81,1.65-2.83.46-1.87.17-3.59-.65-5.3-.55-1.16-1.61-2.22-2.71-2.86-2-1.15-4.53-1.16-6.52,0-3.28,1.92-3.6,6.26-1.42,9.08,1.52,1.96,3.82,3.01,6.31,2.68s4.35-1.83,5.29-4.06c.84-1.98.86-4.41-.39-6.26-1.48-2.18-3.77-3.14-6.35-2.59-1.99.43-3.57,1.78-4.69,3.4-.92,1.32-1.22,2.77-1.39,4.33-.33,3.09,1.35,6.27,4.02,7.82,3.58,2.08,7.99.78,10.42-2.36,1.18-1.52,1.79-3.19,1.92-5.12.06-.82-.07-1.67-.29-2.46-.39-1.39-.99-2.12-1.86-3.23s-2.7-1.65-3.98-1.65c-1.38,0-3.03.61-3.98,1.65s-1.71,2.48-1.65,3.98l.2,1.5c.27.95.75,1.78,1.45,2.48l.09.12-.88-1.14c.11.16.2.32.27.5l-.57-1.34c.06.18.1.35.13.54l-.2-1.5c.02.24.02.46-.01.69l.2-1.5c-.04.24-.1.46-.19.69l.57-1.34c-.14.32-.3.6-.51.88l.88-1.14c-.19.23-.39.43-.62.61l1.14-.88c-.19.14-.39.26-.61.36l1.34-.57c-.22.09-.43.15-.67.18l1.5-.2c-.19.02-.37.01-.56,0l1.5.2c-.19-.03-.36-.08-.54-.15l1.34.57c-.15-.07-.29-.15-.43-.25l1.14.88c-.16-.13-.3-.26-.43-.42l.88,1.14c-.12-.17-.22-.34-.31-.52l.57,1.34c-.11-.27-.19-.55-.23-.84l.2,1.5c-.04-.34-.04-.68,0-1.02l-.2,1.5c.05-.3.13-.57.24-.85l-.57,1.34c.1-.23.23-.44.38-.63l-.88,1.14c.13-.16.27-.3.43-.42l-1.14.88c.13-.1.27-.18.42-.25l-1.34.57c.16-.07.32-.11.48-.15l-6.35-2.59c.06.08.11.16.15.25l-.57-1.34c.04.09.06.18.07.28l-.2-1.5c.01.1.01.19,0,.29l.2-1.5c-.02.15-.06.28-.11.43l.57-1.34c-.04.09-.09.17-.15.25l.88-1.14c-.06.08-.12.15-.2.21l1.14-.88c-.07.06-.16.11-.25.15l1.34-.57c-.1.04-.2.07-.3.08l1.5-.2c-.11.01-.22,0-.33-.02l1.5.2-.16-.04,1.34.57c-.17-.07-.29-.14-.43-.25l1.14.88c-.09-.07-.16-.16-.23-.25l.88,1.14c-.06-.09-.12-.19-.15-.29l.57,1.34-.04-.16.2,1.5c-.02-.11-.03-.22-.01-.33l-2.79,4.86.1-.06-1.34.57c.11-.04.19-.07.31-.09l-1.5.2c.07,0,.13,0,.2,0l-1.5-.2c.07.01.13.03.19.06l-1.34-.57c.1.05.18.1.27.16l-1.14-.88c.09.07.16.15.23.23l-.88-1.14c.12.16.21.31.29.49l-.57-1.34c.05.14.09.29.12.44l-.2-1.5c.01.11.01.21,0,.32l.2-1.5c-.02.11-.04.2-.07.3l.57-1.34c-.03.06-.06.12-.1.17l.88-1.14c-.04.05-.09.1-.14.15l1.14-.88c-.06.05-.12.08-.19.11l1.34-.57c-1.22.47-1.7.76-2.71,1.59l1.14-.88c-.16.12-.33.21-.51.29l1.34-.57c-.18.07-.36.12-.54.15l1.5-.2c-.24.03-.47.03-.71.01l1.5.2c-.34-.05-.66-.14-.98-.27l1.34.57c-.28-.13-.53-.28-.78-.46l1.14.88c-.28-.22-.53-.47-.75-.75l.88,1.14c-.18-.24-.33-.5-.45-.77l.57,1.34c-.09-.23-.15-.46-.19-.71l.2,1.5c-.03-.25-.03-.49,0-.74l-.2,1.5c.04-.25.11-.47.21-.71l-.57,1.34c.1-.21.22-.41.36-.6l-.88,1.14c.18-.22.37-.41.58-.59l-1.14.88c.27-.2.54-.36.85-.5l-1.34.57c.4-.17.82-.28,1.25-.34l-1.5.2c.39-.04.77-.04,1.16.01l-1.5-.2c.34.05.66.14.97.26l-1.34-.57c.31.14.6.3.87.5l-1.14-.88c.24.2.45.42.64.67l-.88-1.14c.19.27.35.55.48.85l-.57-1.34c.14.36.24.72.3,1.1l-.2-1.5c.06.5.06.99,0,1.49l.2-1.5c-.07.45-.19.87-.36,1.29l.57-1.34c-.18.42-.4.8-.66,1.17l.88-1.14c-.28.36-.6.68-.96.96l1.14-.88c-.36.26-.74.48-1.15.66l1.34-.57c-.53.22-1.07.36-1.64.44l1.5-.2c-.64.07-1.27.07-1.91-.02l1.5.2c-.64-.1-1.26-.27-1.86-.51l1.34.57c-.54-.24-1.04-.52-1.51-.87l1.14.88c-.36-.29-.69-.59-.98-.95l.88,1.14c-.24-.31-.43-.63-.6-.98l.57,1.34c-.12-.3-.2-.6-.25-.92l.2,1.5c-.03-.27-.03-.54,0-.81l-.2,1.5c.04-.25.1-.49.19-.73l-.57,1.34c.12-.27.26-.51.44-.74l-.88,1.14c.19-.23.4-.43.64-.62l-1.14.88c.36-.27.75-.49,1.17-.67l-1.34.57c.54-.22,1.1-.36,1.67-.44l-1.5.2c.65-.08,1.29-.08,1.94,0l-1.5-.2c.54.08,1.06.21,1.56.41l-1.34-.57c.18.08.35.16.52.25,1.33.7,2.87.97,4.34.57,1.3-.36,2.72-1.37,3.36-2.59.69-1.31,1.04-2.89.57-4.34-.44-1.36-1.28-2.67-2.59-3.36h0Z"/>
  <path class="cls-1" d="M.28,42.53c5.78,15.54,17.13,28.28,31.22,36.86,15.68,9.56,34.29,13.56,52.49,13.93,17.78.36,35.93-2.57,52.41-9.35,15.74-6.48,30.09-16.15,41.17-29.18,5.27-6.2,9.89-12.99,13.42-20.33,1.84-3.82,3.46-7.77,4.75-11.81.64-1.99,1.31-4.05,1.15-6.18-.2-2.57-.97-5.2-2.84-7.07-2.32-2.32-6-2.81-8.79-1.03-2.48,1.58-3.71,5.07-2.02,7.7,1.6,2.48,5.04,3.71,7.7,2.02.49-.31.36.01-.69.26-.79.18-2.12.13-2.87-.18-.47-.19-.91-.44-1.29-.8-.03-.03-.82-1.27-.44-.56.41.78-.33-1.25-.12-.33.04.18.1.4.16.58.24.73-.11-.4-.06-.59-.06.24-.03.81.01,1.07.09.49.03-.71.1-.77-.07.06-.14.53-.18.65-.25.88-.52,1.74-.8,2.61-.58,1.79-1.23,3.56-1.94,5.3-.07.17-.17.36-.22.54,0,0,.44-1.03.19-.45-.18.42-.36.83-.55,1.25-.4.89-.81,1.77-1.24,2.64-1.6,3.26-3.4,6.42-5.39,9.46-1,1.52-2.04,3.01-3.13,4.47-.27.36-.53.75-.82,1.09,0,0,.67-.86.28-.37-.16.2-.32.41-.48.61-.57.71-1.15,1.42-1.74,2.11-2.4,2.83-4.97,5.53-7.68,8.07-1.33,1.25-2.7,2.46-4.1,3.63-.65.54-1.31,1.08-1.97,1.61-.2.16-.41.32-.61.48-.49.39.36-.28.37-.28-.44.25-.84.64-1.25.94-6.32,4.68-13.21,8.58-20.42,11.71-.27.12-.53.24-.8.34.04-.02.94-.38.34-.15-.47.19-.94.39-1.41.57-1.01.4-2.03.79-3.05,1.16-1.91.7-3.84,1.35-5.79,1.94-3.9,1.2-7.85,2.19-11.85,3-2,.4-4.01.76-6.03,1.06-.5.08-1.01.15-1.51.22-.13.02-.87.13-.12.02.8-.12-.14.02-.34.04-1.01.13-2.03.24-3.04.34-4.13.42-8.29.65-12.44.69s-8.39-.11-12.57-.48c-1.05-.09-2.09-.2-3.13-.32-.45-.05-.89-.11-1.34-.16-.32-.04-1.03,0,.16.02-.29,0-.6-.08-.89-.13-2.07-.3-4.14-.67-6.19-1.09-4.09-.84-8.14-1.94-12.09-3.3-.99-.34-1.97-.7-2.94-1.07-.49-.19-.97-.38-1.46-.57-.2-.08-.44-.15-.62-.25.64.37.47.2-.1-.05-1.87-.81-3.71-1.69-5.51-2.64-3.18-1.67-6.24-3.57-9.16-5.68-.36-.26-.73-.53-1.09-.8-.15-.12-.31-.23-.46-.35-.61-.46.82.65.22.17-.7-.57-1.4-1.12-2.09-1.71-1.37-1.16-2.7-2.37-3.98-3.63s-2.59-2.66-3.81-4.06c-.54-.63-1.07-1.27-1.59-1.91-.12-.15-.24-.3-.36-.45-.62-.77.11.11.18.23-.24-.43-.62-.83-.91-1.23-2.09-2.89-3.94-5.95-5.5-9.16-.39-.79-.68-1.67-1.12-2.43,0,0,.43,1.05.2.46-.07-.18-.15-.35-.22-.53-.19-.48-.37-.95-.55-1.43-1.02-2.75-3.85-4.92-6.92-3.93-2.69.87-5.03,3.97-3.93,6.92H.28Z"/>
</svg>