<?xml version="1.0" encoding="UTF-8"?>
<svg xmlns="http://www.w3.org/2000/svg" xmlns:xlink="http://www.w3.org/1999/xlink" width="200px" height="95px" viewBox="0 0 201 95" version="1.1">
<g id="surface1">
<path style=" stroke:none;fill-rule:nonzero;fill:rgb(100%,100%,100%);fill-opacity:1;" d="M 72.628906 5.863281 C 70.605469 5.71875 68.613281 6.6875 67.160156 8.03125 C 66.101562 9.007812 65.199219 10.542969 64.863281 11.957031 C 64.40625 13.941406 64.535156 16.089844 65.59375 17.871094 C 66.324219 19.113281 67.503906 20.332031 68.777344 21.046875 C 74.042969 23.996094 80.890625 20.324219 82.386719 14.726562 C 82.804688 13.179688 82.792969 11.488281 82.355469 9.941406 C 81.898438 8.304688 81.105469 7.050781 80.027344 5.769531 C 79.296875 4.894531 78.320312 4.152344 77.34375 3.5625 C 76.308594 2.941406 75.140625 2.460938 73.96875 2.15625 C 71.613281 1.546875 68.867188 1.476562 66.527344 2.25 C 64.921875 2.789062 63.308594 3.59375 62.179688 4.894531 C 61.265625 5.953125 60.695312 6.878906 60.277344 8.234375 C 60.167969 8.597656 60.136719 9.035156 60.085938 9.402344 C 60.023438 9.859375 59.941406 10.269531 59.972656 10.726562 C 60.226562 14.765625 63.0625 18.308594 66.988281 19.386719 C 68.9375 19.925781 71.152344 19.8125 73.074219 19.246094 C 74.652344 18.785156 76.175781 18.035156 77.589844 17.199219 C 79.328125 16.171875 80.425781 14.277344 80.425781 12.253906 C 80.425781 10.226562 79.304688 8.417969 77.589844 7.308594 C 74.988281 5.636719 72.152344 4.253906 68.988281 4.191406 C 65.503906 4.132812 62.28125 6.015625 60.511719 8.996094 C 58.570312 12.261719 58.824219 16.539062 61.546875 19.296875 C 63.734375 21.503906 66.683594 22.5 69.699219 22.777344 C 70.992188 22.898438 72.355469 22.703125 73.605469 22.398438 C 74.417969 22.195312 75.191406 21.839844 75.953125 21.503906 C 76.359375 21.320312 76.746094 21.117188 77.109375 20.863281 C 78.542969 19.84375 79.640625 18.816406 80.585938 17.320312 C 81.023438 16.617188 81.328125 15.816406 81.625 15.050781 C 81.765625 14.695312 81.867188 14.320312 81.9375 13.941406 C 82.285156 12.058594 82.273438 10.738281 81.980469 8.863281 C 81.796875 7.683594 81.328125 6.554688 80.789062 5.503906 C 80.25 4.457031 79.480469 3.449219 78.585938 2.6875 C 77.304688 1.609375 75.910156 0.691406 74.253906 0.316406 C 72.464844 -0.101562 70.71875 -0.0898438 68.9375 0.355469 C 67.160156 0.804688 65.738281 1.710938 64.324219 2.839844 C 62.015625 4.671875 60.441406 7.957031 60.683594 10.929688 C 60.816406 12.464844 61.234375 13.851562 62.363281 14.980469 C 63.359375 15.976562 64.984375 16.71875 66.40625 16.660156 C 67.832031 16.597656 69.417969 16.109375 70.453125 14.980469 C 71.429688 13.910156 72.253906 12.425781 72.128906 10.929688 C 72.097656 10.613281 72.109375 10.300781 72.152344 9.984375 L 71.945312 11.511719 C 72.007812 11.152344 72.097656 10.816406 72.230469 10.492188 L 71.652344 11.855469 C 71.816406 11.488281 72.019531 11.144531 72.253906 10.828125 L 71.359375 11.988281 C 71.664062 11.589844 72.019531 11.246094 72.414062 10.941406 L 71.257812 11.835938 C 71.664062 11.53125 72.097656 11.285156 72.566406 11.082031 L 71.203125 11.664062 C 71.632812 11.488281 72.070312 11.367188 72.515625 11.296875 L 70.992188 11.5 C 71.4375 11.4375 71.886719 11.4375 72.34375 11.488281 L 70.820312 11.285156 C 71.183594 11.335938 71.519531 11.429688 71.867188 11.5625 L 70.503906 10.980469 C 70.878906 11.144531 71.226562 11.347656 71.550781 11.589844 L 70.390625 10.695312 C 70.707031 10.949219 70.980469 11.226562 71.234375 11.539062 L 70.339844 10.378906 C 70.644531 10.765625 70.890625 11.195312 71.082031 11.640625 L 70.503906 10.277344 C 70.726562 10.828125 70.878906 11.386719 70.960938 11.976562 L 70.757812 10.453125 C 70.820312 11 70.820312 11.539062 70.757812 12.089844 L 70.960938 10.5625 C 70.890625 11.101562 70.746094 11.621094 70.542969 12.128906 L 71.125 10.765625 C 70.941406 11.183594 70.71875 11.570312 70.441406 11.9375 L 71.335938 10.777344 C 71.0625 11.125 70.757812 11.429688 70.421875 11.703125 L 71.582031 10.808594 C 71.144531 11.144531 70.6875 11.40625 70.1875 11.632812 L 71.550781 11.050781 C 70.992188 11.277344 70.421875 11.429688 69.832031 11.511719 L 71.359375 11.304688 C 70.707031 11.386719 70.054688 11.386719 69.417969 11.304688 L 70.941406 11.511719 C 70.289062 11.417969 69.671875 11.246094 69.058594 11 L 70.421875 11.582031 C 69.914062 11.355469 69.445312 11.082031 69 10.757812 L 70.15625 11.652344 C 69.894531 11.449219 69.648438 11.234375 69.4375 10.980469 L 70.332031 12.140625 C 70.230469 12.007812 70.148438 11.867188 70.078125 11.722656 L 70.65625 13.085938 C 70.574219 12.902344 70.523438 12.710938 70.484375 12.515625 L 70.6875 14.042969 C 70.65625 13.800781 70.65625 13.566406 70.6875 13.3125 L 70.484375 14.835938 C 70.523438 14.542969 70.605469 14.257812 70.71875 13.984375 L 70.136719 15.347656 C 70.28125 15.019531 70.453125 14.714844 70.667969 14.421875 L 69.773438 15.582031 C 69.996094 15.296875 70.25 15.03125 70.523438 14.808594 L 69.367188 15.703125 C 69.648438 15.480469 69.953125 15.304688 70.289062 15.164062 L 68.929688 15.742188 C 69.203125 15.640625 69.46875 15.582031 69.761719 15.53125 L 68.238281 15.734375 C 68.746094 15.671875 69.242188 15.683594 69.75 15.753906 L 68.226562 15.550781 C 68.867188 15.652344 69.46875 15.84375 70.066406 16.089844 L 68.703125 15.507812 C 69.800781 15.976562 70.820312 16.597656 71.816406 17.238281 L 71.816406 7.308594 C 71.101562 7.722656 70.382812 8.109375 69.628906 8.4375 L 70.992188 7.855469 C 70.300781 8.132812 69.597656 8.34375 68.855469 8.445312 L 70.382812 8.242188 C 69.914062 8.292969 69.457031 8.292969 68.988281 8.242188 L 70.515625 8.445312 C 70.199219 8.394531 69.894531 8.3125 69.597656 8.203125 L 70.960938 8.78125 C 70.636719 8.640625 70.332031 8.46875 70.046875 8.242188 L 71.203125 9.140625 C 70.921875 8.914062 70.675781 8.671875 70.453125 8.394531 L 71.347656 9.554688 C 71.132812 9.269531 70.972656 8.984375 70.828125 8.671875 L 71.410156 10.035156 C 71.328125 9.808594 71.265625 9.585938 71.214844 9.351562 L 71.417969 10.878906 C 71.386719 10.644531 71.386719 10.421875 71.417969 10.1875 L 71.214844 11.714844 C 71.257812 11.46875 71.316406 11.253906 71.410156 11.03125 L 70.828125 12.394531 C 70.921875 12.203125 71.03125 12.027344 71.164062 11.855469 L 70.269531 13.015625 C 70.414062 12.851562 70.554688 12.699219 70.71875 12.566406 L 69.558594 13.464844 C 69.863281 13.230469 70.1875 13.046875 70.542969 12.882812 L 69.183594 13.464844 C 69.742188 13.238281 70.3125 13.097656 70.910156 13.027344 L 69.386719 13.230469 C 70.066406 13.148438 70.746094 13.160156 71.4375 13.230469 L 69.914062 13.027344 C 70.644531 13.128906 71.359375 13.3125 72.039062 13.597656 L 70.675781 13.015625 C 71.203125 13.238281 71.691406 13.523438 72.160156 13.871094 L 71 12.976562 C 71.367188 13.261719 71.691406 13.574219 71.988281 13.941406 L 71.09375 12.78125 C 71.347656 13.117188 71.550781 13.464844 71.722656 13.839844 L 71.144531 12.476562 C 71.285156 12.824219 71.386719 13.167969 71.4375 13.535156 L 71.234375 12.007812 C 71.265625 12.304688 71.265625 12.578125 71.226562 12.863281 L 71.429688 11.335938 C 71.378906 11.621094 71.308594 11.886719 71.195312 12.160156 L 71.773438 10.796875 C 71.621094 11.144531 71.4375 11.460938 71.203125 11.753906 L 72.097656 10.59375 C 71.835938 10.917969 71.539062 11.214844 71.203125 11.46875 L 72.363281 10.574219 C 72.058594 10.796875 71.742188 10.980469 71.410156 11.132812 L 72.769531 10.554688 C 72.445312 10.695312 72.109375 10.789062 71.753906 10.847656 L 73.277344 10.644531 C 73.015625 10.675781 72.761719 10.6875 72.496094 10.644531 L 74.019531 10.847656 C 73.796875 10.816406 73.59375 10.757812 73.390625 10.6875 L 74.753906 11.265625 C 74.578125 11.183594 74.417969 11.101562 74.265625 10.992188 L 75.421875 11.886719 C 75.167969 11.683594 74.957031 11.449219 74.742188 11.195312 L 75.636719 12.355469 C 75.546875 12.222656 75.464844 12.089844 75.394531 11.949219 L 75.972656 13.3125 C 75.910156 13.160156 75.871094 13.015625 75.851562 12.863281 L 76.054688 14.390625 C 76.035156 14.1875 76.023438 13.992188 76.054688 13.789062 L 75.851562 15.316406 C 75.882812 15.070312 75.941406 14.835938 76.035156 14.605469 L 75.453125 15.96875 C 75.554688 15.742188 75.667969 15.53125 75.820312 15.328125 L 74.925781 16.488281 C 75.058594 16.324219 75.191406 16.191406 75.34375 16.058594 L 74.183594 16.953125 C 74.347656 16.832031 74.507812 16.742188 74.691406 16.660156 L 73.328125 17.238281 C 73.480469 17.1875 73.625 17.148438 73.785156 17.128906 L 72.261719 17.332031 C 72.382812 17.332031 72.507812 17.332031 72.628906 17.332031 C 74.03125 17.433594 75.707031 16.617188 76.671875 15.652344 C 77.640625 14.683594 78.410156 13.027344 78.351562 11.601562 C 78.289062 10.175781 77.800781 8.589844 76.671875 7.550781 C 75.546875 6.511719 74.214844 5.984375 72.628906 5.871094 Z M 72.628906 5.863281 "/>
<path style=" stroke:none;fill-rule:nonzero;fill:rgb(100%,100%,100%);fill-opacity:1;" d="M 128.464844 3.734375 C 123.28125 0.996094 116.152344 2.003906 112.828125 7.132812 C 111.984375 8.4375 111.5 10.257812 111.570312 11.816406 C 111.671875 14.257812 112.617188 16.324219 114.191406 18.15625 C 115.15625 19.273438 116.46875 20.222656 117.820312 20.820312 C 119.652344 21.636719 121.347656 22.125 123.371094 22.195312 C 125.117188 22.257812 126.816406 21.878906 128.414062 21.199219 C 129.917969 20.558594 131.359375 19.660156 132.398438 18.367188 C 133.515625 16.964844 134.460938 15.46875 134.847656 13.675781 C 135.234375 11.886719 135.292969 10.035156 134.796875 8.210938 C 133.890625 4.894531 131.125 1.972656 127.671875 1.34375 C 125.953125 1.027344 124.203125 0.964844 122.515625 1.507812 C 120.980469 1.996094 119.40625 2.820312 118.308594 4.03125 C 116.792969 5.699219 115.777344 7.855469 115.859375 10.15625 C 115.941406 12.457031 116.90625 14.625 118.511719 16.28125 C 119.703125 17.503906 121.449219 18.582031 123.148438 18.886719 C 124.539062 19.140625 125.871094 19.234375 127.265625 18.847656 C 128.65625 18.460938 129.632812 17.789062 130.761719 16.863281 L 128.238281 18.339844 C 129.460938 17.871094 130.203125 17.574219 131.148438 16.640625 C 131.890625 15.886719 132.558594 14.796875 132.824219 13.757812 C 133.292969 11.855469 132.996094 10.105469 132.164062 8.367188 C 131.605469 7.183594 130.527344 6.105469 129.410156 5.453125 C 127.375 4.285156 124.804688 4.273438 122.78125 5.453125 C 119.445312 7.410156 119.121094 11.824219 121.335938 14.695312 C 122.882812 16.691406 125.222656 17.757812 127.75 17.421875 C 130.28125 17.085938 132.171875 15.558594 133.128906 13.289062 C 133.984375 11.277344 134.003906 8.804688 132.734375 6.921875 C 131.226562 4.703125 128.902344 3.726562 126.277344 4.285156 C 124.253906 4.722656 122.648438 6.097656 121.511719 7.746094 C 120.574219 9.085938 120.269531 10.5625 120.097656 12.152344 C 119.761719 15.296875 121.46875 18.53125 124.183594 20.109375 C 127.824219 22.226562 132.304688 20.902344 134.777344 17.707031 C 135.976562 16.160156 136.59375 14.460938 136.726562 12.496094 C 136.789062 11.664062 136.65625 10.796875 136.433594 9.992188 C 136.035156 8.578125 135.425781 7.835938 134.542969 6.707031 C 133.65625 5.578125 131.796875 5.027344 130.496094 5.027344 C 129.09375 5.027344 127.417969 5.648438 126.449219 6.707031 C 125.484375 7.765625 124.710938 9.230469 124.773438 10.757812 L 124.976562 12.285156 C 125.25 13.25 125.738281 14.09375 126.449219 14.808594 L 126.542969 14.929688 L 125.648438 13.769531 C 125.757812 13.933594 125.851562 14.09375 125.921875 14.277344 L 125.34375 12.914062 C 125.402344 13.097656 125.445312 13.269531 125.476562 13.464844 L 125.273438 11.9375 C 125.292969 12.179688 125.292969 12.40625 125.261719 12.640625 L 125.464844 11.113281 C 125.425781 11.355469 125.363281 11.582031 125.273438 11.816406 L 125.851562 10.453125 C 125.707031 10.777344 125.546875 11.0625 125.332031 11.347656 L 126.226562 10.1875 C 126.035156 10.421875 125.832031 10.625 125.597656 10.808594 L 126.753906 9.914062 C 126.5625 10.054688 126.359375 10.175781 126.136719 10.277344 L 127.496094 9.699219 C 127.273438 9.789062 127.0625 9.851562 126.816406 9.882812 L 128.339844 9.679688 C 128.148438 9.699219 127.964844 9.6875 127.773438 9.679688 L 129.296875 9.882812 C 129.105469 9.851562 128.929688 9.800781 128.746094 9.730469 L 130.109375 10.308594 C 129.957031 10.238281 129.816406 10.15625 129.671875 10.054688 L 130.832031 10.949219 C 130.667969 10.816406 130.527344 10.6875 130.394531 10.523438 L 131.289062 11.683594 C 131.167969 11.511719 131.066406 11.335938 130.972656 11.152344 L 131.554688 12.515625 C 131.441406 12.242188 131.359375 11.957031 131.320312 11.664062 L 131.523438 13.1875 C 131.480469 12.84375 131.480469 12.496094 131.523438 12.152344 L 131.320312 13.675781 C 131.371094 13.371094 131.453125 13.097656 131.5625 12.8125 L 130.984375 14.175781 C 131.085938 13.941406 131.21875 13.726562 131.371094 13.535156 L 130.476562 14.695312 C 130.609375 14.53125 130.75 14.390625 130.914062 14.269531 L 129.753906 15.164062 C 129.886719 15.0625 130.027344 14.980469 130.179688 14.910156 L 128.820312 15.488281 C 128.980469 15.417969 129.144531 15.378906 129.308594 15.335938 L 122.851562 12.699219 C 122.914062 12.78125 122.964844 12.863281 123.003906 12.953125 L 122.425781 11.589844 C 122.464844 11.683594 122.488281 11.773438 122.496094 11.875 L 122.292969 10.351562 C 122.304688 10.453125 122.304688 10.542969 122.292969 10.644531 L 122.496094 9.117188 C 122.476562 9.269531 122.4375 9.402344 122.386719 9.554688 L 122.964844 8.191406 C 122.921875 8.285156 122.871094 8.367188 122.8125 8.445312 L 123.707031 7.285156 C 123.644531 7.367188 123.585938 7.4375 123.503906 7.5 L 124.660156 6.605469 C 124.589844 6.664062 124.5 6.714844 124.40625 6.757812 L 125.769531 6.175781 C 125.667969 6.21875 125.566406 6.25 125.464844 6.257812 L 126.988281 6.054688 C 126.878906 6.066406 126.765625 6.054688 126.652344 6.035156 L 128.179688 6.238281 L 128.015625 6.199219 L 129.378906 6.777344 C 129.207031 6.707031 129.082031 6.636719 128.941406 6.523438 L 130.101562 7.417969 C 130.007812 7.347656 129.9375 7.257812 129.867188 7.164062 L 130.761719 8.324219 C 130.699219 8.234375 130.636719 8.132812 130.609375 8.03125 L 131.1875 9.394531 L 131.148438 9.230469 L 131.351562 10.757812 C 131.328125 10.644531 131.320312 10.53125 131.339844 10.421875 L 128.503906 15.367188 L 128.605469 15.304688 L 127.242188 15.886719 C 127.355469 15.84375 127.4375 15.816406 127.558594 15.792969 L 126.035156 15.996094 C 126.105469 15.996094 126.167969 15.996094 126.238281 15.996094 L 124.710938 15.792969 C 124.785156 15.804688 124.84375 15.824219 124.90625 15.855469 L 123.542969 15.273438 C 123.644531 15.328125 123.726562 15.378906 123.816406 15.4375 L 122.660156 14.542969 C 122.75 14.613281 122.820312 14.695312 122.894531 14.777344 L 122 13.617188 C 122.121094 13.78125 122.210938 13.933594 122.292969 14.113281 L 121.714844 12.75 C 121.765625 12.894531 121.804688 13.046875 121.835938 13.199219 L 121.632812 11.671875 C 121.644531 11.785156 121.644531 11.886719 121.632812 12 L 121.835938 10.472656 C 121.816406 10.582031 121.796875 10.675781 121.765625 10.777344 L 122.34375 9.414062 C 122.3125 9.472656 122.28125 9.535156 122.242188 9.585938 L 123.136719 8.425781 C 123.097656 8.476562 123.046875 8.527344 122.996094 8.578125 L 124.152344 7.683594 C 124.09375 7.734375 124.03125 7.765625 123.960938 7.796875 L 125.324219 7.214844 C 124.082031 7.695312 123.59375 7.988281 122.566406 8.832031 L 123.726562 7.9375 C 123.5625 8.058594 123.390625 8.152344 123.207031 8.234375 L 124.570312 7.652344 C 124.386719 7.722656 124.203125 7.773438 124.019531 7.804688 L 125.546875 7.601562 C 125.300781 7.632812 125.066406 7.632812 124.824219 7.613281 L 126.347656 7.816406 C 126.003906 7.765625 125.679688 7.671875 125.351562 7.539062 L 126.714844 8.121094 C 126.429688 7.988281 126.175781 7.835938 125.921875 7.652344 L 127.082031 8.546875 C 126.796875 8.324219 126.542969 8.070312 126.320312 7.785156 L 127.214844 8.945312 C 127.03125 8.699219 126.878906 8.4375 126.753906 8.160156 L 127.335938 9.527344 C 127.242188 9.292969 127.183594 9.058594 127.140625 8.804688 L 127.34375 10.328125 C 127.316406 10.074219 127.316406 9.832031 127.34375 9.578125 L 127.140625 11.101562 C 127.183594 10.847656 127.253906 10.625 127.355469 10.378906 L 126.777344 11.742188 C 126.878906 11.53125 127 11.328125 127.140625 11.132812 L 126.246094 12.292969 C 126.429688 12.070312 126.625 11.875 126.835938 11.691406 L 125.679688 12.589844 C 125.953125 12.386719 126.226562 12.222656 126.542969 12.078125 L 125.179688 12.660156 C 125.585938 12.488281 126.011719 12.375 126.449219 12.3125 L 124.925781 12.515625 C 125.324219 12.476562 125.707031 12.476562 126.105469 12.527344 L 124.582031 12.324219 C 124.925781 12.375 125.25 12.464844 125.566406 12.589844 L 124.203125 12.007812 C 124.519531 12.152344 124.8125 12.3125 125.089844 12.515625 L 123.929688 11.621094 C 124.171875 11.824219 124.386719 12.050781 124.582031 12.304688 L 123.6875 11.144531 C 123.878906 11.417969 124.042969 11.703125 124.171875 12.007812 L 123.59375 10.644531 C 123.738281 11.011719 123.839844 11.378906 123.898438 11.765625 L 123.695312 10.238281 C 123.757812 10.746094 123.757812 11.246094 123.695312 11.753906 L 123.898438 10.226562 C 123.828125 10.6875 123.707031 11.113281 123.535156 11.539062 L 124.113281 10.175781 C 123.929688 10.605469 123.707031 10.992188 123.441406 11.367188 L 124.335938 10.207031 C 124.050781 10.574219 123.726562 10.898438 123.359375 11.183594 L 124.519531 10.289062 C 124.152344 10.554688 123.765625 10.777344 123.351562 10.960938 L 124.710938 10.378906 C 124.171875 10.605469 123.625 10.746094 123.046875 10.828125 L 124.570312 10.625 C 123.917969 10.695312 123.28125 10.695312 122.628906 10.605469 L 124.152344 10.808594 C 123.503906 10.707031 122.871094 10.53125 122.261719 10.289062 L 123.625 10.867188 C 123.074219 10.625 122.566406 10.339844 122.089844 9.984375 L 123.25 10.878906 C 122.882812 10.582031 122.546875 10.277344 122.253906 9.914062 L 123.148438 11.074219 C 122.902344 10.757812 122.710938 10.429688 122.539062 10.074219 L 123.117188 11.4375 C 122.996094 11.132812 122.914062 10.828125 122.863281 10.503906 L 123.066406 12.027344 C 123.035156 11.753906 123.035156 11.480469 123.066406 11.203125 L 122.863281 12.730469 C 122.902344 12.476562 122.964844 12.234375 123.054688 11.988281 L 122.476562 13.351562 C 122.597656 13.078125 122.742188 12.832031 122.921875 12.597656 L 122.027344 13.757812 C 122.222656 13.523438 122.4375 13.320312 122.679688 13.128906 L 121.519531 14.023438 C 121.886719 13.75 122.28125 13.523438 122.710938 13.339844 L 121.347656 13.921875 C 121.898438 13.699219 122.464844 13.554688 123.046875 13.472656 L 121.519531 13.675781 C 122.179688 13.597656 122.832031 13.597656 123.492188 13.675781 L 121.96875 13.472656 C 122.515625 13.554688 123.046875 13.6875 123.554688 13.890625 L 122.191406 13.3125 C 122.375 13.394531 122.546875 13.472656 122.71875 13.566406 C 124.070312 14.277344 125.636719 14.554688 127.132812 14.144531 C 128.453125 13.78125 129.898438 12.75 130.546875 11.511719 C 131.25 10.175781 131.605469 8.570312 131.125 7.09375 C 130.679688 5.710938 129.824219 4.375 128.492188 3.671875 Z M 128.464844 3.734375 "/>
<path style=" stroke:none;fill-rule:nonzero;fill:rgb(100%,100%,100%);fill-opacity:1;" d="M 0.703125 43.28125 C 6.578125 59.097656 18.113281 72.0625 32.4375 80.792969 C 48.375 90.523438 67.292969 94.59375 85.792969 94.96875 C 103.863281 95.335938 122.3125 92.355469 139.066406 85.453125 C 155.066406 78.859375 169.652344 69.019531 180.914062 55.757812 C 186.269531 49.449219 190.964844 42.539062 194.554688 35.070312 C 196.425781 31.179688 198.070312 27.160156 199.382812 23.050781 C 200.035156 21.023438 200.714844 18.929688 200.550781 16.761719 C 200.347656 14.144531 199.566406 11.46875 197.664062 9.566406 C 195.308594 7.207031 191.566406 6.707031 188.730469 8.519531 C 186.210938 10.125 184.960938 13.675781 186.675781 16.355469 C 188.304688 18.878906 191.800781 20.128906 194.503906 18.410156 C 195.003906 18.09375 194.871094 18.421875 193.800781 18.675781 C 193 18.859375 191.648438 18.808594 190.886719 18.492188 C 190.40625 18.296875 189.960938 18.042969 189.574219 17.675781 C 189.542969 17.648438 188.742188 16.382812 189.125 17.105469 C 189.542969 17.902344 188.792969 15.835938 189.003906 16.769531 C 189.046875 16.953125 189.105469 17.179688 189.167969 17.363281 C 189.410156 18.105469 189.054688 16.953125 189.105469 16.761719 C 189.046875 17.003906 189.074219 17.585938 189.117188 17.851562 C 189.207031 18.347656 189.148438 17.128906 189.21875 17.066406 C 189.148438 17.128906 189.074219 17.605469 189.035156 17.726562 C 188.78125 18.625 188.507812 19.5 188.222656 20.382812 C 187.632812 22.207031 186.972656 24.007812 186.25 25.777344 C 186.179688 25.949219 186.078125 26.144531 186.027344 26.328125 C 186.027344 26.328125 186.472656 25.277344 186.21875 25.871094 C 186.035156 26.296875 185.855469 26.714844 185.660156 27.140625 C 185.253906 28.046875 184.835938 28.941406 184.398438 29.828125 C 182.773438 33.144531 180.945312 36.363281 178.921875 39.457031 C 177.90625 41.003906 176.847656 42.519531 175.738281 44.003906 C 175.464844 44.371094 175.199219 44.765625 174.90625 45.113281 C 174.90625 45.113281 175.585938 44.238281 175.191406 44.738281 C 175.027344 44.941406 174.867188 45.152344 174.703125 45.359375 C 174.125 46.082031 173.535156 46.804688 172.933594 47.503906 C 170.496094 50.386719 167.882812 53.132812 165.128906 55.71875 C 163.777344 56.988281 162.382812 58.222656 160.960938 59.410156 C 160.300781 59.960938 159.628906 60.511719 158.957031 61.050781 C 158.753906 61.214844 158.539062 61.375 158.335938 61.539062 C 157.839844 61.9375 158.703125 61.253906 158.714844 61.253906 C 158.265625 61.507812 157.859375 61.90625 157.441406 62.210938 C 151.019531 66.972656 144.015625 70.941406 136.6875 74.128906 C 136.414062 74.25 136.148438 74.371094 135.875 74.472656 C 135.914062 74.453125 136.828125 74.085938 136.21875 74.320312 C 135.742188 74.515625 135.261719 74.71875 134.785156 74.902344 C 133.757812 75.308594 132.722656 75.703125 131.6875 76.082031 C 129.742188 76.792969 127.78125 77.457031 125.800781 78.054688 C 121.835938 79.277344 117.820312 80.285156 113.753906 81.109375 C 111.722656 81.515625 109.679688 81.882812 107.625 82.1875 C 107.117188 82.269531 106.597656 82.339844 106.089844 82.410156 C 105.957031 82.433594 105.207031 82.542969 105.96875 82.433594 C 106.78125 82.308594 105.828125 82.453125 105.625 82.472656 C 104.597656 82.605469 103.558594 82.714844 102.53125 82.820312 C 98.335938 83.246094 94.105469 83.480469 89.886719 83.519531 C 85.667969 83.5625 81.359375 83.410156 77.109375 83.03125 C 76.042969 82.941406 74.988281 82.828125 73.929688 82.707031 C 73.472656 82.65625 73.023438 82.59375 72.566406 82.542969 C 72.242188 82.503906 71.519531 82.542969 72.730469 82.5625 C 72.433594 82.5625 72.121094 82.484375 71.824219 82.433594 C 69.722656 82.125 67.617188 81.75 65.53125 81.324219 C 61.375 80.46875 57.257812 79.347656 53.242188 77.964844 C 52.238281 77.617188 51.242188 77.25 50.253906 76.875 C 49.757812 76.683594 49.269531 76.488281 48.769531 76.296875 C 48.566406 76.214844 48.324219 76.140625 48.140625 76.039062 C 48.792969 76.417969 48.617188 76.246094 48.039062 75.988281 C 46.140625 75.164062 44.269531 74.269531 42.4375 73.304688 C 39.207031 71.605469 36.097656 69.671875 33.128906 67.523438 C 32.761719 67.257812 32.386719 66.984375 32.019531 66.707031 C 31.867188 66.585938 31.703125 66.472656 31.550781 66.351562 C 30.933594 65.882812 32.386719 67.015625 31.777344 66.527344 C 31.0625 65.945312 30.351562 65.386719 29.652344 64.785156 C 28.257812 63.605469 26.90625 62.375 25.605469 61.089844 C 24.304688 59.808594 22.972656 58.382812 21.734375 56.960938 C 21.183594 56.316406 20.644531 55.667969 20.117188 55.015625 C 19.996094 54.863281 19.871094 54.710938 19.75 54.558594 C 19.121094 53.773438 19.863281 54.667969 19.933594 54.792969 C 19.691406 54.355469 19.304688 53.945312 19.007812 53.539062 C 16.882812 50.597656 15.003906 47.484375 13.417969 44.21875 C 13.023438 43.414062 12.726562 42.519531 12.28125 41.746094 C 12.28125 41.746094 12.71875 42.8125 12.484375 42.214844 C 12.410156 42.03125 12.332031 41.855469 12.257812 41.671875 C 12.066406 41.183594 11.882812 40.707031 11.699219 40.21875 C 10.664062 37.421875 7.785156 35.210938 4.667969 36.21875 C 1.933594 37.105469 -0.445312 40.257812 0.671875 43.261719 L 0.703125 43.261719 Z M 0.703125 43.28125 "/>
</g>
</svg>
