<?xml version="1.0" encoding="UTF-8"?>
<svg xmlns="http://www.w3.org/2000/svg" xmlns:xlink="http://www.w3.org/1999/xlink" width="100px" height="95px" viewBox="0 0 100 95" version="1.1">
<g id="surface1">
<path style=" stroke:none;fill-rule:nonzero;fill:rgb(7.843138%,53.333336%,79.215688%);fill-opacity:1;" d="M 7.183594 36.082031 C 5.925781 36.003906 5.042969 34.792969 4.898438 33.59375 C 4.730469 32.144531 5.554688 30.707031 6.457031 29.640625 C 8.230469 27.535156 10.984375 25.839844 13.816406 26.371094 C 16.652344 26.902344 19.140625 28.972656 21.425781 30.554688 C 23.933594 32.28125 26.375 34.101562 28.777344 35.957031 C 38.199219 43.253906 47.074219 51.277344 56.992188 57.894531 C 62.199219 61.371094 67.921875 64.3125 71.957031 69.242188 C 72.730469 70.183594 74.058594 68.84375 73.289062 67.910156 C 69.320312 63.074219 63.742188 60.089844 58.605469 56.714844 C 52.917969 52.972656 47.578125 48.742188 42.300781 44.460938 C 37.019531 40.179688 31.945312 35.941406 26.5625 31.941406 C 23.835938 29.917969 21.054688 27.882812 18.132812 26.15625 C 15.484375 24.601562 12.585938 23.828125 9.636719 25.019531 C 6.6875 26.210938 4.015625 28.699219 3.207031 31.710938 C 2.457031 34.535156 4.078125 37.78125 7.175781 37.984375 C 8.390625 38.0625 8.378906 36.171875 7.175781 36.089844 Z M 7.183594 36.082031 "/>
<path style=" stroke:none;fill-rule:nonzero;fill:rgb(7.843138%,53.333336%,79.215688%);fill-opacity:1;" d="M 5.34375 36.617188 C 7.699219 39.351562 10.277344 41.894531 13.066406 44.1875 C 15.855469 46.476562 19.015625 48.335938 21.699219 50.769531 C 24.382812 53.203125 26.367188 56.09375 29.085938 58.375 C 31.804688 60.660156 35.039062 62.460938 37.738281 64.878906 C 40.441406 67.296875 43.027344 70.265625 45.734375 72.886719 C 48.445312 75.507812 51.5 78.214844 54.449219 80.808594 C 57.398438 83.40625 60.453125 86.042969 63.484375 88.628906 C 64.972656 89.898438 66.460938 91.160156 67.957031 92.421875 C 68.9375 93.25 70.242188 94.296875 71.480469 93.265625 C 72.71875 92.238281 72.492188 90.246094 72.464844 88.832031 C 72.429688 86.664062 72.261719 84.496094 72.117188 82.339844 C 71.835938 78.011719 71.648438 73.640625 72.863281 69.417969 C 73.199219 68.246094 71.382812 67.75 71.046875 68.914062 C 69.046875 75.863281 70.648438 83.015625 70.585938 90.085938 C 70.585938 90.476562 70.605469 90.886719 70.515625 91.269531 C 70.390625 91.792969 70.277344 91.828125 69.789062 91.507812 C 69.019531 91 68.328125 90.28125 67.628906 89.6875 C 66.195312 88.46875 64.757812 87.253906 63.324219 86.027344 C 60.464844 83.574219 57.621094 81.105469 54.796875 78.617188 C 51.96875 76.128906 49.347656 73.792969 46.746094 71.257812 C 44.140625 68.726562 41.847656 66.070312 39.207031 63.6875 C 36.570312 61.308594 33.699219 59.664062 31.007812 57.539062 C 28.316406 55.417969 26.367188 52.761719 24.003906 50.386719 C 21.300781 47.667969 17.972656 45.730469 14.988281 43.351562 C 12.003906 40.96875 9.1875 38.222656 6.652344 35.292969 C 5.855469 34.367188 4.527344 35.710938 5.324219 36.625 Z M 5.34375 36.617188 "/>
<path style=" stroke:none;fill-rule:nonzero;fill:rgb(24.705882%,65.098041%,87.058824%);fill-opacity:1;" d="M 68.417969 4.523438 C 68.992188 4.007812 69.789062 4.699219 70.046875 5.207031 C 70.425781 5.953125 70.375 6.851562 70.363281 7.660156 C 70.355469 9.488281 70.4375 11.3125 70.585938 13.140625 C 70.886719 16.835938 71.347656 20.535156 71.160156 24.246094 C 70.976562 27.960938 70.265625 31.871094 70.171875 35.710938 C 70.074219 39.546875 70.605469 43.207031 70.921875 46.949219 C 71.550781 54.5 71.375 62.089844 70.859375 69.640625 C 70.605469 73.425781 70.25 77.210938 69.878906 80.988281 C 69.683594 82.953125 69.480469 84.914062 69.277344 86.871094 C 69.097656 88.628906 68.59375 90.664062 68.816406 92.421875 C 69.195312 95.480469 72.746094 95.460938 74.8125 94.210938 C 76.261719 93.328125 77.589844 92.238281 79.007812 91.304688 C 80.425781 90.371094 81.941406 89.4375 83.445312 88.574219 C 84.949219 87.714844 86.492188 86.90625 88.050781 86.152344 C 89.484375 85.449219 90.929688 84.78125 92.195312 83.804688 C 94.585938 81.964844 95.746094 79.148438 96.234375 76.234375 C 96.835938 72.636719 96.640625 68.984375 96.515625 65.359375 C 96.394531 61.546875 96.410156 57.726562 96.515625 53.914062 C 96.730469 46.308594 97.289062 38.722656 97.535156 31.117188 C 97.652344 27.597656 97.640625 24.070312 97.191406 20.570312 C 96.96875 18.84375 96.640625 17.140625 96.152344 15.476562 C 95.738281 14.039062 95.269531 12.492188 93.859375 11.726562 C 92.453125 10.964844 90.75 10.679688 89.253906 10.199219 C 87.5625 9.648438 85.878906 9.0625 84.214844 8.441406 C 80.832031 7.179688 77.503906 5.773438 74.234375 4.230469 C 72.625 3.464844 71.039062 2.675781 69.460938 1.847656 C 68.390625 1.289062 67.433594 2.914062 68.515625 3.484375 C 74.652344 6.691406 81.027344 9.4375 87.589844 11.640625 C 89.175781 12.171875 90.796875 12.597656 92.371094 13.148438 C 94.0625 13.738281 94.328125 15.796875 94.703125 17.363281 C 95.523438 20.792969 95.71875 24.328125 95.710938 27.847656 C 95.695312 35.222656 95.066406 42.585938 94.773438 49.953125 C 94.621094 53.703125 94.523438 57.453125 94.550781 61.210938 C 94.578125 64.96875 94.871094 68.503906 94.746094 72.148438 C 94.640625 75.222656 94.285156 78.777344 92.222656 81.21875 C 90.160156 83.664062 86.617188 84.703125 83.886719 86.1875 C 80.894531 87.8125 78.007812 89.632812 75.246094 91.625 C 74.191406 92.378906 72.410156 93.925781 71.074219 92.910156 C 70.410156 92.40625 70.703125 91.304688 70.773438 90.585938 C 70.871094 89.640625 70.96875 88.699219 71.0625 87.75 C 71.824219 80.347656 72.613281 72.9375 72.984375 65.5 C 73.359375 58.0625 73.191406 50.832031 72.472656 43.5 C 72.109375 39.8125 71.914062 36.171875 72.25 32.476562 C 72.585938 28.804688 73.164062 25.164062 73.082031 21.464844 C 73.003906 17.769531 72.472656 14.226562 72.296875 10.589844 C 72.171875 8.058594 72.96875 4.050781 70.074219 2.753906 C 69.019531 2.285156 67.929688 2.425781 67.070312 3.199219 C 66.167969 4.015625 67.503906 5.347656 68.398438 4.53125 Z M 68.417969 4.523438 "/>
<path style=" stroke:none;fill-rule:nonzero;fill:rgb(0%,46.27451%,72.549021%);fill-opacity:1;" d="M 68.105469 2.898438 C 64.394531 4.015625 61.402344 6.203125 58.96875 9.195312 C 56.300781 12.476562 53.300781 15.335938 50.21875 18.214844 C 43.707031 24.328125 37.191406 30.441406 30.679688 36.542969 C 29.792969 37.378906 31.125 38.710938 32.007812 37.878906 C 38.304688 31.96875 44.609375 26.058594 50.90625 20.144531 C 53.875 17.363281 56.949219 14.652344 59.515625 11.488281 C 60.78125 9.933594 62.011719 8.378906 63.632812 7.179688 C 65.140625 6.070312 66.8125 5.25 68.601562 4.710938 C 69.761719 4.363281 69.265625 2.53125 68.097656 2.886719 Z M 68.105469 2.898438 "/>
<path style=" stroke:none;fill-rule:nonzero;fill:rgb(0%,46.27451%,72.549021%);fill-opacity:1;" d="M 19 46.832031 C 17.164062 47.5 15.90625 49.171875 14.578125 50.53125 C 12.949219 52.199219 11.320312 53.871094 9.699219 55.53125 C 8.078125 57.195312 6.441406 58.871094 4.820312 60.535156 C 3.660156 61.714844 1.570312 63.246094 2.128906 65.164062 C 2.347656 65.945312 3.003906 66.539062 3.5625 67.089844 C 4.332031 67.855469 5.128906 68.585938 5.972656 69.269531 C 7.425781 70.460938 9.054688 71.792969 10.796875 72.53125 C 12.542969 73.265625 14.347656 71.941406 15.792969 71.027344 C 17.386719 70.007812 18.882812 68.84375 20.328125 67.605469 C 23.71875 64.710938 26.785156 61.457031 30.253906 58.660156 C 31.203125 57.894531 29.855469 56.5625 28.925781 57.328125 C 23.84375 61.421875 19.601562 66.628906 13.925781 69.960938 C 13.128906 70.433594 12.269531 71.082031 11.339844 70.699219 C 10.613281 70.398438 9.914062 69.835938 9.265625 69.394531 C 7.804688 68.390625 6.441406 67.261719 5.175781 66.027344 C 4.546875 65.414062 3.597656 64.738281 4.269531 63.847656 C 4.855469 63.074219 5.644531 62.410156 6.316406 61.714844 C 7.636719 60.355469 8.964844 59.007812 10.285156 57.648438 C 11.808594 56.082031 13.339844 54.519531 14.863281 52.957031 C 15.625 52.171875 16.386719 51.390625 17.148438 50.609375 C 17.847656 49.890625 18.546875 49 19.511719 48.644531 C 20.644531 48.238281 20.160156 46.40625 19.007812 46.824219 Z M 19 46.832031 "/>
<path style=" stroke:none;fill-rule:nonzero;fill:rgb(90.980393%,23.137255%,40.784314%);fill-opacity:1;" d="M 45.035156 48.078125 C 46.25 48.078125 46.25 46.183594 45.035156 46.183594 C 43.824219 46.183594 43.824219 48.078125 45.035156 48.078125 Z M 45.035156 48.078125 "/>
<path style=" stroke:none;fill-rule:nonzero;fill:rgb(0%,46.27451%,72.549021%);fill-opacity:1;" d="M 45.46875 47.855469 C 55.050781 42.871094 63.785156 36.324219 71.257812 28.503906 C 72.101562 27.625 70.773438 26.28125 69.929688 27.171875 C 62.5625 34.882812 53.980469 41.316406 44.523438 46.230469 C 43.441406 46.789062 44.398438 48.425781 45.46875 47.863281 Z M 45.46875 47.855469 "/>
<path style=" stroke:none;fill-rule:nonzero;fill:rgb(24.705882%,65.098041%,87.058824%);fill-opacity:1;" d="M 73.382812 10.503906 C 74.074219 9.605469 74.882812 8.929688 75.890625 8.414062 L 74.597656 7.117188 C 73.191406 10.464844 71.648438 13.753906 69.984375 16.988281 C 69.515625 17.902344 70.703125 18.953125 71.464844 18.132812 C 74.5625 14.792969 77.714844 11.445312 81.753906 9.242188 L 80.613281 7.757812 C 76.972656 12.414062 73.757812 17.371094 71.003906 22.605469 C 70.523438 23.511719 71.746094 24.59375 72.480469 23.75 C 77.070312 18.464844 82.207031 13.503906 88.722656 10.722656 L 87.582031 9.242188 C 81.90625 15.308594 76.757812 21.875 72.207031 28.839844 C 71.523438 29.878906 73.128906 30.742188 73.835938 29.792969 C 78.867188 23.074219 85.082031 17.203125 92.53125 13.273438 L 91.390625 11.789062 C 83.996094 19.183594 77.492188 27.445312 72.046875 36.382812 C 71.488281 37.300781 72.78125 38.304688 73.527344 37.53125 C 79.984375 30.847656 86.429688 24.167969 92.886719 17.476562 L 91.558594 17.476562 C 91.558594 17.28125 91.511719 17.335938 91.425781 17.636719 C 91.300781 17.832031 91.160156 18.027344 91.015625 18.207031 C 90.671875 18.675781 90.308594 19.148438 89.953125 19.617188 C 89.246094 20.558594 88.539062 21.503906 87.839844 22.445312 C 86.464844 24.265625 85.101562 26.09375 83.730469 27.917969 C 80.949219 31.621094 78.167969 35.335938 75.378906 39.042969 C 74.722656 39.910156 76.113281 40.917969 76.855469 40.1875 C 82.859375 34.253906 88.867188 28.316406 94.871094 22.382812 L 93.390625 21.234375 C 86.980469 29.597656 79.796875 37.308594 72.632812 45.011719 C 71.808594 45.902344 73.09375 47.207031 73.960938 46.34375 C 81.230469 39.15625 88.882812 32.367188 96.890625 26.023438 L 95.410156 24.878906 C 92.691406 29.445312 88.6875 32.992188 85.296875 37.023438 C 81.90625 41.058594 79 45.730469 76.855469 50.652344 C 76.378906 51.746094 77.796875 52.644531 78.484375 51.605469 C 83.5 44.015625 90.742188 38.082031 94.851562 29.871094 L 93.222656 28.921875 C 88.988281 38.046875 81.082031 44.613281 75.09375 52.503906 C 74.429688 53.382812 75.828125 54.367188 76.574219 53.648438 C 83.199219 47.261719 89.8125 40.863281 96.4375 34.472656 L 94.957031 33.328125 C 89.015625 42.320312 80.382812 49.242188 75.101562 58.714844 C 74.582031 59.644531 75.8125 60.625 76.582031 59.859375 C 82.488281 53.984375 88.492188 48.070312 95.851562 44.035156 L 94.558594 42.738281 C 93.082031 45.554688 90.867188 47.785156 88.636719 50.003906 C 86.269531 52.359375 84.019531 54.792969 81.894531 57.371094 C 77.617188 62.558594 73.800781 68.121094 70 73.667969 L 71.632812 74.617188 C 77.714844 64.648438 88.882812 59.566406 96.792969 51.328125 C 97.632812 50.449219 96.339844 49.160156 95.464844 49.996094 C 85.359375 59.558594 80.851562 73.507812 70.550781 82.878906 L 72.03125 84.027344 C 76.757812 76.449219 83.074219 69.980469 89 63.351562 C 89.804688 62.453125 88.519531 61.140625 87.667969 62.019531 C 85.101562 64.65625 82.53125 67.296875 79.964844 69.933594 C 78.734375 71.207031 77.503906 72.46875 76.261719 73.738281 C 75.644531 74.367188 75.03125 75.007812 74.410156 75.640625 C 73.835938 76.234375 72.996094 77.433594 72.089844 77.488281 L 72.90625 78.910156 C 74.234375 76.671875 76.03125 74.8125 77.839844 72.964844 C 79.796875 70.964844 81.761719 68.984375 83.753906 67.03125 C 85.746094 65.074219 87.582031 63.289062 89.539062 61.457031 C 91.371094 59.753906 93.3125 58.101562 95.683594 57.21875 L 94.621094 55.835938 C 91.390625 62.152344 86.492188 67.332031 82.3125 73 C 80.195312 75.878906 78.40625 78.925781 76.714844 82.070312 C 75.023438 85.21875 73.207031 88.621094 70.816406 91.464844 L 72.144531 92.796875 C 80.070312 82.960938 86.339844 71.773438 95.390625 62.863281 L 93.914062 61.714844 C 89.546875 70.539062 81.445312 77.320312 79.035156 87.117188 C 78.824219 87.988281 79.957031 88.773438 80.613281 88.042969 C 85.410156 82.621094 89.832031 76.875 93.84375 70.851562 L 92.214844 69.898438 C 90.070312 74.589844 87.847656 79.246094 85.542969 83.859375 C 85.074219 84.789062 86.234375 85.785156 87.023438 85.003906 C 90.476562 81.582031 93.390625 77.65625 95.648438 73.339844 C 96.214844 72.261719 94.585938 71.304688 94.019531 72.386719 C 91.832031 76.570312 89.042969 80.355469 85.6875 83.671875 L 87.164062 84.816406 C 89.46875 80.207031 91.691406 75.550781 93.832031 70.859375 C 94.339844 69.765625 92.886719 68.878906 92.203125 69.910156 C 88.28125 75.808594 83.960938 81.421875 79.265625 86.71875 L 80.839844 87.644531 C 83.199219 78.039062 91.246094 71.347656 95.535156 62.695312 C 95.996094 61.761719 94.851562 60.765625 94.054688 61.546875 C 85.003906 70.460938 78.742188 81.636719 70.808594 91.480469 C 70.054688 92.414062 71.355469 93.757812 72.136719 92.8125 C 76.847656 87.207031 79.398438 80.171875 83.710938 74.269531 C 88.023438 68.371094 92.957031 63.234375 96.242188 56.804688 C 96.589844 56.136719 96.003906 55.113281 95.179688 55.417969 C 92.78125 56.296875 90.769531 57.796875 88.890625 59.503906 C 86.785156 61.414062 84.757812 63.421875 82.726562 65.414062 C 80.699219 67.402344 78.558594 69.542969 76.503906 71.648438 C 74.582031 73.613281 72.683594 75.605469 71.277344 77.976562 C 70.921875 78.5625 71.367188 79.441406 72.089844 79.398438 C 73.84375 79.292969 74.90625 77.859375 76.050781 76.679688 C 77.484375 75.203125 78.929688 73.71875 80.363281 72.246094 C 83.242188 69.285156 86.121094 66.335938 88.988281 63.378906 L 87.660156 62.046875 C 81.628906 68.789062 75.210938 75.390625 70.398438 83.101562 C 69.816406 84.042969 71.109375 84.949219 71.878906 84.25 C 82.1875 74.875 86.695312 60.917969 96.792969 51.363281 L 95.464844 50.03125 C 87.421875 58.402344 76.210938 63.5625 70.011719 73.703125 C 69.371094 74.75 70.957031 75.648438 71.640625 74.652344 C 75.5 69.011719 79.363281 63.359375 83.753906 58.109375 C 85.878906 55.566406 88.15625 53.1875 90.503906 50.839844 C 92.664062 48.683594 94.761719 46.441406 96.1875 43.722656 C 96.632812 42.886719 95.746094 41.972656 94.894531 42.425781 C 87.394531 46.53125 81.257812 52.566406 75.234375 58.542969 L 76.714844 59.691406 C 81.992188 50.226562 90.628906 43.296875 96.570312 34.304688 C 97.171875 33.390625 95.84375 32.429688 95.089844 33.160156 C 88.46875 39.546875 81.851562 45.945312 75.226562 52.332031 L 76.707031 53.480469 C 82.703125 45.582031 90.59375 39.042969 94.835938 29.898438 C 95.339844 28.804688 93.753906 27.847656 93.203125 28.949219 C 89.09375 37.148438 81.84375 43.09375 76.839844 50.679688 L 78.46875 51.632812 C 80.65625 46.621094 83.542969 41.9375 87.113281 37.796875 C 90.496094 33.871094 94.347656 30.332031 97.023438 25.847656 C 97.605469 24.859375 96.332031 24.070312 95.542969 24.699219 C 87.535156 31.054688 79.886719 37.84375 72.613281 45.019531 L 73.941406 46.355469 C 81.222656 38.527344 88.484375 30.679688 94.992188 22.195312 C 95.65625 21.324219 94.25 20.320312 93.515625 21.050781 C 87.511719 26.984375 81.503906 32.917969 75.5 38.855469 L 76.980469 40 C 80.160156 35.761719 83.339844 31.523438 86.519531 27.285156 C 88.066406 25.226562 89.609375 23.164062 91.160156 21.109375 C 91.992188 20 94.550781 17.566406 92.859375 16.144531 C 92.46875 15.824219 91.902344 15.753906 91.53125 16.144531 C 85.074219 22.824219 78.628906 29.507812 72.171875 36.199219 L 73.652344 37.34375 C 79.015625 28.539062 85.410156 20.417969 92.699219 13.132812 C 93.46875 12.359375 92.496094 11.152344 91.558594 11.648438 C 83.808594 15.726562 77.414062 21.867188 72.179688 28.839844 L 73.808594 29.792969 C 78.273438 22.960938 83.3125 16.535156 88.890625 10.574219 C 89.671875 9.738281 88.695312 8.679688 87.75 9.089844 C 81.105469 11.925781 75.800781 17.015625 71.125 22.410156 L 72.605469 23.554688 C 75.28125 18.464844 78.386719 13.613281 81.921875 9.089844 C 82.550781 8.28125 81.78125 7.054688 80.78125 7.605469 C 76.609375 9.878906 73.3125 13.34375 70.109375 16.792969 L 71.585938 17.9375 C 73.25 14.714844 74.792969 11.417969 76.199219 8.066406 C 76.5625 7.214844 75.8125 6.316406 74.90625 6.769531 C 73.765625 7.347656 72.800781 8.140625 72.019531 9.152344 C 71.285156 10.101562 72.613281 11.453125 73.347656 10.484375 Z M 73.382812 10.503906 "/>
<path style=" stroke:none;fill-rule:nonzero;fill:rgb(24.705882%,65.098041%,87.058824%);fill-opacity:1;" d="M 73.703125 65.09375 C 77.226562 59.609375 80.859375 54.128906 85.5625 49.578125 C 87.765625 47.445312 90.140625 45.5 92.328125 43.359375 C 94.515625 41.21875 96.3125 38.410156 98.507812 36.101562 C 99.34375 35.222656 98.015625 33.878906 97.179688 34.769531 C 94.984375 37.078125 93.285156 39.777344 91 42.027344 C 88.714844 44.273438 86.234375 46.273438 83.960938 48.511719 C 79.273438 53.125 75.617188 58.640625 72.082031 64.140625 C 71.425781 65.164062 73.058594 66.113281 73.710938 65.09375 Z M 73.703125 65.09375 "/>
<path style=" stroke:none;fill-rule:nonzero;fill:rgb(24.705882%,65.098041%,87.058824%);fill-opacity:1;" d="M 73.675781 56.4375 C 77.121094 50.496094 81.3125 45.046875 86.183594 40.207031 C 87.050781 39.34375 85.746094 38.054688 84.851562 38.871094 C 80.496094 42.84375 76.128906 46.816406 71.773438 50.789062 L 73.25 51.933594 C 80.460938 41.582031 91.078125 33.78125 96.550781 22.195312 C 97.066406 21.101562 95.445312 20.144531 94.921875 21.246094 C 89.457031 32.8125 78.832031 40.640625 71.621094 50.984375 C 70.984375 51.898438 72.339844 52.820312 73.101562 52.128906 C 77.457031 48.15625 81.824219 44.1875 86.183594 40.214844 L 84.851562 38.882812 C 79.875 43.832031 75.570312 49.417969 72.054688 55.496094 C 71.445312 56.554688 73.074219 57.503906 73.6875 56.449219 Z M 73.675781 56.4375 "/>
<path style=" stroke:none;fill-rule:nonzero;fill:rgb(0%,46.27451%,72.549021%);fill-opacity:1;" d="M 67.671875 3.917969 C 65.289062 4.28125 63.015625 5.019531 60.84375 6.070312 C 59.949219 6.503906 60.453125 7.785156 61.324219 7.828125 C 63.828125 7.960938 66.335938 8.085938 68.839844 8.21875 L 68.59375 6.363281 C 64.960938 7.828125 61.339844 9.304688 57.710938 10.769531 C 56.585938 11.222656 57 12.785156 58.214844 12.589844 C 61.933594 11.996094 65.644531 11.390625 69.363281 10.796875 L 68.441406 9.214844 C 67.433594 9.996094 66.21875 10.40625 65.015625 10.777344 C 63.5625 11.230469 62.109375 11.667969 60.660156 12.109375 C 57.769531 13 54.882812 13.878906 51.996094 14.765625 C 50.96875 15.085938 51.183594 16.570312 52.246094 16.625 C 58.179688 16.925781 64.078125 13.933594 69.964844 15.441406 L 69.746094 13.71875 C 63.023438 16.6875 55.59375 17.546875 48.863281 20.507812 C 47.851562 20.953125 48.585938 22.480469 49.589844 22.230469 C 55.910156 20.675781 62.332031 19.148438 68.886719 19.707031 L 68.636719 17.851562 C 60.570312 19.972656 52.511719 22.105469 44.441406 24.230469 C 43.246094 24.539062 43.769531 26.253906 44.949219 26.050781 C 53.40625 24.585938 61.925781 23.15625 70.542969 23.644531 L 70.292969 21.785156 L 38.996094 29.773438 C 37.800781 30.078125 38.324219 31.808594 39.5 31.59375 C 49.597656 29.808594 59.71875 28.042969 69.957031 27.277344 L 69.710938 25.421875 C 58.761719 28.957031 47.640625 31.898438 36.375 34.226562 C 35.179688 34.472656 35.691406 36.261719 36.878906 36.046875 C 47.605469 34.164062 58.328125 32.28125 69.054688 30.394531 L 68.550781 28.574219 C 58.160156 31.425781 47.765625 34.277344 37.375 37.132812 C 36.390625 37.398438 36.542969 39.121094 37.625 38.988281 C 43.671875 38.222656 49.730469 37.460938 55.777344 36.695312 L 55.53125 34.839844 C 49.324219 36.207031 43.183594 37.902344 37.152344 39.910156 C 36.1875 40.230469 36.296875 41.804688 37.402344 41.769531 C 43.777344 41.546875 50.046875 40.355469 56.300781 39.140625 L 55.796875 37.316406 C 50.980469 38.625 46.339844 40.507812 41.972656 42.925781 C 41.203125 43.351562 41.492188 44.800781 42.449219 44.683594 C 46.949219 44.132812 51.261719 42.90625 55.378906 40.996094 C 56.089844 40.667969 55.894531 39.734375 55.378906 39.359375 C 54.582031 38.773438 53.722656 38.367188 52.777344 38.082031 L 52.996094 39.804688 C 56.699219 37.878906 60.550781 36.304688 64.539062 35.085938 L 63.8125 33.363281 C 60.925781 34.597656 57.921875 35.523438 54.859375 36.171875 L 55.582031 37.894531 C 57.851562 36.445312 60.214844 35.183594 62.667969 34.09375 C 63.714844 33.628906 62.917969 32.191406 61.941406 32.367188 C 57.125 33.222656 52.34375 34.242188 47.578125 35.378906 C 43.265625 36.402344 38.472656 37.496094 34.230469 35.613281 C 33.132812 35.121094 32.175781 36.75 33.285156 37.246094 C 37.675781 39.203125 42.40625 38.507812 46.949219 37.46875 C 52.101562 36.285156 57.238281 35.113281 62.449219 34.191406 L 61.722656 32.464844 C 59.269531 33.558594 56.902344 34.820312 54.636719 36.269531 C 53.722656 36.855469 54.316406 38.214844 55.363281 37.992188 C 58.59375 37.308594 61.730469 36.296875 64.769531 35 C 65.75 34.570312 65.050781 32.964844 64.042969 33.273438 C 59.898438 34.535156 55.894531 36.179688 52.050781 38.179688 C 51.304688 38.570312 51.527344 39.691406 52.273438 39.902344 C 53.070312 40.144531 53.75 40.5 54.421875 40.988281 L 54.421875 39.351562 C 50.640625 41.113281 46.585938 42.277344 42.449219 42.78125 L 42.929688 44.542969 C 47.160156 42.203125 51.644531 40.402344 56.308594 39.128906 C 57.496094 38.808594 56.992188 37.078125 55.804688 37.308594 C 49.722656 38.492188 43.617188 39.664062 37.410156 39.875 L 37.660156 41.734375 C 43.691406 39.714844 49.828125 38.019531 56.035156 36.660156 C 57.054688 36.4375 56.851562 34.667969 55.789062 34.804688 C 49.738281 35.566406 43.679688 36.332031 37.632812 37.09375 L 37.878906 38.953125 C 48.269531 36.101562 58.664062 33.25 69.054688 30.394531 C 70.242188 30.066406 69.726562 28.371094 68.550781 28.574219 C 57.824219 30.457031 47.097656 32.34375 36.375 34.226562 L 36.878906 36.046875 C 48.144531 33.71875 59.269531 30.777344 70.214844 27.242188 C 71.179688 26.929688 71.074219 25.304688 69.964844 25.386719 C 59.558594 26.15625 49.269531 27.953125 39.003906 29.765625 L 39.511719 31.585938 L 70.808594 23.597656 C 71.871094 23.324219 71.585938 21.804688 70.558594 21.742188 C 61.78125 21.246094 53.078125 22.71875 44.460938 24.210938 L 44.964844 26.035156 C 53.035156 23.910156 61.09375 21.777344 69.160156 19.652344 C 70.242188 19.371094 69.929688 17.886719 68.914062 17.796875 C 62.199219 17.226562 55.582031 18.800781 49.109375 20.390625 L 49.835938 22.113281 C 56.566406 19.15625 63.988281 18.292969 70.71875 15.328125 C 71.480469 14.988281 71.222656 13.789062 70.496094 13.601562 C 64.378906 12.03125 58.417969 15.023438 52.28125 14.714844 L 52.527344 16.570312 C 55.699219 15.601562 58.871094 14.625 62.03125 13.65625 C 64.679688 12.847656 67.574219 12.269531 69.796875 10.527344 C 70.628906 9.878906 69.683594 8.824219 68.875 8.949219 C 65.15625 9.542969 61.445312 10.148438 57.726562 10.742188 L 58.230469 12.5625 C 61.863281 11.097656 65.484375 9.621094 69.117188 8.15625 C 70.074219 7.765625 69.984375 6.363281 68.867188 6.300781 C 66.363281 6.167969 63.855469 6.042969 61.347656 5.910156 L 61.828125 7.667969 C 63.855469 6.691406 65.988281 6.050781 68.210938 5.703125 C 69.410156 5.519531 68.902344 3.695312 67.707031 3.882812 Z M 67.671875 3.917969 "/>
<path style=" stroke:none;fill-rule:nonzero;fill:rgb(0%,46.27451%,72.549021%);fill-opacity:1;" d="M 17.164062 51.914062 C 19.300781 51.597656 21.441406 51.488281 23.59375 51.558594 L 23.347656 49.703125 C 20.476562 50.671875 17.609375 51.648438 14.738281 52.617188 C 12.136719 53.496094 9.496094 54.351562 7.195312 55.894531 C 6.316406 56.492188 6.855469 57.878906 7.917969 57.621094 C 13.710938 56.25 19.679688 54.847656 25.660156 55.699219 L 25.4375 53.976562 C 22.089844 56.4375 17.46875 55.355469 13.898438 57.425781 C 12.921875 57.984375 13.613281 59.335938 14.625 59.148438 C 18.9375 58.367188 23.242188 57.59375 27.554688 56.8125 L 27.050781 54.988281 C 20.984375 57.265625 14.710938 58.945312 8.328125 60.019531 L 8.832031 61.839844 C 14.632812 60.757812 20.433594 59.671875 26.234375 58.589844 L 25.730469 56.765625 C 19.246094 59.316406 12.515625 61.164062 5.644531 62.265625 C 4.511719 62.453125 4.933594 64.015625 5.890625 64.125 C 8.195312 64.390625 10.46875 64.125 12.753906 63.859375 C 15.039062 63.589844 17.421875 63.316406 19.75 63.039062 L 19.273438 61.28125 C 15.785156 62.871094 12.234375 64.273438 8.601562 65.511719 C 7.652344 65.828125 7.734375 67.445312 8.851562 67.367188 C 11.542969 67.179688 14.234375 66.984375 16.933594 66.796875 L 16.6875 64.941406 C 14.234375 65.375 11.894531 66.195312 9.691406 67.359375 C 9.007812 67.722656 9.117188 68.929688 9.914062 69.082031 C 12.117188 69.5 14.3125 69.429688 16.476562 68.816406 L 15.96875 66.992188 C 14.410156 67.464844 12.863281 67.9375 11.304688 68.414062 C 10.335938 68.707031 10.460938 70.414062 11.550781 70.273438 C 18.433594 69.367188 23.859375 64.789062 27.980469 59.441406 C 28.589844 58.652344 27.4375 57.726562 26.6875 58.144531 L 19.414062 62.242188 L 20.363281 63.875 C 21.894531 62.960938 23.4375 62.035156 24.96875 61.121094 C 26.003906 60.5 25.066406 58.863281 24.019531 59.484375 C 22.488281 60.402344 20.949219 61.324219 19.414062 62.242188 C 18.371094 62.863281 19.308594 64.46875 20.363281 63.875 L 27.632812 59.777344 L 26.339844 58.480469 C 22.691406 63.226562 17.660156 67.570312 11.53125 68.378906 L 11.78125 70.238281 C 13.339844 69.765625 14.890625 69.296875 16.449219 68.816406 C 17.609375 68.460938 17.121094 66.664062 15.945312 66.992188 C 14.109375 67.507812 12.257812 67.617188 10.382812 67.261719 L 10.601562 68.984375 C 12.667969 67.890625 14.855469 67.164062 17.15625 66.753906 C 18.191406 66.566406 17.960938 64.824219 16.910156 64.898438 C 14.214844 65.082031 11.523438 65.277344 8.824219 65.464844 L 9.070312 67.324219 C 12.851562 66.035156 16.554688 64.558594 20.195312 62.898438 C 21.027344 62.515625 20.636719 61.03125 19.714844 61.140625 C 17.386719 61.414062 15.050781 61.691406 12.71875 61.957031 C 10.390625 62.222656 8.148438 62.488281 5.855469 62.222656 L 6.105469 64.078125 C 12.976562 62.976562 19.707031 61.140625 26.191406 58.578125 C 27.316406 58.136719 26.898438 56.527344 25.683594 56.757812 C 19.882812 57.84375 14.082031 58.925781 8.28125 60.011719 C 7.085938 60.230469 7.601562 62.035156 8.789062 61.832031 C 15.171875 60.757812 21.441406 59.070312 27.507812 56.804688 C 28.652344 56.375 28.210938 54.757812 27.003906 54.980469 C 22.691406 55.761719 18.386719 56.535156 14.074219 57.316406 L 14.800781 59.042969 C 18.359375 56.972656 22.929688 58.101562 26.339844 55.59375 C 26.898438 55.1875 27.015625 53.996094 26.121094 53.871094 C 19.777344 52.964844 13.535156 54.339844 7.378906 55.789062 L 8.105469 57.511719 C 10.390625 55.976562 13.003906 55.167969 15.589844 54.296875 C 18.324219 53.375 21.0625 52.441406 23.808594 51.515625 C 24.808594 51.179688 24.648438 49.695312 23.558594 49.660156 C 21.230469 49.578125 18.929688 49.730469 16.625 50.078125 C 15.429688 50.253906 15.933594 52.074219 17.128906 51.898438 Z M 17.164062 51.914062 "/>
<path style=" stroke:none;fill-rule:nonzero;fill:rgb(7.843138%,53.333336%,79.215688%);fill-opacity:1;" d="M 6.210938 32.492188 C 5.371094 31.898438 5.210938 30.886719 5.5625 29.96875 L 3.75 29.96875 C 4.5 32.011719 5.246094 34.046875 6 36.089844 C 6.539062 37.566406 7.085938 39.09375 8.71875 39.609375 C 9.285156 39.789062 9.929688 39.300781 9.914062 38.695312 C 9.753906 34.75 9.59375 30.804688 9.433594 26.867188 L 7.582031 27.117188 C 8.777344 32.742188 10.734375 38.160156 13.382812 43.253906 C 13.835938 44.113281 15.109375 43.671875 15.136719 42.773438 C 15.21875 40.265625 15.164062 37.761719 14.953125 35.257812 C 14.855469 34.101562 14.722656 32.945312 14.5625 31.800781 C 14.457031 31 13.746094 29.054688 14.457031 28.46875 C 14.898438 28.113281 14.792969 27.214844 14.261719 26.984375 C 13.109375 26.46875 11.957031 25.960938 10.816406 25.445312 C 9.949219 25.054688 9.105469 25.847656 9.523438 26.746094 C 12.019531 32.046875 14.675781 37.273438 17.503906 42.410156 C 17.945312 43.21875 19.292969 42.871094 19.253906 41.929688 C 19.105469 37.664062 18.964844 33.398438 18.8125 29.144531 C 18.777344 28.085938 17.261719 27.847656 16.960938 28.894531 C 15.5 33.960938 16.015625 39.226562 16.597656 44.390625 L 18.449219 44.140625 C 17.707031 39.085938 17.625 33.960938 18.167969 28.886719 L 16.414062 29.367188 C 20.523438 35.441406 19.628906 43.5625 24.320312 49.375 C 24.996094 50.210938 26.003906 49.257812 25.898438 48.449219 C 25.117188 42.683594 24.683594 36.863281 24.550781 31.042969 C 24.523438 29.828125 22.726562 29.835938 22.664062 31.042969 C 22.320312 37.984375 23.1875 44.941406 25.234375 51.578125 C 25.597656 52.75 27.289062 52.261719 27.050781 51.070312 C 25.988281 45.820312 25.234375 40.523438 24.800781 35.183594 L 22.949219 35.433594 C 23.453125 39.015625 24.125 42.570312 24.984375 46.085938 C 25.683594 48.976562 26.234375 52.414062 28.316406 54.671875 C 28.875 55.265625 29.945312 54.804688 29.925781 54.003906 C 29.785156 47.589844 29.449219 41.171875 28.910156 34.777344 C 28.847656 34.066406 28.15625 33.59375 27.492188 33.960938 C 27.171875 34.136719 26.84375 34.3125 26.527344 34.5 L 27.910156 35.070312 C 27.660156 34.414062 27.414062 33.761719 27.164062 33.105469 C 26.820312 32.183594 25.242188 32.207031 25.3125 33.355469 C 25.710938 39.449219 26.472656 45.519531 27.597656 51.523438 L 28.511719 50.324219 C 27.980469 50.261719 27.484375 48.789062 27.269531 48.398438 C 26.898438 47.695312 26.519531 46.992188 26.144531 46.292969 C 25.367188 44.824219 24.578125 43.351562 23.800781 41.882812 C 22.230469 38.945312 20.671875 36.003906 19.105469 33.070312 C 18.742188 32.386719 17.539062 32.492188 17.386719 33.292969 C 16.707031 36.898438 16.839844 40.550781 17.839844 44.078125 C 18.023438 44.746094 18.917969 45.019531 19.414062 44.496094 C 20.539062 43.304688 21.320312 41.921875 21.699219 40.320312 L 19.847656 40.070312 C 20.210938 42.851562 20.824219 45.5625 21.726562 48.21875 L 23.542969 47.714844 C 22.832031 45.855469 22.125 43.992188 21.417969 42.132812 C 20.992188 41.015625 19.175781 41.484375 19.601562 42.640625 C 20.503906 45.101562 21.273438 47.605469 21.902344 50.15625 L 23.621094 49.429688 C 23.207031 48.742188 23.046875 48.050781 23.207031 47.25 L 21.628906 47.667969 C 22.320312 48.539062 23.011719 49.402344 23.691406 50.273438 C 24.054688 50.726562 24.933594 50.59375 25.171875 50.078125 C 25.960938 48.371094 26.074219 46.566406 26.101562 44.710938 C 26.128906 42.851562 26.101562 40.878906 27.261719 39.28125 L 25.542969 39.058594 C 27.75 44.445312 26.570312 50.519531 28.757812 55.90625 C 29.148438 56.863281 30.546875 56.777344 30.609375 55.65625 C 30.902344 50.191406 31.203125 44.726562 31.496094 39.273438 L 29.644531 39.519531 C 31.160156 46.710938 32.664062 53.90625 34.179688 61.09375 C 34.398438 62.144531 36.046875 61.902344 36.03125 60.84375 C 35.933594 54.589844 35.835938 48.34375 35.726562 42.089844 L 33.84375 42.089844 C 34.753906 48.949219 36.523438 55.640625 39.199219 62.027344 C 39.605469 63.003906 40.953125 62.890625 41.050781 61.777344 C 41.539062 56.3125 41.589844 50.824219 41.203125 45.351562 C 41.113281 44.148438 39.289062 44.125 39.316406 45.351562 C 39.511719 52.742188 40.476562 60.089844 42.191406 67.277344 L 44.007812 66.773438 C 41.707031 58.445312 38.535156 50.414062 35.355469 42.398438 C 34.914062 41.289062 33.285156 41.6875 33.539062 42.90625 C 34.738281 48.664062 36.164062 54.359375 37.816406 60 C 37.996094 60.613281 38.933594 61.003906 39.394531 60.417969 C 40.820312 58.578125 41.707031 56.492188 41.9375 54.164062 C 41.988281 53.613281 42 53.054688 41.972656 52.492188 C 41.9375 51.898438 41.742188 51.105469 41.988281 50.539062 C 42.449219 49.472656 42.910156 50.652344 43.050781 51.097656 C 43.273438 51.800781 43.460938 52.511719 43.65625 53.214844 C 45.230469 58.714844 46.808594 64.222656 48.382812 69.722656 L 50.101562 68.992188 C 48.375 65.136719 47.125 61.066406 46.398438 56.910156 C 46.035156 54.839844 45.804688 52.742188 45.710938 50.644531 C 45.628906 49 45.53125 47.4375 44.417969 46.132812 C 44.027344 45.679688 43.203125 45.8125 42.9375 46.328125 C 42.015625 48.113281 42.105469 50.015625 42.28125 51.960938 C 42.484375 54.199219 42.742188 56.4375 43.035156 58.667969 C 43.628906 63.148438 44.398438 67.589844 45.347656 72.003906 C 45.539062 72.921875 46.949219 72.894531 47.160156 72.003906 C 47.886719 68.984375 47.304688 65.988281 46.558594 63.03125 C 46.179688 61.519531 45.753906 60.011719 45.496094 58.464844 C 45.355469 57.636719 45.265625 56.804688 45.257812 55.957031 C 45.257812 55.601562 45.398438 55.089844 45.347656 54.757812 L 45.027344 54.644531 C 45.160156 54.820312 45.265625 55.015625 45.363281 55.210938 C 46.132812 56.679688 46.488281 58.339844 46.871094 59.9375 C 47.292969 61.707031 47.703125 63.476562 48.101562 65.253906 C 48.925781 68.941406 49.710938 72.644531 50.5 76.339844 C 50.722656 77.378906 52.40625 77.160156 52.351562 76.09375 C 51.882812 66.835938 50.269531 57.65625 47.550781 48.796875 L 45.734375 49.304688 L 54.652344 75.488281 C 55.042969 76.644531 56.707031 76.179688 56.46875 74.980469 C 55.195312 68.558594 53.953125 62.070312 54.441406 55.488281 L 52.589844 55.738281 C 54 63.5625 55.398438 71.382812 56.804688 79.210938 C 57.007812 80.347656 58.550781 79.929688 58.65625 78.960938 C 59.472656 71.550781 55.929688 64.238281 57.488281 56.875 L 55.671875 56.875 C 58.390625 66.566406 60.660156 76.375 62.457031 86.285156 C 62.640625 87.3125 64.441406 87.09375 64.308594 86.035156 C 63.269531 78.011719 62.253906 69.933594 62.75 61.824219 L 60.898438 62.070312 C 62.792969 69.710938 64.679688 77.355469 66.574219 85.003906 C 66.824219 86.007812 68.550781 85.832031 68.425781 84.753906 C 67.582031 77.664062 66.769531 70.546875 67.246094 63.40625 L 65.394531 63.652344 C 66.230469 68.921875 67.222656 74.15625 68.382812 79.363281 C 68.609375 80.382812 70.339844 80.179688 70.230469 79.113281 C 69.894531 75.613281 69.550781 72.113281 69.214844 68.601562 L 67.363281 68.851562 C 68.230469 73.695312 68.804688 78.582031 69.089844 83.492188 C 69.160156 84.703125 71.046875 84.710938 70.976562 83.492188 C 70.683594 78.410156 70.082031 73.355469 69.1875 68.34375 C 69 67.304688 67.230469 67.535156 67.335938 68.59375 C 67.671875 72.09375 68.019531 75.59375 68.355469 79.105469 L 70.207031 78.855469 C 69.046875 73.648438 68.054688 68.414062 67.222656 63.148438 C 67.042969 62.035156 65.441406 62.402344 65.371094 63.394531 C 64.882812 70.539062 65.707031 77.664062 66.546875 84.746094 L 68.398438 84.496094 C 66.503906 76.855469 64.617188 69.214844 62.722656 61.566406 C 62.457031 60.488281 60.933594 60.785156 60.871094 61.8125 C 60.375 69.925781 61.394531 77.992188 62.429688 86.027344 L 64.28125 85.777344 C 62.484375 75.871094 60.214844 66.0625 57.496094 56.367188 C 57.257812 55.503906 55.875 55.425781 55.679688 56.367188 C 54.078125 63.957031 57.621094 71.367188 56.789062 78.960938 L 58.640625 78.714844 C 57.230469 70.886719 55.832031 63.066406 54.421875 55.238281 C 54.230469 54.128906 52.644531 54.492188 52.574219 55.488281 C 52.078125 62.230469 53.359375 68.90625 54.671875 75.488281 L 56.488281 74.980469 C 53.511719 66.257812 50.542969 57.523438 47.570312 48.796875 C 47.179688 47.660156 45.390625 48.128906 45.753906 49.304688 C 48.429688 58.011719 50.03125 67.003906 50.492188 76.101562 L 52.34375 75.851562 C 51.4375 71.585938 50.527344 67.3125 49.5625 63.066406 C 49.101562 61.039062 48.683594 58.996094 48.089844 57.007812 C 47.71875 55.753906 47.144531 53.480469 45.78125 52.929688 C 44.417969 52.378906 43.53125 53.878906 43.425781 55.0625 C 43.265625 56.855469 43.609375 58.714844 44 60.453125 C 44.816406 64.070312 46.277344 67.777344 45.371094 71.527344 L 47.1875 71.527344 C 46.320312 67.484375 45.59375 63.40625 45.027344 59.300781 C 44.742188 57.230469 44.496094 55.148438 44.292969 53.0625 C 44.105469 51.207031 43.691406 49.027344 44.585938 47.296875 L 43.105469 47.492188 C 44.210938 48.78125 43.859375 51.320312 44.007812 52.910156 C 44.1875 54.832031 44.460938 56.75 44.839844 58.640625 C 45.628906 62.550781 46.878906 66.335938 48.507812 69.96875 C 48.949219 70.957031 50.519531 70.253906 50.226562 69.242188 C 49.277344 65.929688 48.332031 62.613281 47.375 59.289062 C 46.914062 57.664062 46.445312 56.046875 45.984375 54.421875 C 45.550781 52.910156 45.238281 51.285156 44.621094 49.84375 C 43.59375 47.445312 40.632812 47.898438 40.113281 50.40625 C 39.8125 51.855469 40.246094 53.363281 39.980469 54.839844 C 39.714844 56.3125 39.039062 57.851562 38.085938 59.09375 L 39.660156 59.511719 C 38.003906 53.871094 36.578125 48.175781 35.382812 42.417969 L 33.566406 42.925781 C 36.746094 50.9375 39.917969 58.980469 42.21875 67.296875 C 42.546875 68.46875 44.320312 67.980469 44.035156 66.789062 C 42.351562 59.761719 41.414062 52.589844 41.226562 45.359375 L 39.339844 45.359375 C 39.730469 50.832031 39.679688 56.324219 39.191406 61.789062 L 41.042969 61.539062 C 38.4375 55.328125 36.640625 48.789062 35.753906 42.105469 C 35.605469 40.941406 33.851562 40.855469 33.867188 42.105469 C 33.964844 48.363281 34.0625 54.609375 34.167969 60.863281 L 36.019531 60.613281 C 34.507812 53.425781 33 46.230469 31.484375 39.042969 C 31.257812 37.957031 29.6875 38.269531 29.636719 39.289062 C 29.34375 44.753906 29.042969 50.21875 28.75 55.675781 L 30.601562 55.425781 C 28.414062 50.042969 29.589844 43.964844 27.386719 38.578125 C 27.066406 37.804688 26.164062 37.664062 25.667969 38.355469 C 23.328125 41.589844 25.152344 45.722656 23.578125 49.152344 L 25.054688 48.957031 C 24.367188 48.085938 23.675781 47.222656 22.992188 46.355469 C 22.558594 45.8125 21.550781 46.113281 21.417969 46.769531 C 21.160156 48.070312 21.335938 49.277344 22.027344 50.40625 C 22.585938 51.320312 24.011719 50.726562 23.746094 49.675781 C 23.117188 47.125 22.347656 44.621094 21.441406 42.160156 L 19.628906 42.667969 C 20.335938 44.523438 21.042969 46.390625 21.753906 48.246094 C 22.179688 49.367188 23.96875 48.914062 23.570312 47.738281 C 22.71875 45.253906 22.097656 42.703125 21.753906 40.097656 C 21.628906 39.128906 20.175781 38.710938 19.902344 39.851562 C 19.59375 41.136719 19.015625 42.230469 18.105469 43.191406 L 19.679688 43.609375 C 18.777344 40.410156 18.609375 37.09375 19.230469 33.824219 L 17.511719 34.046875 C 19.34375 37.496094 21.1875 40.953125 23.019531 44.398438 C 23.90625 46.0625 24.789062 47.722656 25.675781 49.382812 C 26.367188 50.679688 26.925781 52.066406 28.546875 52.253906 C 29.203125 52.324219 29.554688 51.597656 29.457031 51.054688 C 28.367188 45.214844 27.632812 39.316406 27.242188 33.390625 L 25.394531 33.640625 C 25.640625 34.296875 25.890625 34.945312 26.136719 35.601562 C 26.347656 36.171875 26.953125 36.480469 27.519531 36.171875 C 27.835938 35.992188 28.164062 35.816406 28.484375 35.628906 L 27.066406 34.8125 C 27.605469 41.210938 27.953125 47.625 28.085938 54.039062 L 29.695312 53.375 C 28.707031 52.296875 28.269531 50.921875 27.882812 49.535156 C 27.429688 47.972656 27.03125 46.390625 26.652344 44.800781 C 25.890625 41.554688 25.277344 38.277344 24.816406 34.972656 C 24.667969 33.921875 22.878906 34.164062 22.964844 35.222656 C 23.417969 40.730469 24.1875 46.203125 25.285156 51.613281 L 27.101562 51.105469 C 25.109375 44.613281 24.269531 37.859375 24.605469 31.070312 L 22.71875 31.070312 C 22.851562 37.070312 23.328125 43.039062 24.136719 48.976562 L 25.710938 48.050781 C 21.1875 42.445312 22.109375 34.351562 18.09375 28.421875 C 17.546875 27.613281 16.441406 27.96875 16.34375 28.902344 C 15.785156 34.164062 15.917969 39.433594 16.695312 44.664062 C 16.847656 45.707031 18.671875 45.472656 18.546875 44.417969 C 17.980469 39.433594 17.429688 34.324219 18.839844 29.417969 L 16.988281 29.171875 C 17.140625 33.433594 17.28125 37.699219 17.429688 41.957031 L 19.183594 41.476562 C 16.359375 36.339844 13.695312 31.117188 11.207031 25.8125 L 9.914062 27.109375 C 11.0625 27.625 12.214844 28.128906 13.359375 28.644531 L 13.164062 27.160156 C 12.402344 27.773438 12.277344 28.734375 12.375 29.660156 C 12.535156 31.105469 12.828125 32.546875 12.976562 33.996094 C 13.285156 36.917969 13.382812 39.859375 13.285156 42.789062 L 15.039062 42.3125 C 12.464844 37.351562 10.59375 32.09375 9.425781 26.628906 C 9.203125 25.589844 7.53125 25.820312 7.574219 26.878906 C 7.734375 30.824219 7.894531 34.769531 8.050781 38.703125 L 9.25 37.789062 C 8.0625 37.414062 7.636719 35.023438 7.265625 34.011719 C 6.707031 32.5 6.15625 30.984375 5.597656 29.472656 C 5.261719 28.566406 4.128906 28.59375 3.785156 29.472656 C 3.09375 31.214844 3.800781 33.089844 5.289062 34.128906 C 6.28125 34.828125 7.230469 33.1875 6.238281 32.492188 Z M 6.210938 32.492188 "/>
</g>
</svg>
