<?xml version="1.0" encoding="UTF-8"?>
<svg id="Capa_1" xmlns="http://www.w3.org/2000/svg" viewBox="0 0 112.69 106.92">
  <defs>
    <style>
      .cls-1 {
        fill: #1488ca;
      }

      .cls-2 {
        fill: #e83b68;
      }

      .cls-3 {
        fill: #3fa6de;
      }

      .cls-4 {
        fill: #0076b9;
      }
    </style>
  </defs>
  <path class="cls-1" d="M8,40.61c-1.42-.09-2.42-1.45-2.58-2.8-.19-1.63.74-3.25,1.76-4.45,2-2.37,5.11-4.28,8.31-3.68s6.01,2.93,8.59,4.71c2.83,1.94,5.59,3.99,8.3,6.08,10.64,8.21,20.66,17.24,31.86,24.69,5.88,3.91,12.34,7.22,16.9,12.77.87,1.06,2.37-.45,1.5-1.5-4.48-5.44-10.78-8.8-16.58-12.6-6.42-4.21-12.45-8.97-18.41-13.79s-11.69-9.59-17.77-14.09c-3.08-2.28-6.22-4.57-9.52-6.51-2.99-1.75-6.26-2.62-9.59-1.28s-6.35,4.14-7.26,7.53c-.85,3.18.98,6.83,4.48,7.06,1.37.09,1.36-2.04,0-2.13h0Z"/>
  <path class="cls-1" d="M5.92,41.21c2.66,3.08,5.57,5.94,8.72,8.52s6.72,4.67,9.75,7.41,5.27,5.99,8.34,8.56,6.72,4.6,9.77,7.32,5.97,6.06,9.03,9.01,6.51,6,9.84,8.92,6.78,5.89,10.2,8.8c1.68,1.43,3.36,2.85,5.05,4.27,1.11.93,2.58,2.11,3.98.95s1.14-3.4,1.11-4.99c-.04-2.44-.23-4.88-.39-7.31-.32-4.87-.53-9.79.84-14.54.38-1.32-1.67-1.88-2.05-.57-2.26,7.82-.45,15.87-.52,23.83,0,.44.02.9-.08,1.33-.14.59-.27.63-.82.27-.87-.57-1.65-1.38-2.44-2.05-1.62-1.37-3.24-2.74-4.86-4.12-3.23-2.76-6.44-5.54-9.63-8.34s-6.15-5.43-9.09-8.28-5.53-5.84-8.51-8.52-6.22-4.53-9.26-6.92-5.24-5.38-7.91-8.05c-3.05-3.06-6.81-5.24-10.18-7.92s-6.55-5.77-9.41-9.07c-.9-1.04-2.4.47-1.5,1.5h0Z"/>
  <path class="cls-3" d="M77.14,5.09c.65-.58,1.55.2,1.84.77.43.84.37,1.85.36,2.76-.01,2.06.08,4.11.25,6.17.34,4.16.86,8.32.65,12.5s-1.01,8.58-1.12,12.9.49,8.44.85,12.65c.71,8.5.51,17.04-.07,25.54-.29,4.26-.69,8.52-1.11,12.77-.22,2.21-.45,4.42-.68,6.62-.2,1.98-.77,4.27-.52,6.25.43,3.44,4.44,3.42,6.77,2.01,1.64-.99,3.14-2.22,4.74-3.27s3.31-2.1,5.01-3.07,3.44-1.88,5.2-2.73c1.62-.79,3.25-1.54,4.68-2.64,2.7-2.07,4.01-5.24,4.56-8.52.68-4.05.46-8.16.32-12.24-.14-4.29-.12-8.59,0-12.88.24-8.56.87-17.1,1.15-25.66.13-3.96.12-7.93-.39-11.87-.25-1.94-.62-3.86-1.17-5.73-.47-1.62-1-3.36-2.59-4.22s-3.51-1.18-5.2-1.72c-1.91-.62-3.81-1.28-5.69-1.98-3.82-1.42-7.58-3-11.27-4.74-1.82-.86-3.61-1.75-5.39-2.68-1.21-.63-2.29,1.2-1.07,1.84,6.93,3.61,14.13,6.7,21.54,9.18,1.79.6,3.62,1.08,5.4,1.7,1.91.66,2.21,2.98,2.63,4.74.93,3.86,1.15,7.84,1.14,11.8-.02,8.3-.73,16.59-1.06,24.88-.17,4.22-.28,8.44-.25,12.67s.36,8.21.22,12.31c-.12,3.46-.52,7.46-2.85,10.21s-6.33,3.92-9.41,5.59c-3.38,1.83-6.64,3.88-9.76,6.12-1.19.85-3.2,2.59-4.71,1.45-.75-.57-.42-1.81-.34-2.62.11-1.06.22-2.12.33-3.19.86-8.33,1.75-16.67,2.17-25.04s.23-16.51-.58-24.76c-.41-4.15-.63-8.25-.25-12.41.38-4.13,1.03-8.23.94-12.39s-.69-8.15-.89-12.24c-.14-2.85.76-7.36-2.51-8.82-1.19-.53-2.42-.37-3.39.5-1.02.92.49,2.42,1.5,1.5h0Z"/>
  <path class="cls-4" d="M76.79,3.26c-4.19,1.26-7.57,3.72-10.32,7.09-3.01,3.69-6.4,6.91-9.88,10.15-7.35,6.88-14.71,13.76-22.06,20.63-1,.94.5,2.44,1.5,1.5,7.11-6.65,14.23-13.3,21.34-19.96,3.35-3.13,6.82-6.18,9.72-9.74,1.43-1.75,2.82-3.5,4.65-4.85,1.7-1.25,3.59-2.17,5.61-2.78,1.31-.39.75-2.45-.57-2.05h0Z"/>
  <path class="cls-4" d="M21.34,52.71c-2.07.75-3.49,2.63-4.99,4.16-1.84,1.88-3.68,3.76-5.51,5.63s-3.68,3.76-5.51,5.63c-1.31,1.33-3.67,3.05-3.04,5.21.25.88.99,1.55,1.62,2.17.87.86,1.77,1.68,2.72,2.45,1.64,1.34,3.48,2.84,5.45,3.67s4.01-.66,5.64-1.69c1.8-1.15,3.49-2.46,5.12-3.85,3.83-3.26,7.29-6.92,11.21-10.07,1.07-.86-.45-2.36-1.5-1.5-5.74,4.61-10.53,10.47-16.94,14.22-.9.53-1.87,1.26-2.92.83-.82-.34-1.61-.97-2.34-1.47-1.65-1.13-3.19-2.4-4.62-3.79-.71-.69-1.78-1.45-1.02-2.45.66-.87,1.55-1.62,2.31-2.4,1.49-1.53,2.99-3.05,4.48-4.58,1.72-1.76,3.45-3.52,5.17-5.28.86-.88,1.72-1.76,2.58-2.64.79-.81,1.58-1.81,2.67-2.21,1.28-.46.73-2.52-.57-2.05h0Z"/>
  <path class="cls-2" d="M50.74,54.11c1.37,0,1.37-2.13,0-2.13s-1.37,2.13,0,2.13h0Z"/>
  <path class="cls-4" d="M51.23,53.86c10.82-5.61,20.68-12.98,29.12-21.78.95-.99-.55-2.5-1.5-1.5-8.32,8.68-18.01,15.92-28.69,21.45-1.22.63-.14,2.47,1.07,1.84h0Z"/>
  <path class="cls-3" d="M82.75,11.82c.78-1.01,1.69-1.77,2.83-2.35l-1.46-1.46c-1.59,3.77-3.33,7.47-5.21,11.11-.53,1.03.81,2.21,1.67,1.29,3.5-3.76,7.06-7.53,11.62-10.01l-1.29-1.67c-4.11,5.24-7.74,10.82-10.85,16.71-.54,1.02.84,2.24,1.67,1.29,5.18-5.95,10.98-11.53,18.34-14.66l-1.29-1.67c-6.41,6.83-12.22,14.22-17.36,22.06-.77,1.17,1.04,2.14,1.84,1.07,5.68-7.56,12.7-14.17,21.11-18.59l-1.29-1.67c-8.35,8.32-15.69,17.62-21.84,27.68-.63,1.03.83,2.16,1.67,1.29,7.29-7.52,14.57-15.04,21.86-22.57h-1.5c0-.22-.05-.16-.15.18-.14.22-.3.44-.46.64-.39.53-.8,1.06-1.2,1.59-.8,1.06-1.6,2.12-2.39,3.18-1.55,2.05-3.09,4.11-4.64,6.16-3.14,4.17-6.28,8.35-9.43,12.52-.74.98.83,2.11,1.67,1.29,6.78-6.68,13.56-13.36,20.34-20.04l-1.67-1.29c-7.24,9.41-15.35,18.09-23.44,26.76-.93,1,.52,2.47,1.5,1.5,8.21-8.09,16.85-15.73,25.89-22.87l-1.67-1.29c-3.07,5.14-7.59,9.13-11.42,13.67s-7.11,9.8-9.53,15.34c-.54,1.23,1.06,2.24,1.84,1.07,5.66-8.54,13.84-15.22,18.48-24.46l-1.84-1.07c-4.78,10.27-13.71,17.66-20.47,26.54-.75.99.83,2.1,1.67,1.29,7.48-7.19,14.95-14.39,22.43-21.58l-1.67-1.29c-6.71,10.12-16.46,17.91-22.42,28.57-.59,1.05.8,2.15,1.67,1.29,6.67-6.61,13.45-13.27,21.76-17.81l-1.46-1.46c-1.67,3.17-4.17,5.68-6.69,8.18-2.67,2.65-5.21,5.39-7.61,8.29-4.83,5.84-9.14,12.1-13.43,18.34l1.84,1.07c6.87-11.22,19.48-16.94,28.41-26.21.95-.99-.51-2.44-1.5-1.5-11.41,10.76-16.5,26.46-28.13,37.01l1.67,1.29c5.34-8.53,12.47-15.81,19.16-23.27.91-1.01-.54-2.49-1.5-1.5-2.9,2.97-5.8,5.94-8.7,8.91-1.39,1.43-2.78,2.85-4.18,4.28-.7.71-1.39,1.43-2.09,2.14-.65.67-1.6,2.02-2.62,2.08l.92,1.6c1.5-2.52,3.53-4.61,5.57-6.69,2.21-2.25,4.43-4.48,6.68-6.68s4.32-4.21,6.53-6.27c2.07-1.92,4.26-3.78,6.94-4.77l-1.2-1.56c-3.65,7.11-9.18,12.94-13.9,19.32-2.39,3.24-4.41,6.67-6.32,10.21s-3.96,7.37-6.66,10.57l1.5,1.5c8.95-11.07,16.03-23.66,26.25-33.69l-1.67-1.29c-4.93,9.93-14.08,17.56-16.8,28.59-.24.98,1.04,1.86,1.78,1.04,5.42-6.1,10.41-12.57,14.94-19.35l-1.84-1.07c-2.42,5.28-4.93,10.52-7.53,15.71-.53,1.05.78,2.17,1.67,1.29,3.9-3.85,7.19-8.27,9.74-13.13.64-1.21-1.2-2.29-1.84-1.07-2.47,4.71-5.62,8.97-9.41,12.7l1.67,1.29c2.6-5.19,5.11-10.43,7.53-15.71.57-1.23-1.07-2.23-1.84-1.07-4.43,6.64-9.31,12.96-14.61,18.92l1.78,1.04c2.66-10.81,11.75-18.34,16.59-28.08.52-1.05-.77-2.17-1.67-1.29-10.22,10.03-17.29,22.61-26.25,33.69-.85,1.05.62,2.56,1.5,1.5,5.32-6.31,8.2-14.23,13.07-20.87s10.44-12.42,14.15-19.66c.39-.75-.27-1.9-1.2-1.56-2.71.99-4.98,2.68-7.1,4.6-2.38,2.15-4.67,4.41-6.96,6.65s-4.71,4.65-7.03,7.02c-2.17,2.21-4.31,4.45-5.9,7.12-.4.66.1,1.65.92,1.6,1.98-.12,3.18-1.73,4.47-3.06,1.62-1.66,3.25-3.33,4.87-4.99,3.25-3.33,6.5-6.65,9.74-9.98l-1.5-1.5c-6.81,7.59-14.06,15.02-19.49,23.7-.66,1.06.8,2.08,1.67,1.29,11.64-10.55,16.73-26.26,28.13-37.01l-1.5-1.5c-9.08,9.42-21.74,15.23-28.74,26.64-.72,1.18,1.07,2.19,1.84,1.07,4.36-6.35,8.72-12.71,13.68-18.62,2.4-2.86,4.97-5.54,7.62-8.18,2.44-2.43,4.81-4.95,6.42-8.01.5-.94-.5-1.97-1.46-1.46-8.47,4.62-15.4,11.41-22.2,18.14l1.67,1.29c5.96-10.65,15.71-18.45,22.42-28.57.68-1.03-.82-2.11-1.67-1.29-7.48,7.19-14.95,14.39-22.43,21.58l1.67,1.29c6.77-8.89,15.68-16.25,20.47-26.54.57-1.23-1.22-2.31-1.84-1.07-4.64,9.23-12.83,15.92-18.48,24.46l1.84,1.07c2.47-5.64,5.73-10.91,9.76-15.57,3.82-4.42,8.17-8.4,11.19-13.45.66-1.11-.78-2-1.67-1.29-9.04,7.15-17.68,14.79-25.89,22.87l1.5,1.5c8.22-8.81,16.42-17.64,23.77-27.19.75-.98-.84-2.11-1.67-1.29-6.78,6.68-13.56,13.36-20.34,20.04l1.67,1.29c3.59-4.77,7.18-9.54,10.77-14.31,1.75-2.32,3.49-4.64,5.24-6.95.94-1.25,3.83-3.99,1.92-5.59-.44-.36-1.08-.44-1.5,0-7.29,7.52-14.57,15.04-21.86,22.57l1.67,1.29c6.06-9.91,13.28-19.05,21.51-27.25.87-.87-.23-2.23-1.29-1.67-8.75,4.59-15.97,11.5-21.88,19.35l1.84,1.07c5.04-7.69,10.73-14.92,17.03-21.63.88-.94-.22-2.13-1.29-1.67-7.5,3.19-13.49,8.92-18.77,14.99l1.67,1.29c3.02-5.73,6.53-11.19,10.52-16.28.71-.91-.16-2.29-1.29-1.67-4.71,2.56-8.43,6.46-12.05,10.34l1.67,1.29c1.88-3.63,3.62-7.34,5.21-11.11.41-.96-.44-1.97-1.46-1.46-1.29.65-2.38,1.54-3.26,2.68-.83,1.07.67,2.59,1.5,1.5h0Z"/>
  <path class="cls-3" d="M83.11,73.26c3.98-6.17,8.08-12.34,13.39-17.46,2.49-2.4,5.17-4.59,7.64-7s4.5-5.57,6.98-8.17c.94-.99-.56-2.5-1.5-1.5-2.48,2.6-4.4,5.64-6.98,8.17s-5.38,4.78-7.95,7.3c-5.29,5.19-9.42,11.4-13.41,17.59-.74,1.15,1.1,2.22,1.84,1.07h0Z"/>
  <path class="cls-3" d="M83.08,63.52c3.89-6.69,8.62-12.82,14.12-18.27.98-.97-.49-2.42-1.5-1.5-4.92,4.47-9.85,8.94-14.77,13.41l1.67,1.29c8.14-11.65,20.13-20.43,26.31-33.47.58-1.23-1.25-2.31-1.84-1.07-6.17,13.02-18.17,21.83-26.31,33.47-.72,1.03.81,2.07,1.67,1.29,4.92-4.47,9.85-8.94,14.77-13.41l-1.5-1.5c-5.62,5.57-10.48,11.86-14.45,18.7-.69,1.19,1.15,2.26,1.84,1.07h0Z"/>
  <path class="cls-4" d="M76.3,4.41c-2.69.41-5.26,1.24-7.71,2.42-1.01.49-.44,1.93.54,1.98,2.83.15,5.66.29,8.49.44l-.28-2.09c-4.1,1.65-8.19,3.31-12.29,4.96-1.27.51-.8,2.27.57,2.05,4.2-.67,8.39-1.35,12.59-2.02l-1.04-1.78c-1.14.88-2.51,1.34-3.87,1.76-1.64.51-3.28,1-4.92,1.5-3.26,1-6.52,1.99-9.78,2.99-1.16.36-.92,2.03.28,2.09,6.7.34,13.36-3.03,20.01-1.33l-.25-1.94c-7.59,3.34-15.98,4.31-23.58,7.64-1.14.5-.31,2.22.82,1.94,7.14-1.75,14.39-3.47,21.79-2.84l-.28-2.09c-9.11,2.39-18.21,4.79-27.32,7.18-1.35.35-.76,2.28.57,2.05,9.55-1.65,19.17-3.26,28.9-2.71l-.28-2.09-35.34,8.99c-1.35.34-.76,2.29.57,2.05,11.4-2.01,22.83-4,34.39-4.86l-.28-2.09c-12.36,3.98-24.92,7.29-37.64,9.91-1.35.28-.77,2.29.57,2.05,12.11-2.12,24.22-4.24,36.33-6.36l-.57-2.05c-11.73,3.21-23.47,6.42-35.2,9.63-1.11.3-.94,2.24.28,2.09,6.83-.86,13.67-1.72,20.5-2.58l-.28-2.09c-7.01,1.54-13.94,3.45-20.75,5.71-1.09.36-.97,2.13.28,2.09,7.2-.25,14.28-1.59,21.34-2.96l-.57-2.05c-5.44,1.47-10.68,3.59-15.61,6.31-.87.48-.54,2.11.54,1.98,5.08-.62,9.95-2,14.6-4.15.8-.37.58-1.42,0-1.84-.9-.66-1.87-1.12-2.94-1.44l.25,1.94c4.18-2.17,8.53-3.94,13.03-5.31l-.82-1.94c-3.26,1.39-6.65,2.43-10.11,3.16l.82,1.94c2.56-1.63,5.23-3.05,8-4.28,1.18-.52.28-2.14-.82-1.94-5.44.96-10.84,2.11-16.22,3.39-4.87,1.15-10.28,2.38-15.07.26-1.24-.55-2.32,1.28-1.07,1.84,4.96,2.2,10.3,1.42,15.43.25,5.82-1.33,11.62-2.65,17.5-3.69l-.82-1.94c-2.77,1.23-5.44,2.65-8,4.28-1.03.66-.36,2.19.82,1.94,3.65-.77,7.19-1.91,10.62-3.37,1.11-.48.32-2.29-.82-1.94-4.68,1.42-9.2,3.27-13.54,5.52-.84.44-.59,1.7.25,1.94.9.27,1.67.67,2.43,1.22v-1.84c-4.27,1.98-8.85,3.29-13.52,3.86l.54,1.98c4.78-2.63,9.84-4.66,15.11-6.09,1.34-.36.77-2.31-.57-2.05-6.87,1.33-13.76,2.65-20.77,2.89l.28,2.09c6.81-2.27,13.74-4.18,20.75-5.71,1.15-.25.92-2.24-.28-2.09-6.83.86-13.67,1.72-20.5,2.58l.28,2.09c11.73-3.21,23.47-6.42,35.2-9.63,1.34-.37.76-2.28-.57-2.05-12.11,2.12-24.22,4.24-36.33,6.36l.57,2.05c12.72-2.62,25.28-5.93,37.64-9.91,1.09-.35.97-2.18-.28-2.09-11.75.87-23.37,2.89-34.96,4.93l.57,2.05,35.34-8.99c1.2-.31.88-2.02-.28-2.09-9.91-.56-19.74,1.1-29.47,2.78l.57,2.05c9.11-2.39,18.21-4.79,27.32-7.18,1.22-.32.87-1.99-.28-2.09-7.58-.64-15.05,1.13-22.36,2.92l.82,1.94c7.6-3.33,15.98-4.3,23.58-7.64.86-.38.57-1.73-.25-1.94-6.91-1.77-13.64,1.6-20.57,1.25l.28,2.09c3.58-1.09,7.16-2.19,10.73-3.28,2.99-.91,6.26-1.56,8.77-3.52.94-.73-.13-1.92-1.04-1.78-4.2.67-8.39,1.35-12.59,2.02l.57,2.05c4.1-1.65,8.19-3.31,12.29-4.96,1.08-.44.98-2.02-.28-2.09-2.83-.15-5.66-.29-8.49-.44l.54,1.98c2.29-1.1,4.7-1.82,7.21-2.21,1.35-.21.78-2.26-.57-2.05h0Z"/>
  <path class="cls-4" d="M19.27,58.43c2.41-.36,4.83-.48,7.26-.4l-.28-2.09c-3.24,1.09-6.48,2.19-9.72,3.28-2.94.99-5.92,1.95-8.52,3.69-.99.67-.38,2.23.82,1.94,6.54-1.54,13.28-3.12,20.03-2.16l-.25-1.94c-3.78,2.77-9,1.55-13.03,3.88-1.1.63-.32,2.15.82,1.94,4.87-.88,9.73-1.75,14.6-2.63l-.57-2.05c-6.85,2.56-13.93,4.45-21.14,5.66l.57,2.05c6.55-1.22,13.1-2.44,19.65-3.66l-.57-2.05c-7.32,2.87-14.92,4.95-22.68,6.19-1.28.21-.8,1.97.28,2.09,2.6.3,5.17,0,7.75-.3s5.27-.61,7.9-.92l-.54-1.98c-3.94,1.79-7.95,3.37-12.05,4.76-1.07.36-.98,2.18.28,2.09,3.04-.21,6.08-.43,9.13-.64l-.28-2.09c-2.77.49-5.41,1.41-7.9,2.72-.77.41-.65,1.77.25,1.94,2.49.47,4.97.39,7.41-.3l-.57-2.05c-1.76.53-3.51,1.06-5.27,1.6-1.09.33-.95,2.25.28,2.09,7.77-1.02,13.9-6.17,18.55-12.19.69-.89-.61-1.93-1.46-1.46l-8.21,4.61,1.07,1.84c1.73-1.03,3.47-2.07,5.2-3.1,1.17-.7.11-2.54-1.07-1.84-1.73,1.03-3.47,2.07-5.2,3.1-1.18.7-.12,2.51,1.07,1.84l8.21-4.61-1.46-1.46c-4.12,5.34-9.8,10.23-16.72,11.14l.28,2.09c1.76-.53,3.51-1.06,5.27-1.6,1.31-.4.76-2.42-.57-2.05-2.07.58-4.16.7-6.28.3l.25,1.94c2.33-1.23,4.8-2.05,7.4-2.51,1.17-.21.91-2.17-.28-2.09-3.04.21-6.08.43-9.13.64l.28,2.09c4.27-1.45,8.45-3.11,12.56-4.98.94-.43.5-2.1-.54-1.98-2.63.31-5.27.62-7.9.92s-5.16.6-7.75.3l.28,2.09c7.76-1.24,15.36-3.31,22.68-6.19,1.27-.5.8-2.31-.57-2.05-6.55,1.22-13.1,2.44-19.65,3.66-1.35.25-.77,2.28.57,2.05,7.21-1.21,14.29-3.11,21.14-5.66,1.29-.48.79-2.3-.57-2.05-4.87.88-9.73,1.75-14.6,2.63l.82,1.94c4.02-2.33,9.18-1.06,13.03-3.88.63-.46.76-1.8-.25-1.94-7.16-1.02-14.21.53-21.16,2.16l.82,1.94c2.58-1.73,5.53-2.64,8.45-3.62,3.09-1.04,6.18-2.09,9.28-3.13,1.13-.38.95-2.05-.28-2.09-2.63-.09-5.23.08-7.83.47-1.35.2-.78,2.25.57,2.05h0Z"/>
  <path class="cls-1" d="M6.9,36.57c-.95-.67-1.13-1.81-.73-2.84h-2.05c.85,2.3,1.69,4.59,2.54,6.89.61,1.66,1.23,3.38,3.07,3.96.64.2,1.37-.35,1.35-1.03-.18-4.44-.36-8.88-.54-13.31l-2.09.28c1.35,6.33,3.56,12.43,6.55,18.16.51.97,1.95.47,1.98-.54.09-2.82.03-5.64-.21-8.46-.11-1.3-.26-2.6-.44-3.89-.12-.9-.92-3.09-.12-3.75.5-.4.38-1.41-.22-1.67-1.3-.58-2.6-1.15-3.89-1.73-.98-.44-1.93.45-1.46,1.46,2.82,5.97,5.82,11.85,9.01,17.63.5.91,2.02.52,1.98-.54-.17-4.8-.33-9.6-.5-14.39-.04-1.19-1.75-1.46-2.09-.28-1.65,5.7-1.07,11.63-.41,17.44l2.09-.28c-.84-5.69-.93-11.46-.32-17.17l-1.98.54c4.64,6.84,3.63,15.98,8.93,22.52.76.94,1.9-.13,1.78-1.04-.88-6.49-1.37-13.04-1.52-19.59-.03-1.37-2.06-1.36-2.13,0-.39,7.81.59,15.64,2.9,23.11.41,1.32,2.32.77,2.05-.57-1.2-5.91-2.05-11.87-2.54-17.88l-2.09.28c.57,4.03,1.33,8.03,2.3,11.99.79,3.25,1.41,7.12,3.76,9.66.63.67,1.84.15,1.82-.75-.16-7.22-.54-14.44-1.15-21.64-.07-.8-.85-1.33-1.6-.92-.36.2-.73.4-1.09.61l1.56.64c-.28-.74-.56-1.47-.84-2.21-.39-1.04-2.17-1.01-2.09.28.45,6.86,1.31,13.69,2.58,20.45l1.03-1.35c-.6-.07-1.16-1.73-1.4-2.17-.42-.79-.85-1.58-1.27-2.37-.88-1.65-1.77-3.31-2.65-4.96-1.77-3.31-3.53-6.62-5.3-9.92-.41-.77-1.77-.65-1.94.25-.77,4.06-.62,8.17.51,12.14.21.75,1.22,1.06,1.78.47,1.27-1.34,2.15-2.9,2.58-4.7l-2.09-.28c.41,3.13,1.1,6.18,2.12,9.17l2.05-.57c-.8-2.09-1.6-4.19-2.4-6.28-.48-1.26-2.53-.73-2.05.57,1.02,2.77,1.89,5.59,2.6,8.46l1.94-.82c-.47-.77-.65-1.55-.47-2.45l-1.78.47c.78.98,1.56,1.95,2.33,2.93.41.51,1.4.36,1.67-.22.89-1.92,1.02-3.95,1.05-6.04s0-4.31,1.31-6.11l-1.94-.25c2.49,6.06,1.16,12.9,3.63,18.96.44,1.08,2.02.98,2.09-.28.33-6.15.67-12.3,1-18.44l-2.09.28c1.71,8.09,3.41,16.19,5.12,24.28.25,1.18,2.11.91,2.09-.28-.11-7.04-.22-14.07-.34-21.11h-2.13c1.03,7.72,3.03,15.25,6.05,22.44.46,1.1,1.98.97,2.09-.28.55-6.15.61-12.33.17-18.49-.1-1.35-2.16-1.38-2.13,0,.22,8.32,1.31,16.59,3.25,24.68l2.05-.57c-2.6-9.37-6.18-18.41-9.77-27.43-.5-1.25-2.34-.8-2.05.57,1.35,6.48,2.96,12.89,4.83,19.24.2.69,1.26,1.13,1.78.47,1.61-2.07,2.61-4.42,2.87-7.04.06-.62.07-1.25.04-1.88-.04-.67-.26-1.56.02-2.2.52-1.2,1.04.13,1.2.63.25.79.46,1.59.68,2.38,1.78,6.19,3.56,12.39,5.34,18.58l1.94-.82c-1.95-4.34-3.36-8.92-4.18-13.6-.41-2.33-.67-4.69-.78-7.05-.09-1.85-.2-3.61-1.46-5.08-.44-.51-1.37-.36-1.67.22-1.04,2.01-.94,4.15-.74,6.34.23,2.52.52,5.04.85,7.55.67,5.04,1.54,10.04,2.61,15.01.22,1.03,1.81,1,2.05,0,.82-3.4.16-6.77-.68-10.1-.43-1.7-.91-3.4-1.2-5.14-.16-.93-.26-1.87-.27-2.82,0-.4.16-.98.1-1.35l-.36-.13c.15.2.27.42.38.64.87,1.65,1.27,3.52,1.7,5.32.48,1.99.94,3.98,1.39,5.98.93,4.15,1.82,8.32,2.71,12.48.25,1.17,2.15.92,2.09-.28-.53-10.42-2.35-20.75-5.42-30.72l-2.05.57,10.07,29.47c.44,1.3,2.32.78,2.05-.57-1.44-7.23-2.84-14.53-2.29-21.94l-2.09.28c1.59,8.81,3.17,17.61,4.76,26.42.23,1.28,1.97.81,2.09-.28.92-8.34-3.08-16.57-1.32-24.86h-2.05c3.07,10.91,5.63,21.95,7.66,33.1.21,1.16,2.24.91,2.09-.28-1.17-9.03-2.32-18.12-1.76-27.25l-2.09.28c2.14,8.6,4.27,17.2,6.41,25.81.28,1.13,2.23.93,2.09-.28-.95-7.98-1.87-15.99-1.33-24.03l-2.09.28c.94,5.93,2.06,11.82,3.37,17.68.26,1.15,2.21.92,2.09-.28-.38-3.94-.77-7.88-1.15-11.83l-2.09.28c.98,5.45,1.63,10.95,1.95,16.48.08,1.36,2.21,1.37,2.13,0-.33-5.72-1.01-11.41-2.02-17.05-.21-1.17-2.21-.91-2.09.28.38,3.94.77,7.88,1.15,11.83l2.09-.28c-1.31-5.86-2.43-11.75-3.37-17.68-.2-1.25-2.01-.84-2.09.28-.55,8.04.38,16.06,1.33,24.03l2.09-.28c-2.14-8.6-4.27-17.2-6.41-25.81-.3-1.21-2.02-.88-2.09.28-.56,9.13.59,18.21,1.76,27.25l2.09-.28c-2.03-11.15-4.59-22.19-7.66-33.1-.27-.97-1.83-1.06-2.05,0-1.81,8.54,2.19,16.88,1.25,25.43l2.09-.28c-1.59-8.81-3.17-17.61-4.76-26.42-.22-1.25-2.01-.84-2.09.28-.56,7.59.89,15.1,2.37,22.51l2.05-.57c-3.36-9.82-6.71-19.65-10.07-29.47-.44-1.28-2.46-.75-2.05.57,3.02,9.8,4.83,19.92,5.35,30.16l2.09-.28c-1.02-4.8-2.05-9.61-3.14-14.39-.52-2.28-.99-4.58-1.66-6.82-.42-1.41-1.07-3.97-2.61-4.59s-2.54,1.07-2.66,2.4c-.18,2.02.21,4.11.65,6.07.92,4.07,2.57,8.24,1.55,12.46h2.05c-.98-4.55-1.8-9.14-2.44-13.76-.32-2.33-.6-4.67-.83-7.02-.21-2.09-.68-4.54.33-6.49l-1.67.22c1.25,1.45.85,4.31,1.02,6.1.2,2.16.51,4.32.94,6.45.89,4.4,2.3,8.66,4.14,12.75.5,1.11,2.27.32,1.94-.82-1.07-3.73-2.14-7.46-3.22-11.2-.52-1.83-1.05-3.65-1.57-5.48-.49-1.7-.84-3.53-1.54-5.15-1.16-2.7-4.5-2.19-5.09.63-.34,1.63.15,3.33-.15,4.99s-1.06,3.39-2.14,4.79l1.78.47c-1.87-6.35-3.48-12.76-4.83-19.24l-2.05.57c3.59,9.02,7.17,18.07,9.77,27.43.37,1.32,2.37.77,2.05-.57-1.9-7.91-2.96-15.98-3.17-24.12h-2.13c.44,6.16.38,12.34-.17,18.49l2.09-.28c-2.94-6.99-4.97-14.35-5.97-21.87-.17-1.31-2.15-1.41-2.13,0,.11,7.04.22,14.07.34,21.11l2.09-.28c-1.71-8.09-3.41-16.19-5.12-24.28-.26-1.22-2.03-.87-2.09.28-.33,6.15-.67,12.3-1,18.44l2.09-.28c-2.47-6.06-1.14-12.9-3.63-18.96-.36-.87-1.38-1.03-1.94-.25-2.64,3.64-.58,8.29-2.36,12.15l1.67-.22c-.78-.98-1.56-1.95-2.33-2.93-.49-.61-1.63-.27-1.78.47-.29,1.46-.09,2.82.69,4.09.63,1.03,2.24.36,1.94-.82-.71-2.87-1.58-5.69-2.6-8.46l-2.05.57c.8,2.09,1.6,4.19,2.4,6.28.48,1.26,2.5.75,2.05-.57-.96-2.8-1.66-5.67-2.05-8.6-.14-1.09-1.78-1.56-2.09-.28-.35,1.45-1,2.68-2.03,3.76l1.78.47c-1.02-3.6-1.21-7.33-.51-11.01l-1.94.25c2.07,3.88,4.15,7.77,6.22,11.65,1,1.87,2,3.74,3,5.61.78,1.46,1.41,3.02,3.24,3.23.74.08,1.14-.74,1.03-1.35-1.23-6.57-2.06-13.21-2.5-19.88l-2.09.28c.28.74.56,1.47.84,2.21.24.64.92.99,1.56.64.36-.2.73-.4,1.09-.61l-1.6-.92c.61,7.2,1,14.42,1.15,21.64l1.82-.75c-1.12-1.21-1.61-2.76-2.05-4.32-.51-1.76-.96-3.54-1.39-5.33-.86-3.65-1.55-7.34-2.07-11.06-.17-1.18-2.19-.91-2.09.28.51,6.2,1.38,12.36,2.62,18.45l2.05-.57c-2.25-7.31-3.2-14.91-2.82-22.55h-2.13c.15,6.75.69,13.47,1.6,20.15l1.78-1.04c-5.11-6.31-4.07-15.42-8.6-22.09-.62-.91-1.87-.51-1.98.54-.63,5.92-.48,11.85.4,17.74.17,1.17,2.23.91,2.09-.28-.64-5.61-1.26-11.36.33-16.88l-2.09-.28c.17,4.8.33,9.6.5,14.39l1.98-.54c-3.19-5.78-6.2-11.66-9.01-17.63l-1.46,1.46c1.3.58,2.6,1.15,3.89,1.73l-.22-1.67c-.86.69-1,1.77-.89,2.81.18,1.63.51,3.25.68,4.88.35,3.29.46,6.6.35,9.9l1.98-.54c-2.91-5.58-5.02-11.5-6.34-17.65-.25-1.17-2.14-.91-2.09.28.18,4.44.36,8.88.54,13.31l1.35-1.03c-1.34-.42-1.82-3.11-2.24-4.25-.63-1.7-1.25-3.41-1.88-5.11-.38-1.02-1.66-.99-2.05,0-.78,1.96.02,4.07,1.7,5.24,1.12.79,2.19-1.06,1.07-1.84h0Z"/>
</svg>