<?xml version="1.0" encoding="UTF-8"?>
<svg id="Layer_1" data-name="Layer 1" xmlns="http://www.w3.org/2000/svg" viewBox="0 0 27.53 28.62">
  <defs>
    <style>
      .cls-1 {
        fill: #fff;
      }
    </style>
  </defs>
  <path class="cls-1" d="M4.11,19.56c-2.58-4.2-2.3-9.76,1.06-13.46,3.19-3.5,8.17-4.69,12.58-2.9,4.75,1.93,7.35,6.93,7.37,11.9.01,2.64-.79,5.15-2.75,6.98-1.79,1.66-4.21,2.52-6.64,2.52-1.47,0-2.93-.27-4.31-.77-1.18-.43-2.34-1.32-3.64-1.23s-2.08,1.13-3.01,1.9c-1.12.93-2.44,1.48-3.86,1.76l1.48,1.48c.44-2.24.88-4.48,1.31-6.71.3-1.51-2.02-2.15-2.31-.64-.44,2.24-.88,4.48-1.31,6.71-.18.93.54,1.66,1.48,1.48,1.38-.28,2.73-.8,3.9-1.6.52-.35,1-.75,1.46-1.18.79-.73,1-.92,2.01-.46,2.82,1.27,5.74,1.97,8.84,1.49,5.88-.92,9.8-5.85,9.76-11.73S24.55,3.64,19.22,1.24C14.17-1.04,8.32-.14,4.25,3.63-.5,8.02-1.32,15.31,2.04,20.77c.81,1.31,2.88.11,2.07-1.21h0Z"/>
  <path class="cls-1" d="M8.65,9.33c.4.49.69,1.06.88,1.65l2.19-.92c-.5-.79-1.19-1.97-2.15-2.27-1.27-.4-2.18.76-2.23,1.91-.08,1.66.47,3.42,1.28,4.86s2.07,2.78,3.53,3.68c.79.48,1.67.83,2.56,1.09,1,.29,2.15.66,3.2.63,1.19-.03,2.59-.79,2.66-2.11.08-1.44-1.59-1.86-2.63-2.36l-.92,2.19c.7.1,1.32.32,1.85.79,1.15,1.03,2.85-.67,1.7-1.7-.82-.74-1.81-1.26-2.91-1.41-.59-.08-1.17.09-1.42.69-.21.51-.06,1.24.49,1.5.32.15.64.31.96.46.23.11.62.2.8.38l-.31-.53c-.26-.82.37-.42-.04-.35-.07.01-.14.03-.21.04-.32.03-.65-.07-.95-.14-.69-.16-1.37-.32-2.04-.53-1.08-.35-2.05-.93-2.87-1.73-.76-.74-1.38-1.63-1.78-2.61-.2-.5-.35-1.03-.45-1.56-.04-.21-.07-.43-.08-.64-.01-.16,0-.33-.02-.49-.04-.31.13-.04-.17.12l-.61.16c-.18.02-.47-.35-.15.01.11.12.22.25.32.38.18.24.35.49.51.74.7,1.11,2.63.42,2.19-.92-.33-1.02-.82-1.88-1.49-2.71-.41-.5-1.27-.43-1.7,0-.5.5-.41,1.19,0,1.7h0Z"/>
</svg>