<?xml version="1.0" encoding="UTF-8"?>
<svg xmlns="http://www.w3.org/2000/svg" xmlns:xlink="http://www.w3.org/1999/xlink" width="30px" height="31px" viewBox="0 0 30 31" version="1.1">
<g id="surface1">
<path style=" stroke:none;fill-rule:nonzero;fill:rgb(100%,100%,100%);fill-opacity:1;" d="M 4.519531 21.1875 C 1.71875 16.636719 2.019531 10.613281 5.667969 6.605469 C 9.132812 2.816406 14.539062 1.527344 19.328125 3.464844 C 24.484375 5.554688 27.304688 10.972656 27.328125 16.355469 C 27.339844 19.214844 26.46875 21.933594 24.34375 23.917969 C 22.398438 25.714844 19.769531 26.644531 17.132812 26.644531 C 15.539062 26.644531 13.953125 26.351562 12.453125 25.8125 C 11.171875 25.347656 9.914062 24.382812 8.503906 24.480469 C 7.089844 24.578125 6.246094 25.703125 5.234375 26.539062 C 4.019531 27.542969 2.585938 28.140625 1.042969 28.445312 L 2.652344 30.046875 C 3.128906 27.621094 3.605469 25.195312 4.074219 22.777344 C 4.398438 21.144531 1.878906 20.449219 1.566406 22.085938 C 1.085938 24.511719 0.609375 26.9375 0.144531 29.355469 C -0.0507812 30.359375 0.730469 31.152344 1.75 30.957031 C 3.246094 30.652344 4.714844 30.089844 5.984375 29.222656 C 6.546875 28.84375 7.070312 28.410156 7.570312 27.945312 C 8.425781 27.15625 8.65625 26.949219 9.75 27.445312 C 12.8125 28.824219 15.984375 29.582031 19.347656 29.0625 C 25.730469 28.066406 29.988281 22.726562 29.945312 16.355469 C 29.902344 9.988281 26.707031 3.941406 20.921875 1.34375 C 15.441406 -1.125 9.089844 -0.152344 4.671875 3.933594 C -0.488281 8.6875 -1.378906 16.582031 2.269531 22.496094 C 3.148438 23.917969 5.398438 22.617188 4.519531 21.1875 Z M 4.519531 21.1875 "/>
<path style=" stroke:none;fill-rule:nonzero;fill:rgb(100%,100%,100%);fill-opacity:1;" d="M 9.445312 10.105469 C 9.882812 10.636719 10.195312 11.253906 10.402344 11.894531 L 12.78125 10.898438 C 12.238281 10.039062 11.488281 8.761719 10.445312 8.4375 C 9.066406 8.003906 8.078125 9.261719 8.023438 10.507812 C 7.9375 12.304688 8.535156 14.210938 9.414062 15.769531 C 10.292969 17.332031 11.660156 18.78125 13.246094 19.757812 C 14.105469 20.277344 15.058594 20.65625 16.027344 20.9375 C 17.113281 21.25 18.359375 21.652344 19.5 21.621094 C 20.792969 21.585938 22.3125 20.765625 22.386719 19.335938 C 22.476562 17.773438 20.660156 17.320312 19.53125 16.777344 L 18.535156 19.148438 C 19.292969 19.257812 19.96875 19.496094 20.542969 20.007812 C 21.789062 21.121094 23.636719 19.28125 22.386719 18.164062 C 21.496094 17.363281 20.421875 16.800781 19.230469 16.636719 C 18.589844 16.550781 17.957031 16.734375 17.6875 17.382812 C 17.460938 17.9375 17.621094 18.726562 18.21875 19.007812 C 18.566406 19.171875 18.914062 19.34375 19.261719 19.507812 C 19.511719 19.625 19.933594 19.722656 20.128906 19.917969 L 19.792969 19.34375 C 19.511719 18.457031 20.195312 18.890625 19.75 18.964844 C 19.671875 18.976562 19.597656 19 19.523438 19.007812 C 19.175781 19.042969 18.816406 18.933594 18.492188 18.859375 C 17.742188 18.683594 17.003906 18.511719 16.277344 18.285156 C 15.101562 17.90625 14.050781 17.277344 13.160156 16.410156 C 12.335938 15.609375 11.660156 14.644531 11.226562 13.582031 C 11.011719 13.042969 10.847656 12.46875 10.738281 11.894531 C 10.695312 11.664062 10.664062 11.425781 10.652344 11.199219 C 10.640625 11.027344 10.652344 10.84375 10.628906 10.667969 C 10.585938 10.332031 10.769531 10.625 10.445312 10.800781 L 9.785156 10.972656 C 9.589844 10.992188 9.273438 10.59375 9.621094 10.984375 C 9.738281 11.113281 9.859375 11.253906 9.96875 11.394531 C 10.164062 11.65625 10.347656 11.925781 10.523438 12.195312 C 11.28125 13.398438 13.375 12.652344 12.898438 11.199219 C 12.539062 10.09375 12.007812 9.164062 11.28125 8.265625 C 10.835938 7.722656 9.902344 7.796875 9.4375 8.265625 C 8.894531 8.804688 8.992188 9.554688 9.4375 10.105469 Z M 9.445312 10.105469 "/>
</g>
</svg>
